G04 #@! TF.GenerationSoftware,KiCad,Pcbnew,8.0.5*
G04 #@! TF.CreationDate,2024-11-14T23:48:55-08:00*
G04 #@! TF.ProjectId,PCB,5043422e-6b69-4636-9164-5f7063625858,rev?*
G04 #@! TF.SameCoordinates,Original*
G04 #@! TF.FileFunction,Legend,Top*
G04 #@! TF.FilePolarity,Positive*
%FSLAX46Y46*%
G04 Gerber Fmt 4.6, Leading zero omitted, Abs format (unit mm)*
G04 Created by KiCad (PCBNEW 8.0.5) date 2024-11-14 23:48:55*
%MOMM*%
%LPD*%
G01*
G04 APERTURE LIST*
%ADD10C,0.150000*%
%ADD11C,0.100000*%
%ADD12C,0.120000*%
%ADD13C,0.127000*%
%ADD14C,1.600000*%
%ADD15O,1.600000X1.600000*%
%ADD16R,1.524000X1.524000*%
%ADD17C,1.524000*%
%ADD18R,1.270000X1.270000*%
%ADD19C,1.270000*%
%ADD20R,1.700000X1.700000*%
%ADD21O,1.700000X1.700000*%
G04 APERTURE END LIST*
D10*
X93994819Y-80970952D02*
X93994819Y-80399524D01*
X94994819Y-80685238D02*
X93994819Y-80685238D01*
X94947200Y-79685238D02*
X94994819Y-79780476D01*
X94994819Y-79780476D02*
X94994819Y-79970952D01*
X94994819Y-79970952D02*
X94947200Y-80066190D01*
X94947200Y-80066190D02*
X94851961Y-80113809D01*
X94851961Y-80113809D02*
X94471009Y-80113809D01*
X94471009Y-80113809D02*
X94375771Y-80066190D01*
X94375771Y-80066190D02*
X94328152Y-79970952D01*
X94328152Y-79970952D02*
X94328152Y-79780476D01*
X94328152Y-79780476D02*
X94375771Y-79685238D01*
X94375771Y-79685238D02*
X94471009Y-79637619D01*
X94471009Y-79637619D02*
X94566247Y-79637619D01*
X94566247Y-79637619D02*
X94661485Y-80113809D01*
X94947200Y-78828095D02*
X94994819Y-78923333D01*
X94994819Y-78923333D02*
X94994819Y-79113809D01*
X94994819Y-79113809D02*
X94947200Y-79209047D01*
X94947200Y-79209047D02*
X94851961Y-79256666D01*
X94851961Y-79256666D02*
X94471009Y-79256666D01*
X94471009Y-79256666D02*
X94375771Y-79209047D01*
X94375771Y-79209047D02*
X94328152Y-79113809D01*
X94328152Y-79113809D02*
X94328152Y-78923333D01*
X94328152Y-78923333D02*
X94375771Y-78828095D01*
X94375771Y-78828095D02*
X94471009Y-78780476D01*
X94471009Y-78780476D02*
X94566247Y-78780476D01*
X94566247Y-78780476D02*
X94661485Y-79256666D01*
X94328152Y-78351904D02*
X94994819Y-78351904D01*
X94423390Y-78351904D02*
X94375771Y-78304285D01*
X94375771Y-78304285D02*
X94328152Y-78209047D01*
X94328152Y-78209047D02*
X94328152Y-78066190D01*
X94328152Y-78066190D02*
X94375771Y-77970952D01*
X94375771Y-77970952D02*
X94471009Y-77923333D01*
X94471009Y-77923333D02*
X94994819Y-77923333D01*
X94947200Y-77494761D02*
X94994819Y-77399523D01*
X94994819Y-77399523D02*
X94994819Y-77209047D01*
X94994819Y-77209047D02*
X94947200Y-77113809D01*
X94947200Y-77113809D02*
X94851961Y-77066190D01*
X94851961Y-77066190D02*
X94804342Y-77066190D01*
X94804342Y-77066190D02*
X94709104Y-77113809D01*
X94709104Y-77113809D02*
X94661485Y-77209047D01*
X94661485Y-77209047D02*
X94661485Y-77351904D01*
X94661485Y-77351904D02*
X94613866Y-77447142D01*
X94613866Y-77447142D02*
X94518628Y-77494761D01*
X94518628Y-77494761D02*
X94471009Y-77494761D01*
X94471009Y-77494761D02*
X94375771Y-77447142D01*
X94375771Y-77447142D02*
X94328152Y-77351904D01*
X94328152Y-77351904D02*
X94328152Y-77209047D01*
X94328152Y-77209047D02*
X94375771Y-77113809D01*
X94328152Y-76732856D02*
X94994819Y-76494761D01*
X94328152Y-76256666D02*
X94994819Y-76494761D01*
X94994819Y-76494761D02*
X95232914Y-76589999D01*
X95232914Y-76589999D02*
X95280533Y-76637618D01*
X95280533Y-76637618D02*
X95328152Y-76732856D01*
X95124819Y-107006666D02*
X94648628Y-107339999D01*
X95124819Y-107578094D02*
X94124819Y-107578094D01*
X94124819Y-107578094D02*
X94124819Y-107197142D01*
X94124819Y-107197142D02*
X94172438Y-107101904D01*
X94172438Y-107101904D02*
X94220057Y-107054285D01*
X94220057Y-107054285D02*
X94315295Y-107006666D01*
X94315295Y-107006666D02*
X94458152Y-107006666D01*
X94458152Y-107006666D02*
X94553390Y-107054285D01*
X94553390Y-107054285D02*
X94601009Y-107101904D01*
X94601009Y-107101904D02*
X94648628Y-107197142D01*
X94648628Y-107197142D02*
X94648628Y-107578094D01*
X95124819Y-106054285D02*
X95124819Y-106625713D01*
X95124819Y-106339999D02*
X94124819Y-106339999D01*
X94124819Y-106339999D02*
X94267676Y-106435237D01*
X94267676Y-106435237D02*
X94362914Y-106530475D01*
X94362914Y-106530475D02*
X94410533Y-106625713D01*
D11*
X111433609Y-69728571D02*
X111481228Y-69585714D01*
X111481228Y-69585714D02*
X111528847Y-69538095D01*
X111528847Y-69538095D02*
X111624085Y-69490476D01*
X111624085Y-69490476D02*
X111766942Y-69490476D01*
X111766942Y-69490476D02*
X111862180Y-69538095D01*
X111862180Y-69538095D02*
X111909800Y-69585714D01*
X111909800Y-69585714D02*
X111957419Y-69680952D01*
X111957419Y-69680952D02*
X111957419Y-70061904D01*
X111957419Y-70061904D02*
X110957419Y-70061904D01*
X110957419Y-70061904D02*
X110957419Y-69728571D01*
X110957419Y-69728571D02*
X111005038Y-69633333D01*
X111005038Y-69633333D02*
X111052657Y-69585714D01*
X111052657Y-69585714D02*
X111147895Y-69538095D01*
X111147895Y-69538095D02*
X111243133Y-69538095D01*
X111243133Y-69538095D02*
X111338371Y-69585714D01*
X111338371Y-69585714D02*
X111385990Y-69633333D01*
X111385990Y-69633333D02*
X111433609Y-69728571D01*
X111433609Y-69728571D02*
X111433609Y-70061904D01*
X111290752Y-68633333D02*
X111957419Y-68633333D01*
X111290752Y-69061904D02*
X111814561Y-69061904D01*
X111814561Y-69061904D02*
X111909800Y-69014285D01*
X111909800Y-69014285D02*
X111957419Y-68919047D01*
X111957419Y-68919047D02*
X111957419Y-68776190D01*
X111957419Y-68776190D02*
X111909800Y-68680952D01*
X111909800Y-68680952D02*
X111862180Y-68633333D01*
X111290752Y-68252380D02*
X111290752Y-67728571D01*
X111290752Y-67728571D02*
X111957419Y-68252380D01*
X111957419Y-68252380D02*
X111957419Y-67728571D01*
X111290752Y-67442856D02*
X111290752Y-66919047D01*
X111290752Y-66919047D02*
X111957419Y-67442856D01*
X111957419Y-67442856D02*
X111957419Y-66919047D01*
X111909800Y-66157142D02*
X111957419Y-66252380D01*
X111957419Y-66252380D02*
X111957419Y-66442856D01*
X111957419Y-66442856D02*
X111909800Y-66538094D01*
X111909800Y-66538094D02*
X111814561Y-66585713D01*
X111814561Y-66585713D02*
X111433609Y-66585713D01*
X111433609Y-66585713D02*
X111338371Y-66538094D01*
X111338371Y-66538094D02*
X111290752Y-66442856D01*
X111290752Y-66442856D02*
X111290752Y-66252380D01*
X111290752Y-66252380D02*
X111338371Y-66157142D01*
X111338371Y-66157142D02*
X111433609Y-66109523D01*
X111433609Y-66109523D02*
X111528847Y-66109523D01*
X111528847Y-66109523D02*
X111624085Y-66585713D01*
X111957419Y-65680951D02*
X111290752Y-65680951D01*
X111481228Y-65680951D02*
X111385990Y-65633332D01*
X111385990Y-65633332D02*
X111338371Y-65585713D01*
X111338371Y-65585713D02*
X111290752Y-65490475D01*
X111290752Y-65490475D02*
X111290752Y-65395237D01*
X72418580Y-64805857D02*
X73418580Y-64805857D01*
X72942390Y-64805857D02*
X72942390Y-65377285D01*
X72418580Y-65377285D02*
X73418580Y-65377285D01*
X72513819Y-66424904D02*
X72466200Y-66377285D01*
X72466200Y-66377285D02*
X72418580Y-66234428D01*
X72418580Y-66234428D02*
X72418580Y-66139190D01*
X72418580Y-66139190D02*
X72466200Y-65996333D01*
X72466200Y-65996333D02*
X72561438Y-65901095D01*
X72561438Y-65901095D02*
X72656676Y-65853476D01*
X72656676Y-65853476D02*
X72847152Y-65805857D01*
X72847152Y-65805857D02*
X72990009Y-65805857D01*
X72990009Y-65805857D02*
X73180485Y-65853476D01*
X73180485Y-65853476D02*
X73275723Y-65901095D01*
X73275723Y-65901095D02*
X73370961Y-65996333D01*
X73370961Y-65996333D02*
X73418580Y-66139190D01*
X73418580Y-66139190D02*
X73418580Y-66234428D01*
X73418580Y-66234428D02*
X73370961Y-66377285D01*
X73370961Y-66377285D02*
X73323342Y-66424904D01*
X72799533Y-66853476D02*
X72799533Y-67615381D01*
X73418580Y-68282047D02*
X73418580Y-68377285D01*
X73418580Y-68377285D02*
X73370961Y-68472523D01*
X73370961Y-68472523D02*
X73323342Y-68520142D01*
X73323342Y-68520142D02*
X73228104Y-68567761D01*
X73228104Y-68567761D02*
X73037628Y-68615380D01*
X73037628Y-68615380D02*
X72799533Y-68615380D01*
X72799533Y-68615380D02*
X72609057Y-68567761D01*
X72609057Y-68567761D02*
X72513819Y-68520142D01*
X72513819Y-68520142D02*
X72466200Y-68472523D01*
X72466200Y-68472523D02*
X72418580Y-68377285D01*
X72418580Y-68377285D02*
X72418580Y-68282047D01*
X72418580Y-68282047D02*
X72466200Y-68186809D01*
X72466200Y-68186809D02*
X72513819Y-68139190D01*
X72513819Y-68139190D02*
X72609057Y-68091571D01*
X72609057Y-68091571D02*
X72799533Y-68043952D01*
X72799533Y-68043952D02*
X73037628Y-68043952D01*
X73037628Y-68043952D02*
X73228104Y-68091571D01*
X73228104Y-68091571D02*
X73323342Y-68139190D01*
X73323342Y-68139190D02*
X73370961Y-68186809D01*
X73370961Y-68186809D02*
X73418580Y-68282047D01*
X73418580Y-69472523D02*
X73418580Y-69282047D01*
X73418580Y-69282047D02*
X73370961Y-69186809D01*
X73370961Y-69186809D02*
X73323342Y-69139190D01*
X73323342Y-69139190D02*
X73180485Y-69043952D01*
X73180485Y-69043952D02*
X72990009Y-68996333D01*
X72990009Y-68996333D02*
X72609057Y-68996333D01*
X72609057Y-68996333D02*
X72513819Y-69043952D01*
X72513819Y-69043952D02*
X72466200Y-69091571D01*
X72466200Y-69091571D02*
X72418580Y-69186809D01*
X72418580Y-69186809D02*
X72418580Y-69377285D01*
X72418580Y-69377285D02*
X72466200Y-69472523D01*
X72466200Y-69472523D02*
X72513819Y-69520142D01*
X72513819Y-69520142D02*
X72609057Y-69567761D01*
X72609057Y-69567761D02*
X72847152Y-69567761D01*
X72847152Y-69567761D02*
X72942390Y-69520142D01*
X72942390Y-69520142D02*
X72990009Y-69472523D01*
X72990009Y-69472523D02*
X73037628Y-69377285D01*
X73037628Y-69377285D02*
X73037628Y-69186809D01*
X73037628Y-69186809D02*
X72990009Y-69091571D01*
X72990009Y-69091571D02*
X72942390Y-69043952D01*
X72942390Y-69043952D02*
X72847152Y-68996333D01*
X66351027Y-68067419D02*
X66922455Y-68067419D01*
X66636741Y-69067419D02*
X66636741Y-68067419D01*
X67160551Y-68067419D02*
X67827217Y-69067419D01*
X67827217Y-68067419D02*
X67160551Y-69067419D01*
X68208170Y-69067419D02*
X68208170Y-68067419D01*
X68208170Y-68067419D02*
X68446265Y-68067419D01*
X68446265Y-68067419D02*
X68589122Y-68115038D01*
X68589122Y-68115038D02*
X68684360Y-68210276D01*
X68684360Y-68210276D02*
X68731979Y-68305514D01*
X68731979Y-68305514D02*
X68779598Y-68495990D01*
X68779598Y-68495990D02*
X68779598Y-68638847D01*
X68779598Y-68638847D02*
X68731979Y-68829323D01*
X68731979Y-68829323D02*
X68684360Y-68924561D01*
X68684360Y-68924561D02*
X68589122Y-69019800D01*
X68589122Y-69019800D02*
X68446265Y-69067419D01*
X68446265Y-69067419D02*
X68208170Y-69067419D01*
X66351027Y-62987419D02*
X66684360Y-63987419D01*
X66684360Y-63987419D02*
X67017693Y-62987419D01*
X67922455Y-63892180D02*
X67874836Y-63939800D01*
X67874836Y-63939800D02*
X67731979Y-63987419D01*
X67731979Y-63987419D02*
X67636741Y-63987419D01*
X67636741Y-63987419D02*
X67493884Y-63939800D01*
X67493884Y-63939800D02*
X67398646Y-63844561D01*
X67398646Y-63844561D02*
X67351027Y-63749323D01*
X67351027Y-63749323D02*
X67303408Y-63558847D01*
X67303408Y-63558847D02*
X67303408Y-63415990D01*
X67303408Y-63415990D02*
X67351027Y-63225514D01*
X67351027Y-63225514D02*
X67398646Y-63130276D01*
X67398646Y-63130276D02*
X67493884Y-63035038D01*
X67493884Y-63035038D02*
X67636741Y-62987419D01*
X67636741Y-62987419D02*
X67731979Y-62987419D01*
X67731979Y-62987419D02*
X67874836Y-63035038D01*
X67874836Y-63035038D02*
X67922455Y-63082657D01*
X68922455Y-63892180D02*
X68874836Y-63939800D01*
X68874836Y-63939800D02*
X68731979Y-63987419D01*
X68731979Y-63987419D02*
X68636741Y-63987419D01*
X68636741Y-63987419D02*
X68493884Y-63939800D01*
X68493884Y-63939800D02*
X68398646Y-63844561D01*
X68398646Y-63844561D02*
X68351027Y-63749323D01*
X68351027Y-63749323D02*
X68303408Y-63558847D01*
X68303408Y-63558847D02*
X68303408Y-63415990D01*
X68303408Y-63415990D02*
X68351027Y-63225514D01*
X68351027Y-63225514D02*
X68398646Y-63130276D01*
X68398646Y-63130276D02*
X68493884Y-63035038D01*
X68493884Y-63035038D02*
X68636741Y-62987419D01*
X68636741Y-62987419D02*
X68731979Y-62987419D01*
X68731979Y-62987419D02*
X68874836Y-63035038D01*
X68874836Y-63035038D02*
X68922455Y-63082657D01*
X66938312Y-71607419D02*
X66604979Y-71131228D01*
X66366884Y-71607419D02*
X66366884Y-70607419D01*
X66366884Y-70607419D02*
X66747836Y-70607419D01*
X66747836Y-70607419D02*
X66843074Y-70655038D01*
X66843074Y-70655038D02*
X66890693Y-70702657D01*
X66890693Y-70702657D02*
X66938312Y-70797895D01*
X66938312Y-70797895D02*
X66938312Y-70940752D01*
X66938312Y-70940752D02*
X66890693Y-71035990D01*
X66890693Y-71035990D02*
X66843074Y-71083609D01*
X66843074Y-71083609D02*
X66747836Y-71131228D01*
X66747836Y-71131228D02*
X66366884Y-71131228D01*
X67271646Y-70607419D02*
X67938312Y-71607419D01*
X67938312Y-70607419D02*
X67271646Y-71607419D01*
X68319265Y-71607419D02*
X68319265Y-70607419D01*
X68319265Y-70607419D02*
X68557360Y-70607419D01*
X68557360Y-70607419D02*
X68700217Y-70655038D01*
X68700217Y-70655038D02*
X68795455Y-70750276D01*
X68795455Y-70750276D02*
X68843074Y-70845514D01*
X68843074Y-70845514D02*
X68890693Y-71035990D01*
X68890693Y-71035990D02*
X68890693Y-71178847D01*
X68890693Y-71178847D02*
X68843074Y-71369323D01*
X68843074Y-71369323D02*
X68795455Y-71464561D01*
X68795455Y-71464561D02*
X68700217Y-71559800D01*
X68700217Y-71559800D02*
X68557360Y-71607419D01*
X68557360Y-71607419D02*
X68319265Y-71607419D01*
X66890693Y-65575038D02*
X66795455Y-65527419D01*
X66795455Y-65527419D02*
X66652598Y-65527419D01*
X66652598Y-65527419D02*
X66509741Y-65575038D01*
X66509741Y-65575038D02*
X66414503Y-65670276D01*
X66414503Y-65670276D02*
X66366884Y-65765514D01*
X66366884Y-65765514D02*
X66319265Y-65955990D01*
X66319265Y-65955990D02*
X66319265Y-66098847D01*
X66319265Y-66098847D02*
X66366884Y-66289323D01*
X66366884Y-66289323D02*
X66414503Y-66384561D01*
X66414503Y-66384561D02*
X66509741Y-66479800D01*
X66509741Y-66479800D02*
X66652598Y-66527419D01*
X66652598Y-66527419D02*
X66747836Y-66527419D01*
X66747836Y-66527419D02*
X66890693Y-66479800D01*
X66890693Y-66479800D02*
X66938312Y-66432180D01*
X66938312Y-66432180D02*
X66938312Y-66098847D01*
X66938312Y-66098847D02*
X66747836Y-66098847D01*
X67366884Y-66527419D02*
X67366884Y-65527419D01*
X67366884Y-65527419D02*
X67938312Y-66527419D01*
X67938312Y-66527419D02*
X67938312Y-65527419D01*
X68414503Y-66527419D02*
X68414503Y-65527419D01*
X68414503Y-65527419D02*
X68652598Y-65527419D01*
X68652598Y-65527419D02*
X68795455Y-65575038D01*
X68795455Y-65575038D02*
X68890693Y-65670276D01*
X68890693Y-65670276D02*
X68938312Y-65765514D01*
X68938312Y-65765514D02*
X68985931Y-65955990D01*
X68985931Y-65955990D02*
X68985931Y-66098847D01*
X68985931Y-66098847D02*
X68938312Y-66289323D01*
X68938312Y-66289323D02*
X68890693Y-66384561D01*
X68890693Y-66384561D02*
X68795455Y-66479800D01*
X68795455Y-66479800D02*
X68652598Y-66527419D01*
X68652598Y-66527419D02*
X68414503Y-66527419D01*
D10*
X102524819Y-106966666D02*
X102048628Y-107299999D01*
X102524819Y-107538094D02*
X101524819Y-107538094D01*
X101524819Y-107538094D02*
X101524819Y-107157142D01*
X101524819Y-107157142D02*
X101572438Y-107061904D01*
X101572438Y-107061904D02*
X101620057Y-107014285D01*
X101620057Y-107014285D02*
X101715295Y-106966666D01*
X101715295Y-106966666D02*
X101858152Y-106966666D01*
X101858152Y-106966666D02*
X101953390Y-107014285D01*
X101953390Y-107014285D02*
X102001009Y-107061904D01*
X102001009Y-107061904D02*
X102048628Y-107157142D01*
X102048628Y-107157142D02*
X102048628Y-107538094D01*
X101524819Y-106633332D02*
X101524819Y-106014285D01*
X101524819Y-106014285D02*
X101905771Y-106347618D01*
X101905771Y-106347618D02*
X101905771Y-106204761D01*
X101905771Y-106204761D02*
X101953390Y-106109523D01*
X101953390Y-106109523D02*
X102001009Y-106061904D01*
X102001009Y-106061904D02*
X102096247Y-106014285D01*
X102096247Y-106014285D02*
X102334342Y-106014285D01*
X102334342Y-106014285D02*
X102429580Y-106061904D01*
X102429580Y-106061904D02*
X102477200Y-106109523D01*
X102477200Y-106109523D02*
X102524819Y-106204761D01*
X102524819Y-106204761D02*
X102524819Y-106490475D01*
X102524819Y-106490475D02*
X102477200Y-106585713D01*
X102477200Y-106585713D02*
X102429580Y-106633332D01*
X69685714Y-124954819D02*
X69209524Y-124954819D01*
X69209524Y-124954819D02*
X69209524Y-123954819D01*
X70019048Y-124954819D02*
X70019048Y-123954819D01*
X70495238Y-124954819D02*
X70495238Y-123954819D01*
X70495238Y-123954819D02*
X70733333Y-123954819D01*
X70733333Y-123954819D02*
X70876190Y-124002438D01*
X70876190Y-124002438D02*
X70971428Y-124097676D01*
X70971428Y-124097676D02*
X71019047Y-124192914D01*
X71019047Y-124192914D02*
X71066666Y-124383390D01*
X71066666Y-124383390D02*
X71066666Y-124526247D01*
X71066666Y-124526247D02*
X71019047Y-124716723D01*
X71019047Y-124716723D02*
X70971428Y-124811961D01*
X70971428Y-124811961D02*
X70876190Y-124907200D01*
X70876190Y-124907200D02*
X70733333Y-124954819D01*
X70733333Y-124954819D02*
X70495238Y-124954819D01*
X71447619Y-124669104D02*
X71923809Y-124669104D01*
X71352381Y-124954819D02*
X71685714Y-123954819D01*
X71685714Y-123954819D02*
X72019047Y-124954819D01*
X72923809Y-124954819D02*
X72590476Y-124478628D01*
X72352381Y-124954819D02*
X72352381Y-123954819D01*
X72352381Y-123954819D02*
X72733333Y-123954819D01*
X72733333Y-123954819D02*
X72828571Y-124002438D01*
X72828571Y-124002438D02*
X72876190Y-124050057D01*
X72876190Y-124050057D02*
X72923809Y-124145295D01*
X72923809Y-124145295D02*
X72923809Y-124288152D01*
X72923809Y-124288152D02*
X72876190Y-124383390D01*
X72876190Y-124383390D02*
X72828571Y-124431009D01*
X72828571Y-124431009D02*
X72733333Y-124478628D01*
X72733333Y-124478628D02*
X72352381Y-124478628D01*
X73114286Y-125050057D02*
X73876190Y-125050057D01*
X74019048Y-123954819D02*
X74638095Y-123954819D01*
X74638095Y-123954819D02*
X74304762Y-124335771D01*
X74304762Y-124335771D02*
X74447619Y-124335771D01*
X74447619Y-124335771D02*
X74542857Y-124383390D01*
X74542857Y-124383390D02*
X74590476Y-124431009D01*
X74590476Y-124431009D02*
X74638095Y-124526247D01*
X74638095Y-124526247D02*
X74638095Y-124764342D01*
X74638095Y-124764342D02*
X74590476Y-124859580D01*
X74590476Y-124859580D02*
X74542857Y-124907200D01*
X74542857Y-124907200D02*
X74447619Y-124954819D01*
X74447619Y-124954819D02*
X74161905Y-124954819D01*
X74161905Y-124954819D02*
X74066667Y-124907200D01*
X74066667Y-124907200D02*
X74019048Y-124859580D01*
X109624819Y-106966666D02*
X109148628Y-107299999D01*
X109624819Y-107538094D02*
X108624819Y-107538094D01*
X108624819Y-107538094D02*
X108624819Y-107157142D01*
X108624819Y-107157142D02*
X108672438Y-107061904D01*
X108672438Y-107061904D02*
X108720057Y-107014285D01*
X108720057Y-107014285D02*
X108815295Y-106966666D01*
X108815295Y-106966666D02*
X108958152Y-106966666D01*
X108958152Y-106966666D02*
X109053390Y-107014285D01*
X109053390Y-107014285D02*
X109101009Y-107061904D01*
X109101009Y-107061904D02*
X109148628Y-107157142D01*
X109148628Y-107157142D02*
X109148628Y-107538094D01*
X108958152Y-106109523D02*
X109624819Y-106109523D01*
X108577200Y-106347618D02*
X109291485Y-106585713D01*
X109291485Y-106585713D02*
X109291485Y-105966666D01*
X94464819Y-119633333D02*
X95179104Y-119633333D01*
X95179104Y-119633333D02*
X95321961Y-119680952D01*
X95321961Y-119680952D02*
X95417200Y-119776190D01*
X95417200Y-119776190D02*
X95464819Y-119919047D01*
X95464819Y-119919047D02*
X95464819Y-120014285D01*
X94798152Y-118728571D02*
X95464819Y-118728571D01*
X94417200Y-118966666D02*
X95131485Y-119204761D01*
X95131485Y-119204761D02*
X95131485Y-118585714D01*
X88124819Y-106966666D02*
X87648628Y-107299999D01*
X88124819Y-107538094D02*
X87124819Y-107538094D01*
X87124819Y-107538094D02*
X87124819Y-107157142D01*
X87124819Y-107157142D02*
X87172438Y-107061904D01*
X87172438Y-107061904D02*
X87220057Y-107014285D01*
X87220057Y-107014285D02*
X87315295Y-106966666D01*
X87315295Y-106966666D02*
X87458152Y-106966666D01*
X87458152Y-106966666D02*
X87553390Y-107014285D01*
X87553390Y-107014285D02*
X87601009Y-107061904D01*
X87601009Y-107061904D02*
X87648628Y-107157142D01*
X87648628Y-107157142D02*
X87648628Y-107538094D01*
X87220057Y-106585713D02*
X87172438Y-106538094D01*
X87172438Y-106538094D02*
X87124819Y-106442856D01*
X87124819Y-106442856D02*
X87124819Y-106204761D01*
X87124819Y-106204761D02*
X87172438Y-106109523D01*
X87172438Y-106109523D02*
X87220057Y-106061904D01*
X87220057Y-106061904D02*
X87315295Y-106014285D01*
X87315295Y-106014285D02*
X87410533Y-106014285D01*
X87410533Y-106014285D02*
X87553390Y-106061904D01*
X87553390Y-106061904D02*
X88124819Y-106633332D01*
X88124819Y-106633332D02*
X88124819Y-106014285D01*
D11*
X102138095Y-98057419D02*
X102138095Y-97057419D01*
X102138095Y-97057419D02*
X102471428Y-97771704D01*
X102471428Y-97771704D02*
X102804761Y-97057419D01*
X102804761Y-97057419D02*
X102804761Y-98057419D01*
X103280952Y-98057419D02*
X103280952Y-97057419D01*
X103280952Y-97057419D02*
X103661904Y-97057419D01*
X103661904Y-97057419D02*
X103757142Y-97105038D01*
X103757142Y-97105038D02*
X103804761Y-97152657D01*
X103804761Y-97152657D02*
X103852380Y-97247895D01*
X103852380Y-97247895D02*
X103852380Y-97390752D01*
X103852380Y-97390752D02*
X103804761Y-97485990D01*
X103804761Y-97485990D02*
X103757142Y-97533609D01*
X103757142Y-97533609D02*
X103661904Y-97581228D01*
X103661904Y-97581228D02*
X103280952Y-97581228D01*
X104280952Y-97057419D02*
X104280952Y-97866942D01*
X104280952Y-97866942D02*
X104328571Y-97962180D01*
X104328571Y-97962180D02*
X104376190Y-98009800D01*
X104376190Y-98009800D02*
X104471428Y-98057419D01*
X104471428Y-98057419D02*
X104661904Y-98057419D01*
X104661904Y-98057419D02*
X104757142Y-98009800D01*
X104757142Y-98009800D02*
X104804761Y-97962180D01*
X104804761Y-97962180D02*
X104852380Y-97866942D01*
X104852380Y-97866942D02*
X104852380Y-97057419D01*
X105757142Y-97057419D02*
X105566666Y-97057419D01*
X105566666Y-97057419D02*
X105471428Y-97105038D01*
X105471428Y-97105038D02*
X105423809Y-97152657D01*
X105423809Y-97152657D02*
X105328571Y-97295514D01*
X105328571Y-97295514D02*
X105280952Y-97485990D01*
X105280952Y-97485990D02*
X105280952Y-97866942D01*
X105280952Y-97866942D02*
X105328571Y-97962180D01*
X105328571Y-97962180D02*
X105376190Y-98009800D01*
X105376190Y-98009800D02*
X105471428Y-98057419D01*
X105471428Y-98057419D02*
X105661904Y-98057419D01*
X105661904Y-98057419D02*
X105757142Y-98009800D01*
X105757142Y-98009800D02*
X105804761Y-97962180D01*
X105804761Y-97962180D02*
X105852380Y-97866942D01*
X105852380Y-97866942D02*
X105852380Y-97628847D01*
X105852380Y-97628847D02*
X105804761Y-97533609D01*
X105804761Y-97533609D02*
X105757142Y-97485990D01*
X105757142Y-97485990D02*
X105661904Y-97438371D01*
X105661904Y-97438371D02*
X105471428Y-97438371D01*
X105471428Y-97438371D02*
X105376190Y-97485990D01*
X105376190Y-97485990D02*
X105328571Y-97533609D01*
X105328571Y-97533609D02*
X105280952Y-97628847D01*
X106471428Y-97057419D02*
X106566666Y-97057419D01*
X106566666Y-97057419D02*
X106661904Y-97105038D01*
X106661904Y-97105038D02*
X106709523Y-97152657D01*
X106709523Y-97152657D02*
X106757142Y-97247895D01*
X106757142Y-97247895D02*
X106804761Y-97438371D01*
X106804761Y-97438371D02*
X106804761Y-97676466D01*
X106804761Y-97676466D02*
X106757142Y-97866942D01*
X106757142Y-97866942D02*
X106709523Y-97962180D01*
X106709523Y-97962180D02*
X106661904Y-98009800D01*
X106661904Y-98009800D02*
X106566666Y-98057419D01*
X106566666Y-98057419D02*
X106471428Y-98057419D01*
X106471428Y-98057419D02*
X106376190Y-98009800D01*
X106376190Y-98009800D02*
X106328571Y-97962180D01*
X106328571Y-97962180D02*
X106280952Y-97866942D01*
X106280952Y-97866942D02*
X106233333Y-97676466D01*
X106233333Y-97676466D02*
X106233333Y-97438371D01*
X106233333Y-97438371D02*
X106280952Y-97247895D01*
X106280952Y-97247895D02*
X106328571Y-97152657D01*
X106328571Y-97152657D02*
X106376190Y-97105038D01*
X106376190Y-97105038D02*
X106471428Y-97057419D01*
X107709523Y-97057419D02*
X107233333Y-97057419D01*
X107233333Y-97057419D02*
X107185714Y-97533609D01*
X107185714Y-97533609D02*
X107233333Y-97485990D01*
X107233333Y-97485990D02*
X107328571Y-97438371D01*
X107328571Y-97438371D02*
X107566666Y-97438371D01*
X107566666Y-97438371D02*
X107661904Y-97485990D01*
X107661904Y-97485990D02*
X107709523Y-97533609D01*
X107709523Y-97533609D02*
X107757142Y-97628847D01*
X107757142Y-97628847D02*
X107757142Y-97866942D01*
X107757142Y-97866942D02*
X107709523Y-97962180D01*
X107709523Y-97962180D02*
X107661904Y-98009800D01*
X107661904Y-98009800D02*
X107566666Y-98057419D01*
X107566666Y-98057419D02*
X107328571Y-98057419D01*
X107328571Y-98057419D02*
X107233333Y-98009800D01*
X107233333Y-98009800D02*
X107185714Y-97962180D01*
X108376190Y-97057419D02*
X108471428Y-97057419D01*
X108471428Y-97057419D02*
X108566666Y-97105038D01*
X108566666Y-97105038D02*
X108614285Y-97152657D01*
X108614285Y-97152657D02*
X108661904Y-97247895D01*
X108661904Y-97247895D02*
X108709523Y-97438371D01*
X108709523Y-97438371D02*
X108709523Y-97676466D01*
X108709523Y-97676466D02*
X108661904Y-97866942D01*
X108661904Y-97866942D02*
X108614285Y-97962180D01*
X108614285Y-97962180D02*
X108566666Y-98009800D01*
X108566666Y-98009800D02*
X108471428Y-98057419D01*
X108471428Y-98057419D02*
X108376190Y-98057419D01*
X108376190Y-98057419D02*
X108280952Y-98009800D01*
X108280952Y-98009800D02*
X108233333Y-97962180D01*
X108233333Y-97962180D02*
X108185714Y-97866942D01*
X108185714Y-97866942D02*
X108138095Y-97676466D01*
X108138095Y-97676466D02*
X108138095Y-97438371D01*
X108138095Y-97438371D02*
X108185714Y-97247895D01*
X108185714Y-97247895D02*
X108233333Y-97152657D01*
X108233333Y-97152657D02*
X108280952Y-97105038D01*
X108280952Y-97105038D02*
X108376190Y-97057419D01*
X99768586Y-87033494D02*
X100435252Y-88033494D01*
X100435252Y-87033494D02*
X99768586Y-88033494D01*
X100816205Y-88033494D02*
X100816205Y-87033494D01*
X100816205Y-87033494D02*
X101054300Y-87033494D01*
X101054300Y-87033494D02*
X101197157Y-87081113D01*
X101197157Y-87081113D02*
X101292395Y-87176351D01*
X101292395Y-87176351D02*
X101340014Y-87271589D01*
X101340014Y-87271589D02*
X101387633Y-87462065D01*
X101387633Y-87462065D02*
X101387633Y-87604922D01*
X101387633Y-87604922D02*
X101340014Y-87795398D01*
X101340014Y-87795398D02*
X101292395Y-87890636D01*
X101292395Y-87890636D02*
X101197157Y-87985875D01*
X101197157Y-87985875D02*
X101054300Y-88033494D01*
X101054300Y-88033494D02*
X100816205Y-88033494D01*
X101768586Y-87747779D02*
X102244776Y-87747779D01*
X101673348Y-88033494D02*
X102006681Y-87033494D01*
X102006681Y-87033494D02*
X102340014Y-88033494D01*
X99816205Y-82905875D02*
X99959062Y-82953494D01*
X99959062Y-82953494D02*
X100197157Y-82953494D01*
X100197157Y-82953494D02*
X100292395Y-82905875D01*
X100292395Y-82905875D02*
X100340014Y-82858255D01*
X100340014Y-82858255D02*
X100387633Y-82763017D01*
X100387633Y-82763017D02*
X100387633Y-82667779D01*
X100387633Y-82667779D02*
X100340014Y-82572541D01*
X100340014Y-82572541D02*
X100292395Y-82524922D01*
X100292395Y-82524922D02*
X100197157Y-82477303D01*
X100197157Y-82477303D02*
X100006681Y-82429684D01*
X100006681Y-82429684D02*
X99911443Y-82382065D01*
X99911443Y-82382065D02*
X99863824Y-82334446D01*
X99863824Y-82334446D02*
X99816205Y-82239208D01*
X99816205Y-82239208D02*
X99816205Y-82143970D01*
X99816205Y-82143970D02*
X99863824Y-82048732D01*
X99863824Y-82048732D02*
X99911443Y-82001113D01*
X99911443Y-82001113D02*
X100006681Y-81953494D01*
X100006681Y-81953494D02*
X100244776Y-81953494D01*
X100244776Y-81953494D02*
X100387633Y-82001113D01*
X101387633Y-82858255D02*
X101340014Y-82905875D01*
X101340014Y-82905875D02*
X101197157Y-82953494D01*
X101197157Y-82953494D02*
X101101919Y-82953494D01*
X101101919Y-82953494D02*
X100959062Y-82905875D01*
X100959062Y-82905875D02*
X100863824Y-82810636D01*
X100863824Y-82810636D02*
X100816205Y-82715398D01*
X100816205Y-82715398D02*
X100768586Y-82524922D01*
X100768586Y-82524922D02*
X100768586Y-82382065D01*
X100768586Y-82382065D02*
X100816205Y-82191589D01*
X100816205Y-82191589D02*
X100863824Y-82096351D01*
X100863824Y-82096351D02*
X100959062Y-82001113D01*
X100959062Y-82001113D02*
X101101919Y-81953494D01*
X101101919Y-81953494D02*
X101197157Y-81953494D01*
X101197157Y-81953494D02*
X101340014Y-82001113D01*
X101340014Y-82001113D02*
X101387633Y-82048732D01*
X102292395Y-82953494D02*
X101816205Y-82953494D01*
X101816205Y-82953494D02*
X101816205Y-81953494D01*
X100387633Y-79334113D02*
X100292395Y-79286494D01*
X100292395Y-79286494D02*
X100149538Y-79286494D01*
X100149538Y-79286494D02*
X100006681Y-79334113D01*
X100006681Y-79334113D02*
X99911443Y-79429351D01*
X99911443Y-79429351D02*
X99863824Y-79524589D01*
X99863824Y-79524589D02*
X99816205Y-79715065D01*
X99816205Y-79715065D02*
X99816205Y-79857922D01*
X99816205Y-79857922D02*
X99863824Y-80048398D01*
X99863824Y-80048398D02*
X99911443Y-80143636D01*
X99911443Y-80143636D02*
X100006681Y-80238875D01*
X100006681Y-80238875D02*
X100149538Y-80286494D01*
X100149538Y-80286494D02*
X100244776Y-80286494D01*
X100244776Y-80286494D02*
X100387633Y-80238875D01*
X100387633Y-80238875D02*
X100435252Y-80191255D01*
X100435252Y-80191255D02*
X100435252Y-79857922D01*
X100435252Y-79857922D02*
X100244776Y-79857922D01*
X100863824Y-80286494D02*
X100863824Y-79286494D01*
X100863824Y-79286494D02*
X101435252Y-80286494D01*
X101435252Y-80286494D02*
X101435252Y-79286494D01*
X101911443Y-80286494D02*
X101911443Y-79286494D01*
X101911443Y-79286494D02*
X102149538Y-79286494D01*
X102149538Y-79286494D02*
X102292395Y-79334113D01*
X102292395Y-79334113D02*
X102387633Y-79429351D01*
X102387633Y-79429351D02*
X102435252Y-79524589D01*
X102435252Y-79524589D02*
X102482871Y-79715065D01*
X102482871Y-79715065D02*
X102482871Y-79857922D01*
X102482871Y-79857922D02*
X102435252Y-80048398D01*
X102435252Y-80048398D02*
X102387633Y-80143636D01*
X102387633Y-80143636D02*
X102292395Y-80238875D01*
X102292395Y-80238875D02*
X102149538Y-80286494D01*
X102149538Y-80286494D02*
X101911443Y-80286494D01*
X99720967Y-76746494D02*
X100054300Y-77746494D01*
X100054300Y-77746494D02*
X100387633Y-76746494D01*
X101292395Y-77651255D02*
X101244776Y-77698875D01*
X101244776Y-77698875D02*
X101101919Y-77746494D01*
X101101919Y-77746494D02*
X101006681Y-77746494D01*
X101006681Y-77746494D02*
X100863824Y-77698875D01*
X100863824Y-77698875D02*
X100768586Y-77603636D01*
X100768586Y-77603636D02*
X100720967Y-77508398D01*
X100720967Y-77508398D02*
X100673348Y-77317922D01*
X100673348Y-77317922D02*
X100673348Y-77175065D01*
X100673348Y-77175065D02*
X100720967Y-76984589D01*
X100720967Y-76984589D02*
X100768586Y-76889351D01*
X100768586Y-76889351D02*
X100863824Y-76794113D01*
X100863824Y-76794113D02*
X101006681Y-76746494D01*
X101006681Y-76746494D02*
X101101919Y-76746494D01*
X101101919Y-76746494D02*
X101244776Y-76794113D01*
X101244776Y-76794113D02*
X101292395Y-76841732D01*
X102292395Y-77651255D02*
X102244776Y-77698875D01*
X102244776Y-77698875D02*
X102101919Y-77746494D01*
X102101919Y-77746494D02*
X102006681Y-77746494D01*
X102006681Y-77746494D02*
X101863824Y-77698875D01*
X101863824Y-77698875D02*
X101768586Y-77603636D01*
X101768586Y-77603636D02*
X101720967Y-77508398D01*
X101720967Y-77508398D02*
X101673348Y-77317922D01*
X101673348Y-77317922D02*
X101673348Y-77175065D01*
X101673348Y-77175065D02*
X101720967Y-76984589D01*
X101720967Y-76984589D02*
X101768586Y-76889351D01*
X101768586Y-76889351D02*
X101863824Y-76794113D01*
X101863824Y-76794113D02*
X102006681Y-76746494D01*
X102006681Y-76746494D02*
X102101919Y-76746494D01*
X102101919Y-76746494D02*
X102244776Y-76794113D01*
X102244776Y-76794113D02*
X102292395Y-76841732D01*
X99768586Y-89573494D02*
X100435252Y-90573494D01*
X100435252Y-89573494D02*
X99768586Y-90573494D01*
X101387633Y-90478255D02*
X101340014Y-90525875D01*
X101340014Y-90525875D02*
X101197157Y-90573494D01*
X101197157Y-90573494D02*
X101101919Y-90573494D01*
X101101919Y-90573494D02*
X100959062Y-90525875D01*
X100959062Y-90525875D02*
X100863824Y-90430636D01*
X100863824Y-90430636D02*
X100816205Y-90335398D01*
X100816205Y-90335398D02*
X100768586Y-90144922D01*
X100768586Y-90144922D02*
X100768586Y-90002065D01*
X100768586Y-90002065D02*
X100816205Y-89811589D01*
X100816205Y-89811589D02*
X100863824Y-89716351D01*
X100863824Y-89716351D02*
X100959062Y-89621113D01*
X100959062Y-89621113D02*
X101101919Y-89573494D01*
X101101919Y-89573494D02*
X101197157Y-89573494D01*
X101197157Y-89573494D02*
X101340014Y-89621113D01*
X101340014Y-89621113D02*
X101387633Y-89668732D01*
X102292395Y-90573494D02*
X101816205Y-90573494D01*
X101816205Y-90573494D02*
X101816205Y-89573494D01*
X99816205Y-85445875D02*
X99959062Y-85493494D01*
X99959062Y-85493494D02*
X100197157Y-85493494D01*
X100197157Y-85493494D02*
X100292395Y-85445875D01*
X100292395Y-85445875D02*
X100340014Y-85398255D01*
X100340014Y-85398255D02*
X100387633Y-85303017D01*
X100387633Y-85303017D02*
X100387633Y-85207779D01*
X100387633Y-85207779D02*
X100340014Y-85112541D01*
X100340014Y-85112541D02*
X100292395Y-85064922D01*
X100292395Y-85064922D02*
X100197157Y-85017303D01*
X100197157Y-85017303D02*
X100006681Y-84969684D01*
X100006681Y-84969684D02*
X99911443Y-84922065D01*
X99911443Y-84922065D02*
X99863824Y-84874446D01*
X99863824Y-84874446D02*
X99816205Y-84779208D01*
X99816205Y-84779208D02*
X99816205Y-84683970D01*
X99816205Y-84683970D02*
X99863824Y-84588732D01*
X99863824Y-84588732D02*
X99911443Y-84541113D01*
X99911443Y-84541113D02*
X100006681Y-84493494D01*
X100006681Y-84493494D02*
X100244776Y-84493494D01*
X100244776Y-84493494D02*
X100387633Y-84541113D01*
X100816205Y-85493494D02*
X100816205Y-84493494D01*
X100816205Y-84493494D02*
X101054300Y-84493494D01*
X101054300Y-84493494D02*
X101197157Y-84541113D01*
X101197157Y-84541113D02*
X101292395Y-84636351D01*
X101292395Y-84636351D02*
X101340014Y-84731589D01*
X101340014Y-84731589D02*
X101387633Y-84922065D01*
X101387633Y-84922065D02*
X101387633Y-85064922D01*
X101387633Y-85064922D02*
X101340014Y-85255398D01*
X101340014Y-85255398D02*
X101292395Y-85350636D01*
X101292395Y-85350636D02*
X101197157Y-85445875D01*
X101197157Y-85445875D02*
X101054300Y-85493494D01*
X101054300Y-85493494D02*
X100816205Y-85493494D01*
X101768586Y-85207779D02*
X102244776Y-85207779D01*
X101673348Y-85493494D02*
X102006681Y-84493494D01*
X102006681Y-84493494D02*
X102340014Y-85493494D01*
X99863824Y-95526494D02*
X99863824Y-94526494D01*
X100340014Y-95526494D02*
X100340014Y-94526494D01*
X100340014Y-94526494D02*
X100911442Y-95526494D01*
X100911442Y-95526494D02*
X100911442Y-94526494D01*
X101244776Y-94526494D02*
X101816204Y-94526494D01*
X101530490Y-95526494D02*
X101530490Y-94526494D01*
X99816205Y-92700779D02*
X100292395Y-92700779D01*
X99720967Y-92986494D02*
X100054300Y-91986494D01*
X100054300Y-91986494D02*
X100387633Y-92986494D01*
X100720967Y-92986494D02*
X100720967Y-91986494D01*
X100720967Y-91986494D02*
X100959062Y-91986494D01*
X100959062Y-91986494D02*
X101101919Y-92034113D01*
X101101919Y-92034113D02*
X101197157Y-92129351D01*
X101197157Y-92129351D02*
X101244776Y-92224589D01*
X101244776Y-92224589D02*
X101292395Y-92415065D01*
X101292395Y-92415065D02*
X101292395Y-92557922D01*
X101292395Y-92557922D02*
X101244776Y-92748398D01*
X101244776Y-92748398D02*
X101197157Y-92843636D01*
X101197157Y-92843636D02*
X101101919Y-92938875D01*
X101101919Y-92938875D02*
X100959062Y-92986494D01*
X100959062Y-92986494D02*
X100720967Y-92986494D01*
X101911443Y-91986494D02*
X102101919Y-91986494D01*
X102101919Y-91986494D02*
X102197157Y-92034113D01*
X102197157Y-92034113D02*
X102292395Y-92129351D01*
X102292395Y-92129351D02*
X102340014Y-92319827D01*
X102340014Y-92319827D02*
X102340014Y-92653160D01*
X102340014Y-92653160D02*
X102292395Y-92843636D01*
X102292395Y-92843636D02*
X102197157Y-92938875D01*
X102197157Y-92938875D02*
X102101919Y-92986494D01*
X102101919Y-92986494D02*
X101911443Y-92986494D01*
X101911443Y-92986494D02*
X101816205Y-92938875D01*
X101816205Y-92938875D02*
X101720967Y-92843636D01*
X101720967Y-92843636D02*
X101673348Y-92653160D01*
X101673348Y-92653160D02*
X101673348Y-92319827D01*
X101673348Y-92319827D02*
X101720967Y-92129351D01*
X101720967Y-92129351D02*
X101816205Y-92034113D01*
X101816205Y-92034113D02*
X101911443Y-91986494D01*
D10*
X72924819Y-107066666D02*
X72448628Y-107399999D01*
X72924819Y-107638094D02*
X71924819Y-107638094D01*
X71924819Y-107638094D02*
X71924819Y-107257142D01*
X71924819Y-107257142D02*
X71972438Y-107161904D01*
X71972438Y-107161904D02*
X72020057Y-107114285D01*
X72020057Y-107114285D02*
X72115295Y-107066666D01*
X72115295Y-107066666D02*
X72258152Y-107066666D01*
X72258152Y-107066666D02*
X72353390Y-107114285D01*
X72353390Y-107114285D02*
X72401009Y-107161904D01*
X72401009Y-107161904D02*
X72448628Y-107257142D01*
X72448628Y-107257142D02*
X72448628Y-107638094D01*
X71924819Y-106161904D02*
X71924819Y-106638094D01*
X71924819Y-106638094D02*
X72401009Y-106685713D01*
X72401009Y-106685713D02*
X72353390Y-106638094D01*
X72353390Y-106638094D02*
X72305771Y-106542856D01*
X72305771Y-106542856D02*
X72305771Y-106304761D01*
X72305771Y-106304761D02*
X72353390Y-106209523D01*
X72353390Y-106209523D02*
X72401009Y-106161904D01*
X72401009Y-106161904D02*
X72496247Y-106114285D01*
X72496247Y-106114285D02*
X72734342Y-106114285D01*
X72734342Y-106114285D02*
X72829580Y-106161904D01*
X72829580Y-106161904D02*
X72877200Y-106209523D01*
X72877200Y-106209523D02*
X72924819Y-106304761D01*
X72924819Y-106304761D02*
X72924819Y-106542856D01*
X72924819Y-106542856D02*
X72877200Y-106638094D01*
X72877200Y-106638094D02*
X72829580Y-106685713D01*
X86585974Y-125054819D02*
X86109784Y-125054819D01*
X86109784Y-125054819D02*
X86109784Y-124054819D01*
X86919308Y-125054819D02*
X86919308Y-124054819D01*
X87395498Y-125054819D02*
X87395498Y-124054819D01*
X87395498Y-124054819D02*
X87633593Y-124054819D01*
X87633593Y-124054819D02*
X87776450Y-124102438D01*
X87776450Y-124102438D02*
X87871688Y-124197676D01*
X87871688Y-124197676D02*
X87919307Y-124292914D01*
X87919307Y-124292914D02*
X87966926Y-124483390D01*
X87966926Y-124483390D02*
X87966926Y-124626247D01*
X87966926Y-124626247D02*
X87919307Y-124816723D01*
X87919307Y-124816723D02*
X87871688Y-124911961D01*
X87871688Y-124911961D02*
X87776450Y-125007200D01*
X87776450Y-125007200D02*
X87633593Y-125054819D01*
X87633593Y-125054819D02*
X87395498Y-125054819D01*
X88347879Y-124769104D02*
X88824069Y-124769104D01*
X88252641Y-125054819D02*
X88585974Y-124054819D01*
X88585974Y-124054819D02*
X88919307Y-125054819D01*
X89824069Y-125054819D02*
X89490736Y-124578628D01*
X89252641Y-125054819D02*
X89252641Y-124054819D01*
X89252641Y-124054819D02*
X89633593Y-124054819D01*
X89633593Y-124054819D02*
X89728831Y-124102438D01*
X89728831Y-124102438D02*
X89776450Y-124150057D01*
X89776450Y-124150057D02*
X89824069Y-124245295D01*
X89824069Y-124245295D02*
X89824069Y-124388152D01*
X89824069Y-124388152D02*
X89776450Y-124483390D01*
X89776450Y-124483390D02*
X89728831Y-124531009D01*
X89728831Y-124531009D02*
X89633593Y-124578628D01*
X89633593Y-124578628D02*
X89252641Y-124578628D01*
X90014546Y-125150057D02*
X90776450Y-125150057D01*
X90966927Y-124150057D02*
X91014546Y-124102438D01*
X91014546Y-124102438D02*
X91109784Y-124054819D01*
X91109784Y-124054819D02*
X91347879Y-124054819D01*
X91347879Y-124054819D02*
X91443117Y-124102438D01*
X91443117Y-124102438D02*
X91490736Y-124150057D01*
X91490736Y-124150057D02*
X91538355Y-124245295D01*
X91538355Y-124245295D02*
X91538355Y-124340533D01*
X91538355Y-124340533D02*
X91490736Y-124483390D01*
X91490736Y-124483390D02*
X90919308Y-125054819D01*
X90919308Y-125054819D02*
X91538355Y-125054819D01*
X103185714Y-125354819D02*
X102709524Y-125354819D01*
X102709524Y-125354819D02*
X102709524Y-124354819D01*
X103519048Y-125354819D02*
X103519048Y-124354819D01*
X103995238Y-125354819D02*
X103995238Y-124354819D01*
X103995238Y-124354819D02*
X104233333Y-124354819D01*
X104233333Y-124354819D02*
X104376190Y-124402438D01*
X104376190Y-124402438D02*
X104471428Y-124497676D01*
X104471428Y-124497676D02*
X104519047Y-124592914D01*
X104519047Y-124592914D02*
X104566666Y-124783390D01*
X104566666Y-124783390D02*
X104566666Y-124926247D01*
X104566666Y-124926247D02*
X104519047Y-125116723D01*
X104519047Y-125116723D02*
X104471428Y-125211961D01*
X104471428Y-125211961D02*
X104376190Y-125307200D01*
X104376190Y-125307200D02*
X104233333Y-125354819D01*
X104233333Y-125354819D02*
X103995238Y-125354819D01*
X104947619Y-125069104D02*
X105423809Y-125069104D01*
X104852381Y-125354819D02*
X105185714Y-124354819D01*
X105185714Y-124354819D02*
X105519047Y-125354819D01*
X106423809Y-125354819D02*
X106090476Y-124878628D01*
X105852381Y-125354819D02*
X105852381Y-124354819D01*
X105852381Y-124354819D02*
X106233333Y-124354819D01*
X106233333Y-124354819D02*
X106328571Y-124402438D01*
X106328571Y-124402438D02*
X106376190Y-124450057D01*
X106376190Y-124450057D02*
X106423809Y-124545295D01*
X106423809Y-124545295D02*
X106423809Y-124688152D01*
X106423809Y-124688152D02*
X106376190Y-124783390D01*
X106376190Y-124783390D02*
X106328571Y-124831009D01*
X106328571Y-124831009D02*
X106233333Y-124878628D01*
X106233333Y-124878628D02*
X105852381Y-124878628D01*
X106614286Y-125450057D02*
X107376190Y-125450057D01*
X108138095Y-125354819D02*
X107566667Y-125354819D01*
X107852381Y-125354819D02*
X107852381Y-124354819D01*
X107852381Y-124354819D02*
X107757143Y-124497676D01*
X107757143Y-124497676D02*
X107661905Y-124592914D01*
X107661905Y-124592914D02*
X107566667Y-124640533D01*
X80324819Y-107006666D02*
X79848628Y-107339999D01*
X80324819Y-107578094D02*
X79324819Y-107578094D01*
X79324819Y-107578094D02*
X79324819Y-107197142D01*
X79324819Y-107197142D02*
X79372438Y-107101904D01*
X79372438Y-107101904D02*
X79420057Y-107054285D01*
X79420057Y-107054285D02*
X79515295Y-107006666D01*
X79515295Y-107006666D02*
X79658152Y-107006666D01*
X79658152Y-107006666D02*
X79753390Y-107054285D01*
X79753390Y-107054285D02*
X79801009Y-107101904D01*
X79801009Y-107101904D02*
X79848628Y-107197142D01*
X79848628Y-107197142D02*
X79848628Y-107578094D01*
X79324819Y-106149523D02*
X79324819Y-106339999D01*
X79324819Y-106339999D02*
X79372438Y-106435237D01*
X79372438Y-106435237D02*
X79420057Y-106482856D01*
X79420057Y-106482856D02*
X79562914Y-106578094D01*
X79562914Y-106578094D02*
X79753390Y-106625713D01*
X79753390Y-106625713D02*
X80134342Y-106625713D01*
X80134342Y-106625713D02*
X80229580Y-106578094D01*
X80229580Y-106578094D02*
X80277200Y-106530475D01*
X80277200Y-106530475D02*
X80324819Y-106435237D01*
X80324819Y-106435237D02*
X80324819Y-106244761D01*
X80324819Y-106244761D02*
X80277200Y-106149523D01*
X80277200Y-106149523D02*
X80229580Y-106101904D01*
X80229580Y-106101904D02*
X80134342Y-106054285D01*
X80134342Y-106054285D02*
X79896247Y-106054285D01*
X79896247Y-106054285D02*
X79801009Y-106101904D01*
X79801009Y-106101904D02*
X79753390Y-106149523D01*
X79753390Y-106149523D02*
X79705771Y-106244761D01*
X79705771Y-106244761D02*
X79705771Y-106435237D01*
X79705771Y-106435237D02*
X79753390Y-106530475D01*
X79753390Y-106530475D02*
X79801009Y-106578094D01*
X79801009Y-106578094D02*
X79896247Y-106625713D01*
X75490000Y-60810000D02*
X93270000Y-60810000D01*
X75490000Y-96370000D02*
X75490000Y-60810000D01*
X79300000Y-83035000D02*
X79300000Y-72875000D01*
X79300000Y-83035000D02*
X89460000Y-83035000D01*
X80570000Y-59540000D02*
X88190000Y-59540000D01*
X80570000Y-60810000D02*
X80570000Y-59540000D01*
X80570000Y-65890000D02*
X80570000Y-60810000D01*
X80570000Y-65890000D02*
X88190000Y-65890000D01*
X83110000Y-88750000D02*
X85650000Y-88750000D01*
X83110000Y-93322000D02*
X83110000Y-88750000D01*
X85650000Y-88750000D02*
X85650000Y-93322000D01*
X85650000Y-93322000D02*
X83110000Y-93322000D01*
X86285000Y-83670000D02*
X89460000Y-83670000D01*
X86285000Y-86210000D02*
X86285000Y-83670000D01*
X88190000Y-59540000D02*
X88190000Y-60810000D01*
X88190000Y-65890000D02*
X88190000Y-60810000D01*
X89460000Y-72875000D02*
X79300000Y-72875000D01*
X89460000Y-83035000D02*
X89460000Y-72875000D01*
X89460000Y-83670000D02*
X89460000Y-86210000D01*
X89460000Y-86210000D02*
X86285000Y-86210000D01*
X93270000Y-60810000D02*
X93270000Y-96370000D01*
X93270000Y-96370000D02*
X75490000Y-96370000D01*
D11*
X84126000Y-77193000D02*
X83745000Y-77447000D01*
X83491000Y-77193000D01*
X83872000Y-76939000D01*
X84126000Y-77193000D01*
G36*
X84126000Y-77193000D02*
G01*
X83745000Y-77447000D01*
X83491000Y-77193000D01*
X83872000Y-76939000D01*
X84126000Y-77193000D01*
G37*
X84253000Y-76431000D02*
X83872000Y-76685000D01*
X83618000Y-76431000D01*
X83999000Y-76177000D01*
X84253000Y-76431000D01*
G36*
X84253000Y-76431000D02*
G01*
X83872000Y-76685000D01*
X83618000Y-76431000D01*
X83999000Y-76177000D01*
X84253000Y-76431000D01*
G37*
X84507000Y-74907000D02*
X84126000Y-75161000D01*
X83872000Y-74907000D01*
X84253000Y-74653000D01*
X84507000Y-74907000D01*
G36*
X84507000Y-74907000D02*
G01*
X84126000Y-75161000D01*
X83872000Y-74907000D01*
X84253000Y-74653000D01*
X84507000Y-74907000D01*
G37*
X84634000Y-76812000D02*
X84253000Y-77066000D01*
X83999000Y-76812000D01*
X84380000Y-76558000D01*
X84634000Y-76812000D01*
G36*
X84634000Y-76812000D02*
G01*
X84253000Y-77066000D01*
X83999000Y-76812000D01*
X84380000Y-76558000D01*
X84634000Y-76812000D01*
G37*
X84761000Y-76050000D02*
X84380000Y-76304000D01*
X84126000Y-76050000D01*
X84507000Y-75796000D01*
X84761000Y-76050000D01*
G36*
X84761000Y-76050000D02*
G01*
X84380000Y-76304000D01*
X84126000Y-76050000D01*
X84507000Y-75796000D01*
X84761000Y-76050000D01*
G37*
X84888000Y-75288000D02*
X84507000Y-75542000D01*
X84253000Y-75288000D01*
X84634000Y-75034000D01*
X84888000Y-75288000D01*
G36*
X84888000Y-75288000D02*
G01*
X84507000Y-75542000D01*
X84253000Y-75288000D01*
X84634000Y-75034000D01*
X84888000Y-75288000D01*
G37*
X85142000Y-76431000D02*
X84761000Y-76685000D01*
X84507000Y-76431000D01*
X84888000Y-76177000D01*
X85142000Y-76431000D01*
G36*
X85142000Y-76431000D02*
G01*
X84761000Y-76685000D01*
X84507000Y-76431000D01*
X84888000Y-76177000D01*
X85142000Y-76431000D01*
G37*
X85269000Y-75669000D02*
X84888000Y-75923000D01*
X84634000Y-75669000D01*
X85015000Y-75415000D01*
X85269000Y-75669000D01*
G36*
X85269000Y-75669000D02*
G01*
X84888000Y-75923000D01*
X84634000Y-75669000D01*
X85015000Y-75415000D01*
X85269000Y-75669000D01*
G37*
D12*
X93670000Y-110110000D02*
X93670000Y-103570000D01*
X93670000Y-103570000D02*
X90930000Y-103570000D01*
X92300000Y-110880000D02*
X92300000Y-110110000D01*
X92300000Y-102800000D02*
X92300000Y-103570000D01*
X90930000Y-110110000D02*
X93670000Y-110110000D01*
X90930000Y-103570000D02*
X90930000Y-110110000D01*
D11*
X110450000Y-67900000D02*
G75*
G02*
X98750000Y-67900000I-5850000J0D01*
G01*
X98750000Y-67900000D02*
G75*
G02*
X110450000Y-67900000I5850000J0D01*
G01*
X65936000Y-61100000D02*
X71920000Y-61100000D01*
X65936000Y-73005000D02*
X65936000Y-61100000D01*
X71920000Y-61100000D02*
X71920000Y-73005000D01*
X71920000Y-73005000D02*
X65936000Y-73005000D01*
D12*
X101070000Y-110070000D02*
X101070000Y-103530000D01*
X101070000Y-103530000D02*
X98330000Y-103530000D01*
X99700000Y-110840000D02*
X99700000Y-110070000D01*
X99700000Y-102760000D02*
X99700000Y-103530000D01*
X98330000Y-110070000D02*
X101070000Y-110070000D01*
X98330000Y-103530000D02*
X98330000Y-110070000D01*
D13*
X66900000Y-125800000D02*
X76900000Y-125800000D01*
X66900000Y-135600000D02*
X66900000Y-125800000D01*
X69100920Y-134598900D02*
X69100920Y-135600000D01*
X69100920Y-135600000D02*
X66900000Y-135600000D01*
X74699080Y-134600000D02*
X69100920Y-134600000D01*
X74700000Y-135600000D02*
X74700000Y-134598900D01*
X76898720Y-128198100D02*
X76898720Y-126201660D01*
X76900000Y-135600000D02*
X76900000Y-125800000D01*
X76900920Y-135600000D02*
X74700000Y-135600000D01*
D12*
X108170000Y-110070000D02*
X108170000Y-103530000D01*
X108170000Y-103530000D02*
X105430000Y-103530000D01*
X106800000Y-110840000D02*
X106800000Y-110070000D01*
X106800000Y-102760000D02*
X106800000Y-103530000D01*
X105430000Y-110070000D02*
X108170000Y-110070000D01*
X105430000Y-103530000D02*
X105430000Y-110070000D01*
X83730000Y-117970000D02*
X83730000Y-120630000D01*
X91410000Y-117970000D02*
X83730000Y-117970000D01*
X91410000Y-117970000D02*
X91410000Y-120630000D01*
X91410000Y-120630000D02*
X83730000Y-120630000D01*
X92680000Y-117970000D02*
X94010000Y-117970000D01*
X94010000Y-117970000D02*
X94010000Y-119300000D01*
X86670000Y-110070000D02*
X86670000Y-103530000D01*
X86670000Y-103530000D02*
X83930000Y-103530000D01*
X85300000Y-110840000D02*
X85300000Y-110070000D01*
X85300000Y-102760000D02*
X85300000Y-103530000D01*
X83930000Y-110070000D02*
X86670000Y-110070000D01*
X83930000Y-103530000D02*
X83930000Y-110070000D01*
D11*
X97019940Y-75969075D02*
X112580060Y-75969075D01*
X97019940Y-96230925D02*
X97019940Y-75969075D01*
X112580060Y-75969075D02*
X112580060Y-96230925D01*
X112580060Y-96230925D02*
X97019940Y-96230925D01*
D12*
X68730000Y-103630000D02*
X68730000Y-110170000D01*
X68730000Y-110170000D02*
X71470000Y-110170000D01*
X70100000Y-102860000D02*
X70100000Y-103630000D01*
X70100000Y-110940000D02*
X70100000Y-110170000D01*
X71470000Y-103630000D02*
X68730000Y-103630000D01*
X71470000Y-110170000D02*
X71470000Y-103630000D01*
D13*
X83800260Y-125900120D02*
X93800260Y-125900120D01*
X83800260Y-135700120D02*
X83800260Y-125900120D01*
X86001180Y-134699020D02*
X86001180Y-135700120D01*
X86001180Y-135700120D02*
X83800260Y-135700120D01*
X91599340Y-134700120D02*
X86001180Y-134700120D01*
X91600260Y-135700120D02*
X91600260Y-134699020D01*
X93798980Y-128298220D02*
X93798980Y-126301780D01*
X93800260Y-135700120D02*
X93800260Y-125900120D01*
X93801180Y-135700120D02*
X91600260Y-135700120D01*
X100400000Y-126100000D02*
X110400000Y-126100000D01*
X100400000Y-135900000D02*
X100400000Y-126100000D01*
X102600920Y-134898900D02*
X102600920Y-135900000D01*
X102600920Y-135900000D02*
X100400000Y-135900000D01*
X108199080Y-134900000D02*
X102600920Y-134900000D01*
X108200000Y-135900000D02*
X108200000Y-134898900D01*
X110398720Y-128498100D02*
X110398720Y-126501660D01*
X110400000Y-135900000D02*
X110400000Y-126100000D01*
X110400920Y-135900000D02*
X108200000Y-135900000D01*
D12*
X76130000Y-103570000D02*
X76130000Y-110110000D01*
X76130000Y-110110000D02*
X78870000Y-110110000D01*
X77500000Y-102800000D02*
X77500000Y-103570000D01*
X77500000Y-110880000D02*
X77500000Y-110110000D01*
X78870000Y-103570000D02*
X76130000Y-103570000D01*
X78870000Y-110110000D02*
X78870000Y-103570000D01*
%LPC*%
D14*
X76760000Y-62080000D03*
X76760000Y-64620000D03*
X76760000Y-67160000D03*
X76760000Y-69700000D03*
X76760000Y-72240000D03*
X76760000Y-74780000D03*
X76760000Y-77320000D03*
X76760000Y-79860000D03*
X76760000Y-82400000D03*
X76760000Y-84940000D03*
X76760000Y-87480000D03*
X76760000Y-90020000D03*
X76760000Y-92560000D03*
X76760000Y-95100000D03*
X79300000Y-95100000D03*
X81840000Y-95100000D03*
X84380000Y-95100000D03*
X86920000Y-95100000D03*
X89460000Y-95100000D03*
X92000000Y-95100000D03*
X92000000Y-92560000D03*
X92000000Y-90020000D03*
X92000000Y-87480000D03*
X92000000Y-84940000D03*
X92000000Y-82400000D03*
X92000000Y-79860000D03*
X92000000Y-77320000D03*
X92000000Y-74780000D03*
X92000000Y-72240000D03*
X92000000Y-69700000D03*
X92000000Y-67160000D03*
X92000000Y-64620000D03*
X92000000Y-62080000D03*
X89460000Y-64620000D03*
X89460000Y-90020000D03*
X89460000Y-87480000D03*
X86920000Y-90020000D03*
X86920000Y-87480000D03*
X84380000Y-90020000D03*
X84380000Y-87480000D03*
X81840000Y-90020000D03*
X81840000Y-87480000D03*
X79300000Y-90020000D03*
X79300000Y-87480000D03*
X92300000Y-101760000D03*
D15*
X92300000Y-111920000D03*
D16*
X104600000Y-70900000D03*
D17*
X104600000Y-64900000D03*
D16*
X70000000Y-63480000D03*
D17*
X70000000Y-66020000D03*
X70000000Y-68560000D03*
X70000000Y-71100000D03*
D14*
X99700000Y-101720000D03*
D15*
X99700000Y-111880000D03*
D18*
X74899740Y-127499880D03*
D19*
X72898220Y-127500000D03*
X70901780Y-127500000D03*
X68900260Y-127500000D03*
D14*
X106800000Y-101720000D03*
D15*
X106800000Y-111880000D03*
D20*
X92680000Y-119300000D03*
D21*
X90140000Y-119300000D03*
X87600000Y-119300000D03*
X85060000Y-119300000D03*
D14*
X85300000Y-101720000D03*
D15*
X85300000Y-111880000D03*
D16*
X98289940Y-77239075D03*
D17*
X98289940Y-79779075D03*
X98289940Y-82319075D03*
X98289940Y-84859075D03*
X98289940Y-87399075D03*
X98289940Y-89939075D03*
X98289940Y-92479075D03*
X98289940Y-95019075D03*
D14*
X70100000Y-101820000D03*
D15*
X70100000Y-111980000D03*
D18*
X91800000Y-127600000D03*
D19*
X89798480Y-127600120D03*
X87802040Y-127600120D03*
X85800520Y-127600120D03*
D18*
X108399740Y-127799880D03*
D19*
X106398220Y-127800000D03*
X104401780Y-127800000D03*
X102400260Y-127800000D03*
D14*
X77500000Y-101760000D03*
D15*
X77500000Y-111920000D03*
%LPD*%
M02*
