G04 #@! TF.GenerationSoftware,KiCad,Pcbnew,8.0.5*
G04 #@! TF.CreationDate,2024-11-18T01:09:08-08:00*
G04 #@! TF.ProjectId,PCB,5043422e-6b69-4636-9164-5f7063625858,rev?*
G04 #@! TF.SameCoordinates,Original*
G04 #@! TF.FileFunction,Copper,L4,Bot*
G04 #@! TF.FilePolarity,Positive*
%FSLAX46Y46*%
G04 Gerber Fmt 4.6, Leading zero omitted, Abs format (unit mm)*
G04 Created by KiCad (PCBNEW 8.0.5) date 2024-11-18 01:09:08*
%MOMM*%
%LPD*%
G01*
G04 APERTURE LIST*
G04 #@! TA.AperFunction,ComponentPad*
%ADD10C,1.600000*%
G04 #@! TD*
G04 #@! TA.AperFunction,ComponentPad*
%ADD11O,1.600000X1.600000*%
G04 #@! TD*
G04 #@! TA.AperFunction,ComponentPad*
%ADD12R,1.524000X1.524000*%
G04 #@! TD*
G04 #@! TA.AperFunction,ComponentPad*
%ADD13C,1.524000*%
G04 #@! TD*
G04 #@! TA.AperFunction,ComponentPad*
%ADD14R,1.270000X1.270000*%
G04 #@! TD*
G04 #@! TA.AperFunction,ComponentPad*
%ADD15C,1.270000*%
G04 #@! TD*
G04 #@! TA.AperFunction,ComponentPad*
%ADD16R,1.700000X1.700000*%
G04 #@! TD*
G04 #@! TA.AperFunction,ComponentPad*
%ADD17O,1.700000X1.700000*%
G04 #@! TD*
G04 #@! TA.AperFunction,ViaPad*
%ADD18C,0.600000*%
G04 #@! TD*
G04 #@! TA.AperFunction,Conductor*
%ADD19C,0.254000*%
G04 #@! TD*
G04 #@! TA.AperFunction,Conductor*
%ADD20C,0.200000*%
G04 #@! TD*
G04 #@! TA.AperFunction,Conductor*
%ADD21C,0.508000*%
G04 #@! TD*
G04 APERTURE END LIST*
D10*
X84380000Y-95100000D03*
X86920000Y-95100000D03*
X89460000Y-95100000D03*
X92000000Y-95100000D03*
X81840000Y-95100000D03*
X79300000Y-95100000D03*
X76760000Y-95100000D03*
X92000000Y-92560000D03*
X92000000Y-90020000D03*
X92000000Y-87480000D03*
X92000000Y-84940000D03*
X92000000Y-82400000D03*
X92000000Y-79860000D03*
X92000000Y-77320000D03*
X92000000Y-74780000D03*
X92000000Y-72240000D03*
X92000000Y-69700000D03*
X92000000Y-67160000D03*
X92000000Y-64620000D03*
X92000000Y-62080000D03*
X89460000Y-64620000D03*
X76760000Y-92560000D03*
X76760000Y-90020000D03*
X76760000Y-87480000D03*
X76760000Y-84940000D03*
X76760000Y-82400000D03*
X76760000Y-79860000D03*
X76760000Y-77320000D03*
X76760000Y-74780000D03*
X76760000Y-72240000D03*
X76760000Y-69700000D03*
X76760000Y-67160000D03*
X76760000Y-64620000D03*
X76760000Y-62080000D03*
X89460000Y-90020000D03*
X89460000Y-87480000D03*
X86920000Y-90020000D03*
X86920000Y-87480000D03*
X84380000Y-90020000D03*
X84380000Y-87480000D03*
X81840000Y-90020000D03*
X81840000Y-87480000D03*
X79300000Y-90020000D03*
X79300000Y-87480000D03*
X92300000Y-101760000D03*
D11*
X92300000Y-111920000D03*
D12*
X101100000Y-70900000D03*
D13*
X101100000Y-64900000D03*
D10*
X70000000Y-77400000D03*
X70000000Y-74860000D03*
X70000000Y-72320000D03*
D12*
X70000000Y-69780000D03*
D10*
X99700000Y-101720000D03*
D11*
X99700000Y-111880000D03*
D14*
X74899740Y-127499880D03*
D15*
X72898220Y-127500000D03*
X70901780Y-127500000D03*
X68900260Y-127500000D03*
D10*
X106800000Y-101720000D03*
D11*
X106800000Y-111880000D03*
D16*
X92680000Y-119300000D03*
D17*
X90140000Y-119300000D03*
X87600000Y-119300000D03*
X85060000Y-119300000D03*
D10*
X85300000Y-101720000D03*
D11*
X85300000Y-111880000D03*
D12*
X98289940Y-77239075D03*
D10*
X98289940Y-79779075D03*
X98289940Y-82319075D03*
X98289940Y-84859075D03*
X98289940Y-87399075D03*
X98289940Y-89939075D03*
X98289940Y-92479075D03*
X98289940Y-95019075D03*
X70100000Y-101820000D03*
D11*
X70100000Y-111980000D03*
D14*
X91800000Y-127600000D03*
D15*
X89798480Y-127600120D03*
X87802040Y-127600120D03*
X85800520Y-127600120D03*
D14*
X108399740Y-127799880D03*
D15*
X106398220Y-127800000D03*
X104401780Y-127800000D03*
X102400260Y-127800000D03*
D10*
X77500000Y-101760000D03*
D11*
X77500000Y-111920000D03*
D18*
X100800000Y-117800000D03*
X76100000Y-98200000D03*
X72100000Y-62600000D03*
X104700000Y-70600000D03*
X74400000Y-72900000D03*
X84100000Y-61500000D03*
X72700000Y-113900000D03*
X92700000Y-115900000D03*
X91900000Y-97900000D03*
X89100000Y-111800000D03*
X81700000Y-82000000D03*
X86800000Y-75900000D03*
X81700000Y-70100000D03*
X96600000Y-63700000D03*
X111100000Y-73700000D03*
X104600000Y-78800000D03*
X109900000Y-83700000D03*
X99000000Y-97800000D03*
X103400000Y-91800000D03*
X103100000Y-99800000D03*
X102900000Y-109400000D03*
X111000000Y-102200000D03*
X108800000Y-117800000D03*
X96600000Y-113400000D03*
X98500000Y-123400000D03*
X95500000Y-129000000D03*
X81100000Y-125700000D03*
X81600000Y-102700000D03*
X81900000Y-110600000D03*
X77600000Y-118300000D03*
X67800000Y-117900000D03*
X86700000Y-98100000D03*
X73800000Y-106600000D03*
X73000000Y-94800000D03*
X67000000Y-99700000D03*
X68000000Y-82000000D03*
X73900000Y-85600000D03*
D19*
X78200000Y-86400000D02*
X78220000Y-86400000D01*
X78200000Y-86400000D02*
X78400000Y-86400000D01*
X78220000Y-86400000D02*
X79300000Y-87480000D01*
X76200000Y-86400000D02*
X78200000Y-86400000D01*
D20*
X82919400Y-93639400D02*
X85840600Y-93639400D01*
X79300000Y-90020000D02*
X82919400Y-93639400D01*
X78400000Y-86580000D02*
X78400000Y-86400000D01*
X79300000Y-87480000D02*
X78400000Y-86580000D01*
D19*
X78400000Y-86400000D02*
X88380000Y-86400000D01*
X99700000Y-101720000D02*
X96770000Y-98790000D01*
X92300000Y-101760000D02*
X92460000Y-101600000D01*
D21*
X98550000Y-77150000D02*
X98550000Y-73710000D01*
X92680000Y-119300000D02*
X94520000Y-117460000D01*
X92840000Y-123140000D02*
X92840000Y-119100000D01*
X91299740Y-127499760D02*
X91299740Y-120640260D01*
X94520000Y-117460000D02*
X94520000Y-69680000D01*
D19*
X92840000Y-120204000D02*
X92840000Y-119100000D01*
D21*
X96770000Y-71930000D02*
X94520000Y-69680000D01*
X77699860Y-130300000D02*
X91800000Y-130300000D01*
X108399740Y-127799880D02*
X108399740Y-129600260D01*
X94520000Y-69680000D02*
X92000000Y-67160000D01*
X108399740Y-129600260D02*
X107900000Y-130100000D01*
X74899740Y-127499880D02*
X77699860Y-130300000D01*
X91339740Y-120640260D02*
X92680000Y-119300000D01*
X98550000Y-73710000D02*
X96770000Y-71930000D01*
X91800000Y-130300000D02*
X91800000Y-127600000D01*
X91299740Y-120640260D02*
X91339740Y-120640260D01*
X107900000Y-130100000D02*
X99800000Y-130100000D01*
D19*
X92840000Y-119100000D02*
X93354000Y-118586000D01*
X96770000Y-98790000D02*
X96770000Y-71930000D01*
D21*
X99800000Y-130100000D02*
X92840000Y-123140000D01*
D19*
X104301780Y-127500000D02*
X104301780Y-116481780D01*
X99700000Y-111880000D02*
X100900000Y-110680000D01*
X100900000Y-87120000D02*
X98550000Y-84770000D01*
X100900000Y-110680000D02*
X100900000Y-87120000D01*
X104301780Y-116481780D02*
X99700000Y-111880000D01*
X105393740Y-89073740D02*
X98550000Y-82230000D01*
X105393740Y-110473740D02*
X105393740Y-89073740D01*
X106298220Y-112381780D02*
X106800000Y-111880000D01*
X106298220Y-127500000D02*
X106298220Y-112381780D01*
X106800000Y-111880000D02*
X105393740Y-110473740D01*
X90900000Y-86040000D02*
X92000000Y-84940000D01*
X90466600Y-95619903D02*
X90900000Y-95186503D01*
X87301780Y-127499880D02*
X87301780Y-119558220D01*
X90466600Y-106713400D02*
X90466600Y-95619903D01*
X87760000Y-114340000D02*
X85300000Y-111880000D01*
X87760000Y-119100000D02*
X87760000Y-114340000D01*
X90900000Y-95186503D02*
X90900000Y-86040000D01*
X87301780Y-119558220D02*
X87760000Y-119100000D01*
X85300000Y-111880000D02*
X90466600Y-106713400D01*
X91246000Y-101323418D02*
X93054000Y-99515418D01*
X93054000Y-99515418D02*
X93054000Y-88534000D01*
X93054000Y-88534000D02*
X92000000Y-87480000D01*
X92300000Y-111920000D02*
X91246000Y-110866000D01*
X91246000Y-110866000D02*
X91246000Y-101323418D01*
X89298220Y-120101780D02*
X90300000Y-119100000D01*
X90300000Y-113920000D02*
X92300000Y-111920000D01*
X90300000Y-119100000D02*
X90300000Y-113920000D01*
X89298220Y-127499880D02*
X89298220Y-120101780D01*
X70100000Y-111980000D02*
X69020600Y-110900600D01*
X88380000Y-86400000D02*
X89460000Y-87480000D01*
X69020600Y-110900600D02*
X69020600Y-93579400D01*
X70901780Y-112781780D02*
X70100000Y-111980000D01*
X70901780Y-127500000D02*
X70901780Y-112781780D01*
X69020600Y-93579400D02*
X76200000Y-86400000D01*
X72898220Y-127500000D02*
X72898220Y-116521780D01*
X85840600Y-95165903D02*
X85840600Y-93639400D01*
X85840600Y-93639400D02*
X89460000Y-90020000D01*
X77500000Y-111920000D02*
X77500000Y-103506503D01*
X72898220Y-116521780D02*
X77500000Y-111920000D01*
X77500000Y-103506503D02*
X85840600Y-95165903D01*
G04 #@! TA.AperFunction,Conductor*
G36*
X88257865Y-95643348D02*
G01*
X88302382Y-95694725D01*
X88329429Y-95752728D01*
X88329432Y-95752734D01*
X88459954Y-95939141D01*
X88620858Y-96100045D01*
X88620861Y-96100047D01*
X88807266Y-96230568D01*
X89013504Y-96326739D01*
X89013509Y-96326740D01*
X89013511Y-96326741D01*
X89049145Y-96336289D01*
X89233308Y-96385635D01*
X89395230Y-96399801D01*
X89459998Y-96405468D01*
X89460000Y-96405468D01*
X89460002Y-96405468D01*
X89516673Y-96400509D01*
X89686692Y-96385635D01*
X89686703Y-96385631D01*
X89692026Y-96384694D01*
X89692406Y-96386850D01*
X89752836Y-96388278D01*
X89810705Y-96427431D01*
X89838221Y-96491655D01*
X89839100Y-96506397D01*
X89839100Y-106402118D01*
X89819415Y-106469157D01*
X89802781Y-106489799D01*
X85712590Y-110579989D01*
X85651267Y-110613474D01*
X85592816Y-110612083D01*
X85562930Y-110604075D01*
X85526694Y-110594365D01*
X85526686Y-110594364D01*
X85300002Y-110574532D01*
X85299998Y-110574532D01*
X85073313Y-110594364D01*
X85073302Y-110594366D01*
X84853511Y-110653258D01*
X84853502Y-110653261D01*
X84647267Y-110749431D01*
X84647265Y-110749432D01*
X84460858Y-110879954D01*
X84299954Y-111040858D01*
X84169432Y-111227265D01*
X84169431Y-111227267D01*
X84073261Y-111433502D01*
X84073258Y-111433511D01*
X84014366Y-111653302D01*
X84014364Y-111653313D01*
X83994532Y-111879998D01*
X83994532Y-111880001D01*
X84014364Y-112106686D01*
X84014366Y-112106697D01*
X84073258Y-112326488D01*
X84073261Y-112326497D01*
X84169431Y-112532732D01*
X84169432Y-112532734D01*
X84299954Y-112719141D01*
X84460858Y-112880045D01*
X84460861Y-112880047D01*
X84647266Y-113010568D01*
X84853504Y-113106739D01*
X85073308Y-113165635D01*
X85235230Y-113179801D01*
X85299998Y-113185468D01*
X85300000Y-113185468D01*
X85300002Y-113185468D01*
X85331421Y-113182719D01*
X85526692Y-113165635D01*
X85592815Y-113147917D01*
X85662665Y-113149578D01*
X85712591Y-113180010D01*
X87096181Y-114563600D01*
X87129666Y-114624923D01*
X87132500Y-114651281D01*
X87132500Y-117948889D01*
X87112815Y-118015928D01*
X87060905Y-118061271D01*
X86922171Y-118125964D01*
X86922169Y-118125965D01*
X86728597Y-118261505D01*
X86561508Y-118428594D01*
X86431269Y-118614595D01*
X86376692Y-118658219D01*
X86307193Y-118665412D01*
X86244839Y-118633890D01*
X86228119Y-118614594D01*
X86098113Y-118428926D01*
X86098108Y-118428920D01*
X85931082Y-118261894D01*
X85737578Y-118126399D01*
X85523492Y-118026570D01*
X85523486Y-118026567D01*
X85310000Y-117969364D01*
X85310000Y-118866988D01*
X85252993Y-118834075D01*
X85125826Y-118800000D01*
X84994174Y-118800000D01*
X84867007Y-118834075D01*
X84810000Y-118866988D01*
X84810000Y-117969364D01*
X84809999Y-117969364D01*
X84596513Y-118026567D01*
X84596507Y-118026570D01*
X84382422Y-118126399D01*
X84382420Y-118126400D01*
X84188926Y-118261886D01*
X84188920Y-118261891D01*
X84021891Y-118428920D01*
X84021886Y-118428926D01*
X83886400Y-118622420D01*
X83886399Y-118622422D01*
X83786570Y-118836507D01*
X83786567Y-118836513D01*
X83729364Y-119049999D01*
X83729364Y-119050000D01*
X84626988Y-119050000D01*
X84594075Y-119107007D01*
X84560000Y-119234174D01*
X84560000Y-119365826D01*
X84594075Y-119492993D01*
X84626988Y-119550000D01*
X83729364Y-119550000D01*
X83786567Y-119763486D01*
X83786570Y-119763492D01*
X83886399Y-119977578D01*
X84021894Y-120171082D01*
X84188917Y-120338105D01*
X84382421Y-120473600D01*
X84596507Y-120573429D01*
X84596516Y-120573433D01*
X84810000Y-120630634D01*
X84810000Y-119733012D01*
X84867007Y-119765925D01*
X84994174Y-119800000D01*
X85125826Y-119800000D01*
X85252993Y-119765925D01*
X85310000Y-119733012D01*
X85310000Y-120630633D01*
X85523483Y-120573433D01*
X85523492Y-120573429D01*
X85737578Y-120473600D01*
X85931082Y-120338105D01*
X86098105Y-120171082D01*
X86228119Y-119985405D01*
X86282696Y-119941781D01*
X86352195Y-119934588D01*
X86414549Y-119966110D01*
X86431269Y-119985405D01*
X86561505Y-120171401D01*
X86561506Y-120171402D01*
X86637961Y-120247857D01*
X86671446Y-120309180D01*
X86674280Y-120335538D01*
X86674280Y-126583553D01*
X86654595Y-126650592D01*
X86601791Y-126696347D01*
X86532633Y-126706291D01*
X86485003Y-126688980D01*
X86308603Y-126579758D01*
X86308597Y-126579756D01*
X86112456Y-126503771D01*
X85905691Y-126465120D01*
X85695349Y-126465120D01*
X85488584Y-126503771D01*
X85488583Y-126503771D01*
X85292443Y-126579755D01*
X85194407Y-126640455D01*
X85755293Y-127201340D01*
X85748020Y-127201340D01*
X85646597Y-127228516D01*
X85555663Y-127281017D01*
X85481417Y-127355263D01*
X85428916Y-127446197D01*
X85401740Y-127547620D01*
X85401740Y-127554893D01*
X84838066Y-126991219D01*
X84838065Y-126991219D01*
X84831390Y-127000059D01*
X84737631Y-127188350D01*
X84680065Y-127390675D01*
X84660658Y-127600119D01*
X84660658Y-127600120D01*
X84680065Y-127809564D01*
X84737631Y-128011889D01*
X84831391Y-128200182D01*
X84838065Y-128209019D01*
X85401740Y-127645346D01*
X85401740Y-127652620D01*
X85428916Y-127754043D01*
X85481417Y-127844977D01*
X85555663Y-127919223D01*
X85646597Y-127971724D01*
X85748020Y-127998900D01*
X85755293Y-127998900D01*
X85194407Y-128559783D01*
X85292438Y-128620482D01*
X85292440Y-128620483D01*
X85488583Y-128696468D01*
X85695349Y-128735120D01*
X85905691Y-128735120D01*
X86112455Y-128696468D01*
X86112456Y-128696468D01*
X86308599Y-128620483D01*
X86308600Y-128620482D01*
X86406630Y-128559784D01*
X86406631Y-128559783D01*
X85845748Y-127998900D01*
X85853020Y-127998900D01*
X85954443Y-127971724D01*
X86045377Y-127919223D01*
X86119623Y-127844977D01*
X86172124Y-127754043D01*
X86199300Y-127652620D01*
X86199300Y-127645347D01*
X86762972Y-128209019D01*
X86768136Y-128208661D01*
X86836377Y-128223659D01*
X86875671Y-128257637D01*
X86929308Y-128328663D01*
X86939743Y-128342482D01*
X86959301Y-128368380D01*
X87114816Y-128510150D01*
X87114818Y-128510152D01*
X87293732Y-128620931D01*
X87293738Y-128620934D01*
X87318483Y-128630520D01*
X87489964Y-128696952D01*
X87696820Y-128735620D01*
X87696822Y-128735620D01*
X87907258Y-128735620D01*
X87907260Y-128735620D01*
X88114116Y-128696952D01*
X88310344Y-128620933D01*
X88489263Y-128510151D01*
X88621417Y-128389676D01*
X88644778Y-128368381D01*
X88664336Y-128342483D01*
X88701306Y-128293525D01*
X88757415Y-128251890D01*
X88827127Y-128247199D01*
X88888309Y-128280941D01*
X88899214Y-128293526D01*
X88955741Y-128368381D01*
X89111256Y-128510150D01*
X89111258Y-128510152D01*
X89290172Y-128620931D01*
X89290178Y-128620934D01*
X89314923Y-128630520D01*
X89486404Y-128696952D01*
X89693260Y-128735620D01*
X89693262Y-128735620D01*
X89903698Y-128735620D01*
X89903700Y-128735620D01*
X90110556Y-128696952D01*
X90306784Y-128620933D01*
X90485703Y-128510151D01*
X90539338Y-128461255D01*
X90602138Y-128430640D01*
X90671525Y-128438837D01*
X90722140Y-128478582D01*
X90753755Y-128520814D01*
X90789273Y-128568260D01*
X90807455Y-128592547D01*
X90922666Y-128678794D01*
X90922664Y-128678794D01*
X90922668Y-128678795D01*
X90922669Y-128678796D01*
X90964833Y-128694522D01*
X91020765Y-128736390D01*
X91045184Y-128801854D01*
X91045500Y-128810703D01*
X91045500Y-129421500D01*
X91025815Y-129488539D01*
X90973011Y-129534294D01*
X90921500Y-129545500D01*
X78063746Y-129545500D01*
X77996707Y-129525815D01*
X77976065Y-129509181D01*
X76071558Y-127604673D01*
X76038073Y-127543350D01*
X76035239Y-127516992D01*
X76035239Y-126817009D01*
X76035238Y-126817003D01*
X76034198Y-126807332D01*
X76028831Y-126757397D01*
X76019261Y-126731739D01*
X75978537Y-126622551D01*
X75978533Y-126622544D01*
X75892287Y-126507335D01*
X75892284Y-126507332D01*
X75777075Y-126421086D01*
X75777068Y-126421082D01*
X75642222Y-126370788D01*
X75642223Y-126370788D01*
X75582623Y-126364381D01*
X75582621Y-126364380D01*
X75582613Y-126364380D01*
X75582604Y-126364380D01*
X74216869Y-126364380D01*
X74216863Y-126364381D01*
X74157256Y-126370788D01*
X74022411Y-126421082D01*
X74022404Y-126421086D01*
X73907195Y-126507332D01*
X73821774Y-126621439D01*
X73765840Y-126663309D01*
X73696148Y-126668293D01*
X73638971Y-126638765D01*
X73585443Y-126589969D01*
X73585439Y-126589966D01*
X73584438Y-126589346D01*
X73584060Y-126588924D01*
X73580867Y-126586513D01*
X73581338Y-126585888D01*
X73537805Y-126537316D01*
X73525720Y-126483922D01*
X73525720Y-116833060D01*
X73545405Y-116766021D01*
X73562034Y-116745384D01*
X77087409Y-113220008D01*
X77148730Y-113186525D01*
X77207180Y-113187915D01*
X77273308Y-113205635D01*
X77435230Y-113219801D01*
X77499998Y-113225468D01*
X77500000Y-113225468D01*
X77500002Y-113225468D01*
X77562385Y-113220010D01*
X77726692Y-113205635D01*
X77946496Y-113146739D01*
X78152734Y-113050568D01*
X78339139Y-112920047D01*
X78500047Y-112759139D01*
X78630568Y-112572734D01*
X78726739Y-112366496D01*
X78785635Y-112146692D01*
X78805468Y-111920000D01*
X78801968Y-111880000D01*
X78799801Y-111855230D01*
X78785635Y-111693308D01*
X78726739Y-111473504D01*
X78630568Y-111267266D01*
X78500047Y-111080861D01*
X78500045Y-111080858D01*
X78339141Y-110919954D01*
X78180377Y-110808787D01*
X78136752Y-110754210D01*
X78127500Y-110707212D01*
X78127500Y-103817784D01*
X78147185Y-103750745D01*
X78163819Y-103730103D01*
X80173924Y-101719998D01*
X83994532Y-101719998D01*
X83994532Y-101720001D01*
X84014364Y-101946686D01*
X84014366Y-101946697D01*
X84073258Y-102166488D01*
X84073261Y-102166497D01*
X84169431Y-102372732D01*
X84169432Y-102372734D01*
X84299954Y-102559141D01*
X84460858Y-102720045D01*
X84460861Y-102720047D01*
X84647266Y-102850568D01*
X84853504Y-102946739D01*
X85073308Y-103005635D01*
X85227122Y-103019092D01*
X85299998Y-103025468D01*
X85300000Y-103025468D01*
X85300002Y-103025468D01*
X85356673Y-103020509D01*
X85526692Y-103005635D01*
X85746496Y-102946739D01*
X85952734Y-102850568D01*
X86139139Y-102720047D01*
X86300047Y-102559139D01*
X86430568Y-102372734D01*
X86526739Y-102166496D01*
X86585635Y-101946692D01*
X86605468Y-101720000D01*
X86585635Y-101493308D01*
X86526739Y-101273504D01*
X86430568Y-101067266D01*
X86300047Y-100880861D01*
X86300045Y-100880858D01*
X86139141Y-100719954D01*
X85952734Y-100589432D01*
X85952732Y-100589431D01*
X85746497Y-100493261D01*
X85746488Y-100493258D01*
X85526697Y-100434366D01*
X85526693Y-100434365D01*
X85526692Y-100434365D01*
X85526691Y-100434364D01*
X85526686Y-100434364D01*
X85300002Y-100414532D01*
X85299998Y-100414532D01*
X85073313Y-100434364D01*
X85073302Y-100434366D01*
X84853511Y-100493258D01*
X84853502Y-100493261D01*
X84647267Y-100589431D01*
X84647265Y-100589432D01*
X84460858Y-100719954D01*
X84299954Y-100880858D01*
X84169432Y-101067265D01*
X84169431Y-101067267D01*
X84073261Y-101273502D01*
X84073258Y-101273511D01*
X84014366Y-101493302D01*
X84014364Y-101493313D01*
X83994532Y-101719998D01*
X80173924Y-101719998D01*
X81997397Y-99896525D01*
X85849688Y-96044233D01*
X85911009Y-96010750D01*
X85980701Y-96015734D01*
X86025048Y-96044235D01*
X86080858Y-96100045D01*
X86080861Y-96100047D01*
X86267266Y-96230568D01*
X86473504Y-96326739D01*
X86473509Y-96326740D01*
X86473511Y-96326741D01*
X86509145Y-96336289D01*
X86693308Y-96385635D01*
X86855230Y-96399801D01*
X86919998Y-96405468D01*
X86920000Y-96405468D01*
X86920002Y-96405468D01*
X86976673Y-96400509D01*
X87146692Y-96385635D01*
X87366496Y-96326739D01*
X87572734Y-96230568D01*
X87759139Y-96100047D01*
X87920047Y-95939139D01*
X88050568Y-95752734D01*
X88077618Y-95694724D01*
X88123790Y-95642285D01*
X88190983Y-95623133D01*
X88257865Y-95643348D01*
G37*
G04 #@! TD.AperFunction*
G04 #@! TA.AperFunction,Conductor*
G36*
X95479703Y-71707173D02*
G01*
X95486181Y-71713205D01*
X96106181Y-72333205D01*
X96139666Y-72394528D01*
X96142500Y-72420886D01*
X96142500Y-98851807D01*
X96166612Y-98973028D01*
X96166613Y-98973032D01*
X96166614Y-98973035D01*
X96189385Y-99028007D01*
X96213917Y-99087233D01*
X96213918Y-99087235D01*
X96213920Y-99087239D01*
X96282588Y-99190007D01*
X96282591Y-99190011D01*
X98399989Y-101307408D01*
X98433474Y-101368731D01*
X98432083Y-101427182D01*
X98414366Y-101493302D01*
X98414364Y-101493313D01*
X98394532Y-101719998D01*
X98394532Y-101720001D01*
X98414364Y-101946686D01*
X98414366Y-101946697D01*
X98473258Y-102166488D01*
X98473261Y-102166497D01*
X98569431Y-102372732D01*
X98569432Y-102372734D01*
X98699954Y-102559141D01*
X98860858Y-102720045D01*
X98860861Y-102720047D01*
X99047266Y-102850568D01*
X99253504Y-102946739D01*
X99473308Y-103005635D01*
X99627122Y-103019092D01*
X99699998Y-103025468D01*
X99700000Y-103025468D01*
X99700002Y-103025468D01*
X99756673Y-103020509D01*
X99926692Y-103005635D01*
X100116407Y-102954801D01*
X100186256Y-102956464D01*
X100244119Y-102995626D01*
X100271623Y-103059855D01*
X100272500Y-103074576D01*
X100272500Y-110368718D01*
X100252815Y-110435757D01*
X100236181Y-110456399D01*
X100112591Y-110579989D01*
X100051268Y-110613474D01*
X99992817Y-110612083D01*
X99926697Y-110594366D01*
X99926693Y-110594365D01*
X99926692Y-110594365D01*
X99926691Y-110594364D01*
X99926686Y-110594364D01*
X99700002Y-110574532D01*
X99699998Y-110574532D01*
X99473313Y-110594364D01*
X99473302Y-110594366D01*
X99253511Y-110653258D01*
X99253502Y-110653261D01*
X99047267Y-110749431D01*
X99047265Y-110749432D01*
X98860858Y-110879954D01*
X98699954Y-111040858D01*
X98569432Y-111227265D01*
X98569431Y-111227267D01*
X98473261Y-111433502D01*
X98473258Y-111433511D01*
X98414366Y-111653302D01*
X98414364Y-111653313D01*
X98394532Y-111879998D01*
X98394532Y-111880001D01*
X98414364Y-112106686D01*
X98414366Y-112106697D01*
X98473258Y-112326488D01*
X98473261Y-112326497D01*
X98569431Y-112532732D01*
X98569432Y-112532734D01*
X98699954Y-112719141D01*
X98860858Y-112880045D01*
X98860861Y-112880047D01*
X99047266Y-113010568D01*
X99253504Y-113106739D01*
X99473308Y-113165635D01*
X99635230Y-113179801D01*
X99699998Y-113185468D01*
X99700000Y-113185468D01*
X99700002Y-113185468D01*
X99731421Y-113182719D01*
X99926692Y-113165635D01*
X99992815Y-113147917D01*
X100062665Y-113149578D01*
X100112591Y-113180010D01*
X103637961Y-116705380D01*
X103671446Y-116766703D01*
X103674280Y-116793061D01*
X103674280Y-126871934D01*
X103654595Y-126938973D01*
X103633818Y-126963571D01*
X103559041Y-127031739D01*
X103475412Y-127142481D01*
X103419302Y-127184117D01*
X103367875Y-127191457D01*
X103362712Y-127191098D01*
X102799040Y-127754771D01*
X102799040Y-127747500D01*
X102771864Y-127646077D01*
X102719363Y-127555143D01*
X102645117Y-127480897D01*
X102554183Y-127428396D01*
X102452760Y-127401220D01*
X102445488Y-127401220D01*
X103006371Y-126840335D01*
X103006370Y-126840334D01*
X102908343Y-126779638D01*
X102908337Y-126779636D01*
X102712196Y-126703651D01*
X102505431Y-126665000D01*
X102295089Y-126665000D01*
X102088324Y-126703651D01*
X102088323Y-126703651D01*
X101892183Y-126779635D01*
X101794147Y-126840335D01*
X102355033Y-127401220D01*
X102347760Y-127401220D01*
X102246337Y-127428396D01*
X102155403Y-127480897D01*
X102081157Y-127555143D01*
X102028656Y-127646077D01*
X102001480Y-127747500D01*
X102001480Y-127754773D01*
X101437806Y-127191099D01*
X101437805Y-127191099D01*
X101431130Y-127199939D01*
X101337371Y-127388230D01*
X101279805Y-127590555D01*
X101260398Y-127799999D01*
X101260398Y-127800000D01*
X101279805Y-128009444D01*
X101337371Y-128211769D01*
X101431131Y-128400062D01*
X101437805Y-128408899D01*
X102001480Y-127845226D01*
X102001480Y-127852500D01*
X102028656Y-127953923D01*
X102081157Y-128044857D01*
X102155403Y-128119103D01*
X102246337Y-128171604D01*
X102347760Y-128198780D01*
X102355033Y-128198780D01*
X101794147Y-128759663D01*
X101892178Y-128820362D01*
X101892180Y-128820363D01*
X102088323Y-128896348D01*
X102295089Y-128935000D01*
X102505431Y-128935000D01*
X102712195Y-128896348D01*
X102712196Y-128896348D01*
X102908339Y-128820363D01*
X102908340Y-128820362D01*
X103006370Y-128759664D01*
X103006371Y-128759663D01*
X102445488Y-128198780D01*
X102452760Y-128198780D01*
X102554183Y-128171604D01*
X102645117Y-128119103D01*
X102719363Y-128044857D01*
X102771864Y-127953923D01*
X102799040Y-127852500D01*
X102799040Y-127845227D01*
X103362712Y-128408899D01*
X103367876Y-128408541D01*
X103436117Y-128423539D01*
X103475411Y-128457517D01*
X103515160Y-128510153D01*
X103539483Y-128542362D01*
X103559041Y-128568260D01*
X103714556Y-128710030D01*
X103714558Y-128710032D01*
X103893472Y-128820811D01*
X103893478Y-128820814D01*
X103935048Y-128836918D01*
X104089704Y-128896832D01*
X104296560Y-128935500D01*
X104296562Y-128935500D01*
X104506998Y-128935500D01*
X104507000Y-128935500D01*
X104713856Y-128896832D01*
X104910084Y-128820813D01*
X105089003Y-128710031D01*
X105244520Y-128568259D01*
X105301046Y-128493405D01*
X105357155Y-128451770D01*
X105426867Y-128447079D01*
X105488049Y-128480821D01*
X105498950Y-128493402D01*
X105519310Y-128520362D01*
X105555481Y-128568261D01*
X105710996Y-128710030D01*
X105710998Y-128710032D01*
X105889912Y-128820811D01*
X105889918Y-128820814D01*
X105931488Y-128836918D01*
X106086144Y-128896832D01*
X106293000Y-128935500D01*
X106293002Y-128935500D01*
X106503438Y-128935500D01*
X106503440Y-128935500D01*
X106710296Y-128896832D01*
X106906524Y-128820813D01*
X107085443Y-128710031D01*
X107139078Y-128661135D01*
X107201878Y-128630520D01*
X107271265Y-128638717D01*
X107321880Y-128678462D01*
X107407195Y-128792427D01*
X107522406Y-128878674D01*
X107522404Y-128878674D01*
X107522408Y-128878675D01*
X107522409Y-128878676D01*
X107564573Y-128894402D01*
X107620505Y-128936270D01*
X107644924Y-129001734D01*
X107645240Y-129010583D01*
X107645240Y-129221500D01*
X107625555Y-129288539D01*
X107572751Y-129334294D01*
X107521240Y-129345500D01*
X100163886Y-129345500D01*
X100096847Y-129325815D01*
X100076205Y-129309181D01*
X93630819Y-122863794D01*
X93597334Y-122802471D01*
X93594500Y-122776113D01*
X93594500Y-120746217D01*
X93614185Y-120679178D01*
X93666989Y-120633423D01*
X93675157Y-120630039D01*
X93772331Y-120593796D01*
X93887546Y-120507546D01*
X93973796Y-120392331D01*
X94024091Y-120257483D01*
X94030500Y-120197873D01*
X94030499Y-119067886D01*
X94050184Y-119000848D01*
X94066818Y-118980206D01*
X95106056Y-117940969D01*
X95106057Y-117940968D01*
X95106057Y-117940967D01*
X95106059Y-117940966D01*
X95188630Y-117817389D01*
X95245505Y-117680079D01*
X95274501Y-117534312D01*
X95274501Y-117385688D01*
X95274501Y-117380578D01*
X95274500Y-117380552D01*
X95274500Y-71800886D01*
X95294185Y-71733847D01*
X95346989Y-71688092D01*
X95416147Y-71678148D01*
X95479703Y-71707173D01*
G37*
G04 #@! TD.AperFunction*
G04 #@! TA.AperFunction,Conductor*
G36*
X99690177Y-84267241D02*
G01*
X99723677Y-84291096D01*
X104729921Y-89297340D01*
X104763406Y-89358663D01*
X104766240Y-89385021D01*
X104766240Y-110535547D01*
X104790352Y-110656768D01*
X104790353Y-110656772D01*
X104790354Y-110656775D01*
X104805924Y-110694364D01*
X104805925Y-110694366D01*
X104837654Y-110770968D01*
X104837656Y-110770971D01*
X104837657Y-110770973D01*
X104849991Y-110789432D01*
X104849992Y-110789433D01*
X104849991Y-110789433D01*
X104906325Y-110873743D01*
X104906331Y-110873751D01*
X105499989Y-111467408D01*
X105533474Y-111528731D01*
X105532083Y-111587182D01*
X105514366Y-111653302D01*
X105514364Y-111653313D01*
X105494532Y-111879998D01*
X105494532Y-111880001D01*
X105514364Y-112106686D01*
X105514366Y-112106697D01*
X105573258Y-112326488D01*
X105573261Y-112326497D01*
X105596675Y-112376707D01*
X105659102Y-112510582D01*
X105670720Y-112562985D01*
X105670720Y-126871934D01*
X105651035Y-126938973D01*
X105630258Y-126963571D01*
X105555481Y-127031738D01*
X105498954Y-127106593D01*
X105442845Y-127148229D01*
X105373133Y-127152920D01*
X105311951Y-127119178D01*
X105301046Y-127106593D01*
X105272923Y-127069353D01*
X105244520Y-127031741D01*
X105209766Y-127000059D01*
X105089003Y-126889969D01*
X105088998Y-126889965D01*
X104988002Y-126827430D01*
X104941367Y-126775402D01*
X104929280Y-126722004D01*
X104929280Y-116419976D01*
X104929279Y-116419975D01*
X104913122Y-116338745D01*
X104905166Y-116298746D01*
X104860187Y-116190159D01*
X104858543Y-116185564D01*
X104789194Y-116081776D01*
X104789193Y-116081774D01*
X104789191Y-116081772D01*
X104701788Y-115994369D01*
X101000010Y-112292591D01*
X100966525Y-112231268D01*
X100967917Y-112172815D01*
X100985633Y-112106699D01*
X100985632Y-112106699D01*
X100985635Y-112106692D01*
X101005468Y-111880000D01*
X100985635Y-111653308D01*
X100967916Y-111587181D01*
X100969579Y-111517332D01*
X101000006Y-111467411D01*
X101387411Y-111080008D01*
X101456083Y-110977233D01*
X101503385Y-110863035D01*
X101518026Y-110789431D01*
X101527500Y-110741805D01*
X101527500Y-87058196D01*
X101527499Y-87058195D01*
X101514450Y-86992589D01*
X101503386Y-86936966D01*
X101468399Y-86852500D01*
X101456083Y-86822767D01*
X101456082Y-86822766D01*
X101456079Y-86822760D01*
X101387412Y-86719993D01*
X101387411Y-86719992D01*
X101300008Y-86632589D01*
X99630750Y-84963331D01*
X99597265Y-84902008D01*
X99594903Y-84864841D01*
X99595408Y-84859075D01*
X99575575Y-84632383D01*
X99516679Y-84412579D01*
X99516678Y-84412578D01*
X99516221Y-84410870D01*
X99517884Y-84341021D01*
X99557047Y-84283158D01*
X99621275Y-84255654D01*
X99690177Y-84267241D01*
G37*
G04 #@! TD.AperFunction*
G04 #@! TA.AperFunction,Conductor*
G36*
X75547851Y-88042080D02*
G01*
X75603784Y-88083952D01*
X75616899Y-88105858D01*
X75629428Y-88132728D01*
X75629430Y-88132731D01*
X75759954Y-88319141D01*
X75920858Y-88480045D01*
X75920861Y-88480047D01*
X76107266Y-88610568D01*
X76165275Y-88637618D01*
X76217714Y-88683791D01*
X76236866Y-88750984D01*
X76216650Y-88817865D01*
X76165275Y-88862382D01*
X76107267Y-88889431D01*
X76107265Y-88889432D01*
X75920858Y-89019954D01*
X75759954Y-89180858D01*
X75629432Y-89367265D01*
X75629431Y-89367267D01*
X75533261Y-89573502D01*
X75533258Y-89573511D01*
X75474366Y-89793302D01*
X75474364Y-89793313D01*
X75454532Y-90019998D01*
X75454532Y-90020001D01*
X75474364Y-90246686D01*
X75474366Y-90246697D01*
X75533258Y-90466488D01*
X75533261Y-90466497D01*
X75629431Y-90672732D01*
X75629432Y-90672734D01*
X75759954Y-90859141D01*
X75920858Y-91020045D01*
X75920861Y-91020047D01*
X76107266Y-91150568D01*
X76165275Y-91177618D01*
X76217714Y-91223791D01*
X76236866Y-91290984D01*
X76216650Y-91357865D01*
X76165275Y-91402382D01*
X76107267Y-91429431D01*
X76107265Y-91429432D01*
X75920858Y-91559954D01*
X75759954Y-91720858D01*
X75629432Y-91907265D01*
X75629431Y-91907267D01*
X75533261Y-92113502D01*
X75533258Y-92113511D01*
X75474366Y-92333302D01*
X75474364Y-92333313D01*
X75454532Y-92559998D01*
X75454532Y-92560001D01*
X75474364Y-92786686D01*
X75474366Y-92786697D01*
X75533258Y-93006488D01*
X75533261Y-93006497D01*
X75629431Y-93212732D01*
X75629432Y-93212734D01*
X75759954Y-93399141D01*
X75920858Y-93560045D01*
X75920861Y-93560047D01*
X76107266Y-93690568D01*
X76165275Y-93717618D01*
X76217714Y-93763791D01*
X76236866Y-93830984D01*
X76216650Y-93897865D01*
X76165275Y-93942382D01*
X76107267Y-93969431D01*
X76107265Y-93969432D01*
X75920858Y-94099954D01*
X75759954Y-94260858D01*
X75629432Y-94447265D01*
X75629431Y-94447267D01*
X75533261Y-94653502D01*
X75533258Y-94653511D01*
X75474366Y-94873302D01*
X75474364Y-94873313D01*
X75454532Y-95099998D01*
X75454532Y-95100001D01*
X75474364Y-95326686D01*
X75474366Y-95326697D01*
X75533258Y-95546488D01*
X75533261Y-95546497D01*
X75629431Y-95752732D01*
X75629432Y-95752734D01*
X75759954Y-95939141D01*
X75920858Y-96100045D01*
X75920861Y-96100047D01*
X76107266Y-96230568D01*
X76313504Y-96326739D01*
X76313509Y-96326740D01*
X76313511Y-96326741D01*
X76349145Y-96336289D01*
X76533308Y-96385635D01*
X76695230Y-96399801D01*
X76759998Y-96405468D01*
X76760000Y-96405468D01*
X76760002Y-96405468D01*
X76816673Y-96400509D01*
X76986692Y-96385635D01*
X77206496Y-96326739D01*
X77412734Y-96230568D01*
X77599139Y-96100047D01*
X77760047Y-95939139D01*
X77890568Y-95752734D01*
X77917618Y-95694724D01*
X77963790Y-95642285D01*
X78030983Y-95623133D01*
X78097865Y-95643348D01*
X78142382Y-95694725D01*
X78169429Y-95752728D01*
X78169432Y-95752734D01*
X78299954Y-95939141D01*
X78460858Y-96100045D01*
X78460861Y-96100047D01*
X78647266Y-96230568D01*
X78853504Y-96326739D01*
X78853509Y-96326740D01*
X78853511Y-96326741D01*
X78889145Y-96336289D01*
X79073308Y-96385635D01*
X79235230Y-96399801D01*
X79299998Y-96405468D01*
X79300000Y-96405468D01*
X79300002Y-96405468D01*
X79356673Y-96400509D01*
X79526692Y-96385635D01*
X79746496Y-96326739D01*
X79952734Y-96230568D01*
X80139139Y-96100047D01*
X80300047Y-95939139D01*
X80430568Y-95752734D01*
X80457618Y-95694724D01*
X80503790Y-95642285D01*
X80570983Y-95623133D01*
X80637865Y-95643348D01*
X80682382Y-95694725D01*
X80709429Y-95752728D01*
X80709432Y-95752734D01*
X80839954Y-95939141D01*
X81000858Y-96100045D01*
X81000861Y-96100047D01*
X81187266Y-96230568D01*
X81393504Y-96326739D01*
X81393509Y-96326740D01*
X81393511Y-96326741D01*
X81429145Y-96336289D01*
X81613308Y-96385635D01*
X81775230Y-96399801D01*
X81839998Y-96405468D01*
X81840000Y-96405468D01*
X81840002Y-96405468D01*
X81896673Y-96400509D01*
X82066692Y-96385635D01*
X82286496Y-96326739D01*
X82492734Y-96230568D01*
X82679139Y-96100047D01*
X82840047Y-95939139D01*
X82970568Y-95752734D01*
X82997618Y-95694724D01*
X83043790Y-95642285D01*
X83110983Y-95623133D01*
X83177865Y-95643348D01*
X83222382Y-95694725D01*
X83249429Y-95752728D01*
X83249432Y-95752734D01*
X83379954Y-95939141D01*
X83540858Y-96100045D01*
X83701054Y-96212214D01*
X83744679Y-96266790D01*
X83751873Y-96336289D01*
X83720351Y-96398644D01*
X83717612Y-96401470D01*
X78877032Y-101242050D01*
X78815709Y-101275535D01*
X78746017Y-101270551D01*
X78690084Y-101228679D01*
X78676971Y-101206778D01*
X78630568Y-101107266D01*
X78500047Y-100920861D01*
X78500045Y-100920858D01*
X78339141Y-100759954D01*
X78152734Y-100629432D01*
X78152732Y-100629431D01*
X77946497Y-100533261D01*
X77946488Y-100533258D01*
X77726697Y-100474366D01*
X77726693Y-100474365D01*
X77726692Y-100474365D01*
X77726691Y-100474364D01*
X77726686Y-100474364D01*
X77500002Y-100454532D01*
X77499998Y-100454532D01*
X77273313Y-100474364D01*
X77273302Y-100474366D01*
X77053511Y-100533258D01*
X77053502Y-100533261D01*
X76847267Y-100629431D01*
X76847265Y-100629432D01*
X76660858Y-100759954D01*
X76499954Y-100920858D01*
X76369432Y-101107265D01*
X76369431Y-101107267D01*
X76273261Y-101313502D01*
X76273258Y-101313511D01*
X76214366Y-101533302D01*
X76214364Y-101533313D01*
X76194532Y-101759998D01*
X76194532Y-101760001D01*
X76214364Y-101986686D01*
X76214366Y-101986697D01*
X76273258Y-102206488D01*
X76273261Y-102206497D01*
X76369431Y-102412732D01*
X76369432Y-102412734D01*
X76499954Y-102599141D01*
X76660858Y-102760045D01*
X76660861Y-102760047D01*
X76847266Y-102890568D01*
X76952316Y-102939554D01*
X77004754Y-102985725D01*
X77023906Y-103052919D01*
X77003690Y-103119800D01*
X77003013Y-103120825D01*
X76943232Y-103210294D01*
X76941586Y-103214896D01*
X76896614Y-103323467D01*
X76896612Y-103323475D01*
X76872500Y-103444695D01*
X76872500Y-110707212D01*
X76852815Y-110774251D01*
X76819623Y-110808787D01*
X76660858Y-110919954D01*
X76499954Y-111080858D01*
X76369432Y-111267265D01*
X76369431Y-111267267D01*
X76273261Y-111473502D01*
X76273258Y-111473511D01*
X76214366Y-111693302D01*
X76214364Y-111693313D01*
X76194532Y-111919998D01*
X76194532Y-111920001D01*
X76214364Y-112146686D01*
X76214365Y-112146694D01*
X76224075Y-112182930D01*
X76230443Y-112206697D01*
X76232083Y-112212815D01*
X76230420Y-112282665D01*
X76199989Y-112332590D01*
X72538212Y-115994369D01*
X72498212Y-116034369D01*
X72454509Y-116078072D01*
X72410806Y-116121774D01*
X72410805Y-116121776D01*
X72341453Y-116225569D01*
X72339806Y-116230173D01*
X72294834Y-116338744D01*
X72294832Y-116338752D01*
X72270720Y-116459972D01*
X72270720Y-126483922D01*
X72251035Y-126550961D01*
X72215278Y-126586123D01*
X72215573Y-126586513D01*
X72212598Y-126588759D01*
X72212002Y-126589346D01*
X72211000Y-126589966D01*
X72210996Y-126589969D01*
X72055481Y-126731739D01*
X71998954Y-126806593D01*
X71942845Y-126848229D01*
X71873133Y-126852920D01*
X71811951Y-126819178D01*
X71801046Y-126806593D01*
X71772923Y-126769353D01*
X71744520Y-126731741D01*
X71734568Y-126722669D01*
X71589003Y-126589969D01*
X71588999Y-126589966D01*
X71587998Y-126589346D01*
X71587620Y-126588924D01*
X71584427Y-126586513D01*
X71584898Y-126585888D01*
X71541365Y-126537316D01*
X71529280Y-126483922D01*
X71529280Y-112719974D01*
X71505166Y-112598750D01*
X71505165Y-112598749D01*
X71505165Y-112598745D01*
X71490353Y-112562985D01*
X71457866Y-112484553D01*
X71457859Y-112484540D01*
X71385807Y-112376707D01*
X71387653Y-112375473D01*
X71364237Y-112320332D01*
X71367630Y-112273887D01*
X71385633Y-112206699D01*
X71385632Y-112206699D01*
X71385635Y-112206692D01*
X71405468Y-111980000D01*
X71400218Y-111919998D01*
X71385635Y-111753313D01*
X71385635Y-111753308D01*
X71326739Y-111533504D01*
X71230568Y-111327266D01*
X71100047Y-111140861D01*
X71100045Y-111140858D01*
X70939141Y-110979954D01*
X70752734Y-110849432D01*
X70752732Y-110849431D01*
X70546497Y-110753261D01*
X70546488Y-110753258D01*
X70326697Y-110694366D01*
X70326693Y-110694365D01*
X70326692Y-110694365D01*
X70326691Y-110694364D01*
X70326686Y-110694364D01*
X70100002Y-110674532D01*
X70099998Y-110674532D01*
X69873313Y-110694364D01*
X69873302Y-110694366D01*
X69807182Y-110712083D01*
X69737332Y-110710420D01*
X69687408Y-110679989D01*
X69684419Y-110677000D01*
X69650934Y-110615677D01*
X69648100Y-110589319D01*
X69648100Y-103206890D01*
X69667785Y-103139851D01*
X69720589Y-103094096D01*
X69789747Y-103084152D01*
X69804177Y-103087111D01*
X69873308Y-103105635D01*
X70035215Y-103119800D01*
X70099998Y-103125468D01*
X70100000Y-103125468D01*
X70100002Y-103125468D01*
X70164785Y-103119800D01*
X70326692Y-103105635D01*
X70546496Y-103046739D01*
X70752734Y-102950568D01*
X70939139Y-102820047D01*
X71100047Y-102659139D01*
X71230568Y-102472734D01*
X71326739Y-102266496D01*
X71385635Y-102046692D01*
X71405468Y-101820000D01*
X71400218Y-101759998D01*
X71385635Y-101593313D01*
X71385635Y-101593308D01*
X71326739Y-101373504D01*
X71230568Y-101167266D01*
X71100047Y-100980861D01*
X71100045Y-100980858D01*
X70939141Y-100819954D01*
X70752734Y-100689432D01*
X70752732Y-100689431D01*
X70546497Y-100593261D01*
X70546488Y-100593258D01*
X70326697Y-100534366D01*
X70326693Y-100534365D01*
X70326692Y-100534365D01*
X70326691Y-100534364D01*
X70326686Y-100534364D01*
X70100002Y-100514532D01*
X70099998Y-100514532D01*
X69873313Y-100534364D01*
X69873302Y-100534366D01*
X69804193Y-100552884D01*
X69734343Y-100551221D01*
X69676481Y-100512058D01*
X69648977Y-100447830D01*
X69648100Y-100433109D01*
X69648100Y-93890680D01*
X69667785Y-93823641D01*
X69684414Y-93803004D01*
X75416838Y-88070579D01*
X75478159Y-88037096D01*
X75547851Y-88042080D01*
G37*
G04 #@! TD.AperFunction*
G04 #@! TA.AperFunction,Conductor*
G36*
X90537834Y-107632098D02*
G01*
X90593767Y-107673970D01*
X90618184Y-107739434D01*
X90618500Y-107748280D01*
X90618500Y-110927807D01*
X90642612Y-111049028D01*
X90642615Y-111049039D01*
X90664239Y-111101240D01*
X90664240Y-111101243D01*
X90689916Y-111163232D01*
X90689919Y-111163238D01*
X90738592Y-111236080D01*
X90738592Y-111236081D01*
X90738593Y-111236081D01*
X90738594Y-111236083D01*
X90758589Y-111266008D01*
X90758590Y-111266009D01*
X90758593Y-111266013D01*
X90999989Y-111507408D01*
X91033474Y-111568731D01*
X91032083Y-111627182D01*
X91014366Y-111693302D01*
X91014364Y-111693313D01*
X90994532Y-111919998D01*
X90994532Y-111920001D01*
X91014364Y-112146686D01*
X91014365Y-112146694D01*
X91024075Y-112182930D01*
X91030443Y-112206697D01*
X91032083Y-112212815D01*
X91030420Y-112282665D01*
X90999989Y-112332590D01*
X90166948Y-113165633D01*
X89899992Y-113432589D01*
X89856289Y-113476292D01*
X89812586Y-113519994D01*
X89812585Y-113519996D01*
X89743233Y-113623789D01*
X89741586Y-113628393D01*
X89696614Y-113736964D01*
X89696612Y-113736972D01*
X89672500Y-113858192D01*
X89672500Y-117948889D01*
X89652815Y-118015928D01*
X89600905Y-118061271D01*
X89462171Y-118125964D01*
X89462169Y-118125965D01*
X89268597Y-118261505D01*
X89101505Y-118428597D01*
X88971575Y-118614158D01*
X88916998Y-118657783D01*
X88847500Y-118664977D01*
X88785145Y-118633454D01*
X88768425Y-118614158D01*
X88638494Y-118428597D01*
X88471404Y-118261508D01*
X88471401Y-118261505D01*
X88440375Y-118239780D01*
X88396751Y-118185203D01*
X88387500Y-118138206D01*
X88387500Y-114278194D01*
X88363386Y-114156970D01*
X88363385Y-114156969D01*
X88363385Y-114156965D01*
X88357849Y-114143599D01*
X88316086Y-114042773D01*
X88316079Y-114042760D01*
X88247412Y-113939993D01*
X88247411Y-113939992D01*
X88160008Y-113852589D01*
X86600010Y-112292591D01*
X86566525Y-112231268D01*
X86567917Y-112172815D01*
X86585633Y-112106699D01*
X86585632Y-112106699D01*
X86585635Y-112106692D01*
X86605468Y-111880000D01*
X86585635Y-111653308D01*
X86567916Y-111587181D01*
X86569579Y-111517332D01*
X86600008Y-111467409D01*
X90406821Y-107660597D01*
X90468142Y-107627114D01*
X90537834Y-107632098D01*
G37*
G04 #@! TD.AperFunction*
G04 #@! TA.AperFunction,Conductor*
G36*
X93700064Y-112304445D02*
G01*
X93749859Y-112353458D01*
X93765500Y-112413744D01*
X93765500Y-117096112D01*
X93745815Y-117163151D01*
X93729181Y-117183793D01*
X92999793Y-117913181D01*
X92938470Y-117946666D01*
X92912112Y-117949500D01*
X91782129Y-117949500D01*
X91782123Y-117949501D01*
X91722516Y-117955908D01*
X91587671Y-118006202D01*
X91587664Y-118006206D01*
X91472455Y-118092452D01*
X91472452Y-118092455D01*
X91386206Y-118207664D01*
X91386203Y-118207669D01*
X91337189Y-118339083D01*
X91295317Y-118395016D01*
X91229853Y-118419433D01*
X91161580Y-118404581D01*
X91133326Y-118383430D01*
X91011404Y-118261508D01*
X91011401Y-118261505D01*
X90980375Y-118239780D01*
X90936751Y-118185203D01*
X90927500Y-118138206D01*
X90927500Y-114231280D01*
X90947185Y-114164241D01*
X90963814Y-114143603D01*
X91887409Y-113220008D01*
X91948730Y-113186525D01*
X92007180Y-113187915D01*
X92073308Y-113205635D01*
X92235230Y-113219801D01*
X92299998Y-113225468D01*
X92300000Y-113225468D01*
X92300002Y-113225468D01*
X92362385Y-113220010D01*
X92526692Y-113205635D01*
X92746496Y-113146739D01*
X92952734Y-113050568D01*
X93139139Y-112920047D01*
X93300047Y-112759139D01*
X93430568Y-112572734D01*
X93526739Y-112366496D01*
X93526739Y-112366494D01*
X93529027Y-112361589D01*
X93531353Y-112362673D01*
X93566407Y-112315068D01*
X93631676Y-112290134D01*
X93700064Y-112304445D01*
G37*
G04 #@! TD.AperFunction*
G04 #@! TA.AperFunction,Conductor*
G36*
X99690177Y-86807241D02*
G01*
X99723677Y-86831096D01*
X100236181Y-87343600D01*
X100269666Y-87404923D01*
X100272500Y-87431281D01*
X100272500Y-100365423D01*
X100252815Y-100432462D01*
X100200011Y-100478217D01*
X100130853Y-100488161D01*
X100116407Y-100485198D01*
X99926697Y-100434366D01*
X99926693Y-100434365D01*
X99926692Y-100434365D01*
X99926691Y-100434364D01*
X99926686Y-100434364D01*
X99700002Y-100414532D01*
X99699998Y-100414532D01*
X99473313Y-100434364D01*
X99473302Y-100434366D01*
X99407182Y-100452083D01*
X99337332Y-100450420D01*
X99287408Y-100419989D01*
X97433819Y-98566400D01*
X97400334Y-98505077D01*
X97397500Y-98478719D01*
X97397500Y-96220000D01*
X97417185Y-96152961D01*
X97469989Y-96107206D01*
X97539147Y-96097262D01*
X97592618Y-96118422D01*
X97637206Y-96149643D01*
X97843444Y-96245814D01*
X98063248Y-96304710D01*
X98225170Y-96318876D01*
X98289938Y-96324543D01*
X98289940Y-96324543D01*
X98289942Y-96324543D01*
X98346613Y-96319584D01*
X98516632Y-96304710D01*
X98736436Y-96245814D01*
X98942674Y-96149643D01*
X99129079Y-96019122D01*
X99289987Y-95858214D01*
X99420508Y-95671809D01*
X99516679Y-95465571D01*
X99575575Y-95245767D01*
X99595408Y-95019075D01*
X99575575Y-94792383D01*
X99516679Y-94572579D01*
X99420508Y-94366341D01*
X99289987Y-94179936D01*
X99289985Y-94179933D01*
X99129081Y-94019029D01*
X98982410Y-93916330D01*
X98942674Y-93888507D01*
X98884072Y-93861180D01*
X98831634Y-93815008D01*
X98812483Y-93747814D01*
X98832699Y-93680933D01*
X98884075Y-93636416D01*
X98942422Y-93609208D01*
X99015411Y-93558099D01*
X98460174Y-93002862D01*
X98502232Y-92991593D01*
X98627648Y-92919185D01*
X98730050Y-92816783D01*
X98802458Y-92691367D01*
X98813727Y-92649309D01*
X99368964Y-93204546D01*
X99420076Y-93131553D01*
X99516204Y-92925406D01*
X99516209Y-92925392D01*
X99575079Y-92705685D01*
X99575081Y-92705674D01*
X99594906Y-92479077D01*
X99594906Y-92479072D01*
X99575081Y-92252475D01*
X99575079Y-92252464D01*
X99516209Y-92032757D01*
X99516204Y-92032743D01*
X99420076Y-91826596D01*
X99420072Y-91826588D01*
X99368965Y-91753601D01*
X98813727Y-92308839D01*
X98802458Y-92266783D01*
X98730050Y-92141367D01*
X98627648Y-92038965D01*
X98502232Y-91966557D01*
X98460174Y-91955287D01*
X99015412Y-91400049D01*
X98942420Y-91348939D01*
X98884074Y-91321732D01*
X98831635Y-91275559D01*
X98812483Y-91208366D01*
X98832699Y-91141485D01*
X98884074Y-91096968D01*
X98942674Y-91069643D01*
X99129079Y-90939122D01*
X99289987Y-90778214D01*
X99420508Y-90591809D01*
X99516679Y-90385571D01*
X99575575Y-90165767D01*
X99595408Y-89939075D01*
X99575575Y-89712383D01*
X99516679Y-89492579D01*
X99420508Y-89286341D01*
X99289987Y-89099936D01*
X99289985Y-89099933D01*
X99129081Y-88939029D01*
X98942674Y-88808507D01*
X98942668Y-88808504D01*
X98909979Y-88793261D01*
X98884664Y-88781456D01*
X98832225Y-88735285D01*
X98813073Y-88668092D01*
X98833288Y-88601210D01*
X98884665Y-88556693D01*
X98942674Y-88529643D01*
X99129079Y-88399122D01*
X99289987Y-88238214D01*
X99420508Y-88051809D01*
X99516679Y-87845571D01*
X99575575Y-87625767D01*
X99595408Y-87399075D01*
X99575575Y-87172383D01*
X99516679Y-86952579D01*
X99516678Y-86952578D01*
X99516221Y-86950870D01*
X99517884Y-86881021D01*
X99557047Y-86823158D01*
X99621275Y-86795654D01*
X99690177Y-86807241D01*
G37*
G04 #@! TD.AperFunction*
G04 #@! TA.AperFunction,Conductor*
G36*
X91289222Y-96189925D02*
G01*
X91347266Y-96230568D01*
X91553504Y-96326739D01*
X91553509Y-96326740D01*
X91553511Y-96326741D01*
X91589145Y-96336289D01*
X91773308Y-96385635D01*
X91935230Y-96399801D01*
X91999998Y-96405468D01*
X92000000Y-96405468D01*
X92000002Y-96405468D01*
X92056673Y-96400509D01*
X92226692Y-96385635D01*
X92270405Y-96373922D01*
X92340255Y-96375584D01*
X92398118Y-96414746D01*
X92425623Y-96478974D01*
X92426500Y-96493696D01*
X92426500Y-99204137D01*
X92406815Y-99271176D01*
X92390181Y-99291818D01*
X91305781Y-100376218D01*
X91244458Y-100409703D01*
X91174766Y-100404719D01*
X91118833Y-100362847D01*
X91094416Y-100297383D01*
X91094100Y-100288537D01*
X91094100Y-96291501D01*
X91113785Y-96224462D01*
X91166589Y-96178707D01*
X91235747Y-96168763D01*
X91289222Y-96189925D01*
G37*
G04 #@! TD.AperFunction*
G04 #@! TA.AperFunction,Conductor*
G36*
X112442539Y-60520185D02*
G01*
X112488294Y-60572989D01*
X112499500Y-60624500D01*
X112499500Y-131375500D01*
X112479815Y-131442539D01*
X112427011Y-131488294D01*
X112375500Y-131499500D01*
X65624500Y-131499500D01*
X65557461Y-131479815D01*
X65511706Y-131427011D01*
X65500500Y-131375500D01*
X65500500Y-127499999D01*
X67760398Y-127499999D01*
X67760398Y-127500000D01*
X67779805Y-127709444D01*
X67837371Y-127911769D01*
X67931131Y-128100062D01*
X67937805Y-128108899D01*
X68501480Y-127545226D01*
X68501480Y-127552500D01*
X68528656Y-127653923D01*
X68581157Y-127744857D01*
X68655403Y-127819103D01*
X68746337Y-127871604D01*
X68847760Y-127898780D01*
X68855033Y-127898780D01*
X68294147Y-128459663D01*
X68392178Y-128520362D01*
X68392180Y-128520363D01*
X68588323Y-128596348D01*
X68795089Y-128635000D01*
X69005431Y-128635000D01*
X69212195Y-128596348D01*
X69212196Y-128596348D01*
X69408339Y-128520363D01*
X69408340Y-128520362D01*
X69506370Y-128459664D01*
X69506371Y-128459663D01*
X68945488Y-127898780D01*
X68952760Y-127898780D01*
X69054183Y-127871604D01*
X69145117Y-127819103D01*
X69219363Y-127744857D01*
X69271864Y-127653923D01*
X69299040Y-127552500D01*
X69299040Y-127545227D01*
X69862712Y-128108899D01*
X69867876Y-128108541D01*
X69936117Y-128123539D01*
X69975411Y-128157517D01*
X70059041Y-128268260D01*
X70075061Y-128282864D01*
X70203621Y-128400062D01*
X70214556Y-128410030D01*
X70214558Y-128410032D01*
X70393472Y-128520811D01*
X70393478Y-128520814D01*
X70435048Y-128536918D01*
X70589704Y-128596832D01*
X70796560Y-128635500D01*
X70796562Y-128635500D01*
X71006998Y-128635500D01*
X71007000Y-128635500D01*
X71213856Y-128596832D01*
X71410084Y-128520813D01*
X71589003Y-128410031D01*
X71728499Y-128282864D01*
X71744518Y-128268261D01*
X71760424Y-128247199D01*
X71801046Y-128193405D01*
X71857155Y-128151770D01*
X71926867Y-128147079D01*
X71988049Y-128180821D01*
X71998950Y-128193402D01*
X72010474Y-128208661D01*
X72055481Y-128268261D01*
X72210996Y-128410030D01*
X72210998Y-128410032D01*
X72389912Y-128520811D01*
X72389918Y-128520814D01*
X72431488Y-128536918D01*
X72586144Y-128596832D01*
X72793000Y-128635500D01*
X72793002Y-128635500D01*
X73003438Y-128635500D01*
X73003440Y-128635500D01*
X73210296Y-128596832D01*
X73406524Y-128520813D01*
X73585443Y-128410031D01*
X73639078Y-128361135D01*
X73701878Y-128330520D01*
X73771265Y-128338717D01*
X73821880Y-128378462D01*
X73855625Y-128423539D01*
X73898506Y-128480821D01*
X73907195Y-128492427D01*
X74022404Y-128578673D01*
X74022411Y-128578677D01*
X74059591Y-128592544D01*
X74157257Y-128628971D01*
X74216867Y-128635380D01*
X74916852Y-128635379D01*
X74983891Y-128655063D01*
X75004533Y-128671698D01*
X77109460Y-130776624D01*
X77109481Y-130776647D01*
X77218889Y-130886055D01*
X77218892Y-130886057D01*
X77218894Y-130886059D01*
X77301465Y-130941230D01*
X77342471Y-130968630D01*
X77422903Y-131001945D01*
X77422904Y-131001946D01*
X77446463Y-131011704D01*
X77479780Y-131025505D01*
X77479789Y-131025506D01*
X77479790Y-131025507D01*
X77503963Y-131030315D01*
X77503970Y-131030316D01*
X77625546Y-131054501D01*
X77625548Y-131054501D01*
X77780286Y-131054501D01*
X77780306Y-131054500D01*
X91874313Y-131054500D01*
X91874314Y-131054499D01*
X92020080Y-131025505D01*
X92157390Y-130968629D01*
X92280966Y-130886059D01*
X92386059Y-130780966D01*
X92468629Y-130657390D01*
X92525505Y-130520080D01*
X92554500Y-130374312D01*
X92554500Y-128810703D01*
X92574185Y-128743664D01*
X92626989Y-128697909D01*
X92635143Y-128694530D01*
X92677331Y-128678796D01*
X92679449Y-128677211D01*
X92715447Y-128650261D01*
X92792546Y-128592546D01*
X92878796Y-128477331D01*
X92929091Y-128342483D01*
X92935500Y-128282873D01*
X92935499Y-126917128D01*
X92929091Y-126857517D01*
X92927376Y-126852920D01*
X92878797Y-126722671D01*
X92878793Y-126722664D01*
X92792547Y-126607455D01*
X92792544Y-126607452D01*
X92677335Y-126521206D01*
X92677328Y-126521202D01*
X92542482Y-126470908D01*
X92542483Y-126470908D01*
X92482883Y-126464501D01*
X92482881Y-126464500D01*
X92482873Y-126464500D01*
X92482865Y-126464500D01*
X92178240Y-126464500D01*
X92111201Y-126444815D01*
X92065446Y-126392011D01*
X92054240Y-126340500D01*
X92054240Y-123720627D01*
X92073925Y-123653588D01*
X92126729Y-123607833D01*
X92195887Y-123597889D01*
X92259443Y-123626914D01*
X92265921Y-123632946D01*
X99209600Y-130576624D01*
X99209621Y-130576647D01*
X99319028Y-130686054D01*
X99319035Y-130686060D01*
X99442608Y-130768628D01*
X99442609Y-130768628D01*
X99442610Y-130768629D01*
X99579920Y-130825505D01*
X99725683Y-130854499D01*
X99725687Y-130854500D01*
X99725688Y-130854500D01*
X99874312Y-130854500D01*
X107819554Y-130854500D01*
X107819574Y-130854501D01*
X107825688Y-130854501D01*
X107974314Y-130854501D01*
X108095894Y-130830315D01*
X108095894Y-130830316D01*
X108095900Y-130830313D01*
X108120080Y-130825505D01*
X108155942Y-130810649D01*
X108176944Y-130801951D01*
X108176947Y-130801949D01*
X108176955Y-130801946D01*
X108257389Y-130768630D01*
X108380966Y-130686059D01*
X108985799Y-130081226D01*
X109068370Y-129957650D01*
X109125245Y-129820339D01*
X109125505Y-129819035D01*
X109130055Y-129796155D01*
X109130056Y-129796155D01*
X109130056Y-129796148D01*
X109154241Y-129674572D01*
X109154241Y-129525948D01*
X109154241Y-129520838D01*
X109154240Y-129520812D01*
X109154240Y-129010583D01*
X109173925Y-128943544D01*
X109226729Y-128897789D01*
X109234883Y-128894410D01*
X109277071Y-128878676D01*
X109392286Y-128792426D01*
X109478536Y-128677211D01*
X109528831Y-128542363D01*
X109535240Y-128482753D01*
X109535239Y-127117008D01*
X109528831Y-127057397D01*
X109519261Y-127031739D01*
X109478537Y-126922551D01*
X109478533Y-126922544D01*
X109392287Y-126807335D01*
X109392284Y-126807332D01*
X109277075Y-126721086D01*
X109277068Y-126721082D01*
X109142222Y-126670788D01*
X109142223Y-126670788D01*
X109082623Y-126664381D01*
X109082621Y-126664380D01*
X109082613Y-126664380D01*
X109082604Y-126664380D01*
X107716869Y-126664380D01*
X107716863Y-126664381D01*
X107657256Y-126670788D01*
X107522411Y-126721082D01*
X107522404Y-126721086D01*
X107407195Y-126807332D01*
X107321774Y-126921439D01*
X107265840Y-126963309D01*
X107196148Y-126968293D01*
X107138971Y-126938765D01*
X107085443Y-126889969D01*
X107085438Y-126889965D01*
X106984442Y-126827430D01*
X106937807Y-126775402D01*
X106925720Y-126722004D01*
X106925720Y-121878711D01*
X107649500Y-121878711D01*
X107649500Y-122121288D01*
X107681161Y-122361785D01*
X107743947Y-122596104D01*
X107829427Y-122802471D01*
X107836776Y-122820212D01*
X107958064Y-123030289D01*
X107958066Y-123030292D01*
X107958067Y-123030293D01*
X108105733Y-123222736D01*
X108105739Y-123222743D01*
X108277256Y-123394260D01*
X108277262Y-123394265D01*
X108469711Y-123541936D01*
X108679788Y-123663224D01*
X108903900Y-123756054D01*
X109138211Y-123818838D01*
X109318586Y-123842584D01*
X109378711Y-123850500D01*
X109378712Y-123850500D01*
X109621289Y-123850500D01*
X109669388Y-123844167D01*
X109861789Y-123818838D01*
X110096100Y-123756054D01*
X110320212Y-123663224D01*
X110530289Y-123541936D01*
X110722738Y-123394265D01*
X110894265Y-123222738D01*
X111041936Y-123030289D01*
X111163224Y-122820212D01*
X111256054Y-122596100D01*
X111318838Y-122361789D01*
X111350500Y-122121288D01*
X111350500Y-121878712D01*
X111318838Y-121638211D01*
X111256054Y-121403900D01*
X111163224Y-121179788D01*
X111041936Y-120969711D01*
X110894265Y-120777262D01*
X110894260Y-120777256D01*
X110722743Y-120605739D01*
X110722736Y-120605733D01*
X110530293Y-120458067D01*
X110530292Y-120458066D01*
X110530289Y-120458064D01*
X110358661Y-120358974D01*
X110320214Y-120336777D01*
X110320205Y-120336773D01*
X110096104Y-120243947D01*
X109861785Y-120181161D01*
X109621289Y-120149500D01*
X109621288Y-120149500D01*
X109378712Y-120149500D01*
X109378711Y-120149500D01*
X109138214Y-120181161D01*
X108903895Y-120243947D01*
X108679794Y-120336773D01*
X108679785Y-120336777D01*
X108469706Y-120458067D01*
X108277263Y-120605733D01*
X108277256Y-120605739D01*
X108105739Y-120777256D01*
X108105733Y-120777263D01*
X107958067Y-120969706D01*
X107836777Y-121179785D01*
X107836773Y-121179794D01*
X107743947Y-121403895D01*
X107681161Y-121638214D01*
X107649500Y-121878711D01*
X106925720Y-121878711D01*
X106925720Y-113287487D01*
X106945405Y-113220448D01*
X106998209Y-113174693D01*
X107021568Y-113167430D01*
X107021463Y-113167036D01*
X107026692Y-113165635D01*
X107246496Y-113106739D01*
X107452734Y-113010568D01*
X107639139Y-112880047D01*
X107800047Y-112719139D01*
X107930568Y-112532734D01*
X108026739Y-112326496D01*
X108085635Y-112106692D01*
X108105468Y-111880000D01*
X108085635Y-111653308D01*
X108026739Y-111433504D01*
X107930568Y-111227266D01*
X107805773Y-111049039D01*
X107800045Y-111040858D01*
X107639141Y-110879954D01*
X107452734Y-110749432D01*
X107452732Y-110749431D01*
X107246497Y-110653261D01*
X107246488Y-110653258D01*
X107026697Y-110594366D01*
X107026693Y-110594365D01*
X107026692Y-110594365D01*
X107026691Y-110594364D01*
X107026686Y-110594364D01*
X106800002Y-110574532D01*
X106799998Y-110574532D01*
X106573313Y-110594364D01*
X106573302Y-110594366D01*
X106507182Y-110612083D01*
X106437332Y-110610420D01*
X106387408Y-110579989D01*
X106057559Y-110250140D01*
X106024074Y-110188817D01*
X106021240Y-110162459D01*
X106021240Y-102986442D01*
X106040925Y-102919403D01*
X106093729Y-102873648D01*
X106162887Y-102863704D01*
X106197643Y-102874059D01*
X106353504Y-102946739D01*
X106573308Y-103005635D01*
X106727122Y-103019092D01*
X106799998Y-103025468D01*
X106800000Y-103025468D01*
X106800002Y-103025468D01*
X106856673Y-103020509D01*
X107026692Y-103005635D01*
X107246496Y-102946739D01*
X107452734Y-102850568D01*
X107639139Y-102720047D01*
X107800047Y-102559139D01*
X107930568Y-102372734D01*
X108026739Y-102166496D01*
X108085635Y-101946692D01*
X108105468Y-101720000D01*
X108085635Y-101493308D01*
X108026739Y-101273504D01*
X107930568Y-101067266D01*
X107800047Y-100880861D01*
X107800045Y-100880858D01*
X107639141Y-100719954D01*
X107452734Y-100589432D01*
X107452732Y-100589431D01*
X107246497Y-100493261D01*
X107246488Y-100493258D01*
X107026697Y-100434366D01*
X107026693Y-100434365D01*
X107026692Y-100434365D01*
X107026691Y-100434364D01*
X107026686Y-100434364D01*
X106800002Y-100414532D01*
X106799998Y-100414532D01*
X106573313Y-100434364D01*
X106573302Y-100434366D01*
X106353511Y-100493258D01*
X106353497Y-100493263D01*
X106197644Y-100565939D01*
X106128567Y-100576431D01*
X106064783Y-100547911D01*
X106026544Y-100489434D01*
X106021240Y-100453557D01*
X106021240Y-89178712D01*
X107649500Y-89178712D01*
X107649500Y-89421288D01*
X107681162Y-89661789D01*
X107712554Y-89778944D01*
X107743947Y-89896104D01*
X107761747Y-89939076D01*
X107836776Y-90120212D01*
X107958064Y-90330289D01*
X107958066Y-90330292D01*
X107958067Y-90330293D01*
X108105733Y-90522736D01*
X108105739Y-90522743D01*
X108277256Y-90694260D01*
X108277262Y-90694265D01*
X108469711Y-90841936D01*
X108679788Y-90963224D01*
X108903900Y-91056054D01*
X109138211Y-91118838D01*
X109310235Y-91141485D01*
X109378711Y-91150500D01*
X109378712Y-91150500D01*
X109621289Y-91150500D01*
X109689765Y-91141485D01*
X109861789Y-91118838D01*
X110096100Y-91056054D01*
X110320212Y-90963224D01*
X110530289Y-90841936D01*
X110722738Y-90694265D01*
X110894265Y-90522738D01*
X111041936Y-90330289D01*
X111163224Y-90120212D01*
X111256054Y-89896100D01*
X111318838Y-89661789D01*
X111350500Y-89421288D01*
X111350500Y-89178712D01*
X111318838Y-88938211D01*
X111256054Y-88703900D01*
X111163224Y-88479788D01*
X111041936Y-88269711D01*
X110936828Y-88132731D01*
X110894266Y-88077263D01*
X110894260Y-88077256D01*
X110722743Y-87905739D01*
X110722736Y-87905733D01*
X110530293Y-87758067D01*
X110530292Y-87758066D01*
X110530289Y-87758064D01*
X110320212Y-87636776D01*
X110293634Y-87625767D01*
X110096104Y-87543947D01*
X109861785Y-87481161D01*
X109621289Y-87449500D01*
X109621288Y-87449500D01*
X109378712Y-87449500D01*
X109378711Y-87449500D01*
X109138214Y-87481161D01*
X108903895Y-87543947D01*
X108679794Y-87636773D01*
X108679785Y-87636777D01*
X108469706Y-87758067D01*
X108277263Y-87905733D01*
X108277256Y-87905739D01*
X108105739Y-88077256D01*
X108105733Y-88077263D01*
X107958067Y-88269706D01*
X107836777Y-88479785D01*
X107836773Y-88479794D01*
X107743947Y-88703895D01*
X107681161Y-88938214D01*
X107659871Y-89099933D01*
X107649500Y-89178712D01*
X106021240Y-89178712D01*
X106021240Y-89011936D01*
X106021239Y-89011935D01*
X106012799Y-88969500D01*
X105997126Y-88890705D01*
X105963078Y-88808507D01*
X105953631Y-88785701D01*
X105949824Y-88776509D01*
X105949819Y-88776500D01*
X105881152Y-88673733D01*
X105845037Y-88637618D01*
X105793748Y-88586329D01*
X99630750Y-82423331D01*
X99597265Y-82362008D01*
X99594903Y-82324841D01*
X99595408Y-82319075D01*
X99575575Y-82092383D01*
X99516679Y-81872579D01*
X99420508Y-81666341D01*
X99289987Y-81479936D01*
X99289985Y-81479933D01*
X99129081Y-81319029D01*
X99019616Y-81242382D01*
X98942674Y-81188507D01*
X98884072Y-81161180D01*
X98831634Y-81115008D01*
X98812483Y-81047814D01*
X98832699Y-80980933D01*
X98884075Y-80936416D01*
X98942422Y-80909208D01*
X99015411Y-80858099D01*
X98460174Y-80302862D01*
X98502232Y-80291593D01*
X98627648Y-80219185D01*
X98730050Y-80116783D01*
X98802458Y-79991367D01*
X98813727Y-79949309D01*
X99368964Y-80504546D01*
X99420076Y-80431553D01*
X99516204Y-80225406D01*
X99516209Y-80225392D01*
X99575079Y-80005685D01*
X99575081Y-80005674D01*
X99594906Y-79779077D01*
X99594906Y-79779072D01*
X99575081Y-79552475D01*
X99575079Y-79552464D01*
X99516209Y-79332757D01*
X99516204Y-79332743D01*
X99420076Y-79126596D01*
X99420072Y-79126588D01*
X99368965Y-79053601D01*
X98813727Y-79608839D01*
X98802458Y-79566783D01*
X98730050Y-79441367D01*
X98627648Y-79338965D01*
X98502232Y-79266557D01*
X98460174Y-79255287D01*
X99015412Y-78700049D01*
X99013453Y-78677655D01*
X99007990Y-78670820D01*
X99000798Y-78601321D01*
X99032321Y-78538967D01*
X99092552Y-78503555D01*
X99109484Y-78500534D01*
X99159423Y-78495166D01*
X99294271Y-78444871D01*
X99409486Y-78358621D01*
X99495736Y-78243406D01*
X99546031Y-78108558D01*
X99552440Y-78048948D01*
X99552439Y-76429203D01*
X99546031Y-76369592D01*
X99527517Y-76319954D01*
X99495737Y-76234746D01*
X99495733Y-76234739D01*
X99418061Y-76130984D01*
X99409486Y-76119529D01*
X99409484Y-76119527D01*
X99409482Y-76119525D01*
X99354188Y-76078132D01*
X99312318Y-76022198D01*
X99304500Y-75978866D01*
X99304500Y-73790446D01*
X99304501Y-73790425D01*
X99304501Y-73635685D01*
X99275506Y-73489926D01*
X99275504Y-73489918D01*
X99218630Y-73352611D01*
X99218628Y-73352608D01*
X99136060Y-73229035D01*
X99136054Y-73229028D01*
X99026647Y-73119621D01*
X99026624Y-73119600D01*
X97246647Y-71339621D01*
X97246624Y-71339600D01*
X95997160Y-70090135D01*
X99837500Y-70090135D01*
X99837500Y-71709870D01*
X99837501Y-71709876D01*
X99843908Y-71769483D01*
X99894202Y-71904328D01*
X99894206Y-71904335D01*
X99980452Y-72019544D01*
X99980455Y-72019547D01*
X100095664Y-72105793D01*
X100095671Y-72105797D01*
X100230517Y-72156091D01*
X100230516Y-72156091D01*
X100237444Y-72156835D01*
X100290127Y-72162500D01*
X101909872Y-72162499D01*
X101969483Y-72156091D01*
X102104331Y-72105796D01*
X102219546Y-72019546D01*
X102305796Y-71904331D01*
X102356091Y-71769483D01*
X102362500Y-71709873D01*
X102362499Y-70090128D01*
X102356091Y-70030517D01*
X102351246Y-70017528D01*
X102305797Y-69895671D01*
X102305793Y-69895664D01*
X102219547Y-69780455D01*
X102219544Y-69780452D01*
X102104335Y-69694206D01*
X102104328Y-69694202D01*
X101969482Y-69643908D01*
X101969483Y-69643908D01*
X101909883Y-69637501D01*
X101909881Y-69637500D01*
X101909873Y-69637500D01*
X101909864Y-69637500D01*
X100290129Y-69637500D01*
X100290123Y-69637501D01*
X100230516Y-69643908D01*
X100095671Y-69694202D01*
X100095664Y-69694206D01*
X99980455Y-69780452D01*
X99980452Y-69780455D01*
X99894206Y-69895664D01*
X99894202Y-69895671D01*
X99843908Y-70030517D01*
X99837501Y-70090116D01*
X99837501Y-70090123D01*
X99837500Y-70090135D01*
X95997160Y-70090135D01*
X94996647Y-69089621D01*
X94996624Y-69089600D01*
X93327171Y-67420146D01*
X93293686Y-67358823D01*
X93291324Y-67321661D01*
X93305468Y-67160000D01*
X93285635Y-66933308D01*
X93226739Y-66713504D01*
X93130568Y-66507266D01*
X93000047Y-66320861D01*
X93000045Y-66320858D01*
X92839141Y-66159954D01*
X92652735Y-66029433D01*
X92652736Y-66029433D01*
X92652734Y-66029432D01*
X92594132Y-66002105D01*
X92541694Y-65955933D01*
X92522543Y-65888739D01*
X92542759Y-65821858D01*
X92594135Y-65777341D01*
X92652482Y-65750133D01*
X92725471Y-65699024D01*
X92170234Y-65143787D01*
X92212292Y-65132518D01*
X92337708Y-65060110D01*
X92440110Y-64957708D01*
X92512518Y-64832292D01*
X92523787Y-64790234D01*
X93079024Y-65345471D01*
X93130136Y-65272478D01*
X93226264Y-65066331D01*
X93226269Y-65066317D01*
X93270834Y-64899999D01*
X99833179Y-64899999D01*
X99833179Y-64900000D01*
X99852424Y-65119976D01*
X99852426Y-65119986D01*
X99909575Y-65333270D01*
X99909580Y-65333284D01*
X100002898Y-65533405D01*
X100002901Y-65533411D01*
X100048258Y-65598187D01*
X100048259Y-65598188D01*
X100700000Y-64946447D01*
X100700000Y-64952661D01*
X100727259Y-65054394D01*
X100779920Y-65145606D01*
X100854394Y-65220080D01*
X100945606Y-65272741D01*
X101047339Y-65300000D01*
X101053553Y-65300000D01*
X100401810Y-65951740D01*
X100466590Y-65997099D01*
X100466592Y-65997100D01*
X100666715Y-66090419D01*
X100666729Y-66090424D01*
X100880013Y-66147573D01*
X100880023Y-66147575D01*
X101099999Y-66166821D01*
X101100001Y-66166821D01*
X101319976Y-66147575D01*
X101319986Y-66147573D01*
X101533270Y-66090424D01*
X101533284Y-66090419D01*
X101733407Y-65997100D01*
X101733417Y-65997094D01*
X101798188Y-65951741D01*
X101146448Y-65300000D01*
X101152661Y-65300000D01*
X101254394Y-65272741D01*
X101345606Y-65220080D01*
X101420080Y-65145606D01*
X101472741Y-65054394D01*
X101500000Y-64952661D01*
X101500000Y-64946447D01*
X102151741Y-65598188D01*
X102197094Y-65533417D01*
X102197100Y-65533407D01*
X102290419Y-65333284D01*
X102290424Y-65333270D01*
X102347573Y-65119986D01*
X102347575Y-65119976D01*
X102366821Y-64900000D01*
X102366821Y-64899999D01*
X102347575Y-64680023D01*
X102347573Y-64680013D01*
X102290424Y-64466729D01*
X102290420Y-64466720D01*
X102197096Y-64266586D01*
X102151741Y-64201811D01*
X102151740Y-64201810D01*
X101500000Y-64853551D01*
X101500000Y-64847339D01*
X101472741Y-64745606D01*
X101420080Y-64654394D01*
X101345606Y-64579920D01*
X101254394Y-64527259D01*
X101152661Y-64500000D01*
X101146448Y-64500000D01*
X101767736Y-63878711D01*
X107649500Y-63878711D01*
X107649500Y-64121288D01*
X107681161Y-64361785D01*
X107743947Y-64596104D01*
X107836773Y-64820205D01*
X107836777Y-64820214D01*
X107852017Y-64846610D01*
X107958064Y-65030289D01*
X107958066Y-65030292D01*
X107958067Y-65030293D01*
X108105733Y-65222736D01*
X108105739Y-65222743D01*
X108277256Y-65394260D01*
X108277262Y-65394265D01*
X108469711Y-65541936D01*
X108679788Y-65663224D01*
X108875269Y-65744195D01*
X108890655Y-65750568D01*
X108903900Y-65756054D01*
X109138211Y-65818838D01*
X109318586Y-65842584D01*
X109378711Y-65850500D01*
X109378712Y-65850500D01*
X109621289Y-65850500D01*
X109669388Y-65844167D01*
X109861789Y-65818838D01*
X110096100Y-65756054D01*
X110320212Y-65663224D01*
X110530289Y-65541936D01*
X110722738Y-65394265D01*
X110894265Y-65222738D01*
X111041936Y-65030289D01*
X111163224Y-64820212D01*
X111256054Y-64596100D01*
X111318838Y-64361789D01*
X111350500Y-64121288D01*
X111350500Y-63878712D01*
X111318838Y-63638211D01*
X111256054Y-63403900D01*
X111163224Y-63179788D01*
X111041936Y-62969711D01*
X110915911Y-62805472D01*
X110894266Y-62777263D01*
X110894260Y-62777256D01*
X110722743Y-62605739D01*
X110722736Y-62605733D01*
X110530293Y-62458067D01*
X110530292Y-62458066D01*
X110530289Y-62458064D01*
X110320212Y-62336776D01*
X110247583Y-62306692D01*
X110096104Y-62243947D01*
X109861785Y-62181161D01*
X109621289Y-62149500D01*
X109621288Y-62149500D01*
X109378712Y-62149500D01*
X109378711Y-62149500D01*
X109138214Y-62181161D01*
X108903895Y-62243947D01*
X108679794Y-62336773D01*
X108679785Y-62336777D01*
X108469706Y-62458067D01*
X108277263Y-62605733D01*
X108277256Y-62605739D01*
X108105739Y-62777256D01*
X108105733Y-62777263D01*
X107958067Y-62969706D01*
X107836777Y-63179785D01*
X107836773Y-63179794D01*
X107743947Y-63403895D01*
X107681161Y-63638214D01*
X107649500Y-63878711D01*
X101767736Y-63878711D01*
X101798188Y-63848259D01*
X101798187Y-63848258D01*
X101733411Y-63802901D01*
X101733405Y-63802898D01*
X101533284Y-63709580D01*
X101533270Y-63709575D01*
X101319986Y-63652426D01*
X101319976Y-63652424D01*
X101100001Y-63633179D01*
X101099999Y-63633179D01*
X100880023Y-63652424D01*
X100880013Y-63652426D01*
X100666729Y-63709575D01*
X100666720Y-63709579D01*
X100466590Y-63802901D01*
X100401811Y-63848258D01*
X101053553Y-64500000D01*
X101047339Y-64500000D01*
X100945606Y-64527259D01*
X100854394Y-64579920D01*
X100779920Y-64654394D01*
X100727259Y-64745606D01*
X100700000Y-64847339D01*
X100700000Y-64853553D01*
X100048258Y-64201811D01*
X100002901Y-64266590D01*
X99909579Y-64466720D01*
X99909575Y-64466729D01*
X99852426Y-64680013D01*
X99852424Y-64680023D01*
X99833179Y-64899999D01*
X93270834Y-64899999D01*
X93285139Y-64846610D01*
X93285141Y-64846599D01*
X93304966Y-64620002D01*
X93304966Y-64619997D01*
X93285141Y-64393400D01*
X93285139Y-64393389D01*
X93226269Y-64173682D01*
X93226264Y-64173668D01*
X93130136Y-63967521D01*
X93130132Y-63967513D01*
X93079025Y-63894526D01*
X92523787Y-64449764D01*
X92512518Y-64407708D01*
X92440110Y-64282292D01*
X92337708Y-64179890D01*
X92212292Y-64107482D01*
X92170234Y-64096212D01*
X92725472Y-63540974D01*
X92652480Y-63489864D01*
X92594134Y-63462657D01*
X92541695Y-63416484D01*
X92522543Y-63349291D01*
X92542759Y-63282410D01*
X92594134Y-63237893D01*
X92652734Y-63210568D01*
X92839139Y-63080047D01*
X93000047Y-62919139D01*
X93130568Y-62732734D01*
X93226739Y-62526496D01*
X93285635Y-62306692D01*
X93305468Y-62080000D01*
X93285635Y-61853308D01*
X93226739Y-61633504D01*
X93130568Y-61427266D01*
X93000047Y-61240861D01*
X93000045Y-61240858D01*
X92839141Y-61079954D01*
X92652734Y-60949432D01*
X92652732Y-60949431D01*
X92446497Y-60853261D01*
X92446488Y-60853258D01*
X92226697Y-60794366D01*
X92226693Y-60794365D01*
X92226692Y-60794365D01*
X92226691Y-60794364D01*
X92226686Y-60794364D01*
X92000002Y-60774532D01*
X91999998Y-60774532D01*
X91773313Y-60794364D01*
X91773302Y-60794366D01*
X91553511Y-60853258D01*
X91553502Y-60853261D01*
X91347267Y-60949431D01*
X91347265Y-60949432D01*
X91160858Y-61079954D01*
X90999954Y-61240858D01*
X90869432Y-61427265D01*
X90869431Y-61427267D01*
X90773261Y-61633502D01*
X90773258Y-61633511D01*
X90714366Y-61853302D01*
X90714364Y-61853313D01*
X90694532Y-62079998D01*
X90694532Y-62080001D01*
X90714364Y-62306686D01*
X90714366Y-62306697D01*
X90773258Y-62526488D01*
X90773261Y-62526497D01*
X90869431Y-62732732D01*
X90869432Y-62732734D01*
X90999954Y-62919141D01*
X91160858Y-63080045D01*
X91160861Y-63080047D01*
X91347266Y-63210568D01*
X91405865Y-63237893D01*
X91458305Y-63284065D01*
X91477457Y-63351258D01*
X91457242Y-63418139D01*
X91405867Y-63462657D01*
X91347513Y-63489868D01*
X91347512Y-63489868D01*
X91274526Y-63540973D01*
X91274526Y-63540974D01*
X91829765Y-64096212D01*
X91787708Y-64107482D01*
X91662292Y-64179890D01*
X91559890Y-64282292D01*
X91487482Y-64407708D01*
X91476212Y-64449764D01*
X90920974Y-63894526D01*
X90920973Y-63894526D01*
X90869868Y-63967512D01*
X90869868Y-63967513D01*
X90842657Y-64025867D01*
X90796484Y-64078306D01*
X90729290Y-64097457D01*
X90662409Y-64077241D01*
X90617893Y-64025865D01*
X90590682Y-63967512D01*
X90590568Y-63967266D01*
X90460047Y-63780861D01*
X90460045Y-63780858D01*
X90299141Y-63619954D01*
X90112734Y-63489432D01*
X90112732Y-63489431D01*
X89906497Y-63393261D01*
X89906488Y-63393258D01*
X89686697Y-63334366D01*
X89686693Y-63334365D01*
X89686692Y-63334365D01*
X89686691Y-63334364D01*
X89686686Y-63334364D01*
X89460002Y-63314532D01*
X89459998Y-63314532D01*
X89233313Y-63334364D01*
X89233302Y-63334366D01*
X89013511Y-63393258D01*
X89013502Y-63393261D01*
X88807267Y-63489431D01*
X88807265Y-63489432D01*
X88620858Y-63619954D01*
X88459954Y-63780858D01*
X88329432Y-63967265D01*
X88329431Y-63967267D01*
X88233261Y-64173502D01*
X88233258Y-64173511D01*
X88174366Y-64393302D01*
X88174364Y-64393313D01*
X88154532Y-64619998D01*
X88154532Y-64620001D01*
X88174364Y-64846686D01*
X88174366Y-64846697D01*
X88233258Y-65066488D01*
X88233261Y-65066497D01*
X88329431Y-65272732D01*
X88329432Y-65272734D01*
X88459954Y-65459141D01*
X88620858Y-65620045D01*
X88620861Y-65620047D01*
X88807266Y-65750568D01*
X89013504Y-65846739D01*
X89233308Y-65905635D01*
X89395230Y-65919801D01*
X89459998Y-65925468D01*
X89460000Y-65925468D01*
X89460002Y-65925468D01*
X89516673Y-65920509D01*
X89686692Y-65905635D01*
X89906496Y-65846739D01*
X90112734Y-65750568D01*
X90299139Y-65620047D01*
X90460047Y-65459139D01*
X90590568Y-65272734D01*
X90617893Y-65214134D01*
X90664065Y-65161695D01*
X90731258Y-65142543D01*
X90798139Y-65162758D01*
X90842657Y-65214134D01*
X90869864Y-65272480D01*
X90920974Y-65345472D01*
X91476212Y-64790234D01*
X91487482Y-64832292D01*
X91559890Y-64957708D01*
X91662292Y-65060110D01*
X91787708Y-65132518D01*
X91829765Y-65143787D01*
X91274526Y-65699025D01*
X91347513Y-65750132D01*
X91347521Y-65750136D01*
X91405864Y-65777342D01*
X91458304Y-65823514D01*
X91477456Y-65890707D01*
X91457241Y-65957589D01*
X91405866Y-66002105D01*
X91347272Y-66029428D01*
X91347265Y-66029432D01*
X91160858Y-66159954D01*
X90999954Y-66320858D01*
X90869432Y-66507265D01*
X90869431Y-66507267D01*
X90773261Y-66713502D01*
X90773258Y-66713511D01*
X90714366Y-66933302D01*
X90714364Y-66933313D01*
X90694532Y-67159998D01*
X90694532Y-67160001D01*
X90714364Y-67386686D01*
X90714366Y-67386697D01*
X90773258Y-67606488D01*
X90773261Y-67606497D01*
X90869431Y-67812732D01*
X90869432Y-67812734D01*
X90999954Y-67999141D01*
X91160858Y-68160045D01*
X91160861Y-68160047D01*
X91347266Y-68290568D01*
X91405275Y-68317618D01*
X91457714Y-68363791D01*
X91476866Y-68430984D01*
X91456650Y-68497865D01*
X91405275Y-68542382D01*
X91347267Y-68569431D01*
X91347265Y-68569432D01*
X91160858Y-68699954D01*
X90999954Y-68860858D01*
X90869432Y-69047265D01*
X90869431Y-69047267D01*
X90773261Y-69253502D01*
X90773258Y-69253511D01*
X90714366Y-69473302D01*
X90714364Y-69473313D01*
X90694532Y-69699998D01*
X90694532Y-69700001D01*
X90714364Y-69926686D01*
X90714366Y-69926697D01*
X90773258Y-70146488D01*
X90773261Y-70146497D01*
X90869431Y-70352732D01*
X90869432Y-70352734D01*
X90999954Y-70539141D01*
X91160858Y-70700045D01*
X91160861Y-70700047D01*
X91347266Y-70830568D01*
X91405275Y-70857618D01*
X91457714Y-70903791D01*
X91476866Y-70970984D01*
X91456650Y-71037865D01*
X91405275Y-71082382D01*
X91347267Y-71109431D01*
X91347265Y-71109432D01*
X91160858Y-71239954D01*
X90999954Y-71400858D01*
X90869432Y-71587265D01*
X90869431Y-71587267D01*
X90773261Y-71793502D01*
X90773258Y-71793511D01*
X90714366Y-72013302D01*
X90714364Y-72013313D01*
X90694532Y-72239998D01*
X90694532Y-72240001D01*
X90714364Y-72466686D01*
X90714366Y-72466697D01*
X90773258Y-72686488D01*
X90773261Y-72686497D01*
X90869431Y-72892732D01*
X90869432Y-72892734D01*
X90999954Y-73079141D01*
X91160858Y-73240045D01*
X91160861Y-73240047D01*
X91347266Y-73370568D01*
X91405275Y-73397618D01*
X91457714Y-73443791D01*
X91476866Y-73510984D01*
X91456650Y-73577865D01*
X91405275Y-73622382D01*
X91347267Y-73649431D01*
X91347265Y-73649432D01*
X91160858Y-73779954D01*
X90999954Y-73940858D01*
X90869432Y-74127265D01*
X90869431Y-74127267D01*
X90773261Y-74333502D01*
X90773258Y-74333511D01*
X90714366Y-74553302D01*
X90714364Y-74553313D01*
X90694532Y-74779998D01*
X90694532Y-74780001D01*
X90714364Y-75006686D01*
X90714366Y-75006697D01*
X90773258Y-75226488D01*
X90773261Y-75226497D01*
X90869431Y-75432732D01*
X90869432Y-75432734D01*
X90999954Y-75619141D01*
X91160858Y-75780045D01*
X91160861Y-75780047D01*
X91347266Y-75910568D01*
X91405275Y-75937618D01*
X91457714Y-75983791D01*
X91476866Y-76050984D01*
X91456650Y-76117865D01*
X91405275Y-76162382D01*
X91347267Y-76189431D01*
X91347265Y-76189432D01*
X91160858Y-76319954D01*
X90999954Y-76480858D01*
X90869432Y-76667265D01*
X90869431Y-76667267D01*
X90773261Y-76873502D01*
X90773258Y-76873511D01*
X90714366Y-77093302D01*
X90714364Y-77093313D01*
X90694532Y-77319998D01*
X90694532Y-77320001D01*
X90714364Y-77546686D01*
X90714366Y-77546697D01*
X90773258Y-77766488D01*
X90773261Y-77766497D01*
X90869431Y-77972732D01*
X90869432Y-77972734D01*
X90999954Y-78159141D01*
X91160858Y-78320045D01*
X91160861Y-78320047D01*
X91347266Y-78450568D01*
X91405275Y-78477618D01*
X91457714Y-78523791D01*
X91476866Y-78590984D01*
X91456650Y-78657865D01*
X91405275Y-78702382D01*
X91347267Y-78729431D01*
X91347265Y-78729432D01*
X91160858Y-78859954D01*
X90999954Y-79020858D01*
X90869432Y-79207265D01*
X90869431Y-79207267D01*
X90773261Y-79413502D01*
X90773258Y-79413511D01*
X90714366Y-79633302D01*
X90714364Y-79633313D01*
X90694532Y-79859998D01*
X90694532Y-79860001D01*
X90714364Y-80086686D01*
X90714366Y-80086697D01*
X90773258Y-80306488D01*
X90773261Y-80306497D01*
X90869431Y-80512732D01*
X90869432Y-80512734D01*
X90999954Y-80699141D01*
X91160858Y-80860045D01*
X91160861Y-80860047D01*
X91347266Y-80990568D01*
X91405275Y-81017618D01*
X91457714Y-81063791D01*
X91476866Y-81130984D01*
X91456650Y-81197865D01*
X91405275Y-81242382D01*
X91347267Y-81269431D01*
X91347265Y-81269432D01*
X91160858Y-81399954D01*
X90999954Y-81560858D01*
X90869432Y-81747265D01*
X90869431Y-81747267D01*
X90773261Y-81953502D01*
X90773258Y-81953511D01*
X90714366Y-82173302D01*
X90714364Y-82173313D01*
X90694532Y-82399998D01*
X90694532Y-82400001D01*
X90714364Y-82626686D01*
X90714366Y-82626697D01*
X90773258Y-82846488D01*
X90773261Y-82846497D01*
X90869431Y-83052732D01*
X90869432Y-83052734D01*
X90999954Y-83239141D01*
X91160858Y-83400045D01*
X91160861Y-83400047D01*
X91347266Y-83530568D01*
X91405275Y-83557618D01*
X91457714Y-83603791D01*
X91476866Y-83670984D01*
X91456650Y-83737865D01*
X91405275Y-83782382D01*
X91347267Y-83809431D01*
X91347265Y-83809432D01*
X91160858Y-83939954D01*
X90999954Y-84100858D01*
X90869432Y-84287265D01*
X90869431Y-84287267D01*
X90773261Y-84493502D01*
X90773258Y-84493511D01*
X90714366Y-84713302D01*
X90714364Y-84713313D01*
X90694532Y-84939998D01*
X90694532Y-84940001D01*
X90714364Y-85166686D01*
X90714366Y-85166697D01*
X90732083Y-85232817D01*
X90730420Y-85302667D01*
X90699988Y-85352591D01*
X90499992Y-85552589D01*
X90459849Y-85592732D01*
X90412587Y-85639993D01*
X90343920Y-85742760D01*
X90343915Y-85742769D01*
X90331601Y-85772500D01*
X90296615Y-85856962D01*
X90296612Y-85856972D01*
X90278082Y-85950131D01*
X90272500Y-85978192D01*
X90272500Y-86229291D01*
X90252815Y-86296330D01*
X90200011Y-86342085D01*
X90130853Y-86352029D01*
X90096095Y-86341673D01*
X89998857Y-86296330D01*
X89906496Y-86253261D01*
X89906492Y-86253260D01*
X89906488Y-86253258D01*
X89686697Y-86194366D01*
X89686693Y-86194365D01*
X89686692Y-86194365D01*
X89686691Y-86194364D01*
X89686686Y-86194364D01*
X89460002Y-86174532D01*
X89459998Y-86174532D01*
X89233313Y-86194364D01*
X89233302Y-86194366D01*
X89167182Y-86212083D01*
X89097332Y-86210420D01*
X89047408Y-86179989D01*
X88780011Y-85912591D01*
X88780010Y-85912590D01*
X88715080Y-85869206D01*
X88715078Y-85869204D01*
X88677241Y-85843921D01*
X88677226Y-85843913D01*
X88643785Y-85830062D01*
X88563035Y-85796614D01*
X88563027Y-85796612D01*
X88441807Y-85772500D01*
X88441803Y-85772500D01*
X78461803Y-85772500D01*
X78261803Y-85772500D01*
X78001382Y-85772500D01*
X77934343Y-85752815D01*
X77888588Y-85700011D01*
X77878644Y-85630853D01*
X77889000Y-85596095D01*
X77890565Y-85592737D01*
X77890568Y-85592734D01*
X77986739Y-85386496D01*
X78045635Y-85166692D01*
X78065468Y-84940000D01*
X78045635Y-84713308D01*
X77986739Y-84493504D01*
X77890568Y-84287266D01*
X77760047Y-84100861D01*
X77760045Y-84100858D01*
X77599141Y-83939954D01*
X77412734Y-83809432D01*
X77412728Y-83809429D01*
X77354725Y-83782382D01*
X77302285Y-83736210D01*
X77283133Y-83669017D01*
X77303348Y-83602135D01*
X77354725Y-83557618D01*
X77412734Y-83530568D01*
X77599139Y-83400047D01*
X77760047Y-83239139D01*
X77890568Y-83052734D01*
X77986739Y-82846496D01*
X78045635Y-82626692D01*
X78065468Y-82400000D01*
X78045635Y-82173308D01*
X77986739Y-81953504D01*
X77890568Y-81747266D01*
X77760047Y-81560861D01*
X77760045Y-81560858D01*
X77599141Y-81399954D01*
X77412734Y-81269432D01*
X77412728Y-81269429D01*
X77354725Y-81242382D01*
X77302285Y-81196210D01*
X77283133Y-81129017D01*
X77303348Y-81062135D01*
X77354725Y-81017618D01*
X77412734Y-80990568D01*
X77599139Y-80860047D01*
X77760047Y-80699139D01*
X77890568Y-80512734D01*
X77986739Y-80306496D01*
X78045635Y-80086692D01*
X78065468Y-79860000D01*
X78045635Y-79633308D01*
X77986739Y-79413504D01*
X77890568Y-79207266D01*
X77760047Y-79020861D01*
X77760045Y-79020858D01*
X77599141Y-78859954D01*
X77412734Y-78729432D01*
X77412728Y-78729429D01*
X77354725Y-78702382D01*
X77302285Y-78656210D01*
X77283133Y-78589017D01*
X77303348Y-78522135D01*
X77354725Y-78477618D01*
X77412734Y-78450568D01*
X77599139Y-78320047D01*
X77760047Y-78159139D01*
X77890568Y-77972734D01*
X77986739Y-77766496D01*
X78045635Y-77546692D01*
X78065468Y-77320000D01*
X78045635Y-77093308D01*
X77986739Y-76873504D01*
X77890568Y-76667266D01*
X77760047Y-76480861D01*
X77760045Y-76480858D01*
X77599141Y-76319954D01*
X77412734Y-76189432D01*
X77412728Y-76189429D01*
X77354725Y-76162382D01*
X77302285Y-76116210D01*
X77283133Y-76049017D01*
X77303348Y-75982135D01*
X77354725Y-75937618D01*
X77412734Y-75910568D01*
X77599139Y-75780047D01*
X77760047Y-75619139D01*
X77890568Y-75432734D01*
X77986739Y-75226496D01*
X78045635Y-75006692D01*
X78065468Y-74780000D01*
X78045635Y-74553308D01*
X77986739Y-74333504D01*
X77890568Y-74127266D01*
X77760047Y-73940861D01*
X77760045Y-73940858D01*
X77599141Y-73779954D01*
X77412734Y-73649432D01*
X77412728Y-73649429D01*
X77354725Y-73622382D01*
X77302285Y-73576210D01*
X77283133Y-73509017D01*
X77303348Y-73442135D01*
X77354725Y-73397618D01*
X77412734Y-73370568D01*
X77599139Y-73240047D01*
X77760047Y-73079139D01*
X77890568Y-72892734D01*
X77986739Y-72686496D01*
X78045635Y-72466692D01*
X78065468Y-72240000D01*
X78045635Y-72013308D01*
X77986739Y-71793504D01*
X77890568Y-71587266D01*
X77760047Y-71400861D01*
X77760045Y-71400858D01*
X77599141Y-71239954D01*
X77412734Y-71109432D01*
X77412728Y-71109429D01*
X77354725Y-71082382D01*
X77302285Y-71036210D01*
X77283133Y-70969017D01*
X77303348Y-70902135D01*
X77354725Y-70857618D01*
X77412734Y-70830568D01*
X77599139Y-70700047D01*
X77760047Y-70539139D01*
X77890568Y-70352734D01*
X77986739Y-70146496D01*
X78045635Y-69926692D01*
X78065468Y-69700000D01*
X78045635Y-69473308D01*
X77986739Y-69253504D01*
X77890568Y-69047266D01*
X77760047Y-68860861D01*
X77760045Y-68860858D01*
X77599141Y-68699954D01*
X77412734Y-68569432D01*
X77412728Y-68569429D01*
X77354725Y-68542382D01*
X77302285Y-68496210D01*
X77283133Y-68429017D01*
X77303348Y-68362135D01*
X77354725Y-68317618D01*
X77412734Y-68290568D01*
X77599139Y-68160047D01*
X77760047Y-67999139D01*
X77890568Y-67812734D01*
X77986739Y-67606496D01*
X78045635Y-67386692D01*
X78065468Y-67160000D01*
X78045635Y-66933308D01*
X77986739Y-66713504D01*
X77890568Y-66507266D01*
X77760047Y-66320861D01*
X77760045Y-66320858D01*
X77599141Y-66159954D01*
X77412734Y-66029432D01*
X77412728Y-66029429D01*
X77354725Y-66002382D01*
X77302285Y-65956210D01*
X77283133Y-65889017D01*
X77303348Y-65822135D01*
X77354725Y-65777618D01*
X77355319Y-65777341D01*
X77412734Y-65750568D01*
X77599139Y-65620047D01*
X77760047Y-65459139D01*
X77890568Y-65272734D01*
X77986739Y-65066496D01*
X78045635Y-64846692D01*
X78065468Y-64620000D01*
X78061961Y-64579920D01*
X78054969Y-64500000D01*
X78045635Y-64393308D01*
X77986739Y-64173504D01*
X77890568Y-63967266D01*
X77760047Y-63780861D01*
X77760045Y-63780858D01*
X77599141Y-63619954D01*
X77486343Y-63540973D01*
X77412734Y-63489432D01*
X77354132Y-63462105D01*
X77301694Y-63415933D01*
X77282543Y-63348739D01*
X77302759Y-63281858D01*
X77354135Y-63237341D01*
X77412482Y-63210133D01*
X77485471Y-63159024D01*
X76930234Y-62603787D01*
X76972292Y-62592518D01*
X77097708Y-62520110D01*
X77200110Y-62417708D01*
X77272518Y-62292292D01*
X77283787Y-62250234D01*
X77839024Y-62805471D01*
X77890136Y-62732478D01*
X77986264Y-62526331D01*
X77986269Y-62526317D01*
X78045139Y-62306610D01*
X78045141Y-62306599D01*
X78064966Y-62080002D01*
X78064966Y-62079997D01*
X78045141Y-61853400D01*
X78045139Y-61853389D01*
X77986269Y-61633682D01*
X77986264Y-61633668D01*
X77890136Y-61427521D01*
X77890132Y-61427513D01*
X77839025Y-61354526D01*
X77283787Y-61909764D01*
X77272518Y-61867708D01*
X77200110Y-61742292D01*
X77097708Y-61639890D01*
X76972292Y-61567482D01*
X76930234Y-61556212D01*
X77485472Y-61000974D01*
X77412478Y-60949863D01*
X77206331Y-60853735D01*
X77206317Y-60853730D01*
X76986610Y-60794860D01*
X76986599Y-60794858D01*
X76760002Y-60775034D01*
X76759998Y-60775034D01*
X76533400Y-60794858D01*
X76533389Y-60794860D01*
X76313682Y-60853730D01*
X76313673Y-60853734D01*
X76107516Y-60949866D01*
X76107512Y-60949868D01*
X76034526Y-61000973D01*
X76034526Y-61000974D01*
X76589765Y-61556212D01*
X76547708Y-61567482D01*
X76422292Y-61639890D01*
X76319890Y-61742292D01*
X76247482Y-61867708D01*
X76236212Y-61909764D01*
X75680974Y-61354526D01*
X75680973Y-61354526D01*
X75629868Y-61427512D01*
X75629866Y-61427516D01*
X75533734Y-61633673D01*
X75533730Y-61633682D01*
X75474860Y-61853389D01*
X75474858Y-61853400D01*
X75455034Y-62079997D01*
X75455034Y-62080002D01*
X75474858Y-62306599D01*
X75474860Y-62306610D01*
X75533730Y-62526317D01*
X75533735Y-62526331D01*
X75629863Y-62732478D01*
X75680974Y-62805472D01*
X76236212Y-62250234D01*
X76247482Y-62292292D01*
X76319890Y-62417708D01*
X76422292Y-62520110D01*
X76547708Y-62592518D01*
X76589765Y-62603787D01*
X76034526Y-63159025D01*
X76107513Y-63210132D01*
X76107521Y-63210136D01*
X76165864Y-63237342D01*
X76218304Y-63283514D01*
X76237456Y-63350707D01*
X76217241Y-63417589D01*
X76165866Y-63462105D01*
X76107272Y-63489428D01*
X76107265Y-63489432D01*
X75920858Y-63619954D01*
X75759954Y-63780858D01*
X75629432Y-63967265D01*
X75629431Y-63967267D01*
X75533261Y-64173502D01*
X75533258Y-64173511D01*
X75474366Y-64393302D01*
X75474364Y-64393313D01*
X75454532Y-64619998D01*
X75454532Y-64620001D01*
X75474364Y-64846686D01*
X75474366Y-64846697D01*
X75533258Y-65066488D01*
X75533261Y-65066497D01*
X75629431Y-65272732D01*
X75629432Y-65272734D01*
X75759954Y-65459141D01*
X75920858Y-65620045D01*
X75920861Y-65620047D01*
X76107266Y-65750568D01*
X76164681Y-65777341D01*
X76165275Y-65777618D01*
X76217714Y-65823791D01*
X76236866Y-65890984D01*
X76216650Y-65957865D01*
X76165275Y-66002382D01*
X76107267Y-66029431D01*
X76107265Y-66029432D01*
X75920858Y-66159954D01*
X75759954Y-66320858D01*
X75629432Y-66507265D01*
X75629431Y-66507267D01*
X75533261Y-66713502D01*
X75533258Y-66713511D01*
X75474366Y-66933302D01*
X75474364Y-66933313D01*
X75454532Y-67159998D01*
X75454532Y-67160001D01*
X75474364Y-67386686D01*
X75474366Y-67386697D01*
X75533258Y-67606488D01*
X75533261Y-67606497D01*
X75629431Y-67812732D01*
X75629432Y-67812734D01*
X75759954Y-67999141D01*
X75920858Y-68160045D01*
X75920861Y-68160047D01*
X76107266Y-68290568D01*
X76165275Y-68317618D01*
X76217714Y-68363791D01*
X76236866Y-68430984D01*
X76216650Y-68497865D01*
X76165275Y-68542382D01*
X76107267Y-68569431D01*
X76107265Y-68569432D01*
X75920858Y-68699954D01*
X75759954Y-68860858D01*
X75629432Y-69047265D01*
X75629431Y-69047267D01*
X75533261Y-69253502D01*
X75533258Y-69253511D01*
X75474366Y-69473302D01*
X75474364Y-69473313D01*
X75454532Y-69699998D01*
X75454532Y-69700001D01*
X75474364Y-69926686D01*
X75474366Y-69926697D01*
X75533258Y-70146488D01*
X75533261Y-70146497D01*
X75629431Y-70352732D01*
X75629432Y-70352734D01*
X75759954Y-70539141D01*
X75920858Y-70700045D01*
X75920861Y-70700047D01*
X76107266Y-70830568D01*
X76165275Y-70857618D01*
X76217714Y-70903791D01*
X76236866Y-70970984D01*
X76216650Y-71037865D01*
X76165275Y-71082382D01*
X76107267Y-71109431D01*
X76107265Y-71109432D01*
X75920858Y-71239954D01*
X75759954Y-71400858D01*
X75629432Y-71587265D01*
X75629431Y-71587267D01*
X75533261Y-71793502D01*
X75533258Y-71793511D01*
X75474366Y-72013302D01*
X75474364Y-72013313D01*
X75454532Y-72239998D01*
X75454532Y-72240001D01*
X75474364Y-72466686D01*
X75474366Y-72466697D01*
X75533258Y-72686488D01*
X75533261Y-72686497D01*
X75629431Y-72892732D01*
X75629432Y-72892734D01*
X75759954Y-73079141D01*
X75920858Y-73240045D01*
X75920861Y-73240047D01*
X76107266Y-73370568D01*
X76165275Y-73397618D01*
X76217714Y-73443791D01*
X76236866Y-73510984D01*
X76216650Y-73577865D01*
X76165275Y-73622382D01*
X76107267Y-73649431D01*
X76107265Y-73649432D01*
X75920858Y-73779954D01*
X75759954Y-73940858D01*
X75629432Y-74127265D01*
X75629431Y-74127267D01*
X75533261Y-74333502D01*
X75533258Y-74333511D01*
X75474366Y-74553302D01*
X75474364Y-74553313D01*
X75454532Y-74779998D01*
X75454532Y-74780001D01*
X75474364Y-75006686D01*
X75474366Y-75006697D01*
X75533258Y-75226488D01*
X75533261Y-75226497D01*
X75629431Y-75432732D01*
X75629432Y-75432734D01*
X75759954Y-75619141D01*
X75920858Y-75780045D01*
X75920861Y-75780047D01*
X76107266Y-75910568D01*
X76165275Y-75937618D01*
X76217714Y-75983791D01*
X76236866Y-76050984D01*
X76216650Y-76117865D01*
X76165275Y-76162382D01*
X76107267Y-76189431D01*
X76107265Y-76189432D01*
X75920858Y-76319954D01*
X75759954Y-76480858D01*
X75629432Y-76667265D01*
X75629431Y-76667267D01*
X75533261Y-76873502D01*
X75533258Y-76873511D01*
X75474366Y-77093302D01*
X75474364Y-77093313D01*
X75454532Y-77319998D01*
X75454532Y-77320001D01*
X75474364Y-77546686D01*
X75474366Y-77546697D01*
X75533258Y-77766488D01*
X75533261Y-77766497D01*
X75629431Y-77972732D01*
X75629432Y-77972734D01*
X75759954Y-78159141D01*
X75920858Y-78320045D01*
X75920861Y-78320047D01*
X76107266Y-78450568D01*
X76165275Y-78477618D01*
X76217714Y-78523791D01*
X76236866Y-78590984D01*
X76216650Y-78657865D01*
X76165275Y-78702382D01*
X76107267Y-78729431D01*
X76107265Y-78729432D01*
X75920858Y-78859954D01*
X75759954Y-79020858D01*
X75629432Y-79207265D01*
X75629431Y-79207267D01*
X75533261Y-79413502D01*
X75533258Y-79413511D01*
X75474366Y-79633302D01*
X75474364Y-79633313D01*
X75454532Y-79859998D01*
X75454532Y-79860001D01*
X75474364Y-80086686D01*
X75474366Y-80086697D01*
X75533258Y-80306488D01*
X75533261Y-80306497D01*
X75629431Y-80512732D01*
X75629432Y-80512734D01*
X75759954Y-80699141D01*
X75920858Y-80860045D01*
X75920861Y-80860047D01*
X76107266Y-80990568D01*
X76165275Y-81017618D01*
X76217714Y-81063791D01*
X76236866Y-81130984D01*
X76216650Y-81197865D01*
X76165275Y-81242382D01*
X76107267Y-81269431D01*
X76107265Y-81269432D01*
X75920858Y-81399954D01*
X75759954Y-81560858D01*
X75629432Y-81747265D01*
X75629431Y-81747267D01*
X75533261Y-81953502D01*
X75533258Y-81953511D01*
X75474366Y-82173302D01*
X75474364Y-82173313D01*
X75454532Y-82399998D01*
X75454532Y-82400001D01*
X75474364Y-82626686D01*
X75474366Y-82626697D01*
X75533258Y-82846488D01*
X75533261Y-82846497D01*
X75629431Y-83052732D01*
X75629432Y-83052734D01*
X75759954Y-83239141D01*
X75920858Y-83400045D01*
X75920861Y-83400047D01*
X76107266Y-83530568D01*
X76165275Y-83557618D01*
X76217714Y-83603791D01*
X76236866Y-83670984D01*
X76216650Y-83737865D01*
X76165275Y-83782382D01*
X76107267Y-83809431D01*
X76107265Y-83809432D01*
X75920858Y-83939954D01*
X75759954Y-84100858D01*
X75629432Y-84287265D01*
X75629431Y-84287267D01*
X75533261Y-84493502D01*
X75533258Y-84493511D01*
X75474366Y-84713302D01*
X75474364Y-84713313D01*
X75454532Y-84939998D01*
X75454532Y-84940001D01*
X75474364Y-85166686D01*
X75474366Y-85166697D01*
X75533258Y-85386488D01*
X75533261Y-85386497D01*
X75629431Y-85592732D01*
X75629432Y-85592734D01*
X75759956Y-85779144D01*
X75763434Y-85783289D01*
X75762308Y-85784233D01*
X75792500Y-85839525D01*
X75787516Y-85909217D01*
X75759015Y-85953564D01*
X70400640Y-91311941D01*
X68620592Y-93091989D01*
X68581028Y-93131553D01*
X68533186Y-93179394D01*
X68533185Y-93179396D01*
X68463833Y-93283189D01*
X68462186Y-93287793D01*
X68417215Y-93396362D01*
X68417212Y-93396372D01*
X68405279Y-93456366D01*
X68393100Y-93517592D01*
X68393100Y-110962407D01*
X68417212Y-111083627D01*
X68417214Y-111083635D01*
X68450184Y-111163230D01*
X68450185Y-111163232D01*
X68464515Y-111197829D01*
X68464523Y-111197843D01*
X68519776Y-111280535D01*
X68519777Y-111280536D01*
X68533189Y-111300608D01*
X68533192Y-111300612D01*
X68533193Y-111300613D01*
X68799989Y-111567408D01*
X68833474Y-111628731D01*
X68832083Y-111687182D01*
X68814366Y-111753302D01*
X68814364Y-111753313D01*
X68794532Y-111979998D01*
X68794532Y-111980001D01*
X68814364Y-112206686D01*
X68814366Y-112206697D01*
X68873258Y-112426488D01*
X68873261Y-112426497D01*
X68969431Y-112632732D01*
X68969432Y-112632734D01*
X69099954Y-112819141D01*
X69260858Y-112980045D01*
X69260861Y-112980047D01*
X69447266Y-113110568D01*
X69653504Y-113206739D01*
X69873308Y-113265635D01*
X70035230Y-113279801D01*
X70099998Y-113285468D01*
X70099999Y-113285468D01*
X70099999Y-113285467D01*
X70100000Y-113285468D01*
X70139473Y-113282014D01*
X70207971Y-113295780D01*
X70258155Y-113344394D01*
X70274280Y-113405542D01*
X70274280Y-126483922D01*
X70254595Y-126550961D01*
X70218838Y-126586123D01*
X70219133Y-126586513D01*
X70216158Y-126588759D01*
X70215562Y-126589346D01*
X70214560Y-126589966D01*
X70214556Y-126589969D01*
X70059041Y-126731739D01*
X69975412Y-126842481D01*
X69919302Y-126884117D01*
X69867875Y-126891457D01*
X69862712Y-126891098D01*
X69299040Y-127454771D01*
X69299040Y-127447500D01*
X69271864Y-127346077D01*
X69219363Y-127255143D01*
X69145117Y-127180897D01*
X69054183Y-127128396D01*
X68952760Y-127101220D01*
X68945488Y-127101220D01*
X69506371Y-126540335D01*
X69506370Y-126540334D01*
X69408343Y-126479638D01*
X69408337Y-126479636D01*
X69212196Y-126403651D01*
X69005431Y-126365000D01*
X68795089Y-126365000D01*
X68588324Y-126403651D01*
X68588323Y-126403651D01*
X68392183Y-126479635D01*
X68294147Y-126540335D01*
X68855033Y-127101220D01*
X68847760Y-127101220D01*
X68746337Y-127128396D01*
X68655403Y-127180897D01*
X68581157Y-127255143D01*
X68528656Y-127346077D01*
X68501480Y-127447500D01*
X68501480Y-127454773D01*
X67937806Y-126891099D01*
X67937805Y-126891099D01*
X67931130Y-126899939D01*
X67837371Y-127088230D01*
X67779805Y-127290555D01*
X67760398Y-127499999D01*
X65500500Y-127499999D01*
X65500500Y-121878711D01*
X66049500Y-121878711D01*
X66049500Y-122121288D01*
X66081161Y-122361785D01*
X66143947Y-122596104D01*
X66229427Y-122802471D01*
X66236776Y-122820212D01*
X66358064Y-123030289D01*
X66358066Y-123030292D01*
X66358067Y-123030293D01*
X66505733Y-123222736D01*
X66505739Y-123222743D01*
X66677256Y-123394260D01*
X66677262Y-123394265D01*
X66869711Y-123541936D01*
X67079788Y-123663224D01*
X67303900Y-123756054D01*
X67538211Y-123818838D01*
X67718586Y-123842584D01*
X67778711Y-123850500D01*
X67778712Y-123850500D01*
X68021289Y-123850500D01*
X68069388Y-123844167D01*
X68261789Y-123818838D01*
X68496100Y-123756054D01*
X68720212Y-123663224D01*
X68930289Y-123541936D01*
X69122738Y-123394265D01*
X69294265Y-123222738D01*
X69441936Y-123030289D01*
X69563224Y-122820212D01*
X69656054Y-122596100D01*
X69718838Y-122361789D01*
X69750500Y-122121288D01*
X69750500Y-121878712D01*
X69718838Y-121638211D01*
X69656054Y-121403900D01*
X69563224Y-121179788D01*
X69441936Y-120969711D01*
X69294265Y-120777262D01*
X69294260Y-120777256D01*
X69122743Y-120605739D01*
X69122736Y-120605733D01*
X68930293Y-120458067D01*
X68930292Y-120458066D01*
X68930289Y-120458064D01*
X68758661Y-120358974D01*
X68720214Y-120336777D01*
X68720205Y-120336773D01*
X68496104Y-120243947D01*
X68261785Y-120181161D01*
X68021289Y-120149500D01*
X68021288Y-120149500D01*
X67778712Y-120149500D01*
X67778711Y-120149500D01*
X67538214Y-120181161D01*
X67303895Y-120243947D01*
X67079794Y-120336773D01*
X67079785Y-120336777D01*
X66869706Y-120458067D01*
X66677263Y-120605733D01*
X66677256Y-120605739D01*
X66505739Y-120777256D01*
X66505733Y-120777263D01*
X66358067Y-120969706D01*
X66236777Y-121179785D01*
X66236773Y-121179794D01*
X66143947Y-121403895D01*
X66081161Y-121638214D01*
X66049500Y-121878711D01*
X65500500Y-121878711D01*
X65500500Y-89178712D01*
X66049500Y-89178712D01*
X66049500Y-89421288D01*
X66081162Y-89661789D01*
X66112554Y-89778944D01*
X66143947Y-89896104D01*
X66161747Y-89939076D01*
X66236776Y-90120212D01*
X66358064Y-90330289D01*
X66358066Y-90330292D01*
X66358067Y-90330293D01*
X66505733Y-90522736D01*
X66505739Y-90522743D01*
X66677256Y-90694260D01*
X66677262Y-90694265D01*
X66869711Y-90841936D01*
X67079788Y-90963224D01*
X67303900Y-91056054D01*
X67538211Y-91118838D01*
X67710235Y-91141485D01*
X67778711Y-91150500D01*
X67778712Y-91150500D01*
X68021289Y-91150500D01*
X68089765Y-91141485D01*
X68261789Y-91118838D01*
X68496100Y-91056054D01*
X68720212Y-90963224D01*
X68930289Y-90841936D01*
X69122738Y-90694265D01*
X69294265Y-90522738D01*
X69441936Y-90330289D01*
X69563224Y-90120212D01*
X69656054Y-89896100D01*
X69718838Y-89661789D01*
X69750500Y-89421288D01*
X69750500Y-89178712D01*
X69718838Y-88938211D01*
X69656054Y-88703900D01*
X69563224Y-88479788D01*
X69441936Y-88269711D01*
X69336828Y-88132731D01*
X69294266Y-88077263D01*
X69294260Y-88077256D01*
X69122743Y-87905739D01*
X69122736Y-87905733D01*
X68930293Y-87758067D01*
X68930292Y-87758066D01*
X68930289Y-87758064D01*
X68720212Y-87636776D01*
X68693634Y-87625767D01*
X68496104Y-87543947D01*
X68261785Y-87481161D01*
X68021289Y-87449500D01*
X68021288Y-87449500D01*
X67778712Y-87449500D01*
X67778711Y-87449500D01*
X67538214Y-87481161D01*
X67303895Y-87543947D01*
X67079794Y-87636773D01*
X67079785Y-87636777D01*
X66869706Y-87758067D01*
X66677263Y-87905733D01*
X66677256Y-87905739D01*
X66505739Y-88077256D01*
X66505733Y-88077263D01*
X66358067Y-88269706D01*
X66236777Y-88479785D01*
X66236773Y-88479794D01*
X66143947Y-88703895D01*
X66081161Y-88938214D01*
X66059871Y-89099933D01*
X66049500Y-89178712D01*
X65500500Y-89178712D01*
X65500500Y-74859998D01*
X68694532Y-74859998D01*
X68694532Y-74860001D01*
X68714364Y-75086686D01*
X68714366Y-75086697D01*
X68773258Y-75306488D01*
X68773261Y-75306497D01*
X68869431Y-75512732D01*
X68869432Y-75512734D01*
X68999954Y-75699141D01*
X69160858Y-75860045D01*
X69160861Y-75860047D01*
X69347266Y-75990568D01*
X69381945Y-76006739D01*
X69405275Y-76017618D01*
X69457714Y-76063791D01*
X69476866Y-76130984D01*
X69456650Y-76197865D01*
X69405275Y-76242382D01*
X69347267Y-76269431D01*
X69347265Y-76269432D01*
X69160858Y-76399954D01*
X68999954Y-76560858D01*
X68869432Y-76747265D01*
X68869431Y-76747267D01*
X68773261Y-76953502D01*
X68773258Y-76953511D01*
X68714366Y-77173302D01*
X68714364Y-77173313D01*
X68694532Y-77399998D01*
X68694532Y-77400001D01*
X68714364Y-77626686D01*
X68714366Y-77626697D01*
X68773258Y-77846488D01*
X68773261Y-77846497D01*
X68869431Y-78052732D01*
X68869432Y-78052734D01*
X68999954Y-78239141D01*
X69160858Y-78400045D01*
X69160861Y-78400047D01*
X69347266Y-78530568D01*
X69553504Y-78626739D01*
X69553509Y-78626740D01*
X69553511Y-78626741D01*
X69606415Y-78640916D01*
X69773308Y-78685635D01*
X69935230Y-78699801D01*
X69999998Y-78705468D01*
X70000000Y-78705468D01*
X70000002Y-78705468D01*
X70061939Y-78700049D01*
X70226692Y-78685635D01*
X70446496Y-78626739D01*
X70652734Y-78530568D01*
X70839139Y-78400047D01*
X71000047Y-78239139D01*
X71130568Y-78052734D01*
X71226739Y-77846496D01*
X71285635Y-77626692D01*
X71305468Y-77400000D01*
X71285635Y-77173308D01*
X71226739Y-76953504D01*
X71130568Y-76747266D01*
X71000047Y-76560861D01*
X71000045Y-76560858D01*
X70839141Y-76399954D01*
X70652734Y-76269432D01*
X70652728Y-76269429D01*
X70594725Y-76242382D01*
X70542285Y-76196210D01*
X70523133Y-76129017D01*
X70543348Y-76062135D01*
X70594725Y-76017618D01*
X70652734Y-75990568D01*
X70839139Y-75860047D01*
X71000047Y-75699139D01*
X71130568Y-75512734D01*
X71226739Y-75306496D01*
X71285635Y-75086692D01*
X71305468Y-74860000D01*
X71285635Y-74633308D01*
X71226739Y-74413504D01*
X71130568Y-74207266D01*
X71018719Y-74047528D01*
X71000045Y-74020858D01*
X70839141Y-73859954D01*
X70652735Y-73729433D01*
X70652736Y-73729433D01*
X70652734Y-73729432D01*
X70594132Y-73702105D01*
X70541694Y-73655933D01*
X70522543Y-73588739D01*
X70542759Y-73521858D01*
X70594135Y-73477341D01*
X70652482Y-73450133D01*
X70725471Y-73399024D01*
X70170234Y-72843787D01*
X70212292Y-72832518D01*
X70337708Y-72760110D01*
X70440110Y-72657708D01*
X70512518Y-72532292D01*
X70523787Y-72490234D01*
X71079024Y-73045471D01*
X71130136Y-72972478D01*
X71226264Y-72766331D01*
X71226269Y-72766317D01*
X71285139Y-72546610D01*
X71285141Y-72546599D01*
X71304966Y-72320002D01*
X71304966Y-72319997D01*
X71285141Y-72093400D01*
X71285139Y-72093389D01*
X71226269Y-71873682D01*
X71226264Y-71873668D01*
X71130136Y-71667521D01*
X71130132Y-71667513D01*
X71079025Y-71594526D01*
X70523787Y-72149764D01*
X70512518Y-72107708D01*
X70440110Y-71982292D01*
X70337708Y-71879890D01*
X70212292Y-71807482D01*
X70170234Y-71796212D01*
X70725472Y-71240974D01*
X70723513Y-71218580D01*
X70718050Y-71211745D01*
X70710858Y-71142246D01*
X70742381Y-71079892D01*
X70802612Y-71044480D01*
X70819544Y-71041459D01*
X70869483Y-71036091D01*
X71004331Y-70985796D01*
X71119546Y-70899546D01*
X71205796Y-70784331D01*
X71256091Y-70649483D01*
X71262500Y-70589873D01*
X71262499Y-68970128D01*
X71256091Y-68910517D01*
X71237569Y-68860858D01*
X71205797Y-68775671D01*
X71205793Y-68775664D01*
X71119547Y-68660455D01*
X71119544Y-68660452D01*
X71004335Y-68574206D01*
X71004328Y-68574202D01*
X70869482Y-68523908D01*
X70869483Y-68523908D01*
X70809883Y-68517501D01*
X70809881Y-68517500D01*
X70809873Y-68517500D01*
X70809864Y-68517500D01*
X69190129Y-68517500D01*
X69190123Y-68517501D01*
X69130516Y-68523908D01*
X68995671Y-68574202D01*
X68995664Y-68574206D01*
X68880455Y-68660452D01*
X68880452Y-68660455D01*
X68794206Y-68775664D01*
X68794202Y-68775671D01*
X68743908Y-68910517D01*
X68737501Y-68970116D01*
X68737501Y-68970123D01*
X68737500Y-68970135D01*
X68737500Y-70589870D01*
X68737501Y-70589876D01*
X68743908Y-70649483D01*
X68794202Y-70784328D01*
X68794206Y-70784335D01*
X68880452Y-70899544D01*
X68880455Y-70899547D01*
X68995664Y-70985793D01*
X68995671Y-70985797D01*
X69040618Y-71002561D01*
X69130517Y-71036091D01*
X69180457Y-71041460D01*
X69245005Y-71068197D01*
X69284853Y-71125590D01*
X69287347Y-71195415D01*
X69276984Y-71212880D01*
X69274526Y-71240974D01*
X69829765Y-71796212D01*
X69787708Y-71807482D01*
X69662292Y-71879890D01*
X69559890Y-71982292D01*
X69487482Y-72107708D01*
X69476212Y-72149764D01*
X68920974Y-71594526D01*
X68920973Y-71594526D01*
X68869868Y-71667512D01*
X68869866Y-71667516D01*
X68773734Y-71873673D01*
X68773730Y-71873682D01*
X68714860Y-72093389D01*
X68714858Y-72093400D01*
X68695034Y-72319997D01*
X68695034Y-72320002D01*
X68714858Y-72546599D01*
X68714860Y-72546610D01*
X68773730Y-72766317D01*
X68773735Y-72766331D01*
X68869863Y-72972478D01*
X68920974Y-73045472D01*
X69476212Y-72490234D01*
X69487482Y-72532292D01*
X69559890Y-72657708D01*
X69662292Y-72760110D01*
X69787708Y-72832518D01*
X69829765Y-72843787D01*
X69274526Y-73399025D01*
X69347513Y-73450132D01*
X69347521Y-73450136D01*
X69405864Y-73477342D01*
X69458304Y-73523514D01*
X69477456Y-73590707D01*
X69457241Y-73657589D01*
X69405866Y-73702105D01*
X69347272Y-73729428D01*
X69347265Y-73729432D01*
X69160858Y-73859954D01*
X68999954Y-74020858D01*
X68869432Y-74207265D01*
X68869431Y-74207267D01*
X68773261Y-74413502D01*
X68773258Y-74413511D01*
X68714366Y-74633302D01*
X68714364Y-74633313D01*
X68694532Y-74859998D01*
X65500500Y-74859998D01*
X65500500Y-63878711D01*
X66049500Y-63878711D01*
X66049500Y-64121288D01*
X66081161Y-64361785D01*
X66143947Y-64596104D01*
X66236773Y-64820205D01*
X66236777Y-64820214D01*
X66252017Y-64846610D01*
X66358064Y-65030289D01*
X66358066Y-65030292D01*
X66358067Y-65030293D01*
X66505733Y-65222736D01*
X66505739Y-65222743D01*
X66677256Y-65394260D01*
X66677262Y-65394265D01*
X66869711Y-65541936D01*
X67079788Y-65663224D01*
X67275269Y-65744195D01*
X67290655Y-65750568D01*
X67303900Y-65756054D01*
X67538211Y-65818838D01*
X67718586Y-65842584D01*
X67778711Y-65850500D01*
X67778712Y-65850500D01*
X68021289Y-65850500D01*
X68069388Y-65844167D01*
X68261789Y-65818838D01*
X68496100Y-65756054D01*
X68720212Y-65663224D01*
X68930289Y-65541936D01*
X69122738Y-65394265D01*
X69294265Y-65222738D01*
X69441936Y-65030289D01*
X69563224Y-64820212D01*
X69656054Y-64596100D01*
X69718838Y-64361789D01*
X69750500Y-64121288D01*
X69750500Y-63878712D01*
X69718838Y-63638211D01*
X69656054Y-63403900D01*
X69563224Y-63179788D01*
X69441936Y-62969711D01*
X69315911Y-62805472D01*
X69294266Y-62777263D01*
X69294260Y-62777256D01*
X69122743Y-62605739D01*
X69122736Y-62605733D01*
X68930293Y-62458067D01*
X68930292Y-62458066D01*
X68930289Y-62458064D01*
X68720212Y-62336776D01*
X68647583Y-62306692D01*
X68496104Y-62243947D01*
X68261785Y-62181161D01*
X68021289Y-62149500D01*
X68021288Y-62149500D01*
X67778712Y-62149500D01*
X67778711Y-62149500D01*
X67538214Y-62181161D01*
X67303895Y-62243947D01*
X67079794Y-62336773D01*
X67079785Y-62336777D01*
X66869706Y-62458067D01*
X66677263Y-62605733D01*
X66677256Y-62605739D01*
X66505739Y-62777256D01*
X66505733Y-62777263D01*
X66358067Y-62969706D01*
X66236777Y-63179785D01*
X66236773Y-63179794D01*
X66143947Y-63403895D01*
X66081161Y-63638214D01*
X66049500Y-63878711D01*
X65500500Y-63878711D01*
X65500500Y-60624500D01*
X65520185Y-60557461D01*
X65572989Y-60511706D01*
X65624500Y-60500500D01*
X112375500Y-60500500D01*
X112442539Y-60520185D01*
G37*
G04 #@! TD.AperFunction*
M02*
