G04 #@! TF.GenerationSoftware,KiCad,Pcbnew,8.0.5*
G04 #@! TF.CreationDate,2024-11-18T01:09:08-08:00*
G04 #@! TF.ProjectId,PCB,5043422e-6b69-4636-9164-5f7063625858,rev?*
G04 #@! TF.SameCoordinates,Original*
G04 #@! TF.FileFunction,Copper,L1,Top*
G04 #@! TF.FilePolarity,Positive*
%FSLAX46Y46*%
G04 Gerber Fmt 4.6, Leading zero omitted, Abs format (unit mm)*
G04 Created by KiCad (PCBNEW 8.0.5) date 2024-11-18 01:09:08*
%MOMM*%
%LPD*%
G01*
G04 APERTURE LIST*
G04 #@! TA.AperFunction,ComponentPad*
%ADD10C,1.600000*%
G04 #@! TD*
G04 #@! TA.AperFunction,ComponentPad*
%ADD11O,1.600000X1.600000*%
G04 #@! TD*
G04 #@! TA.AperFunction,ComponentPad*
%ADD12R,1.524000X1.524000*%
G04 #@! TD*
G04 #@! TA.AperFunction,ComponentPad*
%ADD13C,1.524000*%
G04 #@! TD*
G04 #@! TA.AperFunction,ComponentPad*
%ADD14R,1.270000X1.270000*%
G04 #@! TD*
G04 #@! TA.AperFunction,ComponentPad*
%ADD15C,1.270000*%
G04 #@! TD*
G04 #@! TA.AperFunction,ComponentPad*
%ADD16R,1.700000X1.700000*%
G04 #@! TD*
G04 #@! TA.AperFunction,ComponentPad*
%ADD17O,1.700000X1.700000*%
G04 #@! TD*
G04 #@! TA.AperFunction,ViaPad*
%ADD18C,0.600000*%
G04 #@! TD*
G04 #@! TA.AperFunction,Conductor*
%ADD19C,0.508000*%
G04 #@! TD*
G04 #@! TA.AperFunction,Conductor*
%ADD20C,0.200000*%
G04 #@! TD*
G04 #@! TA.AperFunction,Conductor*
%ADD21C,0.254000*%
G04 #@! TD*
G04 APERTURE END LIST*
D10*
X84380000Y-95100000D03*
X86920000Y-95100000D03*
X89460000Y-95100000D03*
X92000000Y-95100000D03*
X81840000Y-95100000D03*
X79300000Y-95100000D03*
X76760000Y-95100000D03*
X92000000Y-92560000D03*
X92000000Y-90020000D03*
X92000000Y-87480000D03*
X92000000Y-84940000D03*
X92000000Y-82400000D03*
X92000000Y-79860000D03*
X92000000Y-77320000D03*
X92000000Y-74780000D03*
X92000000Y-72240000D03*
X92000000Y-69700000D03*
X92000000Y-67160000D03*
X92000000Y-64620000D03*
X92000000Y-62080000D03*
X89460000Y-64620000D03*
X76760000Y-92560000D03*
X76760000Y-90020000D03*
X76760000Y-87480000D03*
X76760000Y-84940000D03*
X76760000Y-82400000D03*
X76760000Y-79860000D03*
X76760000Y-77320000D03*
X76760000Y-74780000D03*
X76760000Y-72240000D03*
X76760000Y-69700000D03*
X76760000Y-67160000D03*
X76760000Y-64620000D03*
X76760000Y-62080000D03*
X89460000Y-90020000D03*
X89460000Y-87480000D03*
X86920000Y-90020000D03*
X86920000Y-87480000D03*
X84380000Y-90020000D03*
X84380000Y-87480000D03*
X81840000Y-90020000D03*
X81840000Y-87480000D03*
X79300000Y-90020000D03*
X79300000Y-87480000D03*
X92300000Y-101760000D03*
D11*
X92300000Y-111920000D03*
D12*
X101100000Y-70900000D03*
D13*
X101100000Y-64900000D03*
D10*
X70000000Y-77400000D03*
X70000000Y-74860000D03*
X70000000Y-72320000D03*
D12*
X70000000Y-69780000D03*
D10*
X99700000Y-101720000D03*
D11*
X99700000Y-111880000D03*
D14*
X74899740Y-127499880D03*
D15*
X72898220Y-127500000D03*
X70901780Y-127500000D03*
X68900260Y-127500000D03*
D10*
X106800000Y-101720000D03*
D11*
X106800000Y-111880000D03*
D16*
X92680000Y-119300000D03*
D17*
X90140000Y-119300000D03*
X87600000Y-119300000D03*
X85060000Y-119300000D03*
D10*
X85300000Y-101720000D03*
D11*
X85300000Y-111880000D03*
D12*
X98289940Y-77239075D03*
D10*
X98289940Y-79779075D03*
X98289940Y-82319075D03*
X98289940Y-84859075D03*
X98289940Y-87399075D03*
X98289940Y-89939075D03*
X98289940Y-92479075D03*
X98289940Y-95019075D03*
X70100000Y-101820000D03*
D11*
X70100000Y-111980000D03*
D14*
X91800000Y-127600000D03*
D15*
X89798480Y-127600120D03*
X87802040Y-127600120D03*
X85800520Y-127600120D03*
D14*
X108399740Y-127799880D03*
D15*
X106398220Y-127800000D03*
X104401780Y-127800000D03*
X102400260Y-127800000D03*
D10*
X77500000Y-101760000D03*
D11*
X77500000Y-111920000D03*
D18*
X100800000Y-117800000D03*
X76100000Y-98200000D03*
X72100000Y-62600000D03*
X104700000Y-70600000D03*
X74400000Y-72900000D03*
X84100000Y-61500000D03*
X72700000Y-113900000D03*
X92700000Y-115900000D03*
X91900000Y-97900000D03*
X89100000Y-111800000D03*
X81700000Y-82000000D03*
X86800000Y-75900000D03*
X81700000Y-70100000D03*
X96600000Y-63700000D03*
X111100000Y-73700000D03*
X104600000Y-78800000D03*
X109900000Y-83700000D03*
X99000000Y-97800000D03*
X103400000Y-91800000D03*
X103100000Y-99800000D03*
X102900000Y-109400000D03*
X111000000Y-102200000D03*
X108800000Y-117800000D03*
X96600000Y-113400000D03*
X98500000Y-123400000D03*
X95500000Y-129000000D03*
X81100000Y-125700000D03*
X81600000Y-102700000D03*
X81900000Y-110600000D03*
X77600000Y-118300000D03*
X67800000Y-117900000D03*
X86700000Y-98100000D03*
X73800000Y-106600000D03*
X73000000Y-94800000D03*
X67000000Y-99700000D03*
X68000000Y-82000000D03*
X73900000Y-85600000D03*
D19*
X90780000Y-63300000D02*
X92000000Y-62080000D01*
X75210000Y-63300000D02*
X90780000Y-63300000D01*
X70000000Y-68510000D02*
X75210000Y-63300000D01*
X70000000Y-69780000D02*
X70000000Y-68510000D01*
X101100000Y-70900000D02*
X98420000Y-70900000D01*
X98420000Y-70900000D02*
X92000000Y-77320000D01*
D20*
X73000000Y-77400000D02*
X70000000Y-77400000D01*
X73000000Y-70920000D02*
X73000000Y-77400000D01*
X76760000Y-67160000D02*
X73000000Y-70920000D01*
X72000000Y-69380000D02*
X76760000Y-64620000D01*
X72000000Y-72900000D02*
X72000000Y-69380000D01*
X71960000Y-72900000D02*
X72000000Y-72900000D01*
X70000000Y-74860000D02*
X71960000Y-72900000D01*
D21*
X77500000Y-101760000D02*
X85260000Y-101760000D01*
X77440000Y-101820000D02*
X77500000Y-101760000D01*
X70100000Y-101820000D02*
X77440000Y-101820000D01*
X99660000Y-101760000D02*
X99700000Y-101720000D01*
X99700000Y-101720000D02*
X106800000Y-101720000D01*
X92260000Y-101720000D02*
X92300000Y-101760000D01*
X85260000Y-101760000D02*
X85300000Y-101720000D01*
X92300000Y-101760000D02*
X99660000Y-101760000D01*
X85300000Y-101720000D02*
X92260000Y-101720000D01*
X94370000Y-84770000D02*
X92000000Y-82400000D01*
X98550000Y-84770000D02*
X94370000Y-84770000D01*
X98550000Y-82230000D02*
X94370000Y-82230000D01*
X94370000Y-82230000D02*
X92000000Y-79860000D01*
G04 #@! TA.AperFunction,Conductor*
G36*
X88170587Y-64074185D02*
G01*
X88216342Y-64126989D01*
X88226286Y-64196147D01*
X88223323Y-64210593D01*
X88174366Y-64393302D01*
X88174364Y-64393313D01*
X88154532Y-64619998D01*
X88154532Y-64620001D01*
X88174364Y-64846686D01*
X88174366Y-64846697D01*
X88233258Y-65066488D01*
X88233261Y-65066497D01*
X88329431Y-65272732D01*
X88329432Y-65272734D01*
X88459954Y-65459141D01*
X88620858Y-65620045D01*
X88620861Y-65620047D01*
X88807266Y-65750568D01*
X89013504Y-65846739D01*
X89233308Y-65905635D01*
X89395230Y-65919801D01*
X89459998Y-65925468D01*
X89460000Y-65925468D01*
X89460002Y-65925468D01*
X89516673Y-65920509D01*
X89686692Y-65905635D01*
X89906496Y-65846739D01*
X90112734Y-65750568D01*
X90299139Y-65620047D01*
X90460047Y-65459139D01*
X90590568Y-65272734D01*
X90617893Y-65214134D01*
X90664065Y-65161695D01*
X90731258Y-65142543D01*
X90798139Y-65162758D01*
X90842657Y-65214134D01*
X90869864Y-65272480D01*
X90920974Y-65345472D01*
X91476212Y-64790233D01*
X91487482Y-64832292D01*
X91559890Y-64957708D01*
X91662292Y-65060110D01*
X91787708Y-65132518D01*
X91829765Y-65143787D01*
X91274526Y-65699025D01*
X91347513Y-65750132D01*
X91347521Y-65750136D01*
X91405864Y-65777342D01*
X91458304Y-65823514D01*
X91477456Y-65890707D01*
X91457241Y-65957589D01*
X91405866Y-66002105D01*
X91347272Y-66029428D01*
X91347265Y-66029432D01*
X91160858Y-66159954D01*
X90999954Y-66320858D01*
X90869432Y-66507265D01*
X90869431Y-66507267D01*
X90773261Y-66713502D01*
X90773258Y-66713511D01*
X90714366Y-66933302D01*
X90714364Y-66933313D01*
X90694532Y-67159998D01*
X90694532Y-67160001D01*
X90714364Y-67386686D01*
X90714366Y-67386697D01*
X90773258Y-67606488D01*
X90773261Y-67606497D01*
X90869431Y-67812732D01*
X90869432Y-67812734D01*
X90999954Y-67999141D01*
X91160858Y-68160045D01*
X91160861Y-68160047D01*
X91347266Y-68290568D01*
X91405275Y-68317618D01*
X91457714Y-68363791D01*
X91476866Y-68430984D01*
X91456650Y-68497865D01*
X91405275Y-68542382D01*
X91347267Y-68569431D01*
X91347265Y-68569432D01*
X91160858Y-68699954D01*
X90999954Y-68860858D01*
X90869432Y-69047265D01*
X90869431Y-69047267D01*
X90773261Y-69253502D01*
X90773258Y-69253511D01*
X90714366Y-69473302D01*
X90714364Y-69473313D01*
X90694532Y-69699998D01*
X90694532Y-69700001D01*
X90714364Y-69926686D01*
X90714366Y-69926697D01*
X90773258Y-70146488D01*
X90773261Y-70146497D01*
X90869431Y-70352732D01*
X90869432Y-70352734D01*
X90999954Y-70539141D01*
X91160858Y-70700045D01*
X91160861Y-70700047D01*
X91347266Y-70830568D01*
X91405275Y-70857618D01*
X91457714Y-70903791D01*
X91476866Y-70970984D01*
X91456650Y-71037865D01*
X91405275Y-71082382D01*
X91347267Y-71109431D01*
X91347265Y-71109432D01*
X91160858Y-71239954D01*
X90999954Y-71400858D01*
X90869432Y-71587265D01*
X90869431Y-71587267D01*
X90773261Y-71793502D01*
X90773258Y-71793511D01*
X90714366Y-72013302D01*
X90714364Y-72013313D01*
X90694532Y-72239998D01*
X90694532Y-72240001D01*
X90714364Y-72466686D01*
X90714366Y-72466697D01*
X90773258Y-72686488D01*
X90773261Y-72686497D01*
X90869431Y-72892732D01*
X90869432Y-72892734D01*
X90999954Y-73079141D01*
X91160858Y-73240045D01*
X91160861Y-73240047D01*
X91347266Y-73370568D01*
X91405275Y-73397618D01*
X91457714Y-73443791D01*
X91476866Y-73510984D01*
X91456650Y-73577865D01*
X91405275Y-73622382D01*
X91347267Y-73649431D01*
X91347265Y-73649432D01*
X91160858Y-73779954D01*
X90999954Y-73940858D01*
X90869432Y-74127265D01*
X90869431Y-74127267D01*
X90773261Y-74333502D01*
X90773258Y-74333511D01*
X90714366Y-74553302D01*
X90714364Y-74553313D01*
X90694532Y-74779998D01*
X90694532Y-74780001D01*
X90714364Y-75006686D01*
X90714366Y-75006697D01*
X90773258Y-75226488D01*
X90773261Y-75226497D01*
X90869431Y-75432732D01*
X90869432Y-75432734D01*
X90999954Y-75619141D01*
X91160858Y-75780045D01*
X91160861Y-75780047D01*
X91347266Y-75910568D01*
X91405275Y-75937618D01*
X91457714Y-75983791D01*
X91476866Y-76050984D01*
X91456650Y-76117865D01*
X91405275Y-76162382D01*
X91347267Y-76189431D01*
X91347265Y-76189432D01*
X91160858Y-76319954D01*
X90999954Y-76480858D01*
X90869432Y-76667265D01*
X90869431Y-76667267D01*
X90773261Y-76873502D01*
X90773258Y-76873511D01*
X90714366Y-77093302D01*
X90714364Y-77093313D01*
X90694532Y-77319998D01*
X90694532Y-77320001D01*
X90714364Y-77546686D01*
X90714366Y-77546697D01*
X90773258Y-77766488D01*
X90773261Y-77766497D01*
X90869431Y-77972732D01*
X90869432Y-77972734D01*
X90999954Y-78159141D01*
X91160858Y-78320045D01*
X91160861Y-78320047D01*
X91347266Y-78450568D01*
X91405275Y-78477618D01*
X91457714Y-78523791D01*
X91476866Y-78590984D01*
X91456650Y-78657865D01*
X91405275Y-78702382D01*
X91347267Y-78729431D01*
X91347265Y-78729432D01*
X91160858Y-78859954D01*
X90999954Y-79020858D01*
X90869432Y-79207265D01*
X90869431Y-79207267D01*
X90773261Y-79413502D01*
X90773258Y-79413511D01*
X90714366Y-79633302D01*
X90714364Y-79633313D01*
X90694532Y-79859998D01*
X90694532Y-79860001D01*
X90714364Y-80086686D01*
X90714366Y-80086697D01*
X90773258Y-80306488D01*
X90773261Y-80306497D01*
X90869431Y-80512732D01*
X90869432Y-80512734D01*
X90999954Y-80699141D01*
X91160858Y-80860045D01*
X91160861Y-80860047D01*
X91347266Y-80990568D01*
X91405275Y-81017618D01*
X91457714Y-81063791D01*
X91476866Y-81130984D01*
X91456650Y-81197865D01*
X91405275Y-81242382D01*
X91347267Y-81269431D01*
X91347265Y-81269432D01*
X91160858Y-81399954D01*
X90999954Y-81560858D01*
X90869432Y-81747265D01*
X90869431Y-81747267D01*
X90773261Y-81953502D01*
X90773258Y-81953511D01*
X90714366Y-82173302D01*
X90714364Y-82173313D01*
X90694532Y-82399998D01*
X90694532Y-82400001D01*
X90714364Y-82626686D01*
X90714366Y-82626697D01*
X90773258Y-82846488D01*
X90773261Y-82846497D01*
X90869431Y-83052732D01*
X90869432Y-83052734D01*
X90999954Y-83239141D01*
X91160858Y-83400045D01*
X91160861Y-83400047D01*
X91347266Y-83530568D01*
X91405275Y-83557618D01*
X91457714Y-83603791D01*
X91476866Y-83670984D01*
X91456650Y-83737865D01*
X91405275Y-83782382D01*
X91347267Y-83809431D01*
X91347265Y-83809432D01*
X91160858Y-83939954D01*
X90999954Y-84100858D01*
X90869432Y-84287265D01*
X90869431Y-84287267D01*
X90773261Y-84493502D01*
X90773258Y-84493511D01*
X90714366Y-84713302D01*
X90714364Y-84713313D01*
X90694532Y-84939998D01*
X90694532Y-84940001D01*
X90714364Y-85166686D01*
X90714366Y-85166697D01*
X90773258Y-85386488D01*
X90773261Y-85386497D01*
X90869431Y-85592732D01*
X90869432Y-85592734D01*
X90999954Y-85779141D01*
X91160858Y-85940045D01*
X91160861Y-85940047D01*
X91347266Y-86070568D01*
X91405275Y-86097618D01*
X91457714Y-86143791D01*
X91476866Y-86210984D01*
X91456650Y-86277865D01*
X91405275Y-86322382D01*
X91347267Y-86349431D01*
X91347265Y-86349432D01*
X91160858Y-86479954D01*
X90999954Y-86640858D01*
X90869432Y-86827265D01*
X90869431Y-86827267D01*
X90842382Y-86885275D01*
X90796209Y-86937714D01*
X90729016Y-86956866D01*
X90662135Y-86936650D01*
X90617618Y-86885275D01*
X90590568Y-86827267D01*
X90590567Y-86827265D01*
X90533903Y-86746340D01*
X90460047Y-86640861D01*
X90460045Y-86640858D01*
X90299141Y-86479954D01*
X90112734Y-86349432D01*
X90112732Y-86349431D01*
X89906497Y-86253261D01*
X89906488Y-86253258D01*
X89686697Y-86194366D01*
X89686693Y-86194365D01*
X89686692Y-86194365D01*
X89686691Y-86194364D01*
X89686686Y-86194364D01*
X89460002Y-86174532D01*
X89459998Y-86174532D01*
X89233313Y-86194364D01*
X89233302Y-86194366D01*
X89013511Y-86253258D01*
X89013502Y-86253261D01*
X88807267Y-86349431D01*
X88807265Y-86349432D01*
X88620858Y-86479954D01*
X88459954Y-86640858D01*
X88329432Y-86827265D01*
X88329431Y-86827267D01*
X88302382Y-86885275D01*
X88256209Y-86937714D01*
X88189016Y-86956866D01*
X88122135Y-86936650D01*
X88077618Y-86885275D01*
X88050568Y-86827267D01*
X88050567Y-86827265D01*
X87993903Y-86746340D01*
X87920047Y-86640861D01*
X87920045Y-86640858D01*
X87759141Y-86479954D01*
X87572734Y-86349432D01*
X87572732Y-86349431D01*
X87366497Y-86253261D01*
X87366488Y-86253258D01*
X87146697Y-86194366D01*
X87146693Y-86194365D01*
X87146692Y-86194365D01*
X87146691Y-86194364D01*
X87146686Y-86194364D01*
X86920002Y-86174532D01*
X86919998Y-86174532D01*
X86693313Y-86194364D01*
X86693302Y-86194366D01*
X86473511Y-86253258D01*
X86473502Y-86253261D01*
X86267267Y-86349431D01*
X86267265Y-86349432D01*
X86080858Y-86479954D01*
X85919954Y-86640858D01*
X85789432Y-86827265D01*
X85789431Y-86827267D01*
X85762382Y-86885275D01*
X85716209Y-86937714D01*
X85649016Y-86956866D01*
X85582135Y-86936650D01*
X85537618Y-86885275D01*
X85510568Y-86827267D01*
X85510567Y-86827265D01*
X85453903Y-86746340D01*
X85380047Y-86640861D01*
X85380045Y-86640858D01*
X85219141Y-86479954D01*
X85032734Y-86349432D01*
X85032732Y-86349431D01*
X84826497Y-86253261D01*
X84826488Y-86253258D01*
X84606697Y-86194366D01*
X84606693Y-86194365D01*
X84606692Y-86194365D01*
X84606691Y-86194364D01*
X84606686Y-86194364D01*
X84380002Y-86174532D01*
X84379998Y-86174532D01*
X84153313Y-86194364D01*
X84153302Y-86194366D01*
X83933511Y-86253258D01*
X83933502Y-86253261D01*
X83727267Y-86349431D01*
X83727265Y-86349432D01*
X83540858Y-86479954D01*
X83379954Y-86640858D01*
X83249432Y-86827265D01*
X83249431Y-86827267D01*
X83222382Y-86885275D01*
X83176209Y-86937714D01*
X83109016Y-86956866D01*
X83042135Y-86936650D01*
X82997618Y-86885275D01*
X82970568Y-86827267D01*
X82970567Y-86827265D01*
X82913903Y-86746340D01*
X82840047Y-86640861D01*
X82840045Y-86640858D01*
X82679141Y-86479954D01*
X82492734Y-86349432D01*
X82492732Y-86349431D01*
X82286497Y-86253261D01*
X82286488Y-86253258D01*
X82066697Y-86194366D01*
X82066693Y-86194365D01*
X82066692Y-86194365D01*
X82066691Y-86194364D01*
X82066686Y-86194364D01*
X81840002Y-86174532D01*
X81839998Y-86174532D01*
X81613313Y-86194364D01*
X81613302Y-86194366D01*
X81393511Y-86253258D01*
X81393502Y-86253261D01*
X81187267Y-86349431D01*
X81187265Y-86349432D01*
X81000858Y-86479954D01*
X80839954Y-86640858D01*
X80709432Y-86827265D01*
X80709431Y-86827267D01*
X80682382Y-86885275D01*
X80636209Y-86937714D01*
X80569016Y-86956866D01*
X80502135Y-86936650D01*
X80457618Y-86885275D01*
X80430568Y-86827267D01*
X80430567Y-86827265D01*
X80373903Y-86746340D01*
X80300047Y-86640861D01*
X80300045Y-86640858D01*
X80139141Y-86479954D01*
X79952734Y-86349432D01*
X79952732Y-86349431D01*
X79746497Y-86253261D01*
X79746488Y-86253258D01*
X79526697Y-86194366D01*
X79526693Y-86194365D01*
X79526692Y-86194365D01*
X79526691Y-86194364D01*
X79526686Y-86194364D01*
X79300002Y-86174532D01*
X79299998Y-86174532D01*
X79073313Y-86194364D01*
X79073302Y-86194366D01*
X78853511Y-86253258D01*
X78853502Y-86253261D01*
X78647267Y-86349431D01*
X78647265Y-86349432D01*
X78460858Y-86479954D01*
X78299954Y-86640858D01*
X78169432Y-86827265D01*
X78169431Y-86827267D01*
X78142382Y-86885275D01*
X78096209Y-86937714D01*
X78029016Y-86956866D01*
X77962135Y-86936650D01*
X77917618Y-86885275D01*
X77890568Y-86827267D01*
X77890567Y-86827265D01*
X77833903Y-86746340D01*
X77760047Y-86640861D01*
X77760045Y-86640858D01*
X77599141Y-86479954D01*
X77412734Y-86349432D01*
X77412728Y-86349429D01*
X77354725Y-86322382D01*
X77302285Y-86276210D01*
X77283133Y-86209017D01*
X77303348Y-86142135D01*
X77354725Y-86097618D01*
X77412734Y-86070568D01*
X77599139Y-85940047D01*
X77760047Y-85779139D01*
X77890568Y-85592734D01*
X77986739Y-85386496D01*
X78045635Y-85166692D01*
X78065468Y-84940000D01*
X78045635Y-84713308D01*
X77986739Y-84493504D01*
X77890568Y-84287266D01*
X77760047Y-84100861D01*
X77760045Y-84100858D01*
X77599141Y-83939954D01*
X77412734Y-83809432D01*
X77412728Y-83809429D01*
X77354725Y-83782382D01*
X77302285Y-83736210D01*
X77283133Y-83669017D01*
X77303348Y-83602135D01*
X77354725Y-83557618D01*
X77412734Y-83530568D01*
X77599139Y-83400047D01*
X77760047Y-83239139D01*
X77890568Y-83052734D01*
X77986739Y-82846496D01*
X78045635Y-82626692D01*
X78065468Y-82400000D01*
X78045635Y-82173308D01*
X77986739Y-81953504D01*
X77890568Y-81747266D01*
X77760047Y-81560861D01*
X77760045Y-81560858D01*
X77599141Y-81399954D01*
X77412734Y-81269432D01*
X77412728Y-81269429D01*
X77354725Y-81242382D01*
X77302285Y-81196210D01*
X77283133Y-81129017D01*
X77303348Y-81062135D01*
X77354725Y-81017618D01*
X77412734Y-80990568D01*
X77599139Y-80860047D01*
X77760047Y-80699139D01*
X77890568Y-80512734D01*
X77986739Y-80306496D01*
X78045635Y-80086692D01*
X78065468Y-79860000D01*
X78045635Y-79633308D01*
X77986739Y-79413504D01*
X77890568Y-79207266D01*
X77760047Y-79020861D01*
X77760045Y-79020858D01*
X77599141Y-78859954D01*
X77412734Y-78729432D01*
X77412728Y-78729429D01*
X77354725Y-78702382D01*
X77302285Y-78656210D01*
X77283133Y-78589017D01*
X77303348Y-78522135D01*
X77354725Y-78477618D01*
X77412734Y-78450568D01*
X77599139Y-78320047D01*
X77760047Y-78159139D01*
X77890568Y-77972734D01*
X77986739Y-77766496D01*
X78045635Y-77546692D01*
X78065468Y-77320000D01*
X78045635Y-77093308D01*
X77986739Y-76873504D01*
X77890568Y-76667266D01*
X77760047Y-76480861D01*
X77760045Y-76480858D01*
X77599141Y-76319954D01*
X77412734Y-76189432D01*
X77412728Y-76189429D01*
X77354725Y-76162382D01*
X77302285Y-76116210D01*
X77283133Y-76049017D01*
X77303348Y-75982135D01*
X77354725Y-75937618D01*
X77412734Y-75910568D01*
X77599139Y-75780047D01*
X77760047Y-75619139D01*
X77890568Y-75432734D01*
X77986739Y-75226496D01*
X78045635Y-75006692D01*
X78065468Y-74780000D01*
X78045635Y-74553308D01*
X77986739Y-74333504D01*
X77890568Y-74127266D01*
X77760047Y-73940861D01*
X77760045Y-73940858D01*
X77599141Y-73779954D01*
X77412734Y-73649432D01*
X77412728Y-73649429D01*
X77354725Y-73622382D01*
X77302285Y-73576210D01*
X77283133Y-73509017D01*
X77303348Y-73442135D01*
X77354725Y-73397618D01*
X77412734Y-73370568D01*
X77599139Y-73240047D01*
X77760047Y-73079139D01*
X77890568Y-72892734D01*
X77986739Y-72686496D01*
X78045635Y-72466692D01*
X78065468Y-72240000D01*
X78045635Y-72013308D01*
X77986739Y-71793504D01*
X77890568Y-71587266D01*
X77760047Y-71400861D01*
X77760045Y-71400858D01*
X77599141Y-71239954D01*
X77412734Y-71109432D01*
X77412728Y-71109429D01*
X77354725Y-71082382D01*
X77302285Y-71036210D01*
X77283133Y-70969017D01*
X77303348Y-70902135D01*
X77354725Y-70857618D01*
X77412734Y-70830568D01*
X77599139Y-70700047D01*
X77760047Y-70539139D01*
X77890568Y-70352734D01*
X77986739Y-70146496D01*
X78045635Y-69926692D01*
X78065468Y-69700000D01*
X78045635Y-69473308D01*
X77986739Y-69253504D01*
X77890568Y-69047266D01*
X77760047Y-68860861D01*
X77760045Y-68860858D01*
X77599141Y-68699954D01*
X77412734Y-68569432D01*
X77412728Y-68569429D01*
X77354725Y-68542382D01*
X77302285Y-68496210D01*
X77283133Y-68429017D01*
X77303348Y-68362135D01*
X77354725Y-68317618D01*
X77412734Y-68290568D01*
X77599139Y-68160047D01*
X77760047Y-67999139D01*
X77890568Y-67812734D01*
X77986739Y-67606496D01*
X78045635Y-67386692D01*
X78065468Y-67160000D01*
X78045635Y-66933308D01*
X77986739Y-66713504D01*
X77890568Y-66507266D01*
X77760047Y-66320861D01*
X77760045Y-66320858D01*
X77599141Y-66159954D01*
X77412734Y-66029432D01*
X77412728Y-66029429D01*
X77354725Y-66002382D01*
X77302285Y-65956210D01*
X77283133Y-65889017D01*
X77303348Y-65822135D01*
X77354725Y-65777618D01*
X77355319Y-65777341D01*
X77412734Y-65750568D01*
X77599139Y-65620047D01*
X77760047Y-65459139D01*
X77890568Y-65272734D01*
X77986739Y-65066496D01*
X78045635Y-64846692D01*
X78065468Y-64620000D01*
X78061961Y-64579920D01*
X78054969Y-64500000D01*
X78045635Y-64393308D01*
X77996677Y-64210593D01*
X77998340Y-64140743D01*
X78037503Y-64082881D01*
X78101731Y-64055377D01*
X78116452Y-64054500D01*
X88103548Y-64054500D01*
X88170587Y-64074185D01*
G37*
G04 #@! TD.AperFunction*
G04 #@! TA.AperFunction,Conductor*
G36*
X71363182Y-70810451D02*
G01*
X71396666Y-70871775D01*
X71399500Y-70898132D01*
X71399500Y-71685846D01*
X71379815Y-71752885D01*
X71327011Y-71798640D01*
X71257853Y-71808584D01*
X71194297Y-71779559D01*
X71163118Y-71738251D01*
X71130134Y-71667517D01*
X71130132Y-71667513D01*
X71079025Y-71594526D01*
X70523787Y-72149764D01*
X70512518Y-72107708D01*
X70440110Y-71982292D01*
X70337708Y-71879890D01*
X70212292Y-71807482D01*
X70170234Y-71796212D01*
X70725472Y-71240974D01*
X70723513Y-71218580D01*
X70718050Y-71211745D01*
X70710858Y-71142246D01*
X70742381Y-71079892D01*
X70802612Y-71044480D01*
X70819544Y-71041459D01*
X70869483Y-71036091D01*
X71004331Y-70985796D01*
X71119546Y-70899546D01*
X71176234Y-70823819D01*
X71232167Y-70781950D01*
X71301859Y-70776966D01*
X71363182Y-70810451D01*
G37*
G04 #@! TD.AperFunction*
G04 #@! TA.AperFunction,Conductor*
G36*
X112442539Y-60520185D02*
G01*
X112488294Y-60572989D01*
X112499500Y-60624500D01*
X112499500Y-131375500D01*
X112479815Y-131442539D01*
X112427011Y-131488294D01*
X112375500Y-131499500D01*
X65624500Y-131499500D01*
X65557461Y-131479815D01*
X65511706Y-131427011D01*
X65500500Y-131375500D01*
X65500500Y-127499999D01*
X67760398Y-127499999D01*
X67760398Y-127500000D01*
X67779805Y-127709444D01*
X67837371Y-127911769D01*
X67931131Y-128100062D01*
X67937805Y-128108899D01*
X68501480Y-127545226D01*
X68501480Y-127552500D01*
X68528656Y-127653923D01*
X68581157Y-127744857D01*
X68655403Y-127819103D01*
X68746337Y-127871604D01*
X68847760Y-127898780D01*
X68855033Y-127898780D01*
X68294147Y-128459663D01*
X68392178Y-128520362D01*
X68392180Y-128520363D01*
X68588323Y-128596348D01*
X68795089Y-128635000D01*
X69005431Y-128635000D01*
X69212195Y-128596348D01*
X69212196Y-128596348D01*
X69408339Y-128520363D01*
X69408340Y-128520362D01*
X69506370Y-128459664D01*
X69506371Y-128459663D01*
X68945488Y-127898780D01*
X68952760Y-127898780D01*
X69054183Y-127871604D01*
X69145117Y-127819103D01*
X69219363Y-127744857D01*
X69271864Y-127653923D01*
X69299040Y-127552500D01*
X69299040Y-127545227D01*
X69862712Y-128108899D01*
X69867876Y-128108541D01*
X69936117Y-128123539D01*
X69975411Y-128157517D01*
X70007829Y-128200445D01*
X70039483Y-128242362D01*
X70059041Y-128268260D01*
X70075061Y-128282864D01*
X70203621Y-128400062D01*
X70214556Y-128410030D01*
X70214558Y-128410032D01*
X70393472Y-128520811D01*
X70393478Y-128520814D01*
X70435048Y-128536918D01*
X70589704Y-128596832D01*
X70796560Y-128635500D01*
X70796562Y-128635500D01*
X71006998Y-128635500D01*
X71007000Y-128635500D01*
X71213856Y-128596832D01*
X71410084Y-128520813D01*
X71589003Y-128410031D01*
X71728499Y-128282864D01*
X71744518Y-128268261D01*
X71760424Y-128247199D01*
X71801046Y-128193405D01*
X71857155Y-128151770D01*
X71926867Y-128147079D01*
X71988049Y-128180821D01*
X71998950Y-128193402D01*
X72010474Y-128208661D01*
X72055481Y-128268261D01*
X72210996Y-128410030D01*
X72210998Y-128410032D01*
X72389912Y-128520811D01*
X72389918Y-128520814D01*
X72431488Y-128536918D01*
X72586144Y-128596832D01*
X72793000Y-128635500D01*
X72793002Y-128635500D01*
X73003438Y-128635500D01*
X73003440Y-128635500D01*
X73210296Y-128596832D01*
X73406524Y-128520813D01*
X73585443Y-128410031D01*
X73639078Y-128361135D01*
X73701878Y-128330520D01*
X73771265Y-128338717D01*
X73821880Y-128378462D01*
X73855625Y-128423539D01*
X73898506Y-128480821D01*
X73907195Y-128492427D01*
X74022404Y-128578673D01*
X74022411Y-128578677D01*
X74157257Y-128628971D01*
X74157256Y-128628971D01*
X74164184Y-128629715D01*
X74216867Y-128635380D01*
X75582612Y-128635379D01*
X75642223Y-128628971D01*
X75777071Y-128578676D01*
X75892286Y-128492426D01*
X75978536Y-128377211D01*
X76028831Y-128242363D01*
X76035240Y-128182753D01*
X76035240Y-127600119D01*
X84660658Y-127600119D01*
X84660658Y-127600120D01*
X84680065Y-127809564D01*
X84737631Y-128011889D01*
X84831391Y-128200182D01*
X84838065Y-128209019D01*
X85401740Y-127645346D01*
X85401740Y-127652620D01*
X85428916Y-127754043D01*
X85481417Y-127844977D01*
X85555663Y-127919223D01*
X85646597Y-127971724D01*
X85748020Y-127998900D01*
X85755293Y-127998900D01*
X85194407Y-128559783D01*
X85292438Y-128620482D01*
X85292440Y-128620483D01*
X85488583Y-128696468D01*
X85695349Y-128735120D01*
X85905691Y-128735120D01*
X86112455Y-128696468D01*
X86112456Y-128696468D01*
X86308599Y-128620483D01*
X86308600Y-128620482D01*
X86406630Y-128559784D01*
X86406631Y-128559783D01*
X85845748Y-127998900D01*
X85853020Y-127998900D01*
X85954443Y-127971724D01*
X86045377Y-127919223D01*
X86119623Y-127844977D01*
X86172124Y-127754043D01*
X86199300Y-127652620D01*
X86199300Y-127645347D01*
X86762972Y-128209019D01*
X86768136Y-128208661D01*
X86836377Y-128223659D01*
X86875671Y-128257637D01*
X86929308Y-128328663D01*
X86939743Y-128342482D01*
X86959301Y-128368380D01*
X87114816Y-128510150D01*
X87114818Y-128510152D01*
X87293732Y-128620931D01*
X87293738Y-128620934D01*
X87318483Y-128630520D01*
X87489964Y-128696952D01*
X87696820Y-128735620D01*
X87696822Y-128735620D01*
X87907258Y-128735620D01*
X87907260Y-128735620D01*
X88114116Y-128696952D01*
X88310344Y-128620933D01*
X88489263Y-128510151D01*
X88621417Y-128389676D01*
X88644778Y-128368381D01*
X88664336Y-128342483D01*
X88701306Y-128293525D01*
X88757415Y-128251890D01*
X88827127Y-128247199D01*
X88888309Y-128280941D01*
X88899214Y-128293526D01*
X88955741Y-128368381D01*
X89111256Y-128510150D01*
X89111258Y-128510152D01*
X89290172Y-128620931D01*
X89290178Y-128620934D01*
X89314923Y-128630520D01*
X89486404Y-128696952D01*
X89693260Y-128735620D01*
X89693262Y-128735620D01*
X89903698Y-128735620D01*
X89903700Y-128735620D01*
X90110556Y-128696952D01*
X90306784Y-128620933D01*
X90485703Y-128510151D01*
X90539338Y-128461255D01*
X90602138Y-128430640D01*
X90671525Y-128438837D01*
X90722140Y-128478582D01*
X90753755Y-128520814D01*
X90789273Y-128568260D01*
X90807455Y-128592547D01*
X90922664Y-128678793D01*
X90922671Y-128678797D01*
X91057517Y-128729091D01*
X91057516Y-128729091D01*
X91064444Y-128729835D01*
X91117127Y-128735500D01*
X92482872Y-128735499D01*
X92542483Y-128729091D01*
X92677331Y-128678796D01*
X92792546Y-128592546D01*
X92878796Y-128477331D01*
X92929091Y-128342483D01*
X92935500Y-128282873D01*
X92935500Y-127799999D01*
X101260398Y-127799999D01*
X101260398Y-127800000D01*
X101279805Y-128009444D01*
X101337371Y-128211769D01*
X101431131Y-128400062D01*
X101437805Y-128408899D01*
X102001480Y-127845226D01*
X102001480Y-127852500D01*
X102028656Y-127953923D01*
X102081157Y-128044857D01*
X102155403Y-128119103D01*
X102246337Y-128171604D01*
X102347760Y-128198780D01*
X102355033Y-128198780D01*
X101794147Y-128759663D01*
X101892178Y-128820362D01*
X101892180Y-128820363D01*
X102088323Y-128896348D01*
X102295089Y-128935000D01*
X102505431Y-128935000D01*
X102712195Y-128896348D01*
X102712196Y-128896348D01*
X102908339Y-128820363D01*
X102908340Y-128820362D01*
X103006370Y-128759664D01*
X103006371Y-128759663D01*
X102445488Y-128198780D01*
X102452760Y-128198780D01*
X102554183Y-128171604D01*
X102645117Y-128119103D01*
X102719363Y-128044857D01*
X102771864Y-127953923D01*
X102799040Y-127852500D01*
X102799040Y-127845227D01*
X103362712Y-128408899D01*
X103367876Y-128408541D01*
X103436117Y-128423539D01*
X103475411Y-128457517D01*
X103515160Y-128510153D01*
X103539483Y-128542362D01*
X103559041Y-128568260D01*
X103714556Y-128710030D01*
X103714558Y-128710032D01*
X103893472Y-128820811D01*
X103893478Y-128820814D01*
X103935048Y-128836918D01*
X104089704Y-128896832D01*
X104296560Y-128935500D01*
X104296562Y-128935500D01*
X104506998Y-128935500D01*
X104507000Y-128935500D01*
X104713856Y-128896832D01*
X104910084Y-128820813D01*
X105089003Y-128710031D01*
X105244520Y-128568259D01*
X105301046Y-128493405D01*
X105357155Y-128451770D01*
X105426867Y-128447079D01*
X105488049Y-128480821D01*
X105498950Y-128493402D01*
X105519310Y-128520362D01*
X105555481Y-128568261D01*
X105710996Y-128710030D01*
X105710998Y-128710032D01*
X105889912Y-128820811D01*
X105889918Y-128820814D01*
X105931488Y-128836918D01*
X106086144Y-128896832D01*
X106293000Y-128935500D01*
X106293002Y-128935500D01*
X106503438Y-128935500D01*
X106503440Y-128935500D01*
X106710296Y-128896832D01*
X106906524Y-128820813D01*
X107085443Y-128710031D01*
X107139078Y-128661135D01*
X107201878Y-128630520D01*
X107271265Y-128638717D01*
X107321880Y-128678462D01*
X107407195Y-128792427D01*
X107522404Y-128878673D01*
X107522411Y-128878677D01*
X107657257Y-128928971D01*
X107657256Y-128928971D01*
X107664184Y-128929715D01*
X107716867Y-128935380D01*
X109082612Y-128935379D01*
X109142223Y-128928971D01*
X109277071Y-128878676D01*
X109392286Y-128792426D01*
X109478536Y-128677211D01*
X109528831Y-128542363D01*
X109535240Y-128482753D01*
X109535239Y-127117008D01*
X109528831Y-127057397D01*
X109519261Y-127031739D01*
X109478537Y-126922551D01*
X109478533Y-126922544D01*
X109392287Y-126807335D01*
X109392284Y-126807332D01*
X109277075Y-126721086D01*
X109277068Y-126721082D01*
X109142222Y-126670788D01*
X109142223Y-126670788D01*
X109082623Y-126664381D01*
X109082621Y-126664380D01*
X109082613Y-126664380D01*
X109082604Y-126664380D01*
X107716869Y-126664380D01*
X107716863Y-126664381D01*
X107657256Y-126670788D01*
X107522411Y-126721082D01*
X107522404Y-126721086D01*
X107407195Y-126807332D01*
X107321774Y-126921439D01*
X107265840Y-126963309D01*
X107196148Y-126968293D01*
X107138971Y-126938765D01*
X107085443Y-126889969D01*
X107085441Y-126889967D01*
X106906527Y-126779188D01*
X106906521Y-126779185D01*
X106751868Y-126719273D01*
X106710296Y-126703168D01*
X106503440Y-126664500D01*
X106293000Y-126664500D01*
X106086144Y-126703168D01*
X106086141Y-126703168D01*
X106086141Y-126703169D01*
X105889918Y-126779185D01*
X105889912Y-126779188D01*
X105710998Y-126889967D01*
X105710996Y-126889969D01*
X105555481Y-127031739D01*
X105498954Y-127106593D01*
X105442845Y-127148229D01*
X105373133Y-127152920D01*
X105311951Y-127119178D01*
X105301046Y-127106593D01*
X105272923Y-127069353D01*
X105244520Y-127031741D01*
X105209766Y-127000059D01*
X105089003Y-126889969D01*
X105089001Y-126889967D01*
X104910087Y-126779188D01*
X104910081Y-126779185D01*
X104755428Y-126719273D01*
X104713856Y-126703168D01*
X104507000Y-126664500D01*
X104296560Y-126664500D01*
X104089704Y-126703168D01*
X104089701Y-126703168D01*
X104089701Y-126703169D01*
X103893478Y-126779185D01*
X103893472Y-126779188D01*
X103714558Y-126889967D01*
X103714556Y-126889969D01*
X103559041Y-127031739D01*
X103475412Y-127142481D01*
X103419302Y-127184117D01*
X103367875Y-127191457D01*
X103362712Y-127191098D01*
X102799040Y-127754771D01*
X102799040Y-127747500D01*
X102771864Y-127646077D01*
X102719363Y-127555143D01*
X102645117Y-127480897D01*
X102554183Y-127428396D01*
X102452760Y-127401220D01*
X102445488Y-127401220D01*
X103006371Y-126840335D01*
X103006370Y-126840334D01*
X102908343Y-126779638D01*
X102908337Y-126779636D01*
X102712196Y-126703651D01*
X102505431Y-126665000D01*
X102295089Y-126665000D01*
X102088324Y-126703651D01*
X102088323Y-126703651D01*
X101892183Y-126779635D01*
X101794147Y-126840335D01*
X102355033Y-127401220D01*
X102347760Y-127401220D01*
X102246337Y-127428396D01*
X102155403Y-127480897D01*
X102081157Y-127555143D01*
X102028656Y-127646077D01*
X102001480Y-127747500D01*
X102001480Y-127754773D01*
X101437806Y-127191099D01*
X101437805Y-127191099D01*
X101431130Y-127199939D01*
X101337371Y-127388230D01*
X101279805Y-127590555D01*
X101260398Y-127799999D01*
X92935500Y-127799999D01*
X92935499Y-126917128D01*
X92929091Y-126857517D01*
X92927376Y-126852920D01*
X92878797Y-126722671D01*
X92878793Y-126722664D01*
X92792547Y-126607455D01*
X92792544Y-126607452D01*
X92677335Y-126521206D01*
X92677328Y-126521202D01*
X92542482Y-126470908D01*
X92542483Y-126470908D01*
X92482883Y-126464501D01*
X92482881Y-126464500D01*
X92482873Y-126464500D01*
X92482864Y-126464500D01*
X91117129Y-126464500D01*
X91117123Y-126464501D01*
X91057516Y-126470908D01*
X90922671Y-126521202D01*
X90922664Y-126521206D01*
X90807455Y-126607452D01*
X90722034Y-126721559D01*
X90666100Y-126763429D01*
X90596408Y-126768413D01*
X90539231Y-126738885D01*
X90485703Y-126690089D01*
X90485701Y-126690087D01*
X90306787Y-126579308D01*
X90306781Y-126579305D01*
X90152128Y-126519393D01*
X90110556Y-126503288D01*
X89903700Y-126464620D01*
X89693260Y-126464620D01*
X89486404Y-126503288D01*
X89486401Y-126503288D01*
X89486401Y-126503289D01*
X89290178Y-126579305D01*
X89290172Y-126579308D01*
X89111258Y-126690087D01*
X89111256Y-126690089D01*
X88955741Y-126831859D01*
X88899214Y-126906713D01*
X88843105Y-126948349D01*
X88773393Y-126953040D01*
X88712211Y-126919298D01*
X88701306Y-126906713D01*
X88673183Y-126869473D01*
X88644780Y-126831861D01*
X88630867Y-126819178D01*
X88489263Y-126690089D01*
X88489261Y-126690087D01*
X88310347Y-126579308D01*
X88310341Y-126579305D01*
X88155688Y-126519393D01*
X88114116Y-126503288D01*
X87907260Y-126464620D01*
X87696820Y-126464620D01*
X87489964Y-126503288D01*
X87489961Y-126503288D01*
X87489961Y-126503289D01*
X87293738Y-126579305D01*
X87293732Y-126579308D01*
X87114818Y-126690087D01*
X87114816Y-126690089D01*
X86959301Y-126831859D01*
X86875672Y-126942601D01*
X86819562Y-126984237D01*
X86768135Y-126991577D01*
X86762972Y-126991218D01*
X86199300Y-127554891D01*
X86199300Y-127547620D01*
X86172124Y-127446197D01*
X86119623Y-127355263D01*
X86045377Y-127281017D01*
X85954443Y-127228516D01*
X85853020Y-127201340D01*
X85845748Y-127201340D01*
X86406631Y-126640455D01*
X86406630Y-126640454D01*
X86308603Y-126579758D01*
X86308597Y-126579756D01*
X86112456Y-126503771D01*
X85905691Y-126465120D01*
X85695349Y-126465120D01*
X85488584Y-126503771D01*
X85488583Y-126503771D01*
X85292443Y-126579755D01*
X85194407Y-126640455D01*
X85755293Y-127201340D01*
X85748020Y-127201340D01*
X85646597Y-127228516D01*
X85555663Y-127281017D01*
X85481417Y-127355263D01*
X85428916Y-127446197D01*
X85401740Y-127547620D01*
X85401740Y-127554893D01*
X84838066Y-126991219D01*
X84838065Y-126991219D01*
X84831390Y-127000059D01*
X84737631Y-127188350D01*
X84680065Y-127390675D01*
X84660658Y-127600119D01*
X76035240Y-127600119D01*
X76035239Y-126817008D01*
X76028831Y-126757397D01*
X76021926Y-126738885D01*
X75978537Y-126622551D01*
X75978533Y-126622544D01*
X75892287Y-126507335D01*
X75892284Y-126507332D01*
X75777075Y-126421086D01*
X75777068Y-126421082D01*
X75642222Y-126370788D01*
X75642223Y-126370788D01*
X75582623Y-126364381D01*
X75582621Y-126364380D01*
X75582613Y-126364380D01*
X75582604Y-126364380D01*
X74216869Y-126364380D01*
X74216863Y-126364381D01*
X74157256Y-126370788D01*
X74022411Y-126421082D01*
X74022404Y-126421086D01*
X73907195Y-126507332D01*
X73821774Y-126621439D01*
X73765840Y-126663309D01*
X73696148Y-126668293D01*
X73638971Y-126638765D01*
X73585443Y-126589969D01*
X73585441Y-126589967D01*
X73406527Y-126479188D01*
X73406521Y-126479185D01*
X73251868Y-126419273D01*
X73210296Y-126403168D01*
X73003440Y-126364500D01*
X72793000Y-126364500D01*
X72586144Y-126403168D01*
X72586141Y-126403168D01*
X72586141Y-126403169D01*
X72389918Y-126479185D01*
X72389912Y-126479188D01*
X72210998Y-126589967D01*
X72210996Y-126589969D01*
X72055481Y-126731739D01*
X71998954Y-126806593D01*
X71942845Y-126848229D01*
X71873133Y-126852920D01*
X71811951Y-126819178D01*
X71801046Y-126806593D01*
X71768450Y-126763429D01*
X71744520Y-126731741D01*
X71734568Y-126722669D01*
X71589003Y-126589969D01*
X71589001Y-126589967D01*
X71410087Y-126479188D01*
X71410081Y-126479185D01*
X71255428Y-126419273D01*
X71213856Y-126403168D01*
X71007000Y-126364500D01*
X70796560Y-126364500D01*
X70589704Y-126403168D01*
X70589701Y-126403168D01*
X70589701Y-126403169D01*
X70393478Y-126479185D01*
X70393472Y-126479188D01*
X70214558Y-126589967D01*
X70214556Y-126589969D01*
X70059041Y-126731739D01*
X69975412Y-126842481D01*
X69919302Y-126884117D01*
X69867875Y-126891457D01*
X69862712Y-126891098D01*
X69299040Y-127454771D01*
X69299040Y-127447500D01*
X69271864Y-127346077D01*
X69219363Y-127255143D01*
X69145117Y-127180897D01*
X69054183Y-127128396D01*
X68952760Y-127101220D01*
X68945488Y-127101220D01*
X69506371Y-126540335D01*
X69506370Y-126540334D01*
X69408343Y-126479638D01*
X69408337Y-126479636D01*
X69212196Y-126403651D01*
X69005431Y-126365000D01*
X68795089Y-126365000D01*
X68588324Y-126403651D01*
X68588323Y-126403651D01*
X68392183Y-126479635D01*
X68294147Y-126540335D01*
X68855033Y-127101220D01*
X68847760Y-127101220D01*
X68746337Y-127128396D01*
X68655403Y-127180897D01*
X68581157Y-127255143D01*
X68528656Y-127346077D01*
X68501480Y-127447500D01*
X68501480Y-127454773D01*
X67937806Y-126891099D01*
X67937805Y-126891099D01*
X67931130Y-126899939D01*
X67837371Y-127088230D01*
X67779805Y-127290555D01*
X67760398Y-127499999D01*
X65500500Y-127499999D01*
X65500500Y-121878711D01*
X66049500Y-121878711D01*
X66049500Y-122121288D01*
X66081161Y-122361785D01*
X66143947Y-122596104D01*
X66236773Y-122820205D01*
X66236776Y-122820212D01*
X66358064Y-123030289D01*
X66358066Y-123030292D01*
X66358067Y-123030293D01*
X66505733Y-123222736D01*
X66505739Y-123222743D01*
X66677256Y-123394260D01*
X66677262Y-123394265D01*
X66869711Y-123541936D01*
X67079788Y-123663224D01*
X67303900Y-123756054D01*
X67538211Y-123818838D01*
X67718586Y-123842584D01*
X67778711Y-123850500D01*
X67778712Y-123850500D01*
X68021289Y-123850500D01*
X68069388Y-123844167D01*
X68261789Y-123818838D01*
X68496100Y-123756054D01*
X68720212Y-123663224D01*
X68930289Y-123541936D01*
X69122738Y-123394265D01*
X69294265Y-123222738D01*
X69441936Y-123030289D01*
X69563224Y-122820212D01*
X69656054Y-122596100D01*
X69718838Y-122361789D01*
X69750500Y-122121288D01*
X69750500Y-121878712D01*
X69750500Y-121878711D01*
X107649500Y-121878711D01*
X107649500Y-122121288D01*
X107681161Y-122361785D01*
X107743947Y-122596104D01*
X107836773Y-122820205D01*
X107836776Y-122820212D01*
X107958064Y-123030289D01*
X107958066Y-123030292D01*
X107958067Y-123030293D01*
X108105733Y-123222736D01*
X108105739Y-123222743D01*
X108277256Y-123394260D01*
X108277262Y-123394265D01*
X108469711Y-123541936D01*
X108679788Y-123663224D01*
X108903900Y-123756054D01*
X109138211Y-123818838D01*
X109318586Y-123842584D01*
X109378711Y-123850500D01*
X109378712Y-123850500D01*
X109621289Y-123850500D01*
X109669388Y-123844167D01*
X109861789Y-123818838D01*
X110096100Y-123756054D01*
X110320212Y-123663224D01*
X110530289Y-123541936D01*
X110722738Y-123394265D01*
X110894265Y-123222738D01*
X111041936Y-123030289D01*
X111163224Y-122820212D01*
X111256054Y-122596100D01*
X111318838Y-122361789D01*
X111350500Y-122121288D01*
X111350500Y-121878712D01*
X111318838Y-121638211D01*
X111256054Y-121403900D01*
X111163224Y-121179788D01*
X111041936Y-120969711D01*
X110894265Y-120777262D01*
X110894260Y-120777256D01*
X110722743Y-120605739D01*
X110722736Y-120605733D01*
X110530293Y-120458067D01*
X110530292Y-120458066D01*
X110530289Y-120458064D01*
X110323195Y-120338498D01*
X110320214Y-120336777D01*
X110320205Y-120336773D01*
X110096104Y-120243947D01*
X109861785Y-120181161D01*
X109621289Y-120149500D01*
X109621288Y-120149500D01*
X109378712Y-120149500D01*
X109378711Y-120149500D01*
X109138214Y-120181161D01*
X108903895Y-120243947D01*
X108679794Y-120336773D01*
X108679785Y-120336777D01*
X108469706Y-120458067D01*
X108277263Y-120605733D01*
X108277256Y-120605739D01*
X108105739Y-120777256D01*
X108105733Y-120777263D01*
X107958067Y-120969706D01*
X107836777Y-121179785D01*
X107836773Y-121179794D01*
X107743947Y-121403895D01*
X107681161Y-121638214D01*
X107649500Y-121878711D01*
X69750500Y-121878711D01*
X69718838Y-121638211D01*
X69656054Y-121403900D01*
X69563224Y-121179788D01*
X69441936Y-120969711D01*
X69294265Y-120777262D01*
X69294260Y-120777256D01*
X69122743Y-120605739D01*
X69122736Y-120605733D01*
X68930293Y-120458067D01*
X68930292Y-120458066D01*
X68930289Y-120458064D01*
X68723195Y-120338498D01*
X68720214Y-120336777D01*
X68720205Y-120336773D01*
X68496104Y-120243947D01*
X68261785Y-120181161D01*
X68021289Y-120149500D01*
X68021288Y-120149500D01*
X67778712Y-120149500D01*
X67778711Y-120149500D01*
X67538214Y-120181161D01*
X67303895Y-120243947D01*
X67079794Y-120336773D01*
X67079785Y-120336777D01*
X66869706Y-120458067D01*
X66677263Y-120605733D01*
X66677256Y-120605739D01*
X66505739Y-120777256D01*
X66505733Y-120777263D01*
X66358067Y-120969706D01*
X66236777Y-121179785D01*
X66236773Y-121179794D01*
X66143947Y-121403895D01*
X66081161Y-121638214D01*
X66049500Y-121878711D01*
X65500500Y-121878711D01*
X65500500Y-119049999D01*
X83729364Y-119049999D01*
X83729364Y-119050000D01*
X84626988Y-119050000D01*
X84594075Y-119107007D01*
X84560000Y-119234174D01*
X84560000Y-119365826D01*
X84594075Y-119492993D01*
X84626988Y-119550000D01*
X83729364Y-119550000D01*
X83786567Y-119763486D01*
X83786570Y-119763492D01*
X83886399Y-119977578D01*
X84021894Y-120171082D01*
X84188917Y-120338105D01*
X84382421Y-120473600D01*
X84596507Y-120573429D01*
X84596516Y-120573433D01*
X84810000Y-120630634D01*
X84810000Y-119733012D01*
X84867007Y-119765925D01*
X84994174Y-119800000D01*
X85125826Y-119800000D01*
X85252993Y-119765925D01*
X85310000Y-119733012D01*
X85310000Y-120630633D01*
X85523483Y-120573433D01*
X85523492Y-120573429D01*
X85737578Y-120473600D01*
X85931082Y-120338105D01*
X86098105Y-120171082D01*
X86228119Y-119985405D01*
X86282696Y-119941781D01*
X86352195Y-119934588D01*
X86414549Y-119966110D01*
X86431269Y-119985405D01*
X86561505Y-120171401D01*
X86728599Y-120338495D01*
X86825384Y-120406265D01*
X86922165Y-120474032D01*
X86922167Y-120474033D01*
X86922170Y-120474035D01*
X87136337Y-120573903D01*
X87364592Y-120635063D01*
X87541034Y-120650500D01*
X87599999Y-120655659D01*
X87600000Y-120655659D01*
X87600001Y-120655659D01*
X87658966Y-120650500D01*
X87835408Y-120635063D01*
X88063663Y-120573903D01*
X88277830Y-120474035D01*
X88471401Y-120338495D01*
X88638495Y-120171401D01*
X88768425Y-119985842D01*
X88823002Y-119942217D01*
X88892500Y-119935023D01*
X88954855Y-119966546D01*
X88971575Y-119985842D01*
X89101281Y-120171082D01*
X89101505Y-120171401D01*
X89268599Y-120338495D01*
X89365384Y-120406265D01*
X89462165Y-120474032D01*
X89462167Y-120474033D01*
X89462170Y-120474035D01*
X89676337Y-120573903D01*
X89904592Y-120635063D01*
X90081034Y-120650500D01*
X90139999Y-120655659D01*
X90140000Y-120655659D01*
X90140001Y-120655659D01*
X90198966Y-120650500D01*
X90375408Y-120635063D01*
X90603663Y-120573903D01*
X90817830Y-120474035D01*
X91011401Y-120338495D01*
X91133329Y-120216566D01*
X91194648Y-120183084D01*
X91264340Y-120188068D01*
X91320274Y-120229939D01*
X91337189Y-120260917D01*
X91386202Y-120392328D01*
X91386206Y-120392335D01*
X91472452Y-120507544D01*
X91472455Y-120507547D01*
X91587664Y-120593793D01*
X91587671Y-120593797D01*
X91722517Y-120644091D01*
X91722516Y-120644091D01*
X91729444Y-120644835D01*
X91782127Y-120650500D01*
X93577872Y-120650499D01*
X93637483Y-120644091D01*
X93772331Y-120593796D01*
X93887546Y-120507546D01*
X93973796Y-120392331D01*
X94024091Y-120257483D01*
X94030500Y-120197873D01*
X94030499Y-118402128D01*
X94024091Y-118342517D01*
X94022810Y-118339083D01*
X93973797Y-118207671D01*
X93973793Y-118207664D01*
X93887547Y-118092455D01*
X93887544Y-118092452D01*
X93772335Y-118006206D01*
X93772328Y-118006202D01*
X93637482Y-117955908D01*
X93637483Y-117955908D01*
X93577883Y-117949501D01*
X93577881Y-117949500D01*
X93577873Y-117949500D01*
X93577864Y-117949500D01*
X91782129Y-117949500D01*
X91782123Y-117949501D01*
X91722516Y-117955908D01*
X91587671Y-118006202D01*
X91587664Y-118006206D01*
X91472455Y-118092452D01*
X91472452Y-118092455D01*
X91386206Y-118207664D01*
X91386203Y-118207669D01*
X91337189Y-118339083D01*
X91295317Y-118395016D01*
X91229853Y-118419433D01*
X91161580Y-118404581D01*
X91133326Y-118383430D01*
X91011402Y-118261506D01*
X91011395Y-118261501D01*
X90817834Y-118125967D01*
X90817830Y-118125965D01*
X90817828Y-118125964D01*
X90603663Y-118026097D01*
X90603659Y-118026096D01*
X90603655Y-118026094D01*
X90375413Y-117964938D01*
X90375403Y-117964936D01*
X90140001Y-117944341D01*
X90139999Y-117944341D01*
X89904596Y-117964936D01*
X89904586Y-117964938D01*
X89676344Y-118026094D01*
X89676335Y-118026098D01*
X89462171Y-118125964D01*
X89462169Y-118125965D01*
X89268597Y-118261505D01*
X89101505Y-118428597D01*
X88971575Y-118614158D01*
X88916998Y-118657783D01*
X88847500Y-118664977D01*
X88785145Y-118633454D01*
X88768425Y-118614158D01*
X88638494Y-118428597D01*
X88471402Y-118261506D01*
X88471395Y-118261501D01*
X88277834Y-118125967D01*
X88277830Y-118125965D01*
X88277828Y-118125964D01*
X88063663Y-118026097D01*
X88063659Y-118026096D01*
X88063655Y-118026094D01*
X87835413Y-117964938D01*
X87835403Y-117964936D01*
X87600001Y-117944341D01*
X87599999Y-117944341D01*
X87364596Y-117964936D01*
X87364586Y-117964938D01*
X87136344Y-118026094D01*
X87136335Y-118026098D01*
X86922171Y-118125964D01*
X86922169Y-118125965D01*
X86728597Y-118261505D01*
X86561508Y-118428594D01*
X86431269Y-118614595D01*
X86376692Y-118658219D01*
X86307193Y-118665412D01*
X86244839Y-118633890D01*
X86228119Y-118614594D01*
X86098113Y-118428926D01*
X86098108Y-118428920D01*
X85931082Y-118261894D01*
X85737578Y-118126399D01*
X85523492Y-118026570D01*
X85523486Y-118026567D01*
X85310000Y-117969364D01*
X85310000Y-118866988D01*
X85252993Y-118834075D01*
X85125826Y-118800000D01*
X84994174Y-118800000D01*
X84867007Y-118834075D01*
X84810000Y-118866988D01*
X84810000Y-117969364D01*
X84809999Y-117969364D01*
X84596513Y-118026567D01*
X84596507Y-118026570D01*
X84382422Y-118126399D01*
X84382420Y-118126400D01*
X84188926Y-118261886D01*
X84188920Y-118261891D01*
X84021891Y-118428920D01*
X84021886Y-118428926D01*
X83886400Y-118622420D01*
X83886399Y-118622422D01*
X83786570Y-118836507D01*
X83786567Y-118836513D01*
X83729364Y-119049999D01*
X65500500Y-119049999D01*
X65500500Y-111979998D01*
X68794532Y-111979998D01*
X68794532Y-111980001D01*
X68814364Y-112206686D01*
X68814366Y-112206697D01*
X68873258Y-112426488D01*
X68873261Y-112426497D01*
X68969431Y-112632732D01*
X68969432Y-112632734D01*
X69099954Y-112819141D01*
X69260858Y-112980045D01*
X69260861Y-112980047D01*
X69447266Y-113110568D01*
X69653504Y-113206739D01*
X69873308Y-113265635D01*
X70035230Y-113279801D01*
X70099998Y-113285468D01*
X70100000Y-113285468D01*
X70100002Y-113285468D01*
X70156673Y-113280509D01*
X70326692Y-113265635D01*
X70546496Y-113206739D01*
X70752734Y-113110568D01*
X70939139Y-112980047D01*
X71100047Y-112819139D01*
X71230568Y-112632734D01*
X71326739Y-112426496D01*
X71385635Y-112206692D01*
X71405468Y-111980000D01*
X71400218Y-111919998D01*
X76194532Y-111919998D01*
X76194532Y-111920001D01*
X76214364Y-112146686D01*
X76214366Y-112146697D01*
X76273258Y-112366488D01*
X76273261Y-112366497D01*
X76369431Y-112572732D01*
X76369432Y-112572734D01*
X76499954Y-112759141D01*
X76660858Y-112920045D01*
X76660861Y-112920047D01*
X76847266Y-113050568D01*
X77053504Y-113146739D01*
X77273308Y-113205635D01*
X77435230Y-113219801D01*
X77499998Y-113225468D01*
X77500000Y-113225468D01*
X77500002Y-113225468D01*
X77556673Y-113220509D01*
X77726692Y-113205635D01*
X77946496Y-113146739D01*
X78152734Y-113050568D01*
X78339139Y-112920047D01*
X78500047Y-112759139D01*
X78630568Y-112572734D01*
X78726739Y-112366496D01*
X78785635Y-112146692D01*
X78805468Y-111920000D01*
X78801968Y-111880000D01*
X78801968Y-111879998D01*
X83994532Y-111879998D01*
X83994532Y-111880001D01*
X84014364Y-112106686D01*
X84014366Y-112106697D01*
X84073258Y-112326488D01*
X84073261Y-112326497D01*
X84169431Y-112532732D01*
X84169432Y-112532734D01*
X84299954Y-112719141D01*
X84460858Y-112880045D01*
X84460861Y-112880047D01*
X84647266Y-113010568D01*
X84853504Y-113106739D01*
X85073308Y-113165635D01*
X85235230Y-113179801D01*
X85299998Y-113185468D01*
X85300000Y-113185468D01*
X85300002Y-113185468D01*
X85356673Y-113180509D01*
X85526692Y-113165635D01*
X85746496Y-113106739D01*
X85952734Y-113010568D01*
X86139139Y-112880047D01*
X86300047Y-112719139D01*
X86430568Y-112532734D01*
X86526739Y-112326496D01*
X86585635Y-112106692D01*
X86601969Y-111919998D01*
X90994532Y-111919998D01*
X90994532Y-111920001D01*
X91014364Y-112146686D01*
X91014366Y-112146697D01*
X91073258Y-112366488D01*
X91073261Y-112366497D01*
X91169431Y-112572732D01*
X91169432Y-112572734D01*
X91299954Y-112759141D01*
X91460858Y-112920045D01*
X91460861Y-112920047D01*
X91647266Y-113050568D01*
X91853504Y-113146739D01*
X92073308Y-113205635D01*
X92235230Y-113219801D01*
X92299998Y-113225468D01*
X92300000Y-113225468D01*
X92300002Y-113225468D01*
X92356673Y-113220509D01*
X92526692Y-113205635D01*
X92746496Y-113146739D01*
X92952734Y-113050568D01*
X93139139Y-112920047D01*
X93300047Y-112759139D01*
X93430568Y-112572734D01*
X93526739Y-112366496D01*
X93585635Y-112146692D01*
X93605468Y-111920000D01*
X93601968Y-111880000D01*
X93601968Y-111879998D01*
X98394532Y-111879998D01*
X98394532Y-111880001D01*
X98414364Y-112106686D01*
X98414366Y-112106697D01*
X98473258Y-112326488D01*
X98473261Y-112326497D01*
X98569431Y-112532732D01*
X98569432Y-112532734D01*
X98699954Y-112719141D01*
X98860858Y-112880045D01*
X98860861Y-112880047D01*
X99047266Y-113010568D01*
X99253504Y-113106739D01*
X99473308Y-113165635D01*
X99635230Y-113179801D01*
X99699998Y-113185468D01*
X99700000Y-113185468D01*
X99700002Y-113185468D01*
X99756673Y-113180509D01*
X99926692Y-113165635D01*
X100146496Y-113106739D01*
X100352734Y-113010568D01*
X100539139Y-112880047D01*
X100700047Y-112719139D01*
X100830568Y-112532734D01*
X100926739Y-112326496D01*
X100985635Y-112106692D01*
X101005468Y-111880000D01*
X101005468Y-111879998D01*
X105494532Y-111879998D01*
X105494532Y-111880001D01*
X105514364Y-112106686D01*
X105514366Y-112106697D01*
X105573258Y-112326488D01*
X105573261Y-112326497D01*
X105669431Y-112532732D01*
X105669432Y-112532734D01*
X105799954Y-112719141D01*
X105960858Y-112880045D01*
X105960861Y-112880047D01*
X106147266Y-113010568D01*
X106353504Y-113106739D01*
X106573308Y-113165635D01*
X106735230Y-113179801D01*
X106799998Y-113185468D01*
X106800000Y-113185468D01*
X106800002Y-113185468D01*
X106856673Y-113180509D01*
X107026692Y-113165635D01*
X107246496Y-113106739D01*
X107452734Y-113010568D01*
X107639139Y-112880047D01*
X107800047Y-112719139D01*
X107930568Y-112532734D01*
X108026739Y-112326496D01*
X108085635Y-112106692D01*
X108105468Y-111880000D01*
X108085635Y-111653308D01*
X108026739Y-111433504D01*
X107930568Y-111227266D01*
X107800047Y-111040861D01*
X107800045Y-111040858D01*
X107639141Y-110879954D01*
X107452734Y-110749432D01*
X107452732Y-110749431D01*
X107246497Y-110653261D01*
X107246488Y-110653258D01*
X107026697Y-110594366D01*
X107026693Y-110594365D01*
X107026692Y-110594365D01*
X107026691Y-110594364D01*
X107026686Y-110594364D01*
X106800002Y-110574532D01*
X106799998Y-110574532D01*
X106573313Y-110594364D01*
X106573302Y-110594366D01*
X106353511Y-110653258D01*
X106353502Y-110653261D01*
X106147267Y-110749431D01*
X106147265Y-110749432D01*
X105960858Y-110879954D01*
X105799954Y-111040858D01*
X105669432Y-111227265D01*
X105669431Y-111227267D01*
X105573261Y-111433502D01*
X105573258Y-111433511D01*
X105514366Y-111653302D01*
X105514364Y-111653313D01*
X105494532Y-111879998D01*
X101005468Y-111879998D01*
X100985635Y-111653308D01*
X100926739Y-111433504D01*
X100830568Y-111227266D01*
X100700047Y-111040861D01*
X100700045Y-111040858D01*
X100539141Y-110879954D01*
X100352734Y-110749432D01*
X100352732Y-110749431D01*
X100146497Y-110653261D01*
X100146488Y-110653258D01*
X99926697Y-110594366D01*
X99926693Y-110594365D01*
X99926692Y-110594365D01*
X99926691Y-110594364D01*
X99926686Y-110594364D01*
X99700002Y-110574532D01*
X99699998Y-110574532D01*
X99473313Y-110594364D01*
X99473302Y-110594366D01*
X99253511Y-110653258D01*
X99253502Y-110653261D01*
X99047267Y-110749431D01*
X99047265Y-110749432D01*
X98860858Y-110879954D01*
X98699954Y-111040858D01*
X98569432Y-111227265D01*
X98569431Y-111227267D01*
X98473261Y-111433502D01*
X98473258Y-111433511D01*
X98414366Y-111653302D01*
X98414364Y-111653313D01*
X98394532Y-111879998D01*
X93601968Y-111879998D01*
X93599801Y-111855230D01*
X93585635Y-111693308D01*
X93526739Y-111473504D01*
X93430568Y-111267266D01*
X93300047Y-111080861D01*
X93300045Y-111080858D01*
X93139141Y-110919954D01*
X92952734Y-110789432D01*
X92952732Y-110789431D01*
X92746497Y-110693261D01*
X92746488Y-110693258D01*
X92526697Y-110634366D01*
X92526693Y-110634365D01*
X92526692Y-110634365D01*
X92526691Y-110634364D01*
X92526686Y-110634364D01*
X92300002Y-110614532D01*
X92299998Y-110614532D01*
X92073313Y-110634364D01*
X92073302Y-110634366D01*
X91853511Y-110693258D01*
X91853502Y-110693261D01*
X91647267Y-110789431D01*
X91647265Y-110789432D01*
X91460858Y-110919954D01*
X91299954Y-111080858D01*
X91169432Y-111267265D01*
X91169431Y-111267267D01*
X91073261Y-111473502D01*
X91073258Y-111473511D01*
X91014366Y-111693302D01*
X91014364Y-111693313D01*
X90994532Y-111919998D01*
X86601969Y-111919998D01*
X86605468Y-111880000D01*
X86585635Y-111653308D01*
X86526739Y-111433504D01*
X86430568Y-111227266D01*
X86300047Y-111040861D01*
X86300045Y-111040858D01*
X86139141Y-110879954D01*
X85952734Y-110749432D01*
X85952732Y-110749431D01*
X85746497Y-110653261D01*
X85746488Y-110653258D01*
X85526697Y-110594366D01*
X85526693Y-110594365D01*
X85526692Y-110594365D01*
X85526691Y-110594364D01*
X85526686Y-110594364D01*
X85300002Y-110574532D01*
X85299998Y-110574532D01*
X85073313Y-110594364D01*
X85073302Y-110594366D01*
X84853511Y-110653258D01*
X84853502Y-110653261D01*
X84647267Y-110749431D01*
X84647265Y-110749432D01*
X84460858Y-110879954D01*
X84299954Y-111040858D01*
X84169432Y-111227265D01*
X84169431Y-111227267D01*
X84073261Y-111433502D01*
X84073258Y-111433511D01*
X84014366Y-111653302D01*
X84014364Y-111653313D01*
X83994532Y-111879998D01*
X78801968Y-111879998D01*
X78799801Y-111855230D01*
X78785635Y-111693308D01*
X78726739Y-111473504D01*
X78630568Y-111267266D01*
X78500047Y-111080861D01*
X78500045Y-111080858D01*
X78339141Y-110919954D01*
X78152734Y-110789432D01*
X78152732Y-110789431D01*
X77946497Y-110693261D01*
X77946488Y-110693258D01*
X77726697Y-110634366D01*
X77726693Y-110634365D01*
X77726692Y-110634365D01*
X77726691Y-110634364D01*
X77726686Y-110634364D01*
X77500002Y-110614532D01*
X77499998Y-110614532D01*
X77273313Y-110634364D01*
X77273302Y-110634366D01*
X77053511Y-110693258D01*
X77053502Y-110693261D01*
X76847267Y-110789431D01*
X76847265Y-110789432D01*
X76660858Y-110919954D01*
X76499954Y-111080858D01*
X76369432Y-111267265D01*
X76369431Y-111267267D01*
X76273261Y-111473502D01*
X76273258Y-111473511D01*
X76214366Y-111693302D01*
X76214364Y-111693313D01*
X76194532Y-111919998D01*
X71400218Y-111919998D01*
X71385635Y-111753313D01*
X71385635Y-111753308D01*
X71326739Y-111533504D01*
X71230568Y-111327266D01*
X71100047Y-111140861D01*
X71100045Y-111140858D01*
X70939141Y-110979954D01*
X70752734Y-110849432D01*
X70752732Y-110849431D01*
X70546497Y-110753261D01*
X70546488Y-110753258D01*
X70326697Y-110694366D01*
X70326693Y-110694365D01*
X70326692Y-110694365D01*
X70326691Y-110694364D01*
X70326686Y-110694364D01*
X70100002Y-110674532D01*
X70099998Y-110674532D01*
X69873313Y-110694364D01*
X69873302Y-110694366D01*
X69653511Y-110753258D01*
X69653502Y-110753261D01*
X69447267Y-110849431D01*
X69447265Y-110849432D01*
X69260858Y-110979954D01*
X69099954Y-111140858D01*
X68969432Y-111327265D01*
X68969431Y-111327267D01*
X68873261Y-111533502D01*
X68873258Y-111533511D01*
X68814366Y-111753302D01*
X68814364Y-111753313D01*
X68794532Y-111979998D01*
X65500500Y-111979998D01*
X65500500Y-101819998D01*
X68794532Y-101819998D01*
X68794532Y-101820001D01*
X68814364Y-102046686D01*
X68814366Y-102046697D01*
X68873258Y-102266488D01*
X68873261Y-102266497D01*
X68969431Y-102472732D01*
X68969432Y-102472734D01*
X69099954Y-102659141D01*
X69260858Y-102820045D01*
X69260861Y-102820047D01*
X69447266Y-102950568D01*
X69653504Y-103046739D01*
X69873308Y-103105635D01*
X70035230Y-103119801D01*
X70099998Y-103125468D01*
X70100000Y-103125468D01*
X70100002Y-103125468D01*
X70156673Y-103120509D01*
X70326692Y-103105635D01*
X70546496Y-103046739D01*
X70752734Y-102950568D01*
X70939139Y-102820047D01*
X71100047Y-102659139D01*
X71211212Y-102500376D01*
X71265788Y-102456752D01*
X71312787Y-102447500D01*
X76329224Y-102447500D01*
X76396263Y-102467185D01*
X76430799Y-102500377D01*
X76499953Y-102599140D01*
X76660858Y-102760045D01*
X76660861Y-102760047D01*
X76847266Y-102890568D01*
X77053504Y-102986739D01*
X77273308Y-103045635D01*
X77435230Y-103059801D01*
X77499998Y-103065468D01*
X77500000Y-103065468D01*
X77500002Y-103065468D01*
X77556673Y-103060509D01*
X77726692Y-103045635D01*
X77946496Y-102986739D01*
X78152734Y-102890568D01*
X78339139Y-102760047D01*
X78500047Y-102599139D01*
X78611212Y-102440376D01*
X78665788Y-102396752D01*
X78712787Y-102387500D01*
X84115220Y-102387500D01*
X84182259Y-102407185D01*
X84216795Y-102440377D01*
X84299953Y-102559140D01*
X84460858Y-102720045D01*
X84460861Y-102720047D01*
X84647266Y-102850568D01*
X84853504Y-102946739D01*
X85073308Y-103005635D01*
X85235230Y-103019801D01*
X85299998Y-103025468D01*
X85300000Y-103025468D01*
X85300002Y-103025468D01*
X85356673Y-103020509D01*
X85526692Y-103005635D01*
X85746496Y-102946739D01*
X85952734Y-102850568D01*
X86139139Y-102720047D01*
X86300047Y-102559139D01*
X86411212Y-102400376D01*
X86465788Y-102356752D01*
X86512787Y-102347500D01*
X91060178Y-102347500D01*
X91127217Y-102367185D01*
X91167564Y-102409498D01*
X91169432Y-102412734D01*
X91299954Y-102599141D01*
X91460858Y-102760045D01*
X91460861Y-102760047D01*
X91647266Y-102890568D01*
X91853504Y-102986739D01*
X92073308Y-103045635D01*
X92235230Y-103059801D01*
X92299998Y-103065468D01*
X92300000Y-103065468D01*
X92300002Y-103065468D01*
X92356673Y-103060509D01*
X92526692Y-103045635D01*
X92746496Y-102986739D01*
X92952734Y-102890568D01*
X93139139Y-102760047D01*
X93300047Y-102599139D01*
X93411212Y-102440376D01*
X93465788Y-102396752D01*
X93512787Y-102387500D01*
X98515220Y-102387500D01*
X98582259Y-102407185D01*
X98616795Y-102440377D01*
X98699953Y-102559140D01*
X98860858Y-102720045D01*
X98860861Y-102720047D01*
X99047266Y-102850568D01*
X99253504Y-102946739D01*
X99473308Y-103005635D01*
X99635230Y-103019801D01*
X99699998Y-103025468D01*
X99700000Y-103025468D01*
X99700002Y-103025468D01*
X99756673Y-103020509D01*
X99926692Y-103005635D01*
X100146496Y-102946739D01*
X100352734Y-102850568D01*
X100539139Y-102720047D01*
X100700047Y-102559139D01*
X100811212Y-102400376D01*
X100865788Y-102356752D01*
X100912787Y-102347500D01*
X105587213Y-102347500D01*
X105654252Y-102367185D01*
X105688788Y-102400377D01*
X105799954Y-102559141D01*
X105960858Y-102720045D01*
X105960861Y-102720047D01*
X106147266Y-102850568D01*
X106353504Y-102946739D01*
X106573308Y-103005635D01*
X106735230Y-103019801D01*
X106799998Y-103025468D01*
X106800000Y-103025468D01*
X106800002Y-103025468D01*
X106856673Y-103020509D01*
X107026692Y-103005635D01*
X107246496Y-102946739D01*
X107452734Y-102850568D01*
X107639139Y-102720047D01*
X107800047Y-102559139D01*
X107930568Y-102372734D01*
X108026739Y-102166496D01*
X108085635Y-101946692D01*
X108105468Y-101720000D01*
X108085635Y-101493308D01*
X108026739Y-101273504D01*
X107930568Y-101067266D01*
X107800047Y-100880861D01*
X107800045Y-100880858D01*
X107639141Y-100719954D01*
X107452734Y-100589432D01*
X107452732Y-100589431D01*
X107246497Y-100493261D01*
X107246488Y-100493258D01*
X107026697Y-100434366D01*
X107026693Y-100434365D01*
X107026692Y-100434365D01*
X107026691Y-100434364D01*
X107026686Y-100434364D01*
X106800002Y-100414532D01*
X106799998Y-100414532D01*
X106573313Y-100434364D01*
X106573302Y-100434366D01*
X106353511Y-100493258D01*
X106353502Y-100493261D01*
X106147267Y-100589431D01*
X106147265Y-100589432D01*
X105960858Y-100719954D01*
X105799954Y-100880858D01*
X105688788Y-101039623D01*
X105634212Y-101083248D01*
X105587213Y-101092500D01*
X100912787Y-101092500D01*
X100845748Y-101072815D01*
X100811212Y-101039623D01*
X100700045Y-100880858D01*
X100539141Y-100719954D01*
X100352734Y-100589432D01*
X100352732Y-100589431D01*
X100146497Y-100493261D01*
X100146488Y-100493258D01*
X99926697Y-100434366D01*
X99926693Y-100434365D01*
X99926692Y-100434365D01*
X99926691Y-100434364D01*
X99926686Y-100434364D01*
X99700002Y-100414532D01*
X99699998Y-100414532D01*
X99473313Y-100434364D01*
X99473302Y-100434366D01*
X99253511Y-100493258D01*
X99253502Y-100493261D01*
X99047267Y-100589431D01*
X99047265Y-100589432D01*
X98860858Y-100719954D01*
X98699954Y-100880858D01*
X98569432Y-101067265D01*
X98567564Y-101070502D01*
X98566368Y-101071642D01*
X98566327Y-101071701D01*
X98566315Y-101071692D01*
X98516996Y-101118717D01*
X98460178Y-101132500D01*
X93512787Y-101132500D01*
X93445748Y-101112815D01*
X93411212Y-101079623D01*
X93404825Y-101070502D01*
X93300047Y-100920861D01*
X93300045Y-100920858D01*
X93139141Y-100759954D01*
X92952734Y-100629432D01*
X92952732Y-100629431D01*
X92746497Y-100533261D01*
X92746488Y-100533258D01*
X92526697Y-100474366D01*
X92526693Y-100474365D01*
X92526692Y-100474365D01*
X92526691Y-100474364D01*
X92526686Y-100474364D01*
X92300002Y-100454532D01*
X92299998Y-100454532D01*
X92073313Y-100474364D01*
X92073302Y-100474366D01*
X91853511Y-100533258D01*
X91853502Y-100533261D01*
X91647267Y-100629431D01*
X91647265Y-100629432D01*
X91460858Y-100759954D01*
X91299953Y-100920859D01*
X91216795Y-101039623D01*
X91162218Y-101083248D01*
X91115220Y-101092500D01*
X86512787Y-101092500D01*
X86445748Y-101072815D01*
X86411212Y-101039623D01*
X86300045Y-100880858D01*
X86139141Y-100719954D01*
X85952734Y-100589432D01*
X85952732Y-100589431D01*
X85746497Y-100493261D01*
X85746488Y-100493258D01*
X85526697Y-100434366D01*
X85526693Y-100434365D01*
X85526692Y-100434365D01*
X85526691Y-100434364D01*
X85526686Y-100434364D01*
X85300002Y-100414532D01*
X85299998Y-100414532D01*
X85073313Y-100434364D01*
X85073302Y-100434366D01*
X84853511Y-100493258D01*
X84853502Y-100493261D01*
X84647267Y-100589431D01*
X84647265Y-100589432D01*
X84460858Y-100719954D01*
X84299954Y-100880858D01*
X84169432Y-101067265D01*
X84167564Y-101070502D01*
X84166368Y-101071642D01*
X84166327Y-101071701D01*
X84166315Y-101071692D01*
X84116996Y-101118717D01*
X84060178Y-101132500D01*
X78712787Y-101132500D01*
X78645748Y-101112815D01*
X78611212Y-101079623D01*
X78604825Y-101070502D01*
X78500047Y-100920861D01*
X78500045Y-100920858D01*
X78339141Y-100759954D01*
X78152734Y-100629432D01*
X78152732Y-100629431D01*
X77946497Y-100533261D01*
X77946488Y-100533258D01*
X77726697Y-100474366D01*
X77726693Y-100474365D01*
X77726692Y-100474365D01*
X77726691Y-100474364D01*
X77726686Y-100474364D01*
X77500002Y-100454532D01*
X77499998Y-100454532D01*
X77273313Y-100474364D01*
X77273302Y-100474366D01*
X77053511Y-100533258D01*
X77053502Y-100533261D01*
X76847267Y-100629431D01*
X76847265Y-100629432D01*
X76660858Y-100759954D01*
X76499954Y-100920858D01*
X76369430Y-101107268D01*
X76369428Y-101107271D01*
X76363072Y-101120904D01*
X76316900Y-101173344D01*
X76250690Y-101192500D01*
X71312787Y-101192500D01*
X71245748Y-101172815D01*
X71211212Y-101139623D01*
X71206224Y-101132500D01*
X71100047Y-100980861D01*
X71100045Y-100980858D01*
X70939141Y-100819954D01*
X70752734Y-100689432D01*
X70752732Y-100689431D01*
X70546497Y-100593261D01*
X70546488Y-100593258D01*
X70326697Y-100534366D01*
X70326693Y-100534365D01*
X70326692Y-100534365D01*
X70326691Y-100534364D01*
X70326686Y-100534364D01*
X70100002Y-100514532D01*
X70099998Y-100514532D01*
X69873313Y-100534364D01*
X69873302Y-100534366D01*
X69653511Y-100593258D01*
X69653502Y-100593261D01*
X69447267Y-100689431D01*
X69447265Y-100689432D01*
X69260858Y-100819954D01*
X69099954Y-100980858D01*
X68969432Y-101167265D01*
X68969431Y-101167267D01*
X68873261Y-101373502D01*
X68873258Y-101373511D01*
X68814366Y-101593302D01*
X68814364Y-101593313D01*
X68794532Y-101819998D01*
X65500500Y-101819998D01*
X65500500Y-89178712D01*
X66049500Y-89178712D01*
X66049500Y-89421288D01*
X66081162Y-89661789D01*
X66112554Y-89778944D01*
X66143947Y-89896104D01*
X66161747Y-89939076D01*
X66236776Y-90120212D01*
X66358064Y-90330289D01*
X66358066Y-90330292D01*
X66358067Y-90330293D01*
X66505733Y-90522736D01*
X66505739Y-90522743D01*
X66677256Y-90694260D01*
X66677262Y-90694265D01*
X66869711Y-90841936D01*
X67079788Y-90963224D01*
X67303900Y-91056054D01*
X67538211Y-91118838D01*
X67710235Y-91141485D01*
X67778711Y-91150500D01*
X67778712Y-91150500D01*
X68021289Y-91150500D01*
X68089765Y-91141485D01*
X68261789Y-91118838D01*
X68496100Y-91056054D01*
X68720212Y-90963224D01*
X68930289Y-90841936D01*
X69122738Y-90694265D01*
X69294265Y-90522738D01*
X69441936Y-90330289D01*
X69563224Y-90120212D01*
X69656054Y-89896100D01*
X69718838Y-89661789D01*
X69750500Y-89421288D01*
X69750500Y-89178712D01*
X69718838Y-88938211D01*
X69656054Y-88703900D01*
X69563224Y-88479788D01*
X69441936Y-88269711D01*
X69336829Y-88132732D01*
X69294266Y-88077263D01*
X69294260Y-88077256D01*
X69122743Y-87905739D01*
X69122736Y-87905733D01*
X68930293Y-87758067D01*
X68930292Y-87758066D01*
X68930289Y-87758064D01*
X68720212Y-87636776D01*
X68693634Y-87625767D01*
X68496104Y-87543947D01*
X68261785Y-87481161D01*
X68021289Y-87449500D01*
X68021288Y-87449500D01*
X67778712Y-87449500D01*
X67778711Y-87449500D01*
X67538214Y-87481161D01*
X67303895Y-87543947D01*
X67079794Y-87636773D01*
X67079785Y-87636777D01*
X66869706Y-87758067D01*
X66677263Y-87905733D01*
X66677256Y-87905739D01*
X66505739Y-88077256D01*
X66505733Y-88077263D01*
X66358067Y-88269706D01*
X66236777Y-88479785D01*
X66236773Y-88479794D01*
X66143947Y-88703895D01*
X66081161Y-88938214D01*
X66059871Y-89099933D01*
X66049500Y-89178712D01*
X65500500Y-89178712D01*
X65500500Y-74859998D01*
X68694532Y-74859998D01*
X68694532Y-74860001D01*
X68714364Y-75086686D01*
X68714366Y-75086697D01*
X68773258Y-75306488D01*
X68773261Y-75306497D01*
X68869431Y-75512732D01*
X68869432Y-75512734D01*
X68999954Y-75699141D01*
X69160858Y-75860045D01*
X69160861Y-75860047D01*
X69347266Y-75990568D01*
X69381945Y-76006739D01*
X69405275Y-76017618D01*
X69457714Y-76063791D01*
X69476866Y-76130984D01*
X69456650Y-76197865D01*
X69405275Y-76242382D01*
X69347267Y-76269431D01*
X69347265Y-76269432D01*
X69160858Y-76399954D01*
X68999954Y-76560858D01*
X68869432Y-76747265D01*
X68869431Y-76747267D01*
X68773261Y-76953502D01*
X68773258Y-76953511D01*
X68714366Y-77173302D01*
X68714364Y-77173313D01*
X68694532Y-77399998D01*
X68694532Y-77400001D01*
X68714364Y-77626686D01*
X68714366Y-77626697D01*
X68773258Y-77846488D01*
X68773261Y-77846497D01*
X68869431Y-78052732D01*
X68869432Y-78052734D01*
X68999954Y-78239141D01*
X69160858Y-78400045D01*
X69160861Y-78400047D01*
X69347266Y-78530568D01*
X69553504Y-78626739D01*
X69553509Y-78626740D01*
X69553511Y-78626741D01*
X69606415Y-78640916D01*
X69773308Y-78685635D01*
X69935230Y-78699801D01*
X69999998Y-78705468D01*
X70000000Y-78705468D01*
X70000002Y-78705468D01*
X70061939Y-78700049D01*
X70226692Y-78685635D01*
X70446496Y-78626739D01*
X70652734Y-78530568D01*
X70839139Y-78400047D01*
X71000047Y-78239139D01*
X71130118Y-78053375D01*
X71184693Y-78009752D01*
X71231692Y-78000500D01*
X73079055Y-78000500D01*
X73079057Y-78000500D01*
X73231784Y-77959577D01*
X73368716Y-77880520D01*
X73480520Y-77768716D01*
X73559577Y-77631784D01*
X73600500Y-77479057D01*
X73600500Y-71220096D01*
X73620185Y-71153057D01*
X73636814Y-71132420D01*
X75250573Y-69518660D01*
X75311894Y-69485177D01*
X75381586Y-69490161D01*
X75437519Y-69532033D01*
X75461936Y-69597497D01*
X75461780Y-69617150D01*
X75454532Y-69699997D01*
X75454532Y-69700001D01*
X75474364Y-69926686D01*
X75474366Y-69926697D01*
X75533258Y-70146488D01*
X75533261Y-70146497D01*
X75629431Y-70352732D01*
X75629432Y-70352734D01*
X75759954Y-70539141D01*
X75920858Y-70700045D01*
X75920861Y-70700047D01*
X76107266Y-70830568D01*
X76165275Y-70857618D01*
X76217714Y-70903791D01*
X76236866Y-70970984D01*
X76216650Y-71037865D01*
X76165275Y-71082382D01*
X76107267Y-71109431D01*
X76107265Y-71109432D01*
X75920858Y-71239954D01*
X75759954Y-71400858D01*
X75629432Y-71587265D01*
X75629431Y-71587267D01*
X75533261Y-71793502D01*
X75533258Y-71793511D01*
X75474366Y-72013302D01*
X75474364Y-72013313D01*
X75454532Y-72239998D01*
X75454532Y-72240001D01*
X75474364Y-72466686D01*
X75474366Y-72466697D01*
X75533258Y-72686488D01*
X75533261Y-72686497D01*
X75629431Y-72892732D01*
X75629432Y-72892734D01*
X75759954Y-73079141D01*
X75920858Y-73240045D01*
X75920861Y-73240047D01*
X76107266Y-73370568D01*
X76165275Y-73397618D01*
X76217714Y-73443791D01*
X76236866Y-73510984D01*
X76216650Y-73577865D01*
X76165275Y-73622382D01*
X76107267Y-73649431D01*
X76107265Y-73649432D01*
X75920858Y-73779954D01*
X75759954Y-73940858D01*
X75629432Y-74127265D01*
X75629431Y-74127267D01*
X75533261Y-74333502D01*
X75533258Y-74333511D01*
X75474366Y-74553302D01*
X75474364Y-74553313D01*
X75454532Y-74779998D01*
X75454532Y-74780001D01*
X75474364Y-75006686D01*
X75474366Y-75006697D01*
X75533258Y-75226488D01*
X75533261Y-75226497D01*
X75629431Y-75432732D01*
X75629432Y-75432734D01*
X75759954Y-75619141D01*
X75920858Y-75780045D01*
X75920861Y-75780047D01*
X76107266Y-75910568D01*
X76165275Y-75937618D01*
X76217714Y-75983791D01*
X76236866Y-76050984D01*
X76216650Y-76117865D01*
X76165275Y-76162382D01*
X76107267Y-76189431D01*
X76107265Y-76189432D01*
X75920858Y-76319954D01*
X75759954Y-76480858D01*
X75629432Y-76667265D01*
X75629431Y-76667267D01*
X75533261Y-76873502D01*
X75533258Y-76873511D01*
X75474366Y-77093302D01*
X75474364Y-77093313D01*
X75454532Y-77319998D01*
X75454532Y-77320001D01*
X75474364Y-77546686D01*
X75474366Y-77546697D01*
X75533258Y-77766488D01*
X75533261Y-77766497D01*
X75629431Y-77972732D01*
X75629432Y-77972734D01*
X75759954Y-78159141D01*
X75920858Y-78320045D01*
X75920861Y-78320047D01*
X76107266Y-78450568D01*
X76165275Y-78477618D01*
X76217714Y-78523791D01*
X76236866Y-78590984D01*
X76216650Y-78657865D01*
X76165275Y-78702382D01*
X76107267Y-78729431D01*
X76107265Y-78729432D01*
X75920858Y-78859954D01*
X75759954Y-79020858D01*
X75629432Y-79207265D01*
X75629431Y-79207267D01*
X75533261Y-79413502D01*
X75533258Y-79413511D01*
X75474366Y-79633302D01*
X75474364Y-79633313D01*
X75454532Y-79859998D01*
X75454532Y-79860001D01*
X75474364Y-80086686D01*
X75474366Y-80086697D01*
X75533258Y-80306488D01*
X75533261Y-80306497D01*
X75629431Y-80512732D01*
X75629432Y-80512734D01*
X75759954Y-80699141D01*
X75920858Y-80860045D01*
X75920861Y-80860047D01*
X76107266Y-80990568D01*
X76165275Y-81017618D01*
X76217714Y-81063791D01*
X76236866Y-81130984D01*
X76216650Y-81197865D01*
X76165275Y-81242382D01*
X76107267Y-81269431D01*
X76107265Y-81269432D01*
X75920858Y-81399954D01*
X75759954Y-81560858D01*
X75629432Y-81747265D01*
X75629431Y-81747267D01*
X75533261Y-81953502D01*
X75533258Y-81953511D01*
X75474366Y-82173302D01*
X75474364Y-82173313D01*
X75454532Y-82399998D01*
X75454532Y-82400001D01*
X75474364Y-82626686D01*
X75474366Y-82626697D01*
X75533258Y-82846488D01*
X75533261Y-82846497D01*
X75629431Y-83052732D01*
X75629432Y-83052734D01*
X75759954Y-83239141D01*
X75920858Y-83400045D01*
X75920861Y-83400047D01*
X76107266Y-83530568D01*
X76165275Y-83557618D01*
X76217714Y-83603791D01*
X76236866Y-83670984D01*
X76216650Y-83737865D01*
X76165275Y-83782382D01*
X76107267Y-83809431D01*
X76107265Y-83809432D01*
X75920858Y-83939954D01*
X75759954Y-84100858D01*
X75629432Y-84287265D01*
X75629431Y-84287267D01*
X75533261Y-84493502D01*
X75533258Y-84493511D01*
X75474366Y-84713302D01*
X75474364Y-84713313D01*
X75454532Y-84939998D01*
X75454532Y-84940001D01*
X75474364Y-85166686D01*
X75474366Y-85166697D01*
X75533258Y-85386488D01*
X75533261Y-85386497D01*
X75629431Y-85592732D01*
X75629432Y-85592734D01*
X75759954Y-85779141D01*
X75920858Y-85940045D01*
X75920861Y-85940047D01*
X76107266Y-86070568D01*
X76165275Y-86097618D01*
X76217714Y-86143791D01*
X76236866Y-86210984D01*
X76216650Y-86277865D01*
X76165275Y-86322382D01*
X76107267Y-86349431D01*
X76107265Y-86349432D01*
X75920858Y-86479954D01*
X75759954Y-86640858D01*
X75629432Y-86827265D01*
X75629431Y-86827267D01*
X75533261Y-87033502D01*
X75533258Y-87033511D01*
X75474366Y-87253302D01*
X75474364Y-87253313D01*
X75454532Y-87479998D01*
X75454532Y-87480001D01*
X75474364Y-87706686D01*
X75474366Y-87706697D01*
X75533258Y-87926488D01*
X75533261Y-87926497D01*
X75629431Y-88132732D01*
X75629432Y-88132734D01*
X75759954Y-88319141D01*
X75920858Y-88480045D01*
X75920861Y-88480047D01*
X76107266Y-88610568D01*
X76165275Y-88637618D01*
X76217714Y-88683791D01*
X76236866Y-88750984D01*
X76216650Y-88817865D01*
X76165275Y-88862382D01*
X76107267Y-88889431D01*
X76107265Y-88889432D01*
X75920858Y-89019954D01*
X75759954Y-89180858D01*
X75629432Y-89367265D01*
X75629431Y-89367267D01*
X75533261Y-89573502D01*
X75533258Y-89573511D01*
X75474366Y-89793302D01*
X75474364Y-89793313D01*
X75454532Y-90019998D01*
X75454532Y-90020001D01*
X75474364Y-90246686D01*
X75474366Y-90246697D01*
X75533258Y-90466488D01*
X75533261Y-90466497D01*
X75629431Y-90672732D01*
X75629432Y-90672734D01*
X75759954Y-90859141D01*
X75920858Y-91020045D01*
X75920861Y-91020047D01*
X76107266Y-91150568D01*
X76165275Y-91177618D01*
X76217714Y-91223791D01*
X76236866Y-91290984D01*
X76216650Y-91357865D01*
X76165275Y-91402382D01*
X76107267Y-91429431D01*
X76107265Y-91429432D01*
X75920858Y-91559954D01*
X75759954Y-91720858D01*
X75629432Y-91907265D01*
X75629431Y-91907267D01*
X75533261Y-92113502D01*
X75533258Y-92113511D01*
X75474366Y-92333302D01*
X75474364Y-92333313D01*
X75454532Y-92559998D01*
X75454532Y-92560001D01*
X75474364Y-92786686D01*
X75474366Y-92786697D01*
X75533258Y-93006488D01*
X75533261Y-93006497D01*
X75629431Y-93212732D01*
X75629432Y-93212734D01*
X75759954Y-93399141D01*
X75920858Y-93560045D01*
X75920861Y-93560047D01*
X76107266Y-93690568D01*
X76165275Y-93717618D01*
X76217714Y-93763791D01*
X76236866Y-93830984D01*
X76216650Y-93897865D01*
X76165275Y-93942382D01*
X76107267Y-93969431D01*
X76107265Y-93969432D01*
X75920858Y-94099954D01*
X75759954Y-94260858D01*
X75629432Y-94447265D01*
X75629431Y-94447267D01*
X75533261Y-94653502D01*
X75533258Y-94653511D01*
X75474366Y-94873302D01*
X75474364Y-94873313D01*
X75454532Y-95099998D01*
X75454532Y-95100001D01*
X75474364Y-95326686D01*
X75474366Y-95326697D01*
X75533258Y-95546488D01*
X75533261Y-95546497D01*
X75629431Y-95752732D01*
X75629432Y-95752734D01*
X75759954Y-95939141D01*
X75920858Y-96100045D01*
X75920861Y-96100047D01*
X76107266Y-96230568D01*
X76313504Y-96326739D01*
X76533308Y-96385635D01*
X76695230Y-96399801D01*
X76759998Y-96405468D01*
X76760000Y-96405468D01*
X76760002Y-96405468D01*
X76816673Y-96400509D01*
X76986692Y-96385635D01*
X77206496Y-96326739D01*
X77412734Y-96230568D01*
X77599139Y-96100047D01*
X77760047Y-95939139D01*
X77890568Y-95752734D01*
X77917618Y-95694724D01*
X77963790Y-95642285D01*
X78030983Y-95623133D01*
X78097865Y-95643348D01*
X78142382Y-95694725D01*
X78169429Y-95752728D01*
X78169432Y-95752734D01*
X78299954Y-95939141D01*
X78460858Y-96100045D01*
X78460861Y-96100047D01*
X78647266Y-96230568D01*
X78853504Y-96326739D01*
X79073308Y-96385635D01*
X79235230Y-96399801D01*
X79299998Y-96405468D01*
X79300000Y-96405468D01*
X79300002Y-96405468D01*
X79356673Y-96400509D01*
X79526692Y-96385635D01*
X79746496Y-96326739D01*
X79952734Y-96230568D01*
X80139139Y-96100047D01*
X80300047Y-95939139D01*
X80430568Y-95752734D01*
X80457618Y-95694724D01*
X80503790Y-95642285D01*
X80570983Y-95623133D01*
X80637865Y-95643348D01*
X80682382Y-95694725D01*
X80709429Y-95752728D01*
X80709432Y-95752734D01*
X80839954Y-95939141D01*
X81000858Y-96100045D01*
X81000861Y-96100047D01*
X81187266Y-96230568D01*
X81393504Y-96326739D01*
X81613308Y-96385635D01*
X81775230Y-96399801D01*
X81839998Y-96405468D01*
X81840000Y-96405468D01*
X81840002Y-96405468D01*
X81896673Y-96400509D01*
X82066692Y-96385635D01*
X82286496Y-96326739D01*
X82492734Y-96230568D01*
X82679139Y-96100047D01*
X82840047Y-95939139D01*
X82970568Y-95752734D01*
X82997618Y-95694724D01*
X83043790Y-95642285D01*
X83110983Y-95623133D01*
X83177865Y-95643348D01*
X83222382Y-95694725D01*
X83249429Y-95752728D01*
X83249432Y-95752734D01*
X83379954Y-95939141D01*
X83540858Y-96100045D01*
X83540861Y-96100047D01*
X83727266Y-96230568D01*
X83933504Y-96326739D01*
X84153308Y-96385635D01*
X84315230Y-96399801D01*
X84379998Y-96405468D01*
X84380000Y-96405468D01*
X84380002Y-96405468D01*
X84436673Y-96400509D01*
X84606692Y-96385635D01*
X84826496Y-96326739D01*
X85032734Y-96230568D01*
X85219139Y-96100047D01*
X85380047Y-95939139D01*
X85510568Y-95752734D01*
X85537618Y-95694724D01*
X85583790Y-95642285D01*
X85650983Y-95623133D01*
X85717865Y-95643348D01*
X85762382Y-95694725D01*
X85789429Y-95752728D01*
X85789432Y-95752734D01*
X85919954Y-95939141D01*
X86080858Y-96100045D01*
X86080861Y-96100047D01*
X86267266Y-96230568D01*
X86473504Y-96326739D01*
X86693308Y-96385635D01*
X86855230Y-96399801D01*
X86919998Y-96405468D01*
X86920000Y-96405468D01*
X86920002Y-96405468D01*
X86976673Y-96400509D01*
X87146692Y-96385635D01*
X87366496Y-96326739D01*
X87572734Y-96230568D01*
X87759139Y-96100047D01*
X87920047Y-95939139D01*
X88050568Y-95752734D01*
X88077618Y-95694724D01*
X88123790Y-95642285D01*
X88190983Y-95623133D01*
X88257865Y-95643348D01*
X88302382Y-95694725D01*
X88329429Y-95752728D01*
X88329432Y-95752734D01*
X88459954Y-95939141D01*
X88620858Y-96100045D01*
X88620861Y-96100047D01*
X88807266Y-96230568D01*
X89013504Y-96326739D01*
X89233308Y-96385635D01*
X89395230Y-96399801D01*
X89459998Y-96405468D01*
X89460000Y-96405468D01*
X89460002Y-96405468D01*
X89516673Y-96400509D01*
X89686692Y-96385635D01*
X89906496Y-96326739D01*
X90112734Y-96230568D01*
X90299139Y-96100047D01*
X90460047Y-95939139D01*
X90590568Y-95752734D01*
X90617618Y-95694724D01*
X90663790Y-95642285D01*
X90730983Y-95623133D01*
X90797865Y-95643348D01*
X90842382Y-95694725D01*
X90869429Y-95752728D01*
X90869432Y-95752734D01*
X90999954Y-95939141D01*
X91160858Y-96100045D01*
X91160861Y-96100047D01*
X91347266Y-96230568D01*
X91553504Y-96326739D01*
X91773308Y-96385635D01*
X91935230Y-96399801D01*
X91999998Y-96405468D01*
X92000000Y-96405468D01*
X92000002Y-96405468D01*
X92056673Y-96400509D01*
X92226692Y-96385635D01*
X92446496Y-96326739D01*
X92652734Y-96230568D01*
X92839139Y-96100047D01*
X93000047Y-95939139D01*
X93130568Y-95752734D01*
X93226739Y-95546496D01*
X93285635Y-95326692D01*
X93305468Y-95100000D01*
X93285635Y-94873308D01*
X93226739Y-94653504D01*
X93130568Y-94447266D01*
X93000047Y-94260861D01*
X93000045Y-94260858D01*
X92839141Y-94099954D01*
X92652734Y-93969432D01*
X92652728Y-93969429D01*
X92594725Y-93942382D01*
X92542285Y-93896210D01*
X92523133Y-93829017D01*
X92543348Y-93762135D01*
X92594725Y-93717618D01*
X92652734Y-93690568D01*
X92839139Y-93560047D01*
X93000047Y-93399139D01*
X93130568Y-93212734D01*
X93226739Y-93006496D01*
X93285635Y-92786692D01*
X93305468Y-92560000D01*
X93285635Y-92333308D01*
X93226739Y-92113504D01*
X93130568Y-91907266D01*
X93000047Y-91720861D01*
X93000045Y-91720858D01*
X92839141Y-91559954D01*
X92652734Y-91429432D01*
X92652728Y-91429429D01*
X92594725Y-91402382D01*
X92542285Y-91356210D01*
X92523133Y-91289017D01*
X92543348Y-91222135D01*
X92594725Y-91177618D01*
X92652734Y-91150568D01*
X92839139Y-91020047D01*
X93000047Y-90859139D01*
X93130568Y-90672734D01*
X93226739Y-90466496D01*
X93285635Y-90246692D01*
X93305468Y-90020000D01*
X93285635Y-89793308D01*
X93226739Y-89573504D01*
X93130568Y-89367266D01*
X93000047Y-89180861D01*
X93000045Y-89180858D01*
X92839141Y-89019954D01*
X92652734Y-88889432D01*
X92652728Y-88889429D01*
X92594725Y-88862382D01*
X92542285Y-88816210D01*
X92523133Y-88749017D01*
X92543348Y-88682135D01*
X92594725Y-88637618D01*
X92652734Y-88610568D01*
X92839139Y-88480047D01*
X93000047Y-88319139D01*
X93130568Y-88132734D01*
X93226739Y-87926496D01*
X93285635Y-87706692D01*
X93305366Y-87481162D01*
X93305468Y-87480001D01*
X93305468Y-87479998D01*
X93285635Y-87253313D01*
X93285635Y-87253308D01*
X93226739Y-87033504D01*
X93130568Y-86827266D01*
X93000047Y-86640861D01*
X93000045Y-86640858D01*
X92839141Y-86479954D01*
X92652734Y-86349432D01*
X92652728Y-86349429D01*
X92594725Y-86322382D01*
X92542285Y-86276210D01*
X92523133Y-86209017D01*
X92543348Y-86142135D01*
X92594725Y-86097618D01*
X92652734Y-86070568D01*
X92839139Y-85940047D01*
X93000047Y-85779139D01*
X93130568Y-85592734D01*
X93226739Y-85386496D01*
X93285635Y-85166692D01*
X93305468Y-84940000D01*
X93301880Y-84898995D01*
X93315646Y-84830498D01*
X93364260Y-84780314D01*
X93432288Y-84764380D01*
X93498132Y-84787754D01*
X93513089Y-84800508D01*
X93882589Y-85170008D01*
X93969992Y-85257411D01*
X93969993Y-85257412D01*
X94072760Y-85326079D01*
X94072773Y-85326086D01*
X94186960Y-85373383D01*
X94186965Y-85373385D01*
X94186969Y-85373385D01*
X94186970Y-85373386D01*
X94308194Y-85397500D01*
X94308197Y-85397500D01*
X97027072Y-85397500D01*
X97094111Y-85417185D01*
X97139454Y-85469095D01*
X97159370Y-85511806D01*
X97289894Y-85698216D01*
X97450798Y-85859120D01*
X97450801Y-85859122D01*
X97637206Y-85989643D01*
X97695215Y-86016693D01*
X97747654Y-86062866D01*
X97766806Y-86130059D01*
X97746590Y-86196940D01*
X97695215Y-86241457D01*
X97637207Y-86268506D01*
X97637205Y-86268507D01*
X97450798Y-86399029D01*
X97289894Y-86559933D01*
X97159372Y-86746340D01*
X97159371Y-86746342D01*
X97063201Y-86952577D01*
X97063198Y-86952586D01*
X97004306Y-87172377D01*
X97004304Y-87172388D01*
X96984472Y-87399073D01*
X96984472Y-87399076D01*
X97004304Y-87625761D01*
X97004306Y-87625772D01*
X97063198Y-87845563D01*
X97063201Y-87845572D01*
X97159371Y-88051807D01*
X97159372Y-88051809D01*
X97289894Y-88238216D01*
X97450798Y-88399120D01*
X97450801Y-88399122D01*
X97637206Y-88529643D01*
X97695215Y-88556693D01*
X97747654Y-88602866D01*
X97766806Y-88670059D01*
X97746590Y-88736940D01*
X97695215Y-88781457D01*
X97637207Y-88808506D01*
X97637205Y-88808507D01*
X97450798Y-88939029D01*
X97289894Y-89099933D01*
X97159372Y-89286340D01*
X97159371Y-89286342D01*
X97063201Y-89492577D01*
X97063198Y-89492586D01*
X97004306Y-89712377D01*
X97004304Y-89712388D01*
X96984472Y-89939073D01*
X96984472Y-89939076D01*
X97004304Y-90165761D01*
X97004306Y-90165772D01*
X97063198Y-90385563D01*
X97063201Y-90385572D01*
X97159371Y-90591807D01*
X97159372Y-90591809D01*
X97289894Y-90778216D01*
X97450798Y-90939120D01*
X97485225Y-90963226D01*
X97637206Y-91069643D01*
X97695805Y-91096968D01*
X97748245Y-91143140D01*
X97767397Y-91210333D01*
X97747182Y-91277214D01*
X97695807Y-91321732D01*
X97637453Y-91348943D01*
X97637452Y-91348943D01*
X97564466Y-91400048D01*
X97564466Y-91400049D01*
X98119705Y-91955287D01*
X98077648Y-91966557D01*
X97952232Y-92038965D01*
X97849830Y-92141367D01*
X97777422Y-92266783D01*
X97766152Y-92308839D01*
X97210914Y-91753601D01*
X97210913Y-91753601D01*
X97159808Y-91826587D01*
X97159806Y-91826591D01*
X97063674Y-92032748D01*
X97063670Y-92032757D01*
X97004800Y-92252464D01*
X97004798Y-92252475D01*
X96984974Y-92479072D01*
X96984974Y-92479077D01*
X97004798Y-92705674D01*
X97004800Y-92705685D01*
X97063670Y-92925392D01*
X97063675Y-92925406D01*
X97159803Y-93131553D01*
X97210914Y-93204547D01*
X97766152Y-92649309D01*
X97777422Y-92691367D01*
X97849830Y-92816783D01*
X97952232Y-92919185D01*
X98077648Y-92991593D01*
X98119705Y-93002862D01*
X97564466Y-93558100D01*
X97637453Y-93609207D01*
X97637461Y-93609211D01*
X97695804Y-93636417D01*
X97748244Y-93682589D01*
X97767396Y-93749782D01*
X97747181Y-93816664D01*
X97695806Y-93861180D01*
X97637212Y-93888503D01*
X97637205Y-93888507D01*
X97450798Y-94019029D01*
X97289894Y-94179933D01*
X97159372Y-94366340D01*
X97159371Y-94366342D01*
X97063201Y-94572577D01*
X97063198Y-94572586D01*
X97004306Y-94792377D01*
X97004304Y-94792388D01*
X96984472Y-95019073D01*
X96984472Y-95019076D01*
X97004304Y-95245761D01*
X97004306Y-95245772D01*
X97063198Y-95465563D01*
X97063201Y-95465572D01*
X97159371Y-95671807D01*
X97159372Y-95671809D01*
X97289894Y-95858216D01*
X97450798Y-96019120D01*
X97450801Y-96019122D01*
X97637206Y-96149643D01*
X97843444Y-96245814D01*
X98063248Y-96304710D01*
X98225170Y-96318876D01*
X98289938Y-96324543D01*
X98289940Y-96324543D01*
X98289942Y-96324543D01*
X98346613Y-96319584D01*
X98516632Y-96304710D01*
X98736436Y-96245814D01*
X98942674Y-96149643D01*
X99129079Y-96019122D01*
X99289987Y-95858214D01*
X99420508Y-95671809D01*
X99516679Y-95465571D01*
X99575575Y-95245767D01*
X99595408Y-95019075D01*
X99575575Y-94792383D01*
X99516679Y-94572579D01*
X99420508Y-94366341D01*
X99289987Y-94179936D01*
X99289985Y-94179933D01*
X99129081Y-94019029D01*
X99019616Y-93942382D01*
X98942674Y-93888507D01*
X98884072Y-93861180D01*
X98831634Y-93815008D01*
X98812483Y-93747814D01*
X98832699Y-93680933D01*
X98884075Y-93636416D01*
X98942422Y-93609208D01*
X99015411Y-93558099D01*
X98460174Y-93002862D01*
X98502232Y-92991593D01*
X98627648Y-92919185D01*
X98730050Y-92816783D01*
X98802458Y-92691367D01*
X98813727Y-92649309D01*
X99368964Y-93204546D01*
X99420076Y-93131553D01*
X99516204Y-92925406D01*
X99516209Y-92925392D01*
X99575079Y-92705685D01*
X99575081Y-92705674D01*
X99594906Y-92479077D01*
X99594906Y-92479072D01*
X99575081Y-92252475D01*
X99575079Y-92252464D01*
X99516209Y-92032757D01*
X99516204Y-92032743D01*
X99420076Y-91826596D01*
X99420072Y-91826588D01*
X99368965Y-91753601D01*
X98813727Y-92308839D01*
X98802458Y-92266783D01*
X98730050Y-92141367D01*
X98627648Y-92038965D01*
X98502232Y-91966557D01*
X98460174Y-91955287D01*
X99015412Y-91400049D01*
X98942420Y-91348939D01*
X98884074Y-91321732D01*
X98831635Y-91275559D01*
X98812483Y-91208366D01*
X98832699Y-91141485D01*
X98884074Y-91096968D01*
X98942674Y-91069643D01*
X99129079Y-90939122D01*
X99289987Y-90778214D01*
X99420508Y-90591809D01*
X99516679Y-90385571D01*
X99575575Y-90165767D01*
X99595408Y-89939075D01*
X99575575Y-89712383D01*
X99516679Y-89492579D01*
X99420508Y-89286341D01*
X99345146Y-89178712D01*
X107649500Y-89178712D01*
X107649500Y-89421288D01*
X107681162Y-89661789D01*
X107712554Y-89778944D01*
X107743947Y-89896104D01*
X107761747Y-89939076D01*
X107836776Y-90120212D01*
X107958064Y-90330289D01*
X107958066Y-90330292D01*
X107958067Y-90330293D01*
X108105733Y-90522736D01*
X108105739Y-90522743D01*
X108277256Y-90694260D01*
X108277262Y-90694265D01*
X108469711Y-90841936D01*
X108679788Y-90963224D01*
X108903900Y-91056054D01*
X109138211Y-91118838D01*
X109310235Y-91141485D01*
X109378711Y-91150500D01*
X109378712Y-91150500D01*
X109621289Y-91150500D01*
X109689765Y-91141485D01*
X109861789Y-91118838D01*
X110096100Y-91056054D01*
X110320212Y-90963224D01*
X110530289Y-90841936D01*
X110722738Y-90694265D01*
X110894265Y-90522738D01*
X111041936Y-90330289D01*
X111163224Y-90120212D01*
X111256054Y-89896100D01*
X111318838Y-89661789D01*
X111350500Y-89421288D01*
X111350500Y-89178712D01*
X111318838Y-88938211D01*
X111256054Y-88703900D01*
X111163224Y-88479788D01*
X111041936Y-88269711D01*
X110936829Y-88132732D01*
X110894266Y-88077263D01*
X110894260Y-88077256D01*
X110722743Y-87905739D01*
X110722736Y-87905733D01*
X110530293Y-87758067D01*
X110530292Y-87758066D01*
X110530289Y-87758064D01*
X110320212Y-87636776D01*
X110293634Y-87625767D01*
X110096104Y-87543947D01*
X109861785Y-87481161D01*
X109621289Y-87449500D01*
X109621288Y-87449500D01*
X109378712Y-87449500D01*
X109378711Y-87449500D01*
X109138214Y-87481161D01*
X108903895Y-87543947D01*
X108679794Y-87636773D01*
X108679785Y-87636777D01*
X108469706Y-87758067D01*
X108277263Y-87905733D01*
X108277256Y-87905739D01*
X108105739Y-88077256D01*
X108105733Y-88077263D01*
X107958067Y-88269706D01*
X107836777Y-88479785D01*
X107836773Y-88479794D01*
X107743947Y-88703895D01*
X107681161Y-88938214D01*
X107659871Y-89099933D01*
X107649500Y-89178712D01*
X99345146Y-89178712D01*
X99289987Y-89099936D01*
X99289985Y-89099933D01*
X99129081Y-88939029D01*
X98942674Y-88808507D01*
X98942668Y-88808504D01*
X98884665Y-88781457D01*
X98832225Y-88735285D01*
X98813073Y-88668092D01*
X98833288Y-88601210D01*
X98884665Y-88556693D01*
X98942674Y-88529643D01*
X99129079Y-88399122D01*
X99289987Y-88238214D01*
X99420508Y-88051809D01*
X99516679Y-87845571D01*
X99575575Y-87625767D01*
X99595408Y-87399075D01*
X99575575Y-87172383D01*
X99516679Y-86952579D01*
X99420508Y-86746341D01*
X99289987Y-86559936D01*
X99289985Y-86559933D01*
X99129081Y-86399029D01*
X98942674Y-86268507D01*
X98942668Y-86268504D01*
X98884665Y-86241457D01*
X98832225Y-86195285D01*
X98813073Y-86128092D01*
X98833288Y-86061210D01*
X98884665Y-86016693D01*
X98942674Y-85989643D01*
X99129079Y-85859122D01*
X99289987Y-85698214D01*
X99420508Y-85511809D01*
X99516679Y-85305571D01*
X99575575Y-85085767D01*
X99595408Y-84859075D01*
X99575575Y-84632383D01*
X99516679Y-84412579D01*
X99420508Y-84206341D01*
X99289987Y-84019936D01*
X99289985Y-84019933D01*
X99129081Y-83859029D01*
X98942674Y-83728507D01*
X98942668Y-83728504D01*
X98909979Y-83713261D01*
X98884664Y-83701456D01*
X98832225Y-83655285D01*
X98813073Y-83588092D01*
X98833288Y-83521210D01*
X98884665Y-83476693D01*
X98942674Y-83449643D01*
X99129079Y-83319122D01*
X99289987Y-83158214D01*
X99420508Y-82971809D01*
X99516679Y-82765571D01*
X99575575Y-82545767D01*
X99595408Y-82319075D01*
X99575575Y-82092383D01*
X99516679Y-81872579D01*
X99420508Y-81666341D01*
X99289987Y-81479936D01*
X99289985Y-81479933D01*
X99129081Y-81319029D01*
X99019616Y-81242382D01*
X98942674Y-81188507D01*
X98884072Y-81161180D01*
X98831634Y-81115008D01*
X98812483Y-81047814D01*
X98832699Y-80980933D01*
X98884075Y-80936416D01*
X98942422Y-80909208D01*
X99015411Y-80858099D01*
X98460174Y-80302862D01*
X98502232Y-80291593D01*
X98627648Y-80219185D01*
X98730050Y-80116783D01*
X98802458Y-79991367D01*
X98813727Y-79949309D01*
X99368964Y-80504546D01*
X99420076Y-80431553D01*
X99516204Y-80225406D01*
X99516209Y-80225392D01*
X99575079Y-80005685D01*
X99575081Y-80005674D01*
X99594906Y-79779077D01*
X99594906Y-79779072D01*
X99575081Y-79552475D01*
X99575079Y-79552464D01*
X99516209Y-79332757D01*
X99516204Y-79332743D01*
X99420076Y-79126596D01*
X99420072Y-79126588D01*
X99368965Y-79053601D01*
X98813727Y-79608839D01*
X98802458Y-79566783D01*
X98730050Y-79441367D01*
X98627648Y-79338965D01*
X98502232Y-79266557D01*
X98460174Y-79255287D01*
X99015412Y-78700049D01*
X99013453Y-78677655D01*
X99007990Y-78670820D01*
X99000798Y-78601321D01*
X99032321Y-78538967D01*
X99092552Y-78503555D01*
X99109484Y-78500534D01*
X99159423Y-78495166D01*
X99294271Y-78444871D01*
X99409486Y-78358621D01*
X99495736Y-78243406D01*
X99546031Y-78108558D01*
X99552440Y-78048948D01*
X99552439Y-76429203D01*
X99546031Y-76369592D01*
X99527517Y-76319954D01*
X99495737Y-76234746D01*
X99495733Y-76234739D01*
X99409487Y-76119530D01*
X99409484Y-76119527D01*
X99294275Y-76033281D01*
X99294268Y-76033277D01*
X99159422Y-75982983D01*
X99159423Y-75982983D01*
X99099823Y-75976576D01*
X99099821Y-75976575D01*
X99099813Y-75976575D01*
X99099804Y-75976575D01*
X97480069Y-75976575D01*
X97480063Y-75976576D01*
X97420456Y-75982983D01*
X97285611Y-76033277D01*
X97285604Y-76033281D01*
X97170395Y-76119527D01*
X97170392Y-76119530D01*
X97084146Y-76234739D01*
X97084142Y-76234746D01*
X97033848Y-76369592D01*
X97027441Y-76429191D01*
X97027441Y-76429198D01*
X97027440Y-76429210D01*
X97027440Y-78048945D01*
X97027441Y-78048951D01*
X97033848Y-78108558D01*
X97084142Y-78243403D01*
X97084146Y-78243410D01*
X97170392Y-78358619D01*
X97170395Y-78358622D01*
X97285604Y-78444868D01*
X97285611Y-78444872D01*
X97330558Y-78461636D01*
X97420457Y-78495166D01*
X97470397Y-78500535D01*
X97534945Y-78527272D01*
X97574793Y-78584665D01*
X97577287Y-78654490D01*
X97566924Y-78671955D01*
X97564466Y-78700049D01*
X98119705Y-79255287D01*
X98077648Y-79266557D01*
X97952232Y-79338965D01*
X97849830Y-79441367D01*
X97777422Y-79566783D01*
X97766152Y-79608839D01*
X97210914Y-79053601D01*
X97210913Y-79053601D01*
X97159808Y-79126587D01*
X97159806Y-79126591D01*
X97063674Y-79332748D01*
X97063670Y-79332757D01*
X97004800Y-79552464D01*
X97004798Y-79552475D01*
X96984974Y-79779072D01*
X96984974Y-79779077D01*
X97004798Y-80005674D01*
X97004800Y-80005685D01*
X97063670Y-80225392D01*
X97063675Y-80225406D01*
X97159803Y-80431553D01*
X97210914Y-80504547D01*
X97766152Y-79949309D01*
X97777422Y-79991367D01*
X97849830Y-80116783D01*
X97952232Y-80219185D01*
X98077648Y-80291593D01*
X98119705Y-80302862D01*
X97564466Y-80858100D01*
X97637453Y-80909207D01*
X97637461Y-80909211D01*
X97695804Y-80936417D01*
X97748244Y-80982589D01*
X97767396Y-81049782D01*
X97747181Y-81116664D01*
X97695806Y-81161180D01*
X97637212Y-81188503D01*
X97637205Y-81188507D01*
X97450798Y-81319029D01*
X97289894Y-81479933D01*
X97241098Y-81549623D01*
X97186522Y-81593248D01*
X97139523Y-81602500D01*
X94681281Y-81602500D01*
X94614242Y-81582815D01*
X94593600Y-81566181D01*
X93300010Y-80272591D01*
X93266525Y-80211268D01*
X93267917Y-80152815D01*
X93285633Y-80086699D01*
X93285632Y-80086699D01*
X93285635Y-80086692D01*
X93305468Y-79860000D01*
X93285635Y-79633308D01*
X93226739Y-79413504D01*
X93130568Y-79207266D01*
X93000047Y-79020861D01*
X93000045Y-79020858D01*
X92839141Y-78859954D01*
X92652734Y-78729432D01*
X92652728Y-78729429D01*
X92594725Y-78702382D01*
X92542285Y-78656210D01*
X92523133Y-78589017D01*
X92543348Y-78522135D01*
X92594725Y-78477618D01*
X92652734Y-78450568D01*
X92839139Y-78320047D01*
X93000047Y-78159139D01*
X93130568Y-77972734D01*
X93226739Y-77766496D01*
X93285635Y-77546692D01*
X93305468Y-77320000D01*
X93291324Y-77158339D01*
X93305090Y-77089841D01*
X93327168Y-77059855D01*
X98696206Y-71690819D01*
X98757529Y-71657334D01*
X98783887Y-71654500D01*
X99720164Y-71654500D01*
X99787203Y-71674185D01*
X99832958Y-71726989D01*
X99843454Y-71765252D01*
X99843908Y-71769482D01*
X99894202Y-71904328D01*
X99894206Y-71904335D01*
X99980452Y-72019544D01*
X99980455Y-72019547D01*
X100095664Y-72105793D01*
X100095671Y-72105797D01*
X100230517Y-72156091D01*
X100230516Y-72156091D01*
X100237444Y-72156835D01*
X100290127Y-72162500D01*
X101909872Y-72162499D01*
X101969483Y-72156091D01*
X102104331Y-72105796D01*
X102219546Y-72019546D01*
X102305796Y-71904331D01*
X102356091Y-71769483D01*
X102362500Y-71709873D01*
X102362499Y-70090128D01*
X102356091Y-70030517D01*
X102305796Y-69895669D01*
X102305795Y-69895668D01*
X102305793Y-69895664D01*
X102219547Y-69780455D01*
X102219544Y-69780452D01*
X102104335Y-69694206D01*
X102104328Y-69694202D01*
X101969482Y-69643908D01*
X101969483Y-69643908D01*
X101909883Y-69637501D01*
X101909881Y-69637500D01*
X101909873Y-69637500D01*
X101909864Y-69637500D01*
X100290129Y-69637500D01*
X100290123Y-69637501D01*
X100230516Y-69643908D01*
X100095671Y-69694202D01*
X100095664Y-69694206D01*
X99980455Y-69780452D01*
X99980452Y-69780455D01*
X99894206Y-69895664D01*
X99894202Y-69895671D01*
X99843908Y-70030516D01*
X99843453Y-70034756D01*
X99842182Y-70037823D01*
X99842126Y-70038062D01*
X99842087Y-70038052D01*
X99816715Y-70099307D01*
X99759322Y-70139155D01*
X99720164Y-70145500D01*
X98500446Y-70145500D01*
X98500426Y-70145499D01*
X98494312Y-70145499D01*
X98345688Y-70145499D01*
X98345686Y-70145499D01*
X98224105Y-70169684D01*
X98199920Y-70174495D01*
X98144145Y-70197598D01*
X98144144Y-70197598D01*
X98062618Y-70231366D01*
X98062607Y-70231372D01*
X97939031Y-70313942D01*
X93506976Y-74745997D01*
X93445653Y-74779482D01*
X93375961Y-74774498D01*
X93320028Y-74732626D01*
X93295767Y-74669124D01*
X93285635Y-74553308D01*
X93226739Y-74333504D01*
X93130568Y-74127266D01*
X93000047Y-73940861D01*
X93000045Y-73940858D01*
X92839141Y-73779954D01*
X92652734Y-73649432D01*
X92652728Y-73649429D01*
X92594725Y-73622382D01*
X92542285Y-73576210D01*
X92523133Y-73509017D01*
X92543348Y-73442135D01*
X92594725Y-73397618D01*
X92652734Y-73370568D01*
X92839139Y-73240047D01*
X93000047Y-73079139D01*
X93130568Y-72892734D01*
X93226739Y-72686496D01*
X93285635Y-72466692D01*
X93305468Y-72240000D01*
X93285635Y-72013308D01*
X93226739Y-71793504D01*
X93130568Y-71587266D01*
X93000047Y-71400861D01*
X93000045Y-71400858D01*
X92839141Y-71239954D01*
X92652734Y-71109432D01*
X92652728Y-71109429D01*
X92594725Y-71082382D01*
X92542285Y-71036210D01*
X92523133Y-70969017D01*
X92543348Y-70902135D01*
X92594725Y-70857618D01*
X92652734Y-70830568D01*
X92839139Y-70700047D01*
X93000047Y-70539139D01*
X93130568Y-70352734D01*
X93226739Y-70146496D01*
X93285635Y-69926692D01*
X93305468Y-69700000D01*
X93285635Y-69473308D01*
X93226739Y-69253504D01*
X93130568Y-69047266D01*
X93000047Y-68860861D01*
X93000045Y-68860858D01*
X92839141Y-68699954D01*
X92652734Y-68569432D01*
X92652728Y-68569429D01*
X92594725Y-68542382D01*
X92542285Y-68496210D01*
X92523133Y-68429017D01*
X92543348Y-68362135D01*
X92594725Y-68317618D01*
X92652734Y-68290568D01*
X92839139Y-68160047D01*
X93000047Y-67999139D01*
X93130568Y-67812734D01*
X93226739Y-67606496D01*
X93285635Y-67386692D01*
X93305468Y-67160000D01*
X93285635Y-66933308D01*
X93226739Y-66713504D01*
X93130568Y-66507266D01*
X93000047Y-66320861D01*
X93000045Y-66320858D01*
X92839141Y-66159954D01*
X92652735Y-66029433D01*
X92652736Y-66029433D01*
X92652734Y-66029432D01*
X92594132Y-66002105D01*
X92541694Y-65955933D01*
X92522543Y-65888739D01*
X92542759Y-65821858D01*
X92594135Y-65777341D01*
X92652482Y-65750133D01*
X92725471Y-65699024D01*
X92170234Y-65143787D01*
X92212292Y-65132518D01*
X92337708Y-65060110D01*
X92440110Y-64957708D01*
X92512518Y-64832292D01*
X92523787Y-64790234D01*
X93079024Y-65345471D01*
X93130136Y-65272478D01*
X93226264Y-65066331D01*
X93226269Y-65066317D01*
X93270834Y-64899999D01*
X99833179Y-64899999D01*
X99833179Y-64900000D01*
X99852424Y-65119976D01*
X99852426Y-65119986D01*
X99909575Y-65333270D01*
X99909580Y-65333284D01*
X100002898Y-65533405D01*
X100002901Y-65533411D01*
X100048258Y-65598187D01*
X100048259Y-65598188D01*
X100700000Y-64946447D01*
X100700000Y-64952661D01*
X100727259Y-65054394D01*
X100779920Y-65145606D01*
X100854394Y-65220080D01*
X100945606Y-65272741D01*
X101047339Y-65300000D01*
X101053553Y-65300000D01*
X100401810Y-65951740D01*
X100466590Y-65997099D01*
X100466592Y-65997100D01*
X100666715Y-66090419D01*
X100666729Y-66090424D01*
X100880013Y-66147573D01*
X100880023Y-66147575D01*
X101099999Y-66166821D01*
X101100001Y-66166821D01*
X101319976Y-66147575D01*
X101319986Y-66147573D01*
X101533270Y-66090424D01*
X101533284Y-66090419D01*
X101733407Y-65997100D01*
X101733417Y-65997094D01*
X101798188Y-65951741D01*
X101146448Y-65300000D01*
X101152661Y-65300000D01*
X101254394Y-65272741D01*
X101345606Y-65220080D01*
X101420080Y-65145606D01*
X101472741Y-65054394D01*
X101500000Y-64952661D01*
X101500000Y-64946447D01*
X102151741Y-65598188D01*
X102197094Y-65533417D01*
X102197100Y-65533407D01*
X102290419Y-65333284D01*
X102290424Y-65333270D01*
X102347573Y-65119986D01*
X102347575Y-65119976D01*
X102366821Y-64900000D01*
X102366821Y-64899999D01*
X102347575Y-64680023D01*
X102347573Y-64680013D01*
X102290424Y-64466729D01*
X102290420Y-64466720D01*
X102197096Y-64266586D01*
X102151741Y-64201811D01*
X102151740Y-64201810D01*
X101500000Y-64853551D01*
X101500000Y-64847339D01*
X101472741Y-64745606D01*
X101420080Y-64654394D01*
X101345606Y-64579920D01*
X101254394Y-64527259D01*
X101152661Y-64500000D01*
X101146448Y-64500000D01*
X101767736Y-63878711D01*
X107649500Y-63878711D01*
X107649500Y-64121288D01*
X107681161Y-64361785D01*
X107743947Y-64596104D01*
X107836773Y-64820205D01*
X107836777Y-64820214D01*
X107852017Y-64846610D01*
X107958064Y-65030289D01*
X107958066Y-65030292D01*
X107958067Y-65030293D01*
X108105733Y-65222736D01*
X108105739Y-65222743D01*
X108277256Y-65394260D01*
X108277262Y-65394265D01*
X108469711Y-65541936D01*
X108679788Y-65663224D01*
X108875269Y-65744195D01*
X108890655Y-65750568D01*
X108903900Y-65756054D01*
X109138211Y-65818838D01*
X109318586Y-65842584D01*
X109378711Y-65850500D01*
X109378712Y-65850500D01*
X109621289Y-65850500D01*
X109669388Y-65844167D01*
X109861789Y-65818838D01*
X110096100Y-65756054D01*
X110320212Y-65663224D01*
X110530289Y-65541936D01*
X110722738Y-65394265D01*
X110894265Y-65222738D01*
X111041936Y-65030289D01*
X111163224Y-64820212D01*
X111256054Y-64596100D01*
X111318838Y-64361789D01*
X111350500Y-64121288D01*
X111350500Y-63878712D01*
X111318838Y-63638211D01*
X111256054Y-63403900D01*
X111163224Y-63179788D01*
X111041936Y-62969711D01*
X110894265Y-62777262D01*
X110894260Y-62777256D01*
X110722743Y-62605739D01*
X110722736Y-62605733D01*
X110530293Y-62458067D01*
X110530292Y-62458066D01*
X110530289Y-62458064D01*
X110320212Y-62336776D01*
X110320205Y-62336773D01*
X110096104Y-62243947D01*
X109861785Y-62181161D01*
X109621289Y-62149500D01*
X109621288Y-62149500D01*
X109378712Y-62149500D01*
X109378711Y-62149500D01*
X109138214Y-62181161D01*
X108903895Y-62243947D01*
X108679794Y-62336773D01*
X108679785Y-62336777D01*
X108469706Y-62458067D01*
X108277263Y-62605733D01*
X108277256Y-62605739D01*
X108105739Y-62777256D01*
X108105733Y-62777263D01*
X107958067Y-62969706D01*
X107836777Y-63179785D01*
X107836773Y-63179794D01*
X107743947Y-63403895D01*
X107681161Y-63638214D01*
X107649500Y-63878711D01*
X101767736Y-63878711D01*
X101798188Y-63848259D01*
X101798187Y-63848258D01*
X101733411Y-63802901D01*
X101733405Y-63802898D01*
X101533284Y-63709580D01*
X101533270Y-63709575D01*
X101319986Y-63652426D01*
X101319976Y-63652424D01*
X101100001Y-63633179D01*
X101099999Y-63633179D01*
X100880023Y-63652424D01*
X100880013Y-63652426D01*
X100666729Y-63709575D01*
X100666720Y-63709579D01*
X100466590Y-63802901D01*
X100401811Y-63848258D01*
X101053553Y-64500000D01*
X101047339Y-64500000D01*
X100945606Y-64527259D01*
X100854394Y-64579920D01*
X100779920Y-64654394D01*
X100727259Y-64745606D01*
X100700000Y-64847339D01*
X100700000Y-64853553D01*
X100048258Y-64201811D01*
X100002901Y-64266590D01*
X99909579Y-64466720D01*
X99909575Y-64466729D01*
X99852426Y-64680013D01*
X99852424Y-64680023D01*
X99833179Y-64899999D01*
X93270834Y-64899999D01*
X93285139Y-64846610D01*
X93285141Y-64846599D01*
X93304966Y-64620002D01*
X93304966Y-64619997D01*
X93285141Y-64393400D01*
X93285139Y-64393389D01*
X93226269Y-64173682D01*
X93226264Y-64173668D01*
X93130136Y-63967521D01*
X93130132Y-63967513D01*
X93079025Y-63894526D01*
X92523787Y-64449764D01*
X92512518Y-64407708D01*
X92440110Y-64282292D01*
X92337708Y-64179890D01*
X92212292Y-64107482D01*
X92170233Y-64096212D01*
X92725472Y-63540974D01*
X92652480Y-63489864D01*
X92594134Y-63462657D01*
X92541695Y-63416484D01*
X92522543Y-63349291D01*
X92542759Y-63282410D01*
X92594134Y-63237893D01*
X92652734Y-63210568D01*
X92839139Y-63080047D01*
X93000047Y-62919139D01*
X93130568Y-62732734D01*
X93226739Y-62526496D01*
X93285635Y-62306692D01*
X93305468Y-62080000D01*
X93285635Y-61853308D01*
X93226739Y-61633504D01*
X93130568Y-61427266D01*
X93000047Y-61240861D01*
X93000045Y-61240858D01*
X92839141Y-61079954D01*
X92652734Y-60949432D01*
X92652732Y-60949431D01*
X92446497Y-60853261D01*
X92446488Y-60853258D01*
X92226697Y-60794366D01*
X92226693Y-60794365D01*
X92226692Y-60794365D01*
X92226691Y-60794364D01*
X92226686Y-60794364D01*
X92000002Y-60774532D01*
X91999998Y-60774532D01*
X91773313Y-60794364D01*
X91773302Y-60794366D01*
X91553511Y-60853258D01*
X91553502Y-60853261D01*
X91347267Y-60949431D01*
X91347265Y-60949432D01*
X91160858Y-61079954D01*
X90999954Y-61240858D01*
X90869432Y-61427265D01*
X90869431Y-61427267D01*
X90773261Y-61633502D01*
X90773258Y-61633511D01*
X90714366Y-61853302D01*
X90714364Y-61853313D01*
X90694532Y-62079998D01*
X90694532Y-62080002D01*
X90708674Y-62241658D01*
X90694907Y-62310158D01*
X90672827Y-62340146D01*
X90503792Y-62509182D01*
X90442472Y-62542666D01*
X90416113Y-62545500D01*
X78142729Y-62545500D01*
X78075690Y-62525815D01*
X78029935Y-62473011D01*
X78019991Y-62403853D01*
X78022954Y-62389406D01*
X78045140Y-62306606D01*
X78045141Y-62306599D01*
X78064966Y-62080002D01*
X78064966Y-62079997D01*
X78045141Y-61853400D01*
X78045139Y-61853389D01*
X77986269Y-61633682D01*
X77986264Y-61633668D01*
X77890136Y-61427521D01*
X77890132Y-61427513D01*
X77839025Y-61354526D01*
X77283787Y-61909763D01*
X77272518Y-61867708D01*
X77200110Y-61742292D01*
X77097708Y-61639890D01*
X76972292Y-61567482D01*
X76930234Y-61556212D01*
X77485472Y-61000974D01*
X77412478Y-60949863D01*
X77206331Y-60853735D01*
X77206317Y-60853730D01*
X76986610Y-60794860D01*
X76986599Y-60794858D01*
X76760002Y-60775034D01*
X76759998Y-60775034D01*
X76533400Y-60794858D01*
X76533389Y-60794860D01*
X76313682Y-60853730D01*
X76313673Y-60853734D01*
X76107516Y-60949866D01*
X76107512Y-60949868D01*
X76034526Y-61000973D01*
X76034526Y-61000974D01*
X76589765Y-61556212D01*
X76547708Y-61567482D01*
X76422292Y-61639890D01*
X76319890Y-61742292D01*
X76247482Y-61867708D01*
X76236212Y-61909765D01*
X75680974Y-61354526D01*
X75680973Y-61354526D01*
X75629868Y-61427512D01*
X75629866Y-61427516D01*
X75533734Y-61633673D01*
X75533730Y-61633682D01*
X75474860Y-61853389D01*
X75474858Y-61853400D01*
X75455034Y-62079997D01*
X75455034Y-62080002D01*
X75474858Y-62306599D01*
X75474859Y-62306606D01*
X75497046Y-62389406D01*
X75495383Y-62459256D01*
X75456221Y-62517119D01*
X75391992Y-62544623D01*
X75377271Y-62545500D01*
X75290446Y-62545500D01*
X75290426Y-62545499D01*
X75284312Y-62545499D01*
X75135688Y-62545499D01*
X75135686Y-62545499D01*
X75014105Y-62569684D01*
X74999540Y-62572581D01*
X74989918Y-62574495D01*
X74989917Y-62574495D01*
X74933045Y-62598052D01*
X74933045Y-62598053D01*
X74852611Y-62631370D01*
X74852609Y-62631371D01*
X74729033Y-62713941D01*
X74676487Y-62766487D01*
X74623941Y-62819034D01*
X74623939Y-62819036D01*
X69413943Y-68029030D01*
X69413942Y-68029031D01*
X69331372Y-68152607D01*
X69331366Y-68152618D01*
X69274496Y-68289916D01*
X69274493Y-68289926D01*
X69247854Y-68423846D01*
X69215468Y-68485757D01*
X69154752Y-68520331D01*
X69139493Y-68522943D01*
X69130519Y-68523907D01*
X68995671Y-68574202D01*
X68995664Y-68574206D01*
X68880455Y-68660452D01*
X68880452Y-68660455D01*
X68794206Y-68775664D01*
X68794202Y-68775671D01*
X68743908Y-68910517D01*
X68737501Y-68970116D01*
X68737501Y-68970123D01*
X68737500Y-68970135D01*
X68737500Y-70589870D01*
X68737501Y-70589876D01*
X68743908Y-70649483D01*
X68794202Y-70784328D01*
X68794206Y-70784335D01*
X68880452Y-70899544D01*
X68880455Y-70899547D01*
X68995664Y-70985793D01*
X68995671Y-70985797D01*
X69040618Y-71002561D01*
X69130517Y-71036091D01*
X69180457Y-71041460D01*
X69245005Y-71068197D01*
X69284853Y-71125590D01*
X69287347Y-71195415D01*
X69276984Y-71212880D01*
X69274526Y-71240974D01*
X69829765Y-71796212D01*
X69787708Y-71807482D01*
X69662292Y-71879890D01*
X69559890Y-71982292D01*
X69487482Y-72107708D01*
X69476212Y-72149764D01*
X68920974Y-71594526D01*
X68920973Y-71594526D01*
X68869868Y-71667512D01*
X68869866Y-71667516D01*
X68773734Y-71873673D01*
X68773730Y-71873682D01*
X68714860Y-72093389D01*
X68714858Y-72093400D01*
X68695034Y-72319997D01*
X68695034Y-72320002D01*
X68714858Y-72546599D01*
X68714860Y-72546610D01*
X68773730Y-72766317D01*
X68773735Y-72766331D01*
X68869863Y-72972478D01*
X68920974Y-73045472D01*
X69476212Y-72490234D01*
X69487482Y-72532292D01*
X69559890Y-72657708D01*
X69662292Y-72760110D01*
X69787708Y-72832518D01*
X69829765Y-72843787D01*
X69274526Y-73399025D01*
X69347513Y-73450132D01*
X69347521Y-73450136D01*
X69405864Y-73477342D01*
X69458304Y-73523514D01*
X69477456Y-73590707D01*
X69457241Y-73657589D01*
X69405866Y-73702105D01*
X69347272Y-73729428D01*
X69347265Y-73729432D01*
X69160858Y-73859954D01*
X68999954Y-74020858D01*
X68869432Y-74207265D01*
X68869431Y-74207267D01*
X68773261Y-74413502D01*
X68773258Y-74413511D01*
X68714366Y-74633302D01*
X68714364Y-74633313D01*
X68694532Y-74859998D01*
X65500500Y-74859998D01*
X65500500Y-63878711D01*
X66049500Y-63878711D01*
X66049500Y-64121288D01*
X66081161Y-64361785D01*
X66143947Y-64596104D01*
X66236773Y-64820205D01*
X66236777Y-64820214D01*
X66252017Y-64846610D01*
X66358064Y-65030289D01*
X66358066Y-65030292D01*
X66358067Y-65030293D01*
X66505733Y-65222736D01*
X66505739Y-65222743D01*
X66677256Y-65394260D01*
X66677262Y-65394265D01*
X66869711Y-65541936D01*
X67079788Y-65663224D01*
X67275269Y-65744195D01*
X67290655Y-65750568D01*
X67303900Y-65756054D01*
X67538211Y-65818838D01*
X67718586Y-65842584D01*
X67778711Y-65850500D01*
X67778712Y-65850500D01*
X68021289Y-65850500D01*
X68069388Y-65844167D01*
X68261789Y-65818838D01*
X68496100Y-65756054D01*
X68720212Y-65663224D01*
X68930289Y-65541936D01*
X69122738Y-65394265D01*
X69294265Y-65222738D01*
X69441936Y-65030289D01*
X69563224Y-64820212D01*
X69656054Y-64596100D01*
X69718838Y-64361789D01*
X69750500Y-64121288D01*
X69750500Y-63878712D01*
X69718838Y-63638211D01*
X69656054Y-63403900D01*
X69563224Y-63179788D01*
X69441936Y-62969711D01*
X69294265Y-62777262D01*
X69294260Y-62777256D01*
X69122743Y-62605739D01*
X69122736Y-62605733D01*
X68930293Y-62458067D01*
X68930292Y-62458066D01*
X68930289Y-62458064D01*
X68720212Y-62336776D01*
X68720205Y-62336773D01*
X68496104Y-62243947D01*
X68261785Y-62181161D01*
X68021289Y-62149500D01*
X68021288Y-62149500D01*
X67778712Y-62149500D01*
X67778711Y-62149500D01*
X67538214Y-62181161D01*
X67303895Y-62243947D01*
X67079794Y-62336773D01*
X67079785Y-62336777D01*
X66869706Y-62458067D01*
X66677263Y-62605733D01*
X66677256Y-62605739D01*
X66505739Y-62777256D01*
X66505733Y-62777263D01*
X66358067Y-62969706D01*
X66236777Y-63179785D01*
X66236773Y-63179794D01*
X66143947Y-63403895D01*
X66081161Y-63638214D01*
X66049500Y-63878711D01*
X65500500Y-63878711D01*
X65500500Y-60624500D01*
X65520185Y-60557461D01*
X65572989Y-60511706D01*
X65624500Y-60500500D01*
X112375500Y-60500500D01*
X112442539Y-60520185D01*
G37*
G04 #@! TD.AperFunction*
M02*
