%TF.GenerationSoftware,KiCad,Pcbnew,8.0.5*%
%TF.CreationDate,2024-11-14T23:49:19-08:00*%
%TF.ProjectId,PCB,5043422e-6b69-4636-9164-5f7063625858,rev?*%
%TF.SameCoordinates,Original*%
%TF.FileFunction,Drillmap*%
%TF.FilePolarity,Positive*%
%FSLAX45Y45*%
G04 Gerber Fmt 4.5, Leading zero omitted, Abs format (unit mm)*
G04 Created by KiCad (PCBNEW 8.0.5) date 2024-11-14 23:49:19*
%MOMM*%
%LPD*%
G01*
G04 APERTURE LIST*
%ADD10C,0.038100*%
%ADD11C,0.200000*%
G04 APERTURE END LIST*
D10*
X6500000Y-6000000D02*
X11300000Y-6000000D01*
X11300000Y-13200000D01*
X6500000Y-13200000D01*
X6500000Y-6000000D01*
D11*
X6758872Y-13513389D02*
X6758872Y-13313389D01*
X6758872Y-13313389D02*
X6806491Y-13313389D01*
X6806491Y-13313389D02*
X6835062Y-13322913D01*
X6835062Y-13322913D02*
X6854110Y-13341960D01*
X6854110Y-13341960D02*
X6863634Y-13361008D01*
X6863634Y-13361008D02*
X6873157Y-13399103D01*
X6873157Y-13399103D02*
X6873157Y-13427674D01*
X6873157Y-13427674D02*
X6863634Y-13465770D01*
X6863634Y-13465770D02*
X6854110Y-13484817D01*
X6854110Y-13484817D02*
X6835062Y-13503865D01*
X6835062Y-13503865D02*
X6806491Y-13513389D01*
X6806491Y-13513389D02*
X6758872Y-13513389D01*
X6958872Y-13513389D02*
X6958872Y-13380055D01*
X6958872Y-13418151D02*
X6968396Y-13399103D01*
X6968396Y-13399103D02*
X6977919Y-13389579D01*
X6977919Y-13389579D02*
X6996967Y-13380055D01*
X6996967Y-13380055D02*
X7016015Y-13380055D01*
X7082681Y-13513389D02*
X7082681Y-13380055D01*
X7082681Y-13313389D02*
X7073157Y-13322913D01*
X7073157Y-13322913D02*
X7082681Y-13332436D01*
X7082681Y-13332436D02*
X7092205Y-13322913D01*
X7092205Y-13322913D02*
X7082681Y-13313389D01*
X7082681Y-13313389D02*
X7082681Y-13332436D01*
X7206491Y-13513389D02*
X7187443Y-13503865D01*
X7187443Y-13503865D02*
X7177919Y-13484817D01*
X7177919Y-13484817D02*
X7177919Y-13313389D01*
X7311253Y-13513389D02*
X7292205Y-13503865D01*
X7292205Y-13503865D02*
X7282681Y-13484817D01*
X7282681Y-13484817D02*
X7282681Y-13313389D01*
X7539824Y-13513389D02*
X7539824Y-13313389D01*
X7539824Y-13313389D02*
X7606491Y-13456246D01*
X7606491Y-13456246D02*
X7673157Y-13313389D01*
X7673157Y-13313389D02*
X7673157Y-13513389D01*
X7854110Y-13513389D02*
X7854110Y-13408627D01*
X7854110Y-13408627D02*
X7844586Y-13389579D01*
X7844586Y-13389579D02*
X7825538Y-13380055D01*
X7825538Y-13380055D02*
X7787443Y-13380055D01*
X7787443Y-13380055D02*
X7768396Y-13389579D01*
X7854110Y-13503865D02*
X7835062Y-13513389D01*
X7835062Y-13513389D02*
X7787443Y-13513389D01*
X7787443Y-13513389D02*
X7768396Y-13503865D01*
X7768396Y-13503865D02*
X7758872Y-13484817D01*
X7758872Y-13484817D02*
X7758872Y-13465770D01*
X7758872Y-13465770D02*
X7768396Y-13446722D01*
X7768396Y-13446722D02*
X7787443Y-13437198D01*
X7787443Y-13437198D02*
X7835062Y-13437198D01*
X7835062Y-13437198D02*
X7854110Y-13427674D01*
X7949348Y-13380055D02*
X7949348Y-13580055D01*
X7949348Y-13389579D02*
X7968396Y-13380055D01*
X7968396Y-13380055D02*
X8006491Y-13380055D01*
X8006491Y-13380055D02*
X8025538Y-13389579D01*
X8025538Y-13389579D02*
X8035062Y-13399103D01*
X8035062Y-13399103D02*
X8044586Y-13418151D01*
X8044586Y-13418151D02*
X8044586Y-13475293D01*
X8044586Y-13475293D02*
X8035062Y-13494341D01*
X8035062Y-13494341D02*
X8025538Y-13503865D01*
X8025538Y-13503865D02*
X8006491Y-13513389D01*
X8006491Y-13513389D02*
X7968396Y-13513389D01*
X7968396Y-13513389D02*
X7949348Y-13503865D01*
X8130300Y-13494341D02*
X8139824Y-13503865D01*
X8139824Y-13503865D02*
X8130300Y-13513389D01*
X8130300Y-13513389D02*
X8120777Y-13503865D01*
X8120777Y-13503865D02*
X8130300Y-13494341D01*
X8130300Y-13494341D02*
X8130300Y-13513389D01*
X8130300Y-13389579D02*
X8139824Y-13399103D01*
X8139824Y-13399103D02*
X8130300Y-13408627D01*
X8130300Y-13408627D02*
X8120777Y-13399103D01*
X8120777Y-13399103D02*
X8130300Y-13389579D01*
X8130300Y-13389579D02*
X8130300Y-13408627D01*
M02*
