M48
; DRILL file {KiCad 8.0.5} date 2024-11-14T23:49:18-0800
; FORMAT={-:-/ absolute / metric / decimal}
; #@! TF.CreationDate,2024-11-14T23:49:18-08:00
; #@! TF.GenerationSoftware,Kicad,Pcbnew,8.0.5
; #@! TF.FileFunction,Plated,1,4,PTH
FMAT,2
METRIC
; #@! TA.AperFunction,Plated,PTH,ComponentDrill
T1C0.762
; #@! TA.AperFunction,Plated,PTH,ComponentDrill
T2C0.798
; #@! TA.AperFunction,Plated,PTH,ComponentDrill
T3C0.800
; #@! TA.AperFunction,Plated,PTH,ComponentDrill
T4C1.000
; #@! TA.AperFunction,Plated,PTH,ComponentDrill
T5C1.100
%
G90
G05
T1
X70.0Y-63.48
X70.0Y-66.02
X70.0Y-68.56
X70.0Y-71.1
X98.29Y-77.239
X98.29Y-79.779
X98.29Y-82.319
X98.29Y-84.859
X98.29Y-87.399
X98.29Y-89.939
X98.29Y-92.479
X98.29Y-95.019
X104.6Y-64.9
X104.6Y-70.9
T2
X68.9Y-127.5
X70.902Y-127.5
X72.898Y-127.5
X74.9Y-127.5
X85.801Y-127.6
X87.802Y-127.6
X89.798Y-127.6
X91.8Y-127.6
X102.4Y-127.8
X104.402Y-127.8
X106.398Y-127.8
X108.4Y-127.8
T3
X70.1Y-101.82
X70.1Y-111.98
X77.5Y-101.76
X77.5Y-111.92
X85.3Y-101.72
X85.3Y-111.88
X92.3Y-101.76
X92.3Y-111.92
X99.7Y-101.72
X99.7Y-111.88
X106.8Y-101.72
X106.8Y-111.88
T4
X85.06Y-119.3
X87.6Y-119.3
X90.14Y-119.3
X92.68Y-119.3
T5
X76.76Y-62.08
X76.76Y-64.62
X76.76Y-67.16
X76.76Y-69.7
X76.76Y-72.24
X76.76Y-74.78
X76.76Y-77.32
X76.76Y-79.86
X76.76Y-82.4
X76.76Y-84.94
X76.76Y-87.48
X76.76Y-90.02
X76.76Y-92.56
X76.76Y-95.1
X79.3Y-87.48
X79.3Y-90.02
X79.3Y-95.1
X81.84Y-87.48
X81.84Y-90.02
X81.84Y-95.1
X84.38Y-87.48
X84.38Y-90.02
X84.38Y-95.1
X86.92Y-87.48
X86.92Y-90.02
X86.92Y-95.1
X89.46Y-64.62
X89.46Y-87.48
X89.46Y-90.02
X89.46Y-95.1
X92.0Y-62.08
X92.0Y-64.62
X92.0Y-67.16
X92.0Y-69.7
X92.0Y-72.24
X92.0Y-74.78
X92.0Y-77.32
X92.0Y-79.86
X92.0Y-82.4
X92.0Y-84.94
X92.0Y-87.48
X92.0Y-90.02
X92.0Y-92.56
X92.0Y-95.1
M30
