G04 #@! TF.GenerationSoftware,KiCad,Pcbnew,8.0.5*
G04 #@! TF.CreationDate,2024-11-14T23:48:56-08:00*
G04 #@! TF.ProjectId,PCB,5043422e-6b69-4636-9164-5f7063625858,rev?*
G04 #@! TF.SameCoordinates,Original*
G04 #@! TF.FileFunction,Soldermask,Bot*
G04 #@! TF.FilePolarity,Negative*
%FSLAX46Y46*%
G04 Gerber Fmt 4.6, Leading zero omitted, Abs format (unit mm)*
G04 Created by KiCad (PCBNEW 8.0.5) date 2024-11-14 23:48:56*
%MOMM*%
%LPD*%
G01*
G04 APERTURE LIST*
G04 APERTURE END LIST*
G36*
X109034740Y-128434880D02*
G01*
X107764740Y-128434880D01*
X107764740Y-127164880D01*
X109034740Y-127164880D01*
X109034740Y-128434880D01*
G37*
G36*
X102625434Y-127206265D02*
G01*
X102760981Y-127277405D01*
X102875564Y-127378917D01*
X102962525Y-127504901D01*
X103016808Y-127648035D01*
X103035260Y-127800000D01*
X103016808Y-127951965D01*
X102962525Y-128095099D01*
X102875564Y-128221083D01*
X102760981Y-128322595D01*
X102625434Y-128393735D01*
X102476801Y-128430370D01*
X102323719Y-128430370D01*
X102175086Y-128393735D01*
X102039539Y-128322595D01*
X101924956Y-128221083D01*
X101837995Y-128095099D01*
X101783712Y-127951965D01*
X101765260Y-127800000D01*
X101783712Y-127648035D01*
X101837995Y-127504901D01*
X101924956Y-127378917D01*
X102039539Y-127277405D01*
X102175086Y-127206265D01*
X102323719Y-127169630D01*
X102476801Y-127169630D01*
X102625434Y-127206265D01*
G37*
G36*
X104626954Y-127206265D02*
G01*
X104762501Y-127277405D01*
X104877084Y-127378917D01*
X104964045Y-127504901D01*
X105018328Y-127648035D01*
X105036780Y-127800000D01*
X105018328Y-127951965D01*
X104964045Y-128095099D01*
X104877084Y-128221083D01*
X104762501Y-128322595D01*
X104626954Y-128393735D01*
X104478321Y-128430370D01*
X104325239Y-128430370D01*
X104176606Y-128393735D01*
X104041059Y-128322595D01*
X103926476Y-128221083D01*
X103839515Y-128095099D01*
X103785232Y-127951965D01*
X103766780Y-127800000D01*
X103785232Y-127648035D01*
X103839515Y-127504901D01*
X103926476Y-127378917D01*
X104041059Y-127277405D01*
X104176606Y-127206265D01*
X104325239Y-127169630D01*
X104478321Y-127169630D01*
X104626954Y-127206265D01*
G37*
G36*
X106623394Y-127206265D02*
G01*
X106758941Y-127277405D01*
X106873524Y-127378917D01*
X106960485Y-127504901D01*
X107014768Y-127648035D01*
X107033220Y-127800000D01*
X107014768Y-127951965D01*
X106960485Y-128095099D01*
X106873524Y-128221083D01*
X106758941Y-128322595D01*
X106623394Y-128393735D01*
X106474761Y-128430370D01*
X106321679Y-128430370D01*
X106173046Y-128393735D01*
X106037499Y-128322595D01*
X105922916Y-128221083D01*
X105835955Y-128095099D01*
X105781672Y-127951965D01*
X105763220Y-127800000D01*
X105781672Y-127648035D01*
X105835955Y-127504901D01*
X105922916Y-127378917D01*
X106037499Y-127277405D01*
X106173046Y-127206265D01*
X106321679Y-127169630D01*
X106474761Y-127169630D01*
X106623394Y-127206265D01*
G37*
G36*
X92435000Y-128235000D02*
G01*
X91165000Y-128235000D01*
X91165000Y-126965000D01*
X92435000Y-126965000D01*
X92435000Y-128235000D01*
G37*
G36*
X86025694Y-127006385D02*
G01*
X86161241Y-127077525D01*
X86275824Y-127179037D01*
X86362785Y-127305021D01*
X86417068Y-127448155D01*
X86435520Y-127600120D01*
X86417068Y-127752085D01*
X86362785Y-127895219D01*
X86275824Y-128021203D01*
X86161241Y-128122715D01*
X86025694Y-128193855D01*
X85877061Y-128230490D01*
X85723979Y-128230490D01*
X85575346Y-128193855D01*
X85439799Y-128122715D01*
X85325216Y-128021203D01*
X85238255Y-127895219D01*
X85183972Y-127752085D01*
X85165520Y-127600120D01*
X85183972Y-127448155D01*
X85238255Y-127305021D01*
X85325216Y-127179037D01*
X85439799Y-127077525D01*
X85575346Y-127006385D01*
X85723979Y-126969750D01*
X85877061Y-126969750D01*
X86025694Y-127006385D01*
G37*
G36*
X88027214Y-127006385D02*
G01*
X88162761Y-127077525D01*
X88277344Y-127179037D01*
X88364305Y-127305021D01*
X88418588Y-127448155D01*
X88437040Y-127600120D01*
X88418588Y-127752085D01*
X88364305Y-127895219D01*
X88277344Y-128021203D01*
X88162761Y-128122715D01*
X88027214Y-128193855D01*
X87878581Y-128230490D01*
X87725499Y-128230490D01*
X87576866Y-128193855D01*
X87441319Y-128122715D01*
X87326736Y-128021203D01*
X87239775Y-127895219D01*
X87185492Y-127752085D01*
X87167040Y-127600120D01*
X87185492Y-127448155D01*
X87239775Y-127305021D01*
X87326736Y-127179037D01*
X87441319Y-127077525D01*
X87576866Y-127006385D01*
X87725499Y-126969750D01*
X87878581Y-126969750D01*
X88027214Y-127006385D01*
G37*
G36*
X90023654Y-127006385D02*
G01*
X90159201Y-127077525D01*
X90273784Y-127179037D01*
X90360745Y-127305021D01*
X90415028Y-127448155D01*
X90433480Y-127600120D01*
X90415028Y-127752085D01*
X90360745Y-127895219D01*
X90273784Y-128021203D01*
X90159201Y-128122715D01*
X90023654Y-128193855D01*
X89875021Y-128230490D01*
X89721939Y-128230490D01*
X89573306Y-128193855D01*
X89437759Y-128122715D01*
X89323176Y-128021203D01*
X89236215Y-127895219D01*
X89181932Y-127752085D01*
X89163480Y-127600120D01*
X89181932Y-127448155D01*
X89236215Y-127305021D01*
X89323176Y-127179037D01*
X89437759Y-127077525D01*
X89573306Y-127006385D01*
X89721939Y-126969750D01*
X89875021Y-126969750D01*
X90023654Y-127006385D01*
G37*
G36*
X75534740Y-128134880D02*
G01*
X74264740Y-128134880D01*
X74264740Y-126864880D01*
X75534740Y-126864880D01*
X75534740Y-128134880D01*
G37*
G36*
X69125434Y-126906265D02*
G01*
X69260981Y-126977405D01*
X69375564Y-127078917D01*
X69462525Y-127204901D01*
X69516808Y-127348035D01*
X69535260Y-127500000D01*
X69516808Y-127651965D01*
X69462525Y-127795099D01*
X69375564Y-127921083D01*
X69260981Y-128022595D01*
X69125434Y-128093735D01*
X68976801Y-128130370D01*
X68823719Y-128130370D01*
X68675086Y-128093735D01*
X68539539Y-128022595D01*
X68424956Y-127921083D01*
X68337995Y-127795099D01*
X68283712Y-127651965D01*
X68265260Y-127500000D01*
X68283712Y-127348035D01*
X68337995Y-127204901D01*
X68424956Y-127078917D01*
X68539539Y-126977405D01*
X68675086Y-126906265D01*
X68823719Y-126869630D01*
X68976801Y-126869630D01*
X69125434Y-126906265D01*
G37*
G36*
X71126954Y-126906265D02*
G01*
X71262501Y-126977405D01*
X71377084Y-127078917D01*
X71464045Y-127204901D01*
X71518328Y-127348035D01*
X71536780Y-127500000D01*
X71518328Y-127651965D01*
X71464045Y-127795099D01*
X71377084Y-127921083D01*
X71262501Y-128022595D01*
X71126954Y-128093735D01*
X70978321Y-128130370D01*
X70825239Y-128130370D01*
X70676606Y-128093735D01*
X70541059Y-128022595D01*
X70426476Y-127921083D01*
X70339515Y-127795099D01*
X70285232Y-127651965D01*
X70266780Y-127500000D01*
X70285232Y-127348035D01*
X70339515Y-127204901D01*
X70426476Y-127078917D01*
X70541059Y-126977405D01*
X70676606Y-126906265D01*
X70825239Y-126869630D01*
X70978321Y-126869630D01*
X71126954Y-126906265D01*
G37*
G36*
X73123394Y-126906265D02*
G01*
X73258941Y-126977405D01*
X73373524Y-127078917D01*
X73460485Y-127204901D01*
X73514768Y-127348035D01*
X73533220Y-127500000D01*
X73514768Y-127651965D01*
X73460485Y-127795099D01*
X73373524Y-127921083D01*
X73258941Y-128022595D01*
X73123394Y-128093735D01*
X72974761Y-128130370D01*
X72821679Y-128130370D01*
X72673046Y-128093735D01*
X72537499Y-128022595D01*
X72422916Y-127921083D01*
X72335955Y-127795099D01*
X72281672Y-127651965D01*
X72263220Y-127500000D01*
X72281672Y-127348035D01*
X72335955Y-127204901D01*
X72422916Y-127078917D01*
X72537499Y-126977405D01*
X72673046Y-126906265D01*
X72821679Y-126869630D01*
X72974761Y-126869630D01*
X73123394Y-126906265D01*
G37*
G36*
X93530000Y-120150000D02*
G01*
X91830000Y-120150000D01*
X91830000Y-118450000D01*
X93530000Y-118450000D01*
X93530000Y-120150000D01*
G37*
G36*
X85322664Y-118491602D02*
G01*
X85485000Y-118563878D01*
X85628761Y-118668327D01*
X85747664Y-118800383D01*
X85836514Y-118954274D01*
X85891425Y-119123275D01*
X85910000Y-119300000D01*
X85891425Y-119476725D01*
X85836514Y-119645726D01*
X85747664Y-119799617D01*
X85628761Y-119931673D01*
X85485000Y-120036122D01*
X85322664Y-120108398D01*
X85148849Y-120145344D01*
X84971151Y-120145344D01*
X84797336Y-120108398D01*
X84635000Y-120036122D01*
X84491239Y-119931673D01*
X84372336Y-119799617D01*
X84283486Y-119645726D01*
X84228575Y-119476725D01*
X84210000Y-119300000D01*
X84228575Y-119123275D01*
X84283486Y-118954274D01*
X84372336Y-118800383D01*
X84491239Y-118668327D01*
X84635000Y-118563878D01*
X84797336Y-118491602D01*
X84971151Y-118454656D01*
X85148849Y-118454656D01*
X85322664Y-118491602D01*
G37*
G36*
X87862664Y-118491602D02*
G01*
X88025000Y-118563878D01*
X88168761Y-118668327D01*
X88287664Y-118800383D01*
X88376514Y-118954274D01*
X88431425Y-119123275D01*
X88450000Y-119300000D01*
X88431425Y-119476725D01*
X88376514Y-119645726D01*
X88287664Y-119799617D01*
X88168761Y-119931673D01*
X88025000Y-120036122D01*
X87862664Y-120108398D01*
X87688849Y-120145344D01*
X87511151Y-120145344D01*
X87337336Y-120108398D01*
X87175000Y-120036122D01*
X87031239Y-119931673D01*
X86912336Y-119799617D01*
X86823486Y-119645726D01*
X86768575Y-119476725D01*
X86750000Y-119300000D01*
X86768575Y-119123275D01*
X86823486Y-118954274D01*
X86912336Y-118800383D01*
X87031239Y-118668327D01*
X87175000Y-118563878D01*
X87337336Y-118491602D01*
X87511151Y-118454656D01*
X87688849Y-118454656D01*
X87862664Y-118491602D01*
G37*
G36*
X90402664Y-118491602D02*
G01*
X90565000Y-118563878D01*
X90708761Y-118668327D01*
X90827664Y-118800383D01*
X90916514Y-118954274D01*
X90971425Y-119123275D01*
X90990000Y-119300000D01*
X90971425Y-119476725D01*
X90916514Y-119645726D01*
X90827664Y-119799617D01*
X90708761Y-119931673D01*
X90565000Y-120036122D01*
X90402664Y-120108398D01*
X90228849Y-120145344D01*
X90051151Y-120145344D01*
X89877336Y-120108398D01*
X89715000Y-120036122D01*
X89571239Y-119931673D01*
X89452336Y-119799617D01*
X89363486Y-119645726D01*
X89308575Y-119476725D01*
X89290000Y-119300000D01*
X89308575Y-119123275D01*
X89363486Y-118954274D01*
X89452336Y-118800383D01*
X89571239Y-118668327D01*
X89715000Y-118563878D01*
X89877336Y-118491602D01*
X90051151Y-118454656D01*
X90228849Y-118454656D01*
X90402664Y-118491602D01*
G37*
G36*
X70141811Y-111184711D02*
G01*
X70183588Y-111184711D01*
X70230718Y-111194728D01*
X70278017Y-111200058D01*
X70312408Y-111212092D01*
X70347110Y-111219468D01*
X70397117Y-111241733D01*
X70447107Y-111259225D01*
X70473128Y-111275575D01*
X70499835Y-111287466D01*
X70549633Y-111323646D01*
X70598792Y-111354535D01*
X70616444Y-111372187D01*
X70635084Y-111385730D01*
X70681165Y-111436908D01*
X70725465Y-111481208D01*
X70735654Y-111497424D01*
X70746946Y-111509965D01*
X70785573Y-111576870D01*
X70820775Y-111632893D01*
X70825170Y-111645453D01*
X70830535Y-111654746D01*
X70858010Y-111739305D01*
X70879942Y-111801983D01*
X70880773Y-111809363D01*
X70882195Y-111813738D01*
X70895076Y-111936306D01*
X70900000Y-111980000D01*
X70895076Y-112023697D01*
X70882195Y-112146261D01*
X70880773Y-112150635D01*
X70879942Y-112158017D01*
X70858005Y-112220707D01*
X70830535Y-112305253D01*
X70825171Y-112314543D01*
X70820775Y-112327107D01*
X70785566Y-112383140D01*
X70746946Y-112450034D01*
X70735656Y-112462572D01*
X70725465Y-112478792D01*
X70681155Y-112523101D01*
X70635084Y-112574269D01*
X70616448Y-112587808D01*
X70598792Y-112605465D01*
X70549623Y-112636359D01*
X70499835Y-112672533D01*
X70473134Y-112684421D01*
X70447107Y-112700775D01*
X70397107Y-112718270D01*
X70347110Y-112740531D01*
X70312414Y-112747905D01*
X70278017Y-112759942D01*
X70230715Y-112765271D01*
X70183588Y-112775289D01*
X70141811Y-112775289D01*
X70100000Y-112780000D01*
X70058189Y-112775289D01*
X70016412Y-112775289D01*
X69969284Y-112765271D01*
X69921983Y-112759942D01*
X69887586Y-112747906D01*
X69852889Y-112740531D01*
X69802887Y-112718268D01*
X69752893Y-112700775D01*
X69726868Y-112684422D01*
X69700164Y-112672533D01*
X69650369Y-112636355D01*
X69601208Y-112605465D01*
X69583554Y-112587811D01*
X69564915Y-112574269D01*
X69518833Y-112523090D01*
X69474535Y-112478792D01*
X69464345Y-112462575D01*
X69453053Y-112450034D01*
X69414420Y-112383120D01*
X69379225Y-112327107D01*
X69374830Y-112314547D01*
X69369464Y-112305253D01*
X69341980Y-112220667D01*
X69320058Y-112158017D01*
X69319226Y-112150639D01*
X69317804Y-112146261D01*
X69304908Y-112023565D01*
X69300000Y-111980000D01*
X69304908Y-111936438D01*
X69317804Y-111813738D01*
X69319226Y-111809358D01*
X69320058Y-111801983D01*
X69341975Y-111739345D01*
X69369464Y-111654746D01*
X69374831Y-111645449D01*
X69379225Y-111632893D01*
X69414413Y-111576890D01*
X69453053Y-111509965D01*
X69464347Y-111497421D01*
X69474535Y-111481208D01*
X69518826Y-111436916D01*
X69564917Y-111385728D01*
X69583559Y-111372183D01*
X69601208Y-111354535D01*
X69650354Y-111323654D01*
X69700162Y-111287467D01*
X69726873Y-111275574D01*
X69752893Y-111259225D01*
X69802877Y-111241734D01*
X69852889Y-111219468D01*
X69887592Y-111212091D01*
X69921983Y-111200058D01*
X69969281Y-111194728D01*
X70016412Y-111184711D01*
X70058189Y-111184711D01*
X70100000Y-111180000D01*
X70141811Y-111184711D01*
G37*
G36*
X77541811Y-111124711D02*
G01*
X77583588Y-111124711D01*
X77630718Y-111134728D01*
X77678017Y-111140058D01*
X77712408Y-111152092D01*
X77747110Y-111159468D01*
X77797117Y-111181733D01*
X77847107Y-111199225D01*
X77873128Y-111215575D01*
X77899835Y-111227466D01*
X77949633Y-111263646D01*
X77998792Y-111294535D01*
X78016444Y-111312187D01*
X78035084Y-111325730D01*
X78081165Y-111376908D01*
X78125465Y-111421208D01*
X78135654Y-111437424D01*
X78146946Y-111449965D01*
X78185573Y-111516870D01*
X78220775Y-111572893D01*
X78225170Y-111585453D01*
X78230535Y-111594746D01*
X78258010Y-111679305D01*
X78279942Y-111741983D01*
X78280773Y-111749363D01*
X78282195Y-111753738D01*
X78295076Y-111876306D01*
X78300000Y-111920000D01*
X78295076Y-111963697D01*
X78282195Y-112086261D01*
X78280773Y-112090635D01*
X78279942Y-112098017D01*
X78258005Y-112160707D01*
X78230535Y-112245253D01*
X78225171Y-112254543D01*
X78220775Y-112267107D01*
X78185566Y-112323140D01*
X78146946Y-112390034D01*
X78135656Y-112402572D01*
X78125465Y-112418792D01*
X78081155Y-112463101D01*
X78035084Y-112514269D01*
X78016448Y-112527808D01*
X77998792Y-112545465D01*
X77949623Y-112576359D01*
X77899835Y-112612533D01*
X77873134Y-112624421D01*
X77847107Y-112640775D01*
X77797107Y-112658270D01*
X77747110Y-112680531D01*
X77712414Y-112687905D01*
X77678017Y-112699942D01*
X77630715Y-112705271D01*
X77583588Y-112715289D01*
X77541811Y-112715289D01*
X77500000Y-112720000D01*
X77458189Y-112715289D01*
X77416412Y-112715289D01*
X77369284Y-112705271D01*
X77321983Y-112699942D01*
X77287586Y-112687906D01*
X77252889Y-112680531D01*
X77202887Y-112658268D01*
X77152893Y-112640775D01*
X77126868Y-112624422D01*
X77100164Y-112612533D01*
X77050369Y-112576355D01*
X77001208Y-112545465D01*
X76983554Y-112527811D01*
X76964915Y-112514269D01*
X76918833Y-112463090D01*
X76874535Y-112418792D01*
X76864345Y-112402575D01*
X76853053Y-112390034D01*
X76814420Y-112323120D01*
X76779225Y-112267107D01*
X76774830Y-112254547D01*
X76769464Y-112245253D01*
X76741980Y-112160667D01*
X76720058Y-112098017D01*
X76719226Y-112090639D01*
X76717804Y-112086261D01*
X76704908Y-111963565D01*
X76700000Y-111920000D01*
X76704908Y-111876438D01*
X76717804Y-111753738D01*
X76719226Y-111749358D01*
X76720058Y-111741983D01*
X76741975Y-111679345D01*
X76769464Y-111594746D01*
X76774831Y-111585449D01*
X76779225Y-111572893D01*
X76814413Y-111516890D01*
X76853053Y-111449965D01*
X76864347Y-111437421D01*
X76874535Y-111421208D01*
X76918826Y-111376916D01*
X76964917Y-111325728D01*
X76983559Y-111312183D01*
X77001208Y-111294535D01*
X77050354Y-111263654D01*
X77100162Y-111227467D01*
X77126873Y-111215574D01*
X77152893Y-111199225D01*
X77202877Y-111181734D01*
X77252889Y-111159468D01*
X77287592Y-111152091D01*
X77321983Y-111140058D01*
X77369281Y-111134728D01*
X77416412Y-111124711D01*
X77458189Y-111124711D01*
X77500000Y-111120000D01*
X77541811Y-111124711D01*
G37*
G36*
X92341811Y-111124711D02*
G01*
X92383588Y-111124711D01*
X92430718Y-111134728D01*
X92478017Y-111140058D01*
X92512408Y-111152092D01*
X92547110Y-111159468D01*
X92597117Y-111181733D01*
X92647107Y-111199225D01*
X92673128Y-111215575D01*
X92699835Y-111227466D01*
X92749633Y-111263646D01*
X92798792Y-111294535D01*
X92816444Y-111312187D01*
X92835084Y-111325730D01*
X92881165Y-111376908D01*
X92925465Y-111421208D01*
X92935654Y-111437424D01*
X92946946Y-111449965D01*
X92985573Y-111516870D01*
X93020775Y-111572893D01*
X93025170Y-111585453D01*
X93030535Y-111594746D01*
X93058010Y-111679305D01*
X93079942Y-111741983D01*
X93080773Y-111749363D01*
X93082195Y-111753738D01*
X93095076Y-111876306D01*
X93100000Y-111920000D01*
X93095076Y-111963697D01*
X93082195Y-112086261D01*
X93080773Y-112090635D01*
X93079942Y-112098017D01*
X93058005Y-112160707D01*
X93030535Y-112245253D01*
X93025171Y-112254543D01*
X93020775Y-112267107D01*
X92985566Y-112323140D01*
X92946946Y-112390034D01*
X92935656Y-112402572D01*
X92925465Y-112418792D01*
X92881155Y-112463101D01*
X92835084Y-112514269D01*
X92816448Y-112527808D01*
X92798792Y-112545465D01*
X92749623Y-112576359D01*
X92699835Y-112612533D01*
X92673134Y-112624421D01*
X92647107Y-112640775D01*
X92597107Y-112658270D01*
X92547110Y-112680531D01*
X92512414Y-112687905D01*
X92478017Y-112699942D01*
X92430715Y-112705271D01*
X92383588Y-112715289D01*
X92341811Y-112715289D01*
X92300000Y-112720000D01*
X92258189Y-112715289D01*
X92216412Y-112715289D01*
X92169284Y-112705271D01*
X92121983Y-112699942D01*
X92087586Y-112687906D01*
X92052889Y-112680531D01*
X92002887Y-112658268D01*
X91952893Y-112640775D01*
X91926868Y-112624422D01*
X91900164Y-112612533D01*
X91850369Y-112576355D01*
X91801208Y-112545465D01*
X91783554Y-112527811D01*
X91764915Y-112514269D01*
X91718833Y-112463090D01*
X91674535Y-112418792D01*
X91664345Y-112402575D01*
X91653053Y-112390034D01*
X91614420Y-112323120D01*
X91579225Y-112267107D01*
X91574830Y-112254547D01*
X91569464Y-112245253D01*
X91541980Y-112160667D01*
X91520058Y-112098017D01*
X91519226Y-112090639D01*
X91517804Y-112086261D01*
X91504908Y-111963565D01*
X91500000Y-111920000D01*
X91504908Y-111876438D01*
X91517804Y-111753738D01*
X91519226Y-111749358D01*
X91520058Y-111741983D01*
X91541975Y-111679345D01*
X91569464Y-111594746D01*
X91574831Y-111585449D01*
X91579225Y-111572893D01*
X91614413Y-111516890D01*
X91653053Y-111449965D01*
X91664347Y-111437421D01*
X91674535Y-111421208D01*
X91718826Y-111376916D01*
X91764917Y-111325728D01*
X91783559Y-111312183D01*
X91801208Y-111294535D01*
X91850354Y-111263654D01*
X91900162Y-111227467D01*
X91926873Y-111215574D01*
X91952893Y-111199225D01*
X92002877Y-111181734D01*
X92052889Y-111159468D01*
X92087592Y-111152091D01*
X92121983Y-111140058D01*
X92169281Y-111134728D01*
X92216412Y-111124711D01*
X92258189Y-111124711D01*
X92300000Y-111120000D01*
X92341811Y-111124711D01*
G37*
G36*
X85341811Y-111084711D02*
G01*
X85383588Y-111084711D01*
X85430718Y-111094728D01*
X85478017Y-111100058D01*
X85512408Y-111112092D01*
X85547110Y-111119468D01*
X85597117Y-111141733D01*
X85647107Y-111159225D01*
X85673128Y-111175575D01*
X85699835Y-111187466D01*
X85749633Y-111223646D01*
X85798792Y-111254535D01*
X85816444Y-111272187D01*
X85835084Y-111285730D01*
X85881165Y-111336908D01*
X85925465Y-111381208D01*
X85935654Y-111397424D01*
X85946946Y-111409965D01*
X85985573Y-111476870D01*
X86020775Y-111532893D01*
X86025170Y-111545453D01*
X86030535Y-111554746D01*
X86058010Y-111639305D01*
X86079942Y-111701983D01*
X86080773Y-111709363D01*
X86082195Y-111713738D01*
X86095076Y-111836306D01*
X86100000Y-111880000D01*
X86095076Y-111923697D01*
X86082195Y-112046261D01*
X86080773Y-112050635D01*
X86079942Y-112058017D01*
X86058005Y-112120707D01*
X86030535Y-112205253D01*
X86025171Y-112214543D01*
X86020775Y-112227107D01*
X85985566Y-112283140D01*
X85946946Y-112350034D01*
X85935656Y-112362572D01*
X85925465Y-112378792D01*
X85881155Y-112423101D01*
X85835084Y-112474269D01*
X85816448Y-112487808D01*
X85798792Y-112505465D01*
X85749623Y-112536359D01*
X85699835Y-112572533D01*
X85673134Y-112584421D01*
X85647107Y-112600775D01*
X85597107Y-112618270D01*
X85547110Y-112640531D01*
X85512414Y-112647905D01*
X85478017Y-112659942D01*
X85430715Y-112665271D01*
X85383588Y-112675289D01*
X85341811Y-112675289D01*
X85300000Y-112680000D01*
X85258189Y-112675289D01*
X85216412Y-112675289D01*
X85169284Y-112665271D01*
X85121983Y-112659942D01*
X85087586Y-112647906D01*
X85052889Y-112640531D01*
X85002887Y-112618268D01*
X84952893Y-112600775D01*
X84926868Y-112584422D01*
X84900164Y-112572533D01*
X84850369Y-112536355D01*
X84801208Y-112505465D01*
X84783554Y-112487811D01*
X84764915Y-112474269D01*
X84718833Y-112423090D01*
X84674535Y-112378792D01*
X84664345Y-112362575D01*
X84653053Y-112350034D01*
X84614420Y-112283120D01*
X84579225Y-112227107D01*
X84574830Y-112214547D01*
X84569464Y-112205253D01*
X84541980Y-112120667D01*
X84520058Y-112058017D01*
X84519226Y-112050639D01*
X84517804Y-112046261D01*
X84504908Y-111923565D01*
X84500000Y-111880000D01*
X84504908Y-111836438D01*
X84517804Y-111713738D01*
X84519226Y-111709358D01*
X84520058Y-111701983D01*
X84541975Y-111639345D01*
X84569464Y-111554746D01*
X84574831Y-111545449D01*
X84579225Y-111532893D01*
X84614413Y-111476890D01*
X84653053Y-111409965D01*
X84664347Y-111397421D01*
X84674535Y-111381208D01*
X84718826Y-111336916D01*
X84764917Y-111285728D01*
X84783559Y-111272183D01*
X84801208Y-111254535D01*
X84850354Y-111223654D01*
X84900162Y-111187467D01*
X84926873Y-111175574D01*
X84952893Y-111159225D01*
X85002877Y-111141734D01*
X85052889Y-111119468D01*
X85087592Y-111112091D01*
X85121983Y-111100058D01*
X85169281Y-111094728D01*
X85216412Y-111084711D01*
X85258189Y-111084711D01*
X85300000Y-111080000D01*
X85341811Y-111084711D01*
G37*
G36*
X99741811Y-111084711D02*
G01*
X99783588Y-111084711D01*
X99830718Y-111094728D01*
X99878017Y-111100058D01*
X99912408Y-111112092D01*
X99947110Y-111119468D01*
X99997117Y-111141733D01*
X100047107Y-111159225D01*
X100073128Y-111175575D01*
X100099835Y-111187466D01*
X100149633Y-111223646D01*
X100198792Y-111254535D01*
X100216444Y-111272187D01*
X100235084Y-111285730D01*
X100281165Y-111336908D01*
X100325465Y-111381208D01*
X100335654Y-111397424D01*
X100346946Y-111409965D01*
X100385573Y-111476870D01*
X100420775Y-111532893D01*
X100425170Y-111545453D01*
X100430535Y-111554746D01*
X100458010Y-111639305D01*
X100479942Y-111701983D01*
X100480773Y-111709363D01*
X100482195Y-111713738D01*
X100495076Y-111836306D01*
X100500000Y-111880000D01*
X100495076Y-111923697D01*
X100482195Y-112046261D01*
X100480773Y-112050635D01*
X100479942Y-112058017D01*
X100458005Y-112120707D01*
X100430535Y-112205253D01*
X100425171Y-112214543D01*
X100420775Y-112227107D01*
X100385566Y-112283140D01*
X100346946Y-112350034D01*
X100335656Y-112362572D01*
X100325465Y-112378792D01*
X100281155Y-112423101D01*
X100235084Y-112474269D01*
X100216448Y-112487808D01*
X100198792Y-112505465D01*
X100149623Y-112536359D01*
X100099835Y-112572533D01*
X100073134Y-112584421D01*
X100047107Y-112600775D01*
X99997107Y-112618270D01*
X99947110Y-112640531D01*
X99912414Y-112647905D01*
X99878017Y-112659942D01*
X99830715Y-112665271D01*
X99783588Y-112675289D01*
X99741811Y-112675289D01*
X99700000Y-112680000D01*
X99658189Y-112675289D01*
X99616412Y-112675289D01*
X99569284Y-112665271D01*
X99521983Y-112659942D01*
X99487586Y-112647906D01*
X99452889Y-112640531D01*
X99402887Y-112618268D01*
X99352893Y-112600775D01*
X99326868Y-112584422D01*
X99300164Y-112572533D01*
X99250369Y-112536355D01*
X99201208Y-112505465D01*
X99183554Y-112487811D01*
X99164915Y-112474269D01*
X99118833Y-112423090D01*
X99074535Y-112378792D01*
X99064345Y-112362575D01*
X99053053Y-112350034D01*
X99014420Y-112283120D01*
X98979225Y-112227107D01*
X98974830Y-112214547D01*
X98969464Y-112205253D01*
X98941980Y-112120667D01*
X98920058Y-112058017D01*
X98919226Y-112050639D01*
X98917804Y-112046261D01*
X98904908Y-111923565D01*
X98900000Y-111880000D01*
X98904908Y-111836438D01*
X98917804Y-111713738D01*
X98919226Y-111709358D01*
X98920058Y-111701983D01*
X98941975Y-111639345D01*
X98969464Y-111554746D01*
X98974831Y-111545449D01*
X98979225Y-111532893D01*
X99014413Y-111476890D01*
X99053053Y-111409965D01*
X99064347Y-111397421D01*
X99074535Y-111381208D01*
X99118826Y-111336916D01*
X99164917Y-111285728D01*
X99183559Y-111272183D01*
X99201208Y-111254535D01*
X99250354Y-111223654D01*
X99300162Y-111187467D01*
X99326873Y-111175574D01*
X99352893Y-111159225D01*
X99402877Y-111141734D01*
X99452889Y-111119468D01*
X99487592Y-111112091D01*
X99521983Y-111100058D01*
X99569281Y-111094728D01*
X99616412Y-111084711D01*
X99658189Y-111084711D01*
X99700000Y-111080000D01*
X99741811Y-111084711D01*
G37*
G36*
X106841811Y-111084711D02*
G01*
X106883588Y-111084711D01*
X106930718Y-111094728D01*
X106978017Y-111100058D01*
X107012408Y-111112092D01*
X107047110Y-111119468D01*
X107097117Y-111141733D01*
X107147107Y-111159225D01*
X107173128Y-111175575D01*
X107199835Y-111187466D01*
X107249633Y-111223646D01*
X107298792Y-111254535D01*
X107316444Y-111272187D01*
X107335084Y-111285730D01*
X107381165Y-111336908D01*
X107425465Y-111381208D01*
X107435654Y-111397424D01*
X107446946Y-111409965D01*
X107485573Y-111476870D01*
X107520775Y-111532893D01*
X107525170Y-111545453D01*
X107530535Y-111554746D01*
X107558010Y-111639305D01*
X107579942Y-111701983D01*
X107580773Y-111709363D01*
X107582195Y-111713738D01*
X107595076Y-111836306D01*
X107600000Y-111880000D01*
X107595076Y-111923697D01*
X107582195Y-112046261D01*
X107580773Y-112050635D01*
X107579942Y-112058017D01*
X107558005Y-112120707D01*
X107530535Y-112205253D01*
X107525171Y-112214543D01*
X107520775Y-112227107D01*
X107485566Y-112283140D01*
X107446946Y-112350034D01*
X107435656Y-112362572D01*
X107425465Y-112378792D01*
X107381155Y-112423101D01*
X107335084Y-112474269D01*
X107316448Y-112487808D01*
X107298792Y-112505465D01*
X107249623Y-112536359D01*
X107199835Y-112572533D01*
X107173134Y-112584421D01*
X107147107Y-112600775D01*
X107097107Y-112618270D01*
X107047110Y-112640531D01*
X107012414Y-112647905D01*
X106978017Y-112659942D01*
X106930715Y-112665271D01*
X106883588Y-112675289D01*
X106841811Y-112675289D01*
X106800000Y-112680000D01*
X106758189Y-112675289D01*
X106716412Y-112675289D01*
X106669284Y-112665271D01*
X106621983Y-112659942D01*
X106587586Y-112647906D01*
X106552889Y-112640531D01*
X106502887Y-112618268D01*
X106452893Y-112600775D01*
X106426868Y-112584422D01*
X106400164Y-112572533D01*
X106350369Y-112536355D01*
X106301208Y-112505465D01*
X106283554Y-112487811D01*
X106264915Y-112474269D01*
X106218833Y-112423090D01*
X106174535Y-112378792D01*
X106164345Y-112362575D01*
X106153053Y-112350034D01*
X106114420Y-112283120D01*
X106079225Y-112227107D01*
X106074830Y-112214547D01*
X106069464Y-112205253D01*
X106041980Y-112120667D01*
X106020058Y-112058017D01*
X106019226Y-112050639D01*
X106017804Y-112046261D01*
X106004908Y-111923565D01*
X106000000Y-111880000D01*
X106004908Y-111836438D01*
X106017804Y-111713738D01*
X106019226Y-111709358D01*
X106020058Y-111701983D01*
X106041975Y-111639345D01*
X106069464Y-111554746D01*
X106074831Y-111545449D01*
X106079225Y-111532893D01*
X106114413Y-111476890D01*
X106153053Y-111409965D01*
X106164347Y-111397421D01*
X106174535Y-111381208D01*
X106218826Y-111336916D01*
X106264917Y-111285728D01*
X106283559Y-111272183D01*
X106301208Y-111254535D01*
X106350354Y-111223654D01*
X106400162Y-111187467D01*
X106426873Y-111175574D01*
X106452893Y-111159225D01*
X106502877Y-111141734D01*
X106552889Y-111119468D01*
X106587592Y-111112091D01*
X106621983Y-111100058D01*
X106669281Y-111094728D01*
X106716412Y-111084711D01*
X106758189Y-111084711D01*
X106800000Y-111080000D01*
X106841811Y-111084711D01*
G37*
G36*
X70141811Y-101024711D02*
G01*
X70183588Y-101024711D01*
X70230718Y-101034728D01*
X70278017Y-101040058D01*
X70312408Y-101052092D01*
X70347110Y-101059468D01*
X70397117Y-101081733D01*
X70447107Y-101099225D01*
X70473128Y-101115575D01*
X70499835Y-101127466D01*
X70549633Y-101163646D01*
X70598792Y-101194535D01*
X70616444Y-101212187D01*
X70635084Y-101225730D01*
X70681165Y-101276908D01*
X70725465Y-101321208D01*
X70735654Y-101337424D01*
X70746946Y-101349965D01*
X70785573Y-101416870D01*
X70820775Y-101472893D01*
X70825170Y-101485453D01*
X70830535Y-101494746D01*
X70858010Y-101579305D01*
X70879942Y-101641983D01*
X70880773Y-101649363D01*
X70882195Y-101653738D01*
X70895076Y-101776306D01*
X70900000Y-101820000D01*
X70895076Y-101863697D01*
X70882195Y-101986261D01*
X70880773Y-101990635D01*
X70879942Y-101998017D01*
X70858005Y-102060707D01*
X70830535Y-102145253D01*
X70825171Y-102154543D01*
X70820775Y-102167107D01*
X70785566Y-102223140D01*
X70746946Y-102290034D01*
X70735656Y-102302572D01*
X70725465Y-102318792D01*
X70681155Y-102363101D01*
X70635084Y-102414269D01*
X70616448Y-102427808D01*
X70598792Y-102445465D01*
X70549623Y-102476359D01*
X70499835Y-102512533D01*
X70473134Y-102524421D01*
X70447107Y-102540775D01*
X70397107Y-102558270D01*
X70347110Y-102580531D01*
X70312414Y-102587905D01*
X70278017Y-102599942D01*
X70230715Y-102605271D01*
X70183588Y-102615289D01*
X70141811Y-102615289D01*
X70100000Y-102620000D01*
X70058189Y-102615289D01*
X70016412Y-102615289D01*
X69969284Y-102605271D01*
X69921983Y-102599942D01*
X69887586Y-102587906D01*
X69852889Y-102580531D01*
X69802887Y-102558268D01*
X69752893Y-102540775D01*
X69726868Y-102524422D01*
X69700164Y-102512533D01*
X69650369Y-102476355D01*
X69601208Y-102445465D01*
X69583554Y-102427811D01*
X69564915Y-102414269D01*
X69518833Y-102363090D01*
X69474535Y-102318792D01*
X69464345Y-102302575D01*
X69453053Y-102290034D01*
X69414420Y-102223120D01*
X69379225Y-102167107D01*
X69374830Y-102154547D01*
X69369464Y-102145253D01*
X69341980Y-102060667D01*
X69320058Y-101998017D01*
X69319226Y-101990639D01*
X69317804Y-101986261D01*
X69304908Y-101863565D01*
X69300000Y-101820000D01*
X69304908Y-101776438D01*
X69317804Y-101653738D01*
X69319226Y-101649358D01*
X69320058Y-101641983D01*
X69341975Y-101579345D01*
X69369464Y-101494746D01*
X69374831Y-101485449D01*
X69379225Y-101472893D01*
X69414413Y-101416890D01*
X69453053Y-101349965D01*
X69464347Y-101337421D01*
X69474535Y-101321208D01*
X69518826Y-101276916D01*
X69564917Y-101225728D01*
X69583559Y-101212183D01*
X69601208Y-101194535D01*
X69650354Y-101163654D01*
X69700162Y-101127467D01*
X69726873Y-101115574D01*
X69752893Y-101099225D01*
X69802877Y-101081734D01*
X69852889Y-101059468D01*
X69887592Y-101052091D01*
X69921983Y-101040058D01*
X69969281Y-101034728D01*
X70016412Y-101024711D01*
X70058189Y-101024711D01*
X70100000Y-101020000D01*
X70141811Y-101024711D01*
G37*
G36*
X77541811Y-100964711D02*
G01*
X77583588Y-100964711D01*
X77630718Y-100974728D01*
X77678017Y-100980058D01*
X77712408Y-100992092D01*
X77747110Y-100999468D01*
X77797117Y-101021733D01*
X77847107Y-101039225D01*
X77873128Y-101055575D01*
X77899835Y-101067466D01*
X77949633Y-101103646D01*
X77998792Y-101134535D01*
X78016444Y-101152187D01*
X78035084Y-101165730D01*
X78081165Y-101216908D01*
X78125465Y-101261208D01*
X78135654Y-101277424D01*
X78146946Y-101289965D01*
X78185573Y-101356870D01*
X78220775Y-101412893D01*
X78225170Y-101425453D01*
X78230535Y-101434746D01*
X78258010Y-101519305D01*
X78279942Y-101581983D01*
X78280773Y-101589363D01*
X78282195Y-101593738D01*
X78295076Y-101716306D01*
X78300000Y-101760000D01*
X78295076Y-101803697D01*
X78282195Y-101926261D01*
X78280773Y-101930635D01*
X78279942Y-101938017D01*
X78258005Y-102000707D01*
X78230535Y-102085253D01*
X78225171Y-102094543D01*
X78220775Y-102107107D01*
X78185566Y-102163140D01*
X78146946Y-102230034D01*
X78135656Y-102242572D01*
X78125465Y-102258792D01*
X78081155Y-102303101D01*
X78035084Y-102354269D01*
X78016448Y-102367808D01*
X77998792Y-102385465D01*
X77949623Y-102416359D01*
X77899835Y-102452533D01*
X77873134Y-102464421D01*
X77847107Y-102480775D01*
X77797107Y-102498270D01*
X77747110Y-102520531D01*
X77712414Y-102527905D01*
X77678017Y-102539942D01*
X77630715Y-102545271D01*
X77583588Y-102555289D01*
X77541811Y-102555289D01*
X77500000Y-102560000D01*
X77458189Y-102555289D01*
X77416412Y-102555289D01*
X77369284Y-102545271D01*
X77321983Y-102539942D01*
X77287586Y-102527906D01*
X77252889Y-102520531D01*
X77202887Y-102498268D01*
X77152893Y-102480775D01*
X77126868Y-102464422D01*
X77100164Y-102452533D01*
X77050369Y-102416355D01*
X77001208Y-102385465D01*
X76983554Y-102367811D01*
X76964915Y-102354269D01*
X76918833Y-102303090D01*
X76874535Y-102258792D01*
X76864345Y-102242575D01*
X76853053Y-102230034D01*
X76814420Y-102163120D01*
X76779225Y-102107107D01*
X76774830Y-102094547D01*
X76769464Y-102085253D01*
X76741980Y-102000667D01*
X76720058Y-101938017D01*
X76719226Y-101930639D01*
X76717804Y-101926261D01*
X76704908Y-101803565D01*
X76700000Y-101760000D01*
X76704908Y-101716438D01*
X76717804Y-101593738D01*
X76719226Y-101589358D01*
X76720058Y-101581983D01*
X76741975Y-101519345D01*
X76769464Y-101434746D01*
X76774831Y-101425449D01*
X76779225Y-101412893D01*
X76814413Y-101356890D01*
X76853053Y-101289965D01*
X76864347Y-101277421D01*
X76874535Y-101261208D01*
X76918826Y-101216916D01*
X76964917Y-101165728D01*
X76983559Y-101152183D01*
X77001208Y-101134535D01*
X77050354Y-101103654D01*
X77100162Y-101067467D01*
X77126873Y-101055574D01*
X77152893Y-101039225D01*
X77202877Y-101021734D01*
X77252889Y-100999468D01*
X77287592Y-100992091D01*
X77321983Y-100980058D01*
X77369281Y-100974728D01*
X77416412Y-100964711D01*
X77458189Y-100964711D01*
X77500000Y-100960000D01*
X77541811Y-100964711D01*
G37*
G36*
X92341811Y-100964711D02*
G01*
X92383588Y-100964711D01*
X92430718Y-100974728D01*
X92478017Y-100980058D01*
X92512408Y-100992092D01*
X92547110Y-100999468D01*
X92597117Y-101021733D01*
X92647107Y-101039225D01*
X92673128Y-101055575D01*
X92699835Y-101067466D01*
X92749633Y-101103646D01*
X92798792Y-101134535D01*
X92816444Y-101152187D01*
X92835084Y-101165730D01*
X92881165Y-101216908D01*
X92925465Y-101261208D01*
X92935654Y-101277424D01*
X92946946Y-101289965D01*
X92985573Y-101356870D01*
X93020775Y-101412893D01*
X93025170Y-101425453D01*
X93030535Y-101434746D01*
X93058010Y-101519305D01*
X93079942Y-101581983D01*
X93080773Y-101589363D01*
X93082195Y-101593738D01*
X93095076Y-101716306D01*
X93100000Y-101760000D01*
X93095076Y-101803697D01*
X93082195Y-101926261D01*
X93080773Y-101930635D01*
X93079942Y-101938017D01*
X93058005Y-102000707D01*
X93030535Y-102085253D01*
X93025171Y-102094543D01*
X93020775Y-102107107D01*
X92985566Y-102163140D01*
X92946946Y-102230034D01*
X92935656Y-102242572D01*
X92925465Y-102258792D01*
X92881155Y-102303101D01*
X92835084Y-102354269D01*
X92816448Y-102367808D01*
X92798792Y-102385465D01*
X92749623Y-102416359D01*
X92699835Y-102452533D01*
X92673134Y-102464421D01*
X92647107Y-102480775D01*
X92597107Y-102498270D01*
X92547110Y-102520531D01*
X92512414Y-102527905D01*
X92478017Y-102539942D01*
X92430715Y-102545271D01*
X92383588Y-102555289D01*
X92341811Y-102555289D01*
X92300000Y-102560000D01*
X92258189Y-102555289D01*
X92216412Y-102555289D01*
X92169284Y-102545271D01*
X92121983Y-102539942D01*
X92087586Y-102527906D01*
X92052889Y-102520531D01*
X92002887Y-102498268D01*
X91952893Y-102480775D01*
X91926868Y-102464422D01*
X91900164Y-102452533D01*
X91850369Y-102416355D01*
X91801208Y-102385465D01*
X91783554Y-102367811D01*
X91764915Y-102354269D01*
X91718833Y-102303090D01*
X91674535Y-102258792D01*
X91664345Y-102242575D01*
X91653053Y-102230034D01*
X91614420Y-102163120D01*
X91579225Y-102107107D01*
X91574830Y-102094547D01*
X91569464Y-102085253D01*
X91541980Y-102000667D01*
X91520058Y-101938017D01*
X91519226Y-101930639D01*
X91517804Y-101926261D01*
X91504908Y-101803565D01*
X91500000Y-101760000D01*
X91504908Y-101716438D01*
X91517804Y-101593738D01*
X91519226Y-101589358D01*
X91520058Y-101581983D01*
X91541975Y-101519345D01*
X91569464Y-101434746D01*
X91574831Y-101425449D01*
X91579225Y-101412893D01*
X91614413Y-101356890D01*
X91653053Y-101289965D01*
X91664347Y-101277421D01*
X91674535Y-101261208D01*
X91718826Y-101216916D01*
X91764917Y-101165728D01*
X91783559Y-101152183D01*
X91801208Y-101134535D01*
X91850354Y-101103654D01*
X91900162Y-101067467D01*
X91926873Y-101055574D01*
X91952893Y-101039225D01*
X92002877Y-101021734D01*
X92052889Y-100999468D01*
X92087592Y-100992091D01*
X92121983Y-100980058D01*
X92169281Y-100974728D01*
X92216412Y-100964711D01*
X92258189Y-100964711D01*
X92300000Y-100960000D01*
X92341811Y-100964711D01*
G37*
G36*
X85341811Y-100924711D02*
G01*
X85383588Y-100924711D01*
X85430718Y-100934728D01*
X85478017Y-100940058D01*
X85512408Y-100952092D01*
X85547110Y-100959468D01*
X85597117Y-100981733D01*
X85647107Y-100999225D01*
X85673128Y-101015575D01*
X85699835Y-101027466D01*
X85749633Y-101063646D01*
X85798792Y-101094535D01*
X85816444Y-101112187D01*
X85835084Y-101125730D01*
X85881165Y-101176908D01*
X85925465Y-101221208D01*
X85935654Y-101237424D01*
X85946946Y-101249965D01*
X85985573Y-101316870D01*
X86020775Y-101372893D01*
X86025170Y-101385453D01*
X86030535Y-101394746D01*
X86058010Y-101479305D01*
X86079942Y-101541983D01*
X86080773Y-101549363D01*
X86082195Y-101553738D01*
X86095076Y-101676306D01*
X86100000Y-101720000D01*
X86095076Y-101763697D01*
X86082195Y-101886261D01*
X86080773Y-101890635D01*
X86079942Y-101898017D01*
X86058005Y-101960707D01*
X86030535Y-102045253D01*
X86025171Y-102054543D01*
X86020775Y-102067107D01*
X85985566Y-102123140D01*
X85946946Y-102190034D01*
X85935656Y-102202572D01*
X85925465Y-102218792D01*
X85881155Y-102263101D01*
X85835084Y-102314269D01*
X85816448Y-102327808D01*
X85798792Y-102345465D01*
X85749623Y-102376359D01*
X85699835Y-102412533D01*
X85673134Y-102424421D01*
X85647107Y-102440775D01*
X85597107Y-102458270D01*
X85547110Y-102480531D01*
X85512414Y-102487905D01*
X85478017Y-102499942D01*
X85430715Y-102505271D01*
X85383588Y-102515289D01*
X85341811Y-102515289D01*
X85300000Y-102520000D01*
X85258189Y-102515289D01*
X85216412Y-102515289D01*
X85169284Y-102505271D01*
X85121983Y-102499942D01*
X85087586Y-102487906D01*
X85052889Y-102480531D01*
X85002887Y-102458268D01*
X84952893Y-102440775D01*
X84926868Y-102424422D01*
X84900164Y-102412533D01*
X84850369Y-102376355D01*
X84801208Y-102345465D01*
X84783554Y-102327811D01*
X84764915Y-102314269D01*
X84718833Y-102263090D01*
X84674535Y-102218792D01*
X84664345Y-102202575D01*
X84653053Y-102190034D01*
X84614420Y-102123120D01*
X84579225Y-102067107D01*
X84574830Y-102054547D01*
X84569464Y-102045253D01*
X84541980Y-101960667D01*
X84520058Y-101898017D01*
X84519226Y-101890639D01*
X84517804Y-101886261D01*
X84504908Y-101763565D01*
X84500000Y-101720000D01*
X84504908Y-101676438D01*
X84517804Y-101553738D01*
X84519226Y-101549358D01*
X84520058Y-101541983D01*
X84541975Y-101479345D01*
X84569464Y-101394746D01*
X84574831Y-101385449D01*
X84579225Y-101372893D01*
X84614413Y-101316890D01*
X84653053Y-101249965D01*
X84664347Y-101237421D01*
X84674535Y-101221208D01*
X84718826Y-101176916D01*
X84764917Y-101125728D01*
X84783559Y-101112183D01*
X84801208Y-101094535D01*
X84850354Y-101063654D01*
X84900162Y-101027467D01*
X84926873Y-101015574D01*
X84952893Y-100999225D01*
X85002877Y-100981734D01*
X85052889Y-100959468D01*
X85087592Y-100952091D01*
X85121983Y-100940058D01*
X85169281Y-100934728D01*
X85216412Y-100924711D01*
X85258189Y-100924711D01*
X85300000Y-100920000D01*
X85341811Y-100924711D01*
G37*
G36*
X99741811Y-100924711D02*
G01*
X99783588Y-100924711D01*
X99830718Y-100934728D01*
X99878017Y-100940058D01*
X99912408Y-100952092D01*
X99947110Y-100959468D01*
X99997117Y-100981733D01*
X100047107Y-100999225D01*
X100073128Y-101015575D01*
X100099835Y-101027466D01*
X100149633Y-101063646D01*
X100198792Y-101094535D01*
X100216444Y-101112187D01*
X100235084Y-101125730D01*
X100281165Y-101176908D01*
X100325465Y-101221208D01*
X100335654Y-101237424D01*
X100346946Y-101249965D01*
X100385573Y-101316870D01*
X100420775Y-101372893D01*
X100425170Y-101385453D01*
X100430535Y-101394746D01*
X100458010Y-101479305D01*
X100479942Y-101541983D01*
X100480773Y-101549363D01*
X100482195Y-101553738D01*
X100495076Y-101676306D01*
X100500000Y-101720000D01*
X100495076Y-101763697D01*
X100482195Y-101886261D01*
X100480773Y-101890635D01*
X100479942Y-101898017D01*
X100458005Y-101960707D01*
X100430535Y-102045253D01*
X100425171Y-102054543D01*
X100420775Y-102067107D01*
X100385566Y-102123140D01*
X100346946Y-102190034D01*
X100335656Y-102202572D01*
X100325465Y-102218792D01*
X100281155Y-102263101D01*
X100235084Y-102314269D01*
X100216448Y-102327808D01*
X100198792Y-102345465D01*
X100149623Y-102376359D01*
X100099835Y-102412533D01*
X100073134Y-102424421D01*
X100047107Y-102440775D01*
X99997107Y-102458270D01*
X99947110Y-102480531D01*
X99912414Y-102487905D01*
X99878017Y-102499942D01*
X99830715Y-102505271D01*
X99783588Y-102515289D01*
X99741811Y-102515289D01*
X99700000Y-102520000D01*
X99658189Y-102515289D01*
X99616412Y-102515289D01*
X99569284Y-102505271D01*
X99521983Y-102499942D01*
X99487586Y-102487906D01*
X99452889Y-102480531D01*
X99402887Y-102458268D01*
X99352893Y-102440775D01*
X99326868Y-102424422D01*
X99300164Y-102412533D01*
X99250369Y-102376355D01*
X99201208Y-102345465D01*
X99183554Y-102327811D01*
X99164915Y-102314269D01*
X99118833Y-102263090D01*
X99074535Y-102218792D01*
X99064345Y-102202575D01*
X99053053Y-102190034D01*
X99014420Y-102123120D01*
X98979225Y-102067107D01*
X98974830Y-102054547D01*
X98969464Y-102045253D01*
X98941980Y-101960667D01*
X98920058Y-101898017D01*
X98919226Y-101890639D01*
X98917804Y-101886261D01*
X98904908Y-101763565D01*
X98900000Y-101720000D01*
X98904908Y-101676438D01*
X98917804Y-101553738D01*
X98919226Y-101549358D01*
X98920058Y-101541983D01*
X98941975Y-101479345D01*
X98969464Y-101394746D01*
X98974831Y-101385449D01*
X98979225Y-101372893D01*
X99014413Y-101316890D01*
X99053053Y-101249965D01*
X99064347Y-101237421D01*
X99074535Y-101221208D01*
X99118826Y-101176916D01*
X99164917Y-101125728D01*
X99183559Y-101112183D01*
X99201208Y-101094535D01*
X99250354Y-101063654D01*
X99300162Y-101027467D01*
X99326873Y-101015574D01*
X99352893Y-100999225D01*
X99402877Y-100981734D01*
X99452889Y-100959468D01*
X99487592Y-100952091D01*
X99521983Y-100940058D01*
X99569281Y-100934728D01*
X99616412Y-100924711D01*
X99658189Y-100924711D01*
X99700000Y-100920000D01*
X99741811Y-100924711D01*
G37*
G36*
X106841811Y-100924711D02*
G01*
X106883588Y-100924711D01*
X106930718Y-100934728D01*
X106978017Y-100940058D01*
X107012408Y-100952092D01*
X107047110Y-100959468D01*
X107097117Y-100981733D01*
X107147107Y-100999225D01*
X107173128Y-101015575D01*
X107199835Y-101027466D01*
X107249633Y-101063646D01*
X107298792Y-101094535D01*
X107316444Y-101112187D01*
X107335084Y-101125730D01*
X107381165Y-101176908D01*
X107425465Y-101221208D01*
X107435654Y-101237424D01*
X107446946Y-101249965D01*
X107485573Y-101316870D01*
X107520775Y-101372893D01*
X107525170Y-101385453D01*
X107530535Y-101394746D01*
X107558010Y-101479305D01*
X107579942Y-101541983D01*
X107580773Y-101549363D01*
X107582195Y-101553738D01*
X107595076Y-101676306D01*
X107600000Y-101720000D01*
X107595076Y-101763697D01*
X107582195Y-101886261D01*
X107580773Y-101890635D01*
X107579942Y-101898017D01*
X107558005Y-101960707D01*
X107530535Y-102045253D01*
X107525171Y-102054543D01*
X107520775Y-102067107D01*
X107485566Y-102123140D01*
X107446946Y-102190034D01*
X107435656Y-102202572D01*
X107425465Y-102218792D01*
X107381155Y-102263101D01*
X107335084Y-102314269D01*
X107316448Y-102327808D01*
X107298792Y-102345465D01*
X107249623Y-102376359D01*
X107199835Y-102412533D01*
X107173134Y-102424421D01*
X107147107Y-102440775D01*
X107097107Y-102458270D01*
X107047110Y-102480531D01*
X107012414Y-102487905D01*
X106978017Y-102499942D01*
X106930715Y-102505271D01*
X106883588Y-102515289D01*
X106841811Y-102515289D01*
X106800000Y-102520000D01*
X106758189Y-102515289D01*
X106716412Y-102515289D01*
X106669284Y-102505271D01*
X106621983Y-102499942D01*
X106587586Y-102487906D01*
X106552889Y-102480531D01*
X106502887Y-102458268D01*
X106452893Y-102440775D01*
X106426868Y-102424422D01*
X106400164Y-102412533D01*
X106350369Y-102376355D01*
X106301208Y-102345465D01*
X106283554Y-102327811D01*
X106264915Y-102314269D01*
X106218833Y-102263090D01*
X106174535Y-102218792D01*
X106164345Y-102202575D01*
X106153053Y-102190034D01*
X106114420Y-102123120D01*
X106079225Y-102067107D01*
X106074830Y-102054547D01*
X106069464Y-102045253D01*
X106041980Y-101960667D01*
X106020058Y-101898017D01*
X106019226Y-101890639D01*
X106017804Y-101886261D01*
X106004908Y-101763565D01*
X106000000Y-101720000D01*
X106004908Y-101676438D01*
X106017804Y-101553738D01*
X106019226Y-101549358D01*
X106020058Y-101541983D01*
X106041975Y-101479345D01*
X106069464Y-101394746D01*
X106074831Y-101385449D01*
X106079225Y-101372893D01*
X106114413Y-101316890D01*
X106153053Y-101249965D01*
X106164347Y-101237421D01*
X106174535Y-101221208D01*
X106218826Y-101176916D01*
X106264917Y-101125728D01*
X106283559Y-101112183D01*
X106301208Y-101094535D01*
X106350354Y-101063654D01*
X106400162Y-101027467D01*
X106426873Y-101015574D01*
X106452893Y-100999225D01*
X106502877Y-100981734D01*
X106552889Y-100959468D01*
X106587592Y-100952091D01*
X106621983Y-100940058D01*
X106669281Y-100934728D01*
X106716412Y-100924711D01*
X106758189Y-100924711D01*
X106800000Y-100920000D01*
X106841811Y-100924711D01*
G37*
G36*
X76801811Y-94304711D02*
G01*
X76843588Y-94304711D01*
X76890718Y-94314728D01*
X76938017Y-94320058D01*
X76972408Y-94332092D01*
X77007110Y-94339468D01*
X77057117Y-94361733D01*
X77107107Y-94379225D01*
X77133128Y-94395575D01*
X77159835Y-94407466D01*
X77209633Y-94443646D01*
X77258792Y-94474535D01*
X77276444Y-94492187D01*
X77295084Y-94505730D01*
X77341165Y-94556908D01*
X77385465Y-94601208D01*
X77395654Y-94617424D01*
X77406946Y-94629965D01*
X77445573Y-94696870D01*
X77480775Y-94752893D01*
X77485170Y-94765453D01*
X77490535Y-94774746D01*
X77518010Y-94859305D01*
X77539942Y-94921983D01*
X77540773Y-94929363D01*
X77542195Y-94933738D01*
X77555076Y-95056306D01*
X77560000Y-95100000D01*
X77555076Y-95143697D01*
X77542195Y-95266261D01*
X77540773Y-95270635D01*
X77539942Y-95278017D01*
X77518005Y-95340707D01*
X77490535Y-95425253D01*
X77485171Y-95434543D01*
X77480775Y-95447107D01*
X77445566Y-95503140D01*
X77406946Y-95570034D01*
X77395656Y-95582572D01*
X77385465Y-95598792D01*
X77341155Y-95643101D01*
X77295084Y-95694269D01*
X77276448Y-95707808D01*
X77258792Y-95725465D01*
X77209623Y-95756359D01*
X77159835Y-95792533D01*
X77133134Y-95804421D01*
X77107107Y-95820775D01*
X77057107Y-95838270D01*
X77007110Y-95860531D01*
X76972414Y-95867905D01*
X76938017Y-95879942D01*
X76890715Y-95885271D01*
X76843588Y-95895289D01*
X76801811Y-95895289D01*
X76760000Y-95900000D01*
X76718189Y-95895289D01*
X76676412Y-95895289D01*
X76629284Y-95885271D01*
X76581983Y-95879942D01*
X76547586Y-95867906D01*
X76512889Y-95860531D01*
X76462887Y-95838268D01*
X76412893Y-95820775D01*
X76386868Y-95804422D01*
X76360164Y-95792533D01*
X76310369Y-95756355D01*
X76261208Y-95725465D01*
X76243554Y-95707811D01*
X76224915Y-95694269D01*
X76178833Y-95643090D01*
X76134535Y-95598792D01*
X76124345Y-95582575D01*
X76113053Y-95570034D01*
X76074420Y-95503120D01*
X76039225Y-95447107D01*
X76034830Y-95434547D01*
X76029464Y-95425253D01*
X76001980Y-95340667D01*
X75980058Y-95278017D01*
X75979226Y-95270639D01*
X75977804Y-95266261D01*
X75964908Y-95143565D01*
X75960000Y-95100000D01*
X75964908Y-95056438D01*
X75977804Y-94933738D01*
X75979226Y-94929358D01*
X75980058Y-94921983D01*
X76001975Y-94859345D01*
X76029464Y-94774746D01*
X76034831Y-94765449D01*
X76039225Y-94752893D01*
X76074413Y-94696890D01*
X76113053Y-94629965D01*
X76124347Y-94617421D01*
X76134535Y-94601208D01*
X76178826Y-94556916D01*
X76224917Y-94505728D01*
X76243559Y-94492183D01*
X76261208Y-94474535D01*
X76310354Y-94443654D01*
X76360162Y-94407467D01*
X76386873Y-94395574D01*
X76412893Y-94379225D01*
X76462877Y-94361734D01*
X76512889Y-94339468D01*
X76547592Y-94332091D01*
X76581983Y-94320058D01*
X76629281Y-94314728D01*
X76676412Y-94304711D01*
X76718189Y-94304711D01*
X76760000Y-94300000D01*
X76801811Y-94304711D01*
G37*
G36*
X79341811Y-94304711D02*
G01*
X79383588Y-94304711D01*
X79430718Y-94314728D01*
X79478017Y-94320058D01*
X79512408Y-94332092D01*
X79547110Y-94339468D01*
X79597117Y-94361733D01*
X79647107Y-94379225D01*
X79673128Y-94395575D01*
X79699835Y-94407466D01*
X79749633Y-94443646D01*
X79798792Y-94474535D01*
X79816444Y-94492187D01*
X79835084Y-94505730D01*
X79881165Y-94556908D01*
X79925465Y-94601208D01*
X79935654Y-94617424D01*
X79946946Y-94629965D01*
X79985573Y-94696870D01*
X80020775Y-94752893D01*
X80025170Y-94765453D01*
X80030535Y-94774746D01*
X80058010Y-94859305D01*
X80079942Y-94921983D01*
X80080773Y-94929363D01*
X80082195Y-94933738D01*
X80095076Y-95056306D01*
X80100000Y-95100000D01*
X80095076Y-95143697D01*
X80082195Y-95266261D01*
X80080773Y-95270635D01*
X80079942Y-95278017D01*
X80058005Y-95340707D01*
X80030535Y-95425253D01*
X80025171Y-95434543D01*
X80020775Y-95447107D01*
X79985566Y-95503140D01*
X79946946Y-95570034D01*
X79935656Y-95582572D01*
X79925465Y-95598792D01*
X79881155Y-95643101D01*
X79835084Y-95694269D01*
X79816448Y-95707808D01*
X79798792Y-95725465D01*
X79749623Y-95756359D01*
X79699835Y-95792533D01*
X79673134Y-95804421D01*
X79647107Y-95820775D01*
X79597107Y-95838270D01*
X79547110Y-95860531D01*
X79512414Y-95867905D01*
X79478017Y-95879942D01*
X79430715Y-95885271D01*
X79383588Y-95895289D01*
X79341811Y-95895289D01*
X79300000Y-95900000D01*
X79258189Y-95895289D01*
X79216412Y-95895289D01*
X79169284Y-95885271D01*
X79121983Y-95879942D01*
X79087586Y-95867906D01*
X79052889Y-95860531D01*
X79002887Y-95838268D01*
X78952893Y-95820775D01*
X78926868Y-95804422D01*
X78900164Y-95792533D01*
X78850369Y-95756355D01*
X78801208Y-95725465D01*
X78783554Y-95707811D01*
X78764915Y-95694269D01*
X78718833Y-95643090D01*
X78674535Y-95598792D01*
X78664345Y-95582575D01*
X78653053Y-95570034D01*
X78614420Y-95503120D01*
X78579225Y-95447107D01*
X78574830Y-95434547D01*
X78569464Y-95425253D01*
X78541980Y-95340667D01*
X78520058Y-95278017D01*
X78519226Y-95270639D01*
X78517804Y-95266261D01*
X78504908Y-95143565D01*
X78500000Y-95100000D01*
X78504908Y-95056438D01*
X78517804Y-94933738D01*
X78519226Y-94929358D01*
X78520058Y-94921983D01*
X78541975Y-94859345D01*
X78569464Y-94774746D01*
X78574831Y-94765449D01*
X78579225Y-94752893D01*
X78614413Y-94696890D01*
X78653053Y-94629965D01*
X78664347Y-94617421D01*
X78674535Y-94601208D01*
X78718826Y-94556916D01*
X78764917Y-94505728D01*
X78783559Y-94492183D01*
X78801208Y-94474535D01*
X78850354Y-94443654D01*
X78900162Y-94407467D01*
X78926873Y-94395574D01*
X78952893Y-94379225D01*
X79002877Y-94361734D01*
X79052889Y-94339468D01*
X79087592Y-94332091D01*
X79121983Y-94320058D01*
X79169281Y-94314728D01*
X79216412Y-94304711D01*
X79258189Y-94304711D01*
X79300000Y-94300000D01*
X79341811Y-94304711D01*
G37*
G36*
X81881811Y-94304711D02*
G01*
X81923588Y-94304711D01*
X81970718Y-94314728D01*
X82018017Y-94320058D01*
X82052408Y-94332092D01*
X82087110Y-94339468D01*
X82137117Y-94361733D01*
X82187107Y-94379225D01*
X82213128Y-94395575D01*
X82239835Y-94407466D01*
X82289633Y-94443646D01*
X82338792Y-94474535D01*
X82356444Y-94492187D01*
X82375084Y-94505730D01*
X82421165Y-94556908D01*
X82465465Y-94601208D01*
X82475654Y-94617424D01*
X82486946Y-94629965D01*
X82525573Y-94696870D01*
X82560775Y-94752893D01*
X82565170Y-94765453D01*
X82570535Y-94774746D01*
X82598010Y-94859305D01*
X82619942Y-94921983D01*
X82620773Y-94929363D01*
X82622195Y-94933738D01*
X82635076Y-95056306D01*
X82640000Y-95100000D01*
X82635076Y-95143697D01*
X82622195Y-95266261D01*
X82620773Y-95270635D01*
X82619942Y-95278017D01*
X82598005Y-95340707D01*
X82570535Y-95425253D01*
X82565171Y-95434543D01*
X82560775Y-95447107D01*
X82525566Y-95503140D01*
X82486946Y-95570034D01*
X82475656Y-95582572D01*
X82465465Y-95598792D01*
X82421155Y-95643101D01*
X82375084Y-95694269D01*
X82356448Y-95707808D01*
X82338792Y-95725465D01*
X82289623Y-95756359D01*
X82239835Y-95792533D01*
X82213134Y-95804421D01*
X82187107Y-95820775D01*
X82137107Y-95838270D01*
X82087110Y-95860531D01*
X82052414Y-95867905D01*
X82018017Y-95879942D01*
X81970715Y-95885271D01*
X81923588Y-95895289D01*
X81881811Y-95895289D01*
X81840000Y-95900000D01*
X81798189Y-95895289D01*
X81756412Y-95895289D01*
X81709284Y-95885271D01*
X81661983Y-95879942D01*
X81627586Y-95867906D01*
X81592889Y-95860531D01*
X81542887Y-95838268D01*
X81492893Y-95820775D01*
X81466868Y-95804422D01*
X81440164Y-95792533D01*
X81390369Y-95756355D01*
X81341208Y-95725465D01*
X81323554Y-95707811D01*
X81304915Y-95694269D01*
X81258833Y-95643090D01*
X81214535Y-95598792D01*
X81204345Y-95582575D01*
X81193053Y-95570034D01*
X81154420Y-95503120D01*
X81119225Y-95447107D01*
X81114830Y-95434547D01*
X81109464Y-95425253D01*
X81081980Y-95340667D01*
X81060058Y-95278017D01*
X81059226Y-95270639D01*
X81057804Y-95266261D01*
X81044908Y-95143565D01*
X81040000Y-95100000D01*
X81044908Y-95056438D01*
X81057804Y-94933738D01*
X81059226Y-94929358D01*
X81060058Y-94921983D01*
X81081975Y-94859345D01*
X81109464Y-94774746D01*
X81114831Y-94765449D01*
X81119225Y-94752893D01*
X81154413Y-94696890D01*
X81193053Y-94629965D01*
X81204347Y-94617421D01*
X81214535Y-94601208D01*
X81258826Y-94556916D01*
X81304917Y-94505728D01*
X81323559Y-94492183D01*
X81341208Y-94474535D01*
X81390354Y-94443654D01*
X81440162Y-94407467D01*
X81466873Y-94395574D01*
X81492893Y-94379225D01*
X81542877Y-94361734D01*
X81592889Y-94339468D01*
X81627592Y-94332091D01*
X81661983Y-94320058D01*
X81709281Y-94314728D01*
X81756412Y-94304711D01*
X81798189Y-94304711D01*
X81840000Y-94300000D01*
X81881811Y-94304711D01*
G37*
G36*
X84421811Y-94304711D02*
G01*
X84463588Y-94304711D01*
X84510718Y-94314728D01*
X84558017Y-94320058D01*
X84592408Y-94332092D01*
X84627110Y-94339468D01*
X84677117Y-94361733D01*
X84727107Y-94379225D01*
X84753128Y-94395575D01*
X84779835Y-94407466D01*
X84829633Y-94443646D01*
X84878792Y-94474535D01*
X84896444Y-94492187D01*
X84915084Y-94505730D01*
X84961165Y-94556908D01*
X85005465Y-94601208D01*
X85015654Y-94617424D01*
X85026946Y-94629965D01*
X85065573Y-94696870D01*
X85100775Y-94752893D01*
X85105170Y-94765453D01*
X85110535Y-94774746D01*
X85138010Y-94859305D01*
X85159942Y-94921983D01*
X85160773Y-94929363D01*
X85162195Y-94933738D01*
X85175076Y-95056306D01*
X85180000Y-95100000D01*
X85175076Y-95143697D01*
X85162195Y-95266261D01*
X85160773Y-95270635D01*
X85159942Y-95278017D01*
X85138005Y-95340707D01*
X85110535Y-95425253D01*
X85105171Y-95434543D01*
X85100775Y-95447107D01*
X85065566Y-95503140D01*
X85026946Y-95570034D01*
X85015656Y-95582572D01*
X85005465Y-95598792D01*
X84961155Y-95643101D01*
X84915084Y-95694269D01*
X84896448Y-95707808D01*
X84878792Y-95725465D01*
X84829623Y-95756359D01*
X84779835Y-95792533D01*
X84753134Y-95804421D01*
X84727107Y-95820775D01*
X84677107Y-95838270D01*
X84627110Y-95860531D01*
X84592414Y-95867905D01*
X84558017Y-95879942D01*
X84510715Y-95885271D01*
X84463588Y-95895289D01*
X84421811Y-95895289D01*
X84380000Y-95900000D01*
X84338189Y-95895289D01*
X84296412Y-95895289D01*
X84249284Y-95885271D01*
X84201983Y-95879942D01*
X84167586Y-95867906D01*
X84132889Y-95860531D01*
X84082887Y-95838268D01*
X84032893Y-95820775D01*
X84006868Y-95804422D01*
X83980164Y-95792533D01*
X83930369Y-95756355D01*
X83881208Y-95725465D01*
X83863554Y-95707811D01*
X83844915Y-95694269D01*
X83798833Y-95643090D01*
X83754535Y-95598792D01*
X83744345Y-95582575D01*
X83733053Y-95570034D01*
X83694420Y-95503120D01*
X83659225Y-95447107D01*
X83654830Y-95434547D01*
X83649464Y-95425253D01*
X83621980Y-95340667D01*
X83600058Y-95278017D01*
X83599226Y-95270639D01*
X83597804Y-95266261D01*
X83584908Y-95143565D01*
X83580000Y-95100000D01*
X83584908Y-95056438D01*
X83597804Y-94933738D01*
X83599226Y-94929358D01*
X83600058Y-94921983D01*
X83621975Y-94859345D01*
X83649464Y-94774746D01*
X83654831Y-94765449D01*
X83659225Y-94752893D01*
X83694413Y-94696890D01*
X83733053Y-94629965D01*
X83744347Y-94617421D01*
X83754535Y-94601208D01*
X83798826Y-94556916D01*
X83844917Y-94505728D01*
X83863559Y-94492183D01*
X83881208Y-94474535D01*
X83930354Y-94443654D01*
X83980162Y-94407467D01*
X84006873Y-94395574D01*
X84032893Y-94379225D01*
X84082877Y-94361734D01*
X84132889Y-94339468D01*
X84167592Y-94332091D01*
X84201983Y-94320058D01*
X84249281Y-94314728D01*
X84296412Y-94304711D01*
X84338189Y-94304711D01*
X84380000Y-94300000D01*
X84421811Y-94304711D01*
G37*
G36*
X86961811Y-94304711D02*
G01*
X87003588Y-94304711D01*
X87050718Y-94314728D01*
X87098017Y-94320058D01*
X87132408Y-94332092D01*
X87167110Y-94339468D01*
X87217117Y-94361733D01*
X87267107Y-94379225D01*
X87293128Y-94395575D01*
X87319835Y-94407466D01*
X87369633Y-94443646D01*
X87418792Y-94474535D01*
X87436444Y-94492187D01*
X87455084Y-94505730D01*
X87501165Y-94556908D01*
X87545465Y-94601208D01*
X87555654Y-94617424D01*
X87566946Y-94629965D01*
X87605573Y-94696870D01*
X87640775Y-94752893D01*
X87645170Y-94765453D01*
X87650535Y-94774746D01*
X87678010Y-94859305D01*
X87699942Y-94921983D01*
X87700773Y-94929363D01*
X87702195Y-94933738D01*
X87715076Y-95056306D01*
X87720000Y-95100000D01*
X87715076Y-95143697D01*
X87702195Y-95266261D01*
X87700773Y-95270635D01*
X87699942Y-95278017D01*
X87678005Y-95340707D01*
X87650535Y-95425253D01*
X87645171Y-95434543D01*
X87640775Y-95447107D01*
X87605566Y-95503140D01*
X87566946Y-95570034D01*
X87555656Y-95582572D01*
X87545465Y-95598792D01*
X87501155Y-95643101D01*
X87455084Y-95694269D01*
X87436448Y-95707808D01*
X87418792Y-95725465D01*
X87369623Y-95756359D01*
X87319835Y-95792533D01*
X87293134Y-95804421D01*
X87267107Y-95820775D01*
X87217107Y-95838270D01*
X87167110Y-95860531D01*
X87132414Y-95867905D01*
X87098017Y-95879942D01*
X87050715Y-95885271D01*
X87003588Y-95895289D01*
X86961811Y-95895289D01*
X86920000Y-95900000D01*
X86878189Y-95895289D01*
X86836412Y-95895289D01*
X86789284Y-95885271D01*
X86741983Y-95879942D01*
X86707586Y-95867906D01*
X86672889Y-95860531D01*
X86622887Y-95838268D01*
X86572893Y-95820775D01*
X86546868Y-95804422D01*
X86520164Y-95792533D01*
X86470369Y-95756355D01*
X86421208Y-95725465D01*
X86403554Y-95707811D01*
X86384915Y-95694269D01*
X86338833Y-95643090D01*
X86294535Y-95598792D01*
X86284345Y-95582575D01*
X86273053Y-95570034D01*
X86234420Y-95503120D01*
X86199225Y-95447107D01*
X86194830Y-95434547D01*
X86189464Y-95425253D01*
X86161980Y-95340667D01*
X86140058Y-95278017D01*
X86139226Y-95270639D01*
X86137804Y-95266261D01*
X86124908Y-95143565D01*
X86120000Y-95100000D01*
X86124908Y-95056438D01*
X86137804Y-94933738D01*
X86139226Y-94929358D01*
X86140058Y-94921983D01*
X86161975Y-94859345D01*
X86189464Y-94774746D01*
X86194831Y-94765449D01*
X86199225Y-94752893D01*
X86234413Y-94696890D01*
X86273053Y-94629965D01*
X86284347Y-94617421D01*
X86294535Y-94601208D01*
X86338826Y-94556916D01*
X86384917Y-94505728D01*
X86403559Y-94492183D01*
X86421208Y-94474535D01*
X86470354Y-94443654D01*
X86520162Y-94407467D01*
X86546873Y-94395574D01*
X86572893Y-94379225D01*
X86622877Y-94361734D01*
X86672889Y-94339468D01*
X86707592Y-94332091D01*
X86741983Y-94320058D01*
X86789281Y-94314728D01*
X86836412Y-94304711D01*
X86878189Y-94304711D01*
X86920000Y-94300000D01*
X86961811Y-94304711D01*
G37*
G36*
X89501811Y-94304711D02*
G01*
X89543588Y-94304711D01*
X89590718Y-94314728D01*
X89638017Y-94320058D01*
X89672408Y-94332092D01*
X89707110Y-94339468D01*
X89757117Y-94361733D01*
X89807107Y-94379225D01*
X89833128Y-94395575D01*
X89859835Y-94407466D01*
X89909633Y-94443646D01*
X89958792Y-94474535D01*
X89976444Y-94492187D01*
X89995084Y-94505730D01*
X90041165Y-94556908D01*
X90085465Y-94601208D01*
X90095654Y-94617424D01*
X90106946Y-94629965D01*
X90145573Y-94696870D01*
X90180775Y-94752893D01*
X90185170Y-94765453D01*
X90190535Y-94774746D01*
X90218010Y-94859305D01*
X90239942Y-94921983D01*
X90240773Y-94929363D01*
X90242195Y-94933738D01*
X90255076Y-95056306D01*
X90260000Y-95100000D01*
X90255076Y-95143697D01*
X90242195Y-95266261D01*
X90240773Y-95270635D01*
X90239942Y-95278017D01*
X90218005Y-95340707D01*
X90190535Y-95425253D01*
X90185171Y-95434543D01*
X90180775Y-95447107D01*
X90145566Y-95503140D01*
X90106946Y-95570034D01*
X90095656Y-95582572D01*
X90085465Y-95598792D01*
X90041155Y-95643101D01*
X89995084Y-95694269D01*
X89976448Y-95707808D01*
X89958792Y-95725465D01*
X89909623Y-95756359D01*
X89859835Y-95792533D01*
X89833134Y-95804421D01*
X89807107Y-95820775D01*
X89757107Y-95838270D01*
X89707110Y-95860531D01*
X89672414Y-95867905D01*
X89638017Y-95879942D01*
X89590715Y-95885271D01*
X89543588Y-95895289D01*
X89501811Y-95895289D01*
X89460000Y-95900000D01*
X89418189Y-95895289D01*
X89376412Y-95895289D01*
X89329284Y-95885271D01*
X89281983Y-95879942D01*
X89247586Y-95867906D01*
X89212889Y-95860531D01*
X89162887Y-95838268D01*
X89112893Y-95820775D01*
X89086868Y-95804422D01*
X89060164Y-95792533D01*
X89010369Y-95756355D01*
X88961208Y-95725465D01*
X88943554Y-95707811D01*
X88924915Y-95694269D01*
X88878833Y-95643090D01*
X88834535Y-95598792D01*
X88824345Y-95582575D01*
X88813053Y-95570034D01*
X88774420Y-95503120D01*
X88739225Y-95447107D01*
X88734830Y-95434547D01*
X88729464Y-95425253D01*
X88701980Y-95340667D01*
X88680058Y-95278017D01*
X88679226Y-95270639D01*
X88677804Y-95266261D01*
X88664908Y-95143565D01*
X88660000Y-95100000D01*
X88664908Y-95056438D01*
X88677804Y-94933738D01*
X88679226Y-94929358D01*
X88680058Y-94921983D01*
X88701975Y-94859345D01*
X88729464Y-94774746D01*
X88734831Y-94765449D01*
X88739225Y-94752893D01*
X88774413Y-94696890D01*
X88813053Y-94629965D01*
X88824347Y-94617421D01*
X88834535Y-94601208D01*
X88878826Y-94556916D01*
X88924917Y-94505728D01*
X88943559Y-94492183D01*
X88961208Y-94474535D01*
X89010354Y-94443654D01*
X89060162Y-94407467D01*
X89086873Y-94395574D01*
X89112893Y-94379225D01*
X89162877Y-94361734D01*
X89212889Y-94339468D01*
X89247592Y-94332091D01*
X89281983Y-94320058D01*
X89329281Y-94314728D01*
X89376412Y-94304711D01*
X89418189Y-94304711D01*
X89460000Y-94300000D01*
X89501811Y-94304711D01*
G37*
G36*
X92041811Y-94304711D02*
G01*
X92083588Y-94304711D01*
X92130718Y-94314728D01*
X92178017Y-94320058D01*
X92212408Y-94332092D01*
X92247110Y-94339468D01*
X92297117Y-94361733D01*
X92347107Y-94379225D01*
X92373128Y-94395575D01*
X92399835Y-94407466D01*
X92449633Y-94443646D01*
X92498792Y-94474535D01*
X92516444Y-94492187D01*
X92535084Y-94505730D01*
X92581165Y-94556908D01*
X92625465Y-94601208D01*
X92635654Y-94617424D01*
X92646946Y-94629965D01*
X92685573Y-94696870D01*
X92720775Y-94752893D01*
X92725170Y-94765453D01*
X92730535Y-94774746D01*
X92758010Y-94859305D01*
X92779942Y-94921983D01*
X92780773Y-94929363D01*
X92782195Y-94933738D01*
X92795076Y-95056306D01*
X92800000Y-95100000D01*
X92795076Y-95143697D01*
X92782195Y-95266261D01*
X92780773Y-95270635D01*
X92779942Y-95278017D01*
X92758005Y-95340707D01*
X92730535Y-95425253D01*
X92725171Y-95434543D01*
X92720775Y-95447107D01*
X92685566Y-95503140D01*
X92646946Y-95570034D01*
X92635656Y-95582572D01*
X92625465Y-95598792D01*
X92581155Y-95643101D01*
X92535084Y-95694269D01*
X92516448Y-95707808D01*
X92498792Y-95725465D01*
X92449623Y-95756359D01*
X92399835Y-95792533D01*
X92373134Y-95804421D01*
X92347107Y-95820775D01*
X92297107Y-95838270D01*
X92247110Y-95860531D01*
X92212414Y-95867905D01*
X92178017Y-95879942D01*
X92130715Y-95885271D01*
X92083588Y-95895289D01*
X92041811Y-95895289D01*
X92000000Y-95900000D01*
X91958189Y-95895289D01*
X91916412Y-95895289D01*
X91869284Y-95885271D01*
X91821983Y-95879942D01*
X91787586Y-95867906D01*
X91752889Y-95860531D01*
X91702887Y-95838268D01*
X91652893Y-95820775D01*
X91626868Y-95804422D01*
X91600164Y-95792533D01*
X91550369Y-95756355D01*
X91501208Y-95725465D01*
X91483554Y-95707811D01*
X91464915Y-95694269D01*
X91418833Y-95643090D01*
X91374535Y-95598792D01*
X91364345Y-95582575D01*
X91353053Y-95570034D01*
X91314420Y-95503120D01*
X91279225Y-95447107D01*
X91274830Y-95434547D01*
X91269464Y-95425253D01*
X91241980Y-95340667D01*
X91220058Y-95278017D01*
X91219226Y-95270639D01*
X91217804Y-95266261D01*
X91204908Y-95143565D01*
X91200000Y-95100000D01*
X91204908Y-95056438D01*
X91217804Y-94933738D01*
X91219226Y-94929358D01*
X91220058Y-94921983D01*
X91241975Y-94859345D01*
X91269464Y-94774746D01*
X91274831Y-94765449D01*
X91279225Y-94752893D01*
X91314413Y-94696890D01*
X91353053Y-94629965D01*
X91364347Y-94617421D01*
X91374535Y-94601208D01*
X91418826Y-94556916D01*
X91464917Y-94505728D01*
X91483559Y-94492183D01*
X91501208Y-94474535D01*
X91550354Y-94443654D01*
X91600162Y-94407467D01*
X91626873Y-94395574D01*
X91652893Y-94379225D01*
X91702877Y-94361734D01*
X91752889Y-94339468D01*
X91787592Y-94332091D01*
X91821983Y-94320058D01*
X91869281Y-94314728D01*
X91916412Y-94304711D01*
X91958189Y-94304711D01*
X92000000Y-94300000D01*
X92041811Y-94304711D01*
G37*
G36*
X98459501Y-94276180D02*
G01*
X98620559Y-94332537D01*
X98765039Y-94423319D01*
X98885696Y-94543976D01*
X98976478Y-94688456D01*
X99032835Y-94849514D01*
X99051940Y-95019075D01*
X99032835Y-95188636D01*
X98976478Y-95349694D01*
X98885696Y-95494174D01*
X98765039Y-95614831D01*
X98620559Y-95705613D01*
X98459501Y-95761970D01*
X98289940Y-95781075D01*
X98120379Y-95761970D01*
X97959321Y-95705613D01*
X97814841Y-95614831D01*
X97694184Y-95494174D01*
X97603402Y-95349694D01*
X97547045Y-95188636D01*
X97527940Y-95019075D01*
X97547045Y-94849514D01*
X97603402Y-94688456D01*
X97694184Y-94543976D01*
X97814841Y-94423319D01*
X97959321Y-94332537D01*
X98120379Y-94276180D01*
X98289940Y-94257075D01*
X98459501Y-94276180D01*
G37*
G36*
X76801811Y-91764711D02*
G01*
X76843588Y-91764711D01*
X76890718Y-91774728D01*
X76938017Y-91780058D01*
X76972408Y-91792092D01*
X77007110Y-91799468D01*
X77057117Y-91821733D01*
X77107107Y-91839225D01*
X77133128Y-91855575D01*
X77159835Y-91867466D01*
X77209633Y-91903646D01*
X77258792Y-91934535D01*
X77276444Y-91952187D01*
X77295084Y-91965730D01*
X77341165Y-92016908D01*
X77385465Y-92061208D01*
X77395654Y-92077424D01*
X77406946Y-92089965D01*
X77445573Y-92156870D01*
X77480775Y-92212893D01*
X77485170Y-92225453D01*
X77490535Y-92234746D01*
X77518010Y-92319305D01*
X77539942Y-92381983D01*
X77540773Y-92389363D01*
X77542195Y-92393738D01*
X77555076Y-92516306D01*
X77560000Y-92560000D01*
X77555076Y-92603697D01*
X77542195Y-92726261D01*
X77540773Y-92730635D01*
X77539942Y-92738017D01*
X77518005Y-92800707D01*
X77490535Y-92885253D01*
X77485171Y-92894543D01*
X77480775Y-92907107D01*
X77445566Y-92963140D01*
X77406946Y-93030034D01*
X77395656Y-93042572D01*
X77385465Y-93058792D01*
X77341155Y-93103101D01*
X77295084Y-93154269D01*
X77276448Y-93167808D01*
X77258792Y-93185465D01*
X77209623Y-93216359D01*
X77159835Y-93252533D01*
X77133134Y-93264421D01*
X77107107Y-93280775D01*
X77057107Y-93298270D01*
X77007110Y-93320531D01*
X76972414Y-93327905D01*
X76938017Y-93339942D01*
X76890715Y-93345271D01*
X76843588Y-93355289D01*
X76801811Y-93355289D01*
X76760000Y-93360000D01*
X76718189Y-93355289D01*
X76676412Y-93355289D01*
X76629284Y-93345271D01*
X76581983Y-93339942D01*
X76547586Y-93327906D01*
X76512889Y-93320531D01*
X76462887Y-93298268D01*
X76412893Y-93280775D01*
X76386868Y-93264422D01*
X76360164Y-93252533D01*
X76310369Y-93216355D01*
X76261208Y-93185465D01*
X76243554Y-93167811D01*
X76224915Y-93154269D01*
X76178833Y-93103090D01*
X76134535Y-93058792D01*
X76124345Y-93042575D01*
X76113053Y-93030034D01*
X76074420Y-92963120D01*
X76039225Y-92907107D01*
X76034830Y-92894547D01*
X76029464Y-92885253D01*
X76001980Y-92800667D01*
X75980058Y-92738017D01*
X75979226Y-92730639D01*
X75977804Y-92726261D01*
X75964908Y-92603565D01*
X75960000Y-92560000D01*
X75964908Y-92516438D01*
X75977804Y-92393738D01*
X75979226Y-92389358D01*
X75980058Y-92381983D01*
X76001975Y-92319345D01*
X76029464Y-92234746D01*
X76034831Y-92225449D01*
X76039225Y-92212893D01*
X76074413Y-92156890D01*
X76113053Y-92089965D01*
X76124347Y-92077421D01*
X76134535Y-92061208D01*
X76178826Y-92016916D01*
X76224917Y-91965728D01*
X76243559Y-91952183D01*
X76261208Y-91934535D01*
X76310354Y-91903654D01*
X76360162Y-91867467D01*
X76386873Y-91855574D01*
X76412893Y-91839225D01*
X76462877Y-91821734D01*
X76512889Y-91799468D01*
X76547592Y-91792091D01*
X76581983Y-91780058D01*
X76629281Y-91774728D01*
X76676412Y-91764711D01*
X76718189Y-91764711D01*
X76760000Y-91760000D01*
X76801811Y-91764711D01*
G37*
G36*
X92041811Y-91764711D02*
G01*
X92083588Y-91764711D01*
X92130718Y-91774728D01*
X92178017Y-91780058D01*
X92212408Y-91792092D01*
X92247110Y-91799468D01*
X92297117Y-91821733D01*
X92347107Y-91839225D01*
X92373128Y-91855575D01*
X92399835Y-91867466D01*
X92449633Y-91903646D01*
X92498792Y-91934535D01*
X92516444Y-91952187D01*
X92535084Y-91965730D01*
X92581165Y-92016908D01*
X92625465Y-92061208D01*
X92635654Y-92077424D01*
X92646946Y-92089965D01*
X92685573Y-92156870D01*
X92720775Y-92212893D01*
X92725170Y-92225453D01*
X92730535Y-92234746D01*
X92758010Y-92319305D01*
X92779942Y-92381983D01*
X92780773Y-92389363D01*
X92782195Y-92393738D01*
X92795076Y-92516306D01*
X92800000Y-92560000D01*
X92795076Y-92603697D01*
X92782195Y-92726261D01*
X92780773Y-92730635D01*
X92779942Y-92738017D01*
X92758005Y-92800707D01*
X92730535Y-92885253D01*
X92725171Y-92894543D01*
X92720775Y-92907107D01*
X92685566Y-92963140D01*
X92646946Y-93030034D01*
X92635656Y-93042572D01*
X92625465Y-93058792D01*
X92581155Y-93103101D01*
X92535084Y-93154269D01*
X92516448Y-93167808D01*
X92498792Y-93185465D01*
X92449623Y-93216359D01*
X92399835Y-93252533D01*
X92373134Y-93264421D01*
X92347107Y-93280775D01*
X92297107Y-93298270D01*
X92247110Y-93320531D01*
X92212414Y-93327905D01*
X92178017Y-93339942D01*
X92130715Y-93345271D01*
X92083588Y-93355289D01*
X92041811Y-93355289D01*
X92000000Y-93360000D01*
X91958189Y-93355289D01*
X91916412Y-93355289D01*
X91869284Y-93345271D01*
X91821983Y-93339942D01*
X91787586Y-93327906D01*
X91752889Y-93320531D01*
X91702887Y-93298268D01*
X91652893Y-93280775D01*
X91626868Y-93264422D01*
X91600164Y-93252533D01*
X91550369Y-93216355D01*
X91501208Y-93185465D01*
X91483554Y-93167811D01*
X91464915Y-93154269D01*
X91418833Y-93103090D01*
X91374535Y-93058792D01*
X91364345Y-93042575D01*
X91353053Y-93030034D01*
X91314420Y-92963120D01*
X91279225Y-92907107D01*
X91274830Y-92894547D01*
X91269464Y-92885253D01*
X91241980Y-92800667D01*
X91220058Y-92738017D01*
X91219226Y-92730639D01*
X91217804Y-92726261D01*
X91204908Y-92603565D01*
X91200000Y-92560000D01*
X91204908Y-92516438D01*
X91217804Y-92393738D01*
X91219226Y-92389358D01*
X91220058Y-92381983D01*
X91241975Y-92319345D01*
X91269464Y-92234746D01*
X91274831Y-92225449D01*
X91279225Y-92212893D01*
X91314413Y-92156890D01*
X91353053Y-92089965D01*
X91364347Y-92077421D01*
X91374535Y-92061208D01*
X91418826Y-92016916D01*
X91464917Y-91965728D01*
X91483559Y-91952183D01*
X91501208Y-91934535D01*
X91550354Y-91903654D01*
X91600162Y-91867467D01*
X91626873Y-91855574D01*
X91652893Y-91839225D01*
X91702877Y-91821734D01*
X91752889Y-91799468D01*
X91787592Y-91792091D01*
X91821983Y-91780058D01*
X91869281Y-91774728D01*
X91916412Y-91764711D01*
X91958189Y-91764711D01*
X92000000Y-91760000D01*
X92041811Y-91764711D01*
G37*
G36*
X98459501Y-91736180D02*
G01*
X98620559Y-91792537D01*
X98765039Y-91883319D01*
X98885696Y-92003976D01*
X98976478Y-92148456D01*
X99032835Y-92309514D01*
X99051940Y-92479075D01*
X99032835Y-92648636D01*
X98976478Y-92809694D01*
X98885696Y-92954174D01*
X98765039Y-93074831D01*
X98620559Y-93165613D01*
X98459501Y-93221970D01*
X98289940Y-93241075D01*
X98120379Y-93221970D01*
X97959321Y-93165613D01*
X97814841Y-93074831D01*
X97694184Y-92954174D01*
X97603402Y-92809694D01*
X97547045Y-92648636D01*
X97527940Y-92479075D01*
X97547045Y-92309514D01*
X97603402Y-92148456D01*
X97694184Y-92003976D01*
X97814841Y-91883319D01*
X97959321Y-91792537D01*
X98120379Y-91736180D01*
X98289940Y-91717075D01*
X98459501Y-91736180D01*
G37*
G36*
X76801811Y-89224711D02*
G01*
X76843588Y-89224711D01*
X76890718Y-89234728D01*
X76938017Y-89240058D01*
X76972408Y-89252092D01*
X77007110Y-89259468D01*
X77057117Y-89281733D01*
X77107107Y-89299225D01*
X77133128Y-89315575D01*
X77159835Y-89327466D01*
X77209633Y-89363646D01*
X77258792Y-89394535D01*
X77276444Y-89412187D01*
X77295084Y-89425730D01*
X77341165Y-89476908D01*
X77385465Y-89521208D01*
X77395654Y-89537424D01*
X77406946Y-89549965D01*
X77445573Y-89616870D01*
X77480775Y-89672893D01*
X77485170Y-89685453D01*
X77490535Y-89694746D01*
X77518010Y-89779305D01*
X77539942Y-89841983D01*
X77540773Y-89849363D01*
X77542195Y-89853738D01*
X77555076Y-89976306D01*
X77560000Y-90020000D01*
X77555076Y-90063697D01*
X77542195Y-90186261D01*
X77540773Y-90190635D01*
X77539942Y-90198017D01*
X77518005Y-90260707D01*
X77490535Y-90345253D01*
X77485171Y-90354543D01*
X77480775Y-90367107D01*
X77445566Y-90423140D01*
X77406946Y-90490034D01*
X77395656Y-90502572D01*
X77385465Y-90518792D01*
X77341155Y-90563101D01*
X77295084Y-90614269D01*
X77276448Y-90627808D01*
X77258792Y-90645465D01*
X77209623Y-90676359D01*
X77159835Y-90712533D01*
X77133134Y-90724421D01*
X77107107Y-90740775D01*
X77057107Y-90758270D01*
X77007110Y-90780531D01*
X76972414Y-90787905D01*
X76938017Y-90799942D01*
X76890715Y-90805271D01*
X76843588Y-90815289D01*
X76801811Y-90815289D01*
X76760000Y-90820000D01*
X76718189Y-90815289D01*
X76676412Y-90815289D01*
X76629284Y-90805271D01*
X76581983Y-90799942D01*
X76547586Y-90787906D01*
X76512889Y-90780531D01*
X76462887Y-90758268D01*
X76412893Y-90740775D01*
X76386868Y-90724422D01*
X76360164Y-90712533D01*
X76310369Y-90676355D01*
X76261208Y-90645465D01*
X76243554Y-90627811D01*
X76224915Y-90614269D01*
X76178833Y-90563090D01*
X76134535Y-90518792D01*
X76124345Y-90502575D01*
X76113053Y-90490034D01*
X76074420Y-90423120D01*
X76039225Y-90367107D01*
X76034830Y-90354547D01*
X76029464Y-90345253D01*
X76001980Y-90260667D01*
X75980058Y-90198017D01*
X75979226Y-90190639D01*
X75977804Y-90186261D01*
X75964908Y-90063565D01*
X75960000Y-90020000D01*
X75964908Y-89976438D01*
X75977804Y-89853738D01*
X75979226Y-89849358D01*
X75980058Y-89841983D01*
X76001975Y-89779345D01*
X76029464Y-89694746D01*
X76034831Y-89685449D01*
X76039225Y-89672893D01*
X76074413Y-89616890D01*
X76113053Y-89549965D01*
X76124347Y-89537421D01*
X76134535Y-89521208D01*
X76178826Y-89476916D01*
X76224917Y-89425728D01*
X76243559Y-89412183D01*
X76261208Y-89394535D01*
X76310354Y-89363654D01*
X76360162Y-89327467D01*
X76386873Y-89315574D01*
X76412893Y-89299225D01*
X76462877Y-89281734D01*
X76512889Y-89259468D01*
X76547592Y-89252091D01*
X76581983Y-89240058D01*
X76629281Y-89234728D01*
X76676412Y-89224711D01*
X76718189Y-89224711D01*
X76760000Y-89220000D01*
X76801811Y-89224711D01*
G37*
G36*
X79341811Y-89224711D02*
G01*
X79383588Y-89224711D01*
X79430718Y-89234728D01*
X79478017Y-89240058D01*
X79512408Y-89252092D01*
X79547110Y-89259468D01*
X79597117Y-89281733D01*
X79647107Y-89299225D01*
X79673128Y-89315575D01*
X79699835Y-89327466D01*
X79749633Y-89363646D01*
X79798792Y-89394535D01*
X79816444Y-89412187D01*
X79835084Y-89425730D01*
X79881165Y-89476908D01*
X79925465Y-89521208D01*
X79935654Y-89537424D01*
X79946946Y-89549965D01*
X79985573Y-89616870D01*
X80020775Y-89672893D01*
X80025170Y-89685453D01*
X80030535Y-89694746D01*
X80058010Y-89779305D01*
X80079942Y-89841983D01*
X80080773Y-89849363D01*
X80082195Y-89853738D01*
X80095076Y-89976306D01*
X80100000Y-90020000D01*
X80095076Y-90063697D01*
X80082195Y-90186261D01*
X80080773Y-90190635D01*
X80079942Y-90198017D01*
X80058005Y-90260707D01*
X80030535Y-90345253D01*
X80025171Y-90354543D01*
X80020775Y-90367107D01*
X79985566Y-90423140D01*
X79946946Y-90490034D01*
X79935656Y-90502572D01*
X79925465Y-90518792D01*
X79881155Y-90563101D01*
X79835084Y-90614269D01*
X79816448Y-90627808D01*
X79798792Y-90645465D01*
X79749623Y-90676359D01*
X79699835Y-90712533D01*
X79673134Y-90724421D01*
X79647107Y-90740775D01*
X79597107Y-90758270D01*
X79547110Y-90780531D01*
X79512414Y-90787905D01*
X79478017Y-90799942D01*
X79430715Y-90805271D01*
X79383588Y-90815289D01*
X79341811Y-90815289D01*
X79300000Y-90820000D01*
X79258189Y-90815289D01*
X79216412Y-90815289D01*
X79169284Y-90805271D01*
X79121983Y-90799942D01*
X79087586Y-90787906D01*
X79052889Y-90780531D01*
X79002887Y-90758268D01*
X78952893Y-90740775D01*
X78926868Y-90724422D01*
X78900164Y-90712533D01*
X78850369Y-90676355D01*
X78801208Y-90645465D01*
X78783554Y-90627811D01*
X78764915Y-90614269D01*
X78718833Y-90563090D01*
X78674535Y-90518792D01*
X78664345Y-90502575D01*
X78653053Y-90490034D01*
X78614420Y-90423120D01*
X78579225Y-90367107D01*
X78574830Y-90354547D01*
X78569464Y-90345253D01*
X78541980Y-90260667D01*
X78520058Y-90198017D01*
X78519226Y-90190639D01*
X78517804Y-90186261D01*
X78504908Y-90063565D01*
X78500000Y-90020000D01*
X78504908Y-89976438D01*
X78517804Y-89853738D01*
X78519226Y-89849358D01*
X78520058Y-89841983D01*
X78541975Y-89779345D01*
X78569464Y-89694746D01*
X78574831Y-89685449D01*
X78579225Y-89672893D01*
X78614413Y-89616890D01*
X78653053Y-89549965D01*
X78664347Y-89537421D01*
X78674535Y-89521208D01*
X78718826Y-89476916D01*
X78764917Y-89425728D01*
X78783559Y-89412183D01*
X78801208Y-89394535D01*
X78850354Y-89363654D01*
X78900162Y-89327467D01*
X78926873Y-89315574D01*
X78952893Y-89299225D01*
X79002877Y-89281734D01*
X79052889Y-89259468D01*
X79087592Y-89252091D01*
X79121983Y-89240058D01*
X79169281Y-89234728D01*
X79216412Y-89224711D01*
X79258189Y-89224711D01*
X79300000Y-89220000D01*
X79341811Y-89224711D01*
G37*
G36*
X81881811Y-89224711D02*
G01*
X81923588Y-89224711D01*
X81970718Y-89234728D01*
X82018017Y-89240058D01*
X82052408Y-89252092D01*
X82087110Y-89259468D01*
X82137117Y-89281733D01*
X82187107Y-89299225D01*
X82213128Y-89315575D01*
X82239835Y-89327466D01*
X82289633Y-89363646D01*
X82338792Y-89394535D01*
X82356444Y-89412187D01*
X82375084Y-89425730D01*
X82421165Y-89476908D01*
X82465465Y-89521208D01*
X82475654Y-89537424D01*
X82486946Y-89549965D01*
X82525573Y-89616870D01*
X82560775Y-89672893D01*
X82565170Y-89685453D01*
X82570535Y-89694746D01*
X82598010Y-89779305D01*
X82619942Y-89841983D01*
X82620773Y-89849363D01*
X82622195Y-89853738D01*
X82635076Y-89976306D01*
X82640000Y-90020000D01*
X82635076Y-90063697D01*
X82622195Y-90186261D01*
X82620773Y-90190635D01*
X82619942Y-90198017D01*
X82598005Y-90260707D01*
X82570535Y-90345253D01*
X82565171Y-90354543D01*
X82560775Y-90367107D01*
X82525566Y-90423140D01*
X82486946Y-90490034D01*
X82475656Y-90502572D01*
X82465465Y-90518792D01*
X82421155Y-90563101D01*
X82375084Y-90614269D01*
X82356448Y-90627808D01*
X82338792Y-90645465D01*
X82289623Y-90676359D01*
X82239835Y-90712533D01*
X82213134Y-90724421D01*
X82187107Y-90740775D01*
X82137107Y-90758270D01*
X82087110Y-90780531D01*
X82052414Y-90787905D01*
X82018017Y-90799942D01*
X81970715Y-90805271D01*
X81923588Y-90815289D01*
X81881811Y-90815289D01*
X81840000Y-90820000D01*
X81798189Y-90815289D01*
X81756412Y-90815289D01*
X81709284Y-90805271D01*
X81661983Y-90799942D01*
X81627586Y-90787906D01*
X81592889Y-90780531D01*
X81542887Y-90758268D01*
X81492893Y-90740775D01*
X81466868Y-90724422D01*
X81440164Y-90712533D01*
X81390369Y-90676355D01*
X81341208Y-90645465D01*
X81323554Y-90627811D01*
X81304915Y-90614269D01*
X81258833Y-90563090D01*
X81214535Y-90518792D01*
X81204345Y-90502575D01*
X81193053Y-90490034D01*
X81154420Y-90423120D01*
X81119225Y-90367107D01*
X81114830Y-90354547D01*
X81109464Y-90345253D01*
X81081980Y-90260667D01*
X81060058Y-90198017D01*
X81059226Y-90190639D01*
X81057804Y-90186261D01*
X81044908Y-90063565D01*
X81040000Y-90020000D01*
X81044908Y-89976438D01*
X81057804Y-89853738D01*
X81059226Y-89849358D01*
X81060058Y-89841983D01*
X81081975Y-89779345D01*
X81109464Y-89694746D01*
X81114831Y-89685449D01*
X81119225Y-89672893D01*
X81154413Y-89616890D01*
X81193053Y-89549965D01*
X81204347Y-89537421D01*
X81214535Y-89521208D01*
X81258826Y-89476916D01*
X81304917Y-89425728D01*
X81323559Y-89412183D01*
X81341208Y-89394535D01*
X81390354Y-89363654D01*
X81440162Y-89327467D01*
X81466873Y-89315574D01*
X81492893Y-89299225D01*
X81542877Y-89281734D01*
X81592889Y-89259468D01*
X81627592Y-89252091D01*
X81661983Y-89240058D01*
X81709281Y-89234728D01*
X81756412Y-89224711D01*
X81798189Y-89224711D01*
X81840000Y-89220000D01*
X81881811Y-89224711D01*
G37*
G36*
X84421811Y-89224711D02*
G01*
X84463588Y-89224711D01*
X84510718Y-89234728D01*
X84558017Y-89240058D01*
X84592408Y-89252092D01*
X84627110Y-89259468D01*
X84677117Y-89281733D01*
X84727107Y-89299225D01*
X84753128Y-89315575D01*
X84779835Y-89327466D01*
X84829633Y-89363646D01*
X84878792Y-89394535D01*
X84896444Y-89412187D01*
X84915084Y-89425730D01*
X84961165Y-89476908D01*
X85005465Y-89521208D01*
X85015654Y-89537424D01*
X85026946Y-89549965D01*
X85065573Y-89616870D01*
X85100775Y-89672893D01*
X85105170Y-89685453D01*
X85110535Y-89694746D01*
X85138010Y-89779305D01*
X85159942Y-89841983D01*
X85160773Y-89849363D01*
X85162195Y-89853738D01*
X85175076Y-89976306D01*
X85180000Y-90020000D01*
X85175076Y-90063697D01*
X85162195Y-90186261D01*
X85160773Y-90190635D01*
X85159942Y-90198017D01*
X85138005Y-90260707D01*
X85110535Y-90345253D01*
X85105171Y-90354543D01*
X85100775Y-90367107D01*
X85065566Y-90423140D01*
X85026946Y-90490034D01*
X85015656Y-90502572D01*
X85005465Y-90518792D01*
X84961155Y-90563101D01*
X84915084Y-90614269D01*
X84896448Y-90627808D01*
X84878792Y-90645465D01*
X84829623Y-90676359D01*
X84779835Y-90712533D01*
X84753134Y-90724421D01*
X84727107Y-90740775D01*
X84677107Y-90758270D01*
X84627110Y-90780531D01*
X84592414Y-90787905D01*
X84558017Y-90799942D01*
X84510715Y-90805271D01*
X84463588Y-90815289D01*
X84421811Y-90815289D01*
X84380000Y-90820000D01*
X84338189Y-90815289D01*
X84296412Y-90815289D01*
X84249284Y-90805271D01*
X84201983Y-90799942D01*
X84167586Y-90787906D01*
X84132889Y-90780531D01*
X84082887Y-90758268D01*
X84032893Y-90740775D01*
X84006868Y-90724422D01*
X83980164Y-90712533D01*
X83930369Y-90676355D01*
X83881208Y-90645465D01*
X83863554Y-90627811D01*
X83844915Y-90614269D01*
X83798833Y-90563090D01*
X83754535Y-90518792D01*
X83744345Y-90502575D01*
X83733053Y-90490034D01*
X83694420Y-90423120D01*
X83659225Y-90367107D01*
X83654830Y-90354547D01*
X83649464Y-90345253D01*
X83621980Y-90260667D01*
X83600058Y-90198017D01*
X83599226Y-90190639D01*
X83597804Y-90186261D01*
X83584908Y-90063565D01*
X83580000Y-90020000D01*
X83584908Y-89976438D01*
X83597804Y-89853738D01*
X83599226Y-89849358D01*
X83600058Y-89841983D01*
X83621975Y-89779345D01*
X83649464Y-89694746D01*
X83654831Y-89685449D01*
X83659225Y-89672893D01*
X83694413Y-89616890D01*
X83733053Y-89549965D01*
X83744347Y-89537421D01*
X83754535Y-89521208D01*
X83798826Y-89476916D01*
X83844917Y-89425728D01*
X83863559Y-89412183D01*
X83881208Y-89394535D01*
X83930354Y-89363654D01*
X83980162Y-89327467D01*
X84006873Y-89315574D01*
X84032893Y-89299225D01*
X84082877Y-89281734D01*
X84132889Y-89259468D01*
X84167592Y-89252091D01*
X84201983Y-89240058D01*
X84249281Y-89234728D01*
X84296412Y-89224711D01*
X84338189Y-89224711D01*
X84380000Y-89220000D01*
X84421811Y-89224711D01*
G37*
G36*
X86961811Y-89224711D02*
G01*
X87003588Y-89224711D01*
X87050718Y-89234728D01*
X87098017Y-89240058D01*
X87132408Y-89252092D01*
X87167110Y-89259468D01*
X87217117Y-89281733D01*
X87267107Y-89299225D01*
X87293128Y-89315575D01*
X87319835Y-89327466D01*
X87369633Y-89363646D01*
X87418792Y-89394535D01*
X87436444Y-89412187D01*
X87455084Y-89425730D01*
X87501165Y-89476908D01*
X87545465Y-89521208D01*
X87555654Y-89537424D01*
X87566946Y-89549965D01*
X87605573Y-89616870D01*
X87640775Y-89672893D01*
X87645170Y-89685453D01*
X87650535Y-89694746D01*
X87678010Y-89779305D01*
X87699942Y-89841983D01*
X87700773Y-89849363D01*
X87702195Y-89853738D01*
X87715076Y-89976306D01*
X87720000Y-90020000D01*
X87715076Y-90063697D01*
X87702195Y-90186261D01*
X87700773Y-90190635D01*
X87699942Y-90198017D01*
X87678005Y-90260707D01*
X87650535Y-90345253D01*
X87645171Y-90354543D01*
X87640775Y-90367107D01*
X87605566Y-90423140D01*
X87566946Y-90490034D01*
X87555656Y-90502572D01*
X87545465Y-90518792D01*
X87501155Y-90563101D01*
X87455084Y-90614269D01*
X87436448Y-90627808D01*
X87418792Y-90645465D01*
X87369623Y-90676359D01*
X87319835Y-90712533D01*
X87293134Y-90724421D01*
X87267107Y-90740775D01*
X87217107Y-90758270D01*
X87167110Y-90780531D01*
X87132414Y-90787905D01*
X87098017Y-90799942D01*
X87050715Y-90805271D01*
X87003588Y-90815289D01*
X86961811Y-90815289D01*
X86920000Y-90820000D01*
X86878189Y-90815289D01*
X86836412Y-90815289D01*
X86789284Y-90805271D01*
X86741983Y-90799942D01*
X86707586Y-90787906D01*
X86672889Y-90780531D01*
X86622887Y-90758268D01*
X86572893Y-90740775D01*
X86546868Y-90724422D01*
X86520164Y-90712533D01*
X86470369Y-90676355D01*
X86421208Y-90645465D01*
X86403554Y-90627811D01*
X86384915Y-90614269D01*
X86338833Y-90563090D01*
X86294535Y-90518792D01*
X86284345Y-90502575D01*
X86273053Y-90490034D01*
X86234420Y-90423120D01*
X86199225Y-90367107D01*
X86194830Y-90354547D01*
X86189464Y-90345253D01*
X86161980Y-90260667D01*
X86140058Y-90198017D01*
X86139226Y-90190639D01*
X86137804Y-90186261D01*
X86124908Y-90063565D01*
X86120000Y-90020000D01*
X86124908Y-89976438D01*
X86137804Y-89853738D01*
X86139226Y-89849358D01*
X86140058Y-89841983D01*
X86161975Y-89779345D01*
X86189464Y-89694746D01*
X86194831Y-89685449D01*
X86199225Y-89672893D01*
X86234413Y-89616890D01*
X86273053Y-89549965D01*
X86284347Y-89537421D01*
X86294535Y-89521208D01*
X86338826Y-89476916D01*
X86384917Y-89425728D01*
X86403559Y-89412183D01*
X86421208Y-89394535D01*
X86470354Y-89363654D01*
X86520162Y-89327467D01*
X86546873Y-89315574D01*
X86572893Y-89299225D01*
X86622877Y-89281734D01*
X86672889Y-89259468D01*
X86707592Y-89252091D01*
X86741983Y-89240058D01*
X86789281Y-89234728D01*
X86836412Y-89224711D01*
X86878189Y-89224711D01*
X86920000Y-89220000D01*
X86961811Y-89224711D01*
G37*
G36*
X89501811Y-89224711D02*
G01*
X89543588Y-89224711D01*
X89590718Y-89234728D01*
X89638017Y-89240058D01*
X89672408Y-89252092D01*
X89707110Y-89259468D01*
X89757117Y-89281733D01*
X89807107Y-89299225D01*
X89833128Y-89315575D01*
X89859835Y-89327466D01*
X89909633Y-89363646D01*
X89958792Y-89394535D01*
X89976444Y-89412187D01*
X89995084Y-89425730D01*
X90041165Y-89476908D01*
X90085465Y-89521208D01*
X90095654Y-89537424D01*
X90106946Y-89549965D01*
X90145573Y-89616870D01*
X90180775Y-89672893D01*
X90185170Y-89685453D01*
X90190535Y-89694746D01*
X90218010Y-89779305D01*
X90239942Y-89841983D01*
X90240773Y-89849363D01*
X90242195Y-89853738D01*
X90255076Y-89976306D01*
X90260000Y-90020000D01*
X90255076Y-90063697D01*
X90242195Y-90186261D01*
X90240773Y-90190635D01*
X90239942Y-90198017D01*
X90218005Y-90260707D01*
X90190535Y-90345253D01*
X90185171Y-90354543D01*
X90180775Y-90367107D01*
X90145566Y-90423140D01*
X90106946Y-90490034D01*
X90095656Y-90502572D01*
X90085465Y-90518792D01*
X90041155Y-90563101D01*
X89995084Y-90614269D01*
X89976448Y-90627808D01*
X89958792Y-90645465D01*
X89909623Y-90676359D01*
X89859835Y-90712533D01*
X89833134Y-90724421D01*
X89807107Y-90740775D01*
X89757107Y-90758270D01*
X89707110Y-90780531D01*
X89672414Y-90787905D01*
X89638017Y-90799942D01*
X89590715Y-90805271D01*
X89543588Y-90815289D01*
X89501811Y-90815289D01*
X89460000Y-90820000D01*
X89418189Y-90815289D01*
X89376412Y-90815289D01*
X89329284Y-90805271D01*
X89281983Y-90799942D01*
X89247586Y-90787906D01*
X89212889Y-90780531D01*
X89162887Y-90758268D01*
X89112893Y-90740775D01*
X89086868Y-90724422D01*
X89060164Y-90712533D01*
X89010369Y-90676355D01*
X88961208Y-90645465D01*
X88943554Y-90627811D01*
X88924915Y-90614269D01*
X88878833Y-90563090D01*
X88834535Y-90518792D01*
X88824345Y-90502575D01*
X88813053Y-90490034D01*
X88774420Y-90423120D01*
X88739225Y-90367107D01*
X88734830Y-90354547D01*
X88729464Y-90345253D01*
X88701980Y-90260667D01*
X88680058Y-90198017D01*
X88679226Y-90190639D01*
X88677804Y-90186261D01*
X88664908Y-90063565D01*
X88660000Y-90020000D01*
X88664908Y-89976438D01*
X88677804Y-89853738D01*
X88679226Y-89849358D01*
X88680058Y-89841983D01*
X88701975Y-89779345D01*
X88729464Y-89694746D01*
X88734831Y-89685449D01*
X88739225Y-89672893D01*
X88774413Y-89616890D01*
X88813053Y-89549965D01*
X88824347Y-89537421D01*
X88834535Y-89521208D01*
X88878826Y-89476916D01*
X88924917Y-89425728D01*
X88943559Y-89412183D01*
X88961208Y-89394535D01*
X89010354Y-89363654D01*
X89060162Y-89327467D01*
X89086873Y-89315574D01*
X89112893Y-89299225D01*
X89162877Y-89281734D01*
X89212889Y-89259468D01*
X89247592Y-89252091D01*
X89281983Y-89240058D01*
X89329281Y-89234728D01*
X89376412Y-89224711D01*
X89418189Y-89224711D01*
X89460000Y-89220000D01*
X89501811Y-89224711D01*
G37*
G36*
X92041811Y-89224711D02*
G01*
X92083588Y-89224711D01*
X92130718Y-89234728D01*
X92178017Y-89240058D01*
X92212408Y-89252092D01*
X92247110Y-89259468D01*
X92297117Y-89281733D01*
X92347107Y-89299225D01*
X92373128Y-89315575D01*
X92399835Y-89327466D01*
X92449633Y-89363646D01*
X92498792Y-89394535D01*
X92516444Y-89412187D01*
X92535084Y-89425730D01*
X92581165Y-89476908D01*
X92625465Y-89521208D01*
X92635654Y-89537424D01*
X92646946Y-89549965D01*
X92685573Y-89616870D01*
X92720775Y-89672893D01*
X92725170Y-89685453D01*
X92730535Y-89694746D01*
X92758010Y-89779305D01*
X92779942Y-89841983D01*
X92780773Y-89849363D01*
X92782195Y-89853738D01*
X92795076Y-89976306D01*
X92800000Y-90020000D01*
X92795076Y-90063697D01*
X92782195Y-90186261D01*
X92780773Y-90190635D01*
X92779942Y-90198017D01*
X92758005Y-90260707D01*
X92730535Y-90345253D01*
X92725171Y-90354543D01*
X92720775Y-90367107D01*
X92685566Y-90423140D01*
X92646946Y-90490034D01*
X92635656Y-90502572D01*
X92625465Y-90518792D01*
X92581155Y-90563101D01*
X92535084Y-90614269D01*
X92516448Y-90627808D01*
X92498792Y-90645465D01*
X92449623Y-90676359D01*
X92399835Y-90712533D01*
X92373134Y-90724421D01*
X92347107Y-90740775D01*
X92297107Y-90758270D01*
X92247110Y-90780531D01*
X92212414Y-90787905D01*
X92178017Y-90799942D01*
X92130715Y-90805271D01*
X92083588Y-90815289D01*
X92041811Y-90815289D01*
X92000000Y-90820000D01*
X91958189Y-90815289D01*
X91916412Y-90815289D01*
X91869284Y-90805271D01*
X91821983Y-90799942D01*
X91787586Y-90787906D01*
X91752889Y-90780531D01*
X91702887Y-90758268D01*
X91652893Y-90740775D01*
X91626868Y-90724422D01*
X91600164Y-90712533D01*
X91550369Y-90676355D01*
X91501208Y-90645465D01*
X91483554Y-90627811D01*
X91464915Y-90614269D01*
X91418833Y-90563090D01*
X91374535Y-90518792D01*
X91364345Y-90502575D01*
X91353053Y-90490034D01*
X91314420Y-90423120D01*
X91279225Y-90367107D01*
X91274830Y-90354547D01*
X91269464Y-90345253D01*
X91241980Y-90260667D01*
X91220058Y-90198017D01*
X91219226Y-90190639D01*
X91217804Y-90186261D01*
X91204908Y-90063565D01*
X91200000Y-90020000D01*
X91204908Y-89976438D01*
X91217804Y-89853738D01*
X91219226Y-89849358D01*
X91220058Y-89841983D01*
X91241975Y-89779345D01*
X91269464Y-89694746D01*
X91274831Y-89685449D01*
X91279225Y-89672893D01*
X91314413Y-89616890D01*
X91353053Y-89549965D01*
X91364347Y-89537421D01*
X91374535Y-89521208D01*
X91418826Y-89476916D01*
X91464917Y-89425728D01*
X91483559Y-89412183D01*
X91501208Y-89394535D01*
X91550354Y-89363654D01*
X91600162Y-89327467D01*
X91626873Y-89315574D01*
X91652893Y-89299225D01*
X91702877Y-89281734D01*
X91752889Y-89259468D01*
X91787592Y-89252091D01*
X91821983Y-89240058D01*
X91869281Y-89234728D01*
X91916412Y-89224711D01*
X91958189Y-89224711D01*
X92000000Y-89220000D01*
X92041811Y-89224711D01*
G37*
G36*
X98459501Y-89196180D02*
G01*
X98620559Y-89252537D01*
X98765039Y-89343319D01*
X98885696Y-89463976D01*
X98976478Y-89608456D01*
X99032835Y-89769514D01*
X99051940Y-89939075D01*
X99032835Y-90108636D01*
X98976478Y-90269694D01*
X98885696Y-90414174D01*
X98765039Y-90534831D01*
X98620559Y-90625613D01*
X98459501Y-90681970D01*
X98289940Y-90701075D01*
X98120379Y-90681970D01*
X97959321Y-90625613D01*
X97814841Y-90534831D01*
X97694184Y-90414174D01*
X97603402Y-90269694D01*
X97547045Y-90108636D01*
X97527940Y-89939075D01*
X97547045Y-89769514D01*
X97603402Y-89608456D01*
X97694184Y-89463976D01*
X97814841Y-89343319D01*
X97959321Y-89252537D01*
X98120379Y-89196180D01*
X98289940Y-89177075D01*
X98459501Y-89196180D01*
G37*
G36*
X76801811Y-86684711D02*
G01*
X76843588Y-86684711D01*
X76890718Y-86694728D01*
X76938017Y-86700058D01*
X76972408Y-86712092D01*
X77007110Y-86719468D01*
X77057117Y-86741733D01*
X77107107Y-86759225D01*
X77133128Y-86775575D01*
X77159835Y-86787466D01*
X77209633Y-86823646D01*
X77258792Y-86854535D01*
X77276444Y-86872187D01*
X77295084Y-86885730D01*
X77341165Y-86936908D01*
X77385465Y-86981208D01*
X77395654Y-86997424D01*
X77406946Y-87009965D01*
X77445573Y-87076870D01*
X77480775Y-87132893D01*
X77485170Y-87145453D01*
X77490535Y-87154746D01*
X77518010Y-87239305D01*
X77539942Y-87301983D01*
X77540773Y-87309363D01*
X77542195Y-87313738D01*
X77555076Y-87436306D01*
X77560000Y-87480000D01*
X77555076Y-87523697D01*
X77542195Y-87646261D01*
X77540773Y-87650635D01*
X77539942Y-87658017D01*
X77518005Y-87720707D01*
X77490535Y-87805253D01*
X77485171Y-87814543D01*
X77480775Y-87827107D01*
X77445566Y-87883140D01*
X77406946Y-87950034D01*
X77395656Y-87962572D01*
X77385465Y-87978792D01*
X77341155Y-88023101D01*
X77295084Y-88074269D01*
X77276448Y-88087808D01*
X77258792Y-88105465D01*
X77209623Y-88136359D01*
X77159835Y-88172533D01*
X77133134Y-88184421D01*
X77107107Y-88200775D01*
X77057107Y-88218270D01*
X77007110Y-88240531D01*
X76972414Y-88247905D01*
X76938017Y-88259942D01*
X76890715Y-88265271D01*
X76843588Y-88275289D01*
X76801811Y-88275289D01*
X76760000Y-88280000D01*
X76718189Y-88275289D01*
X76676412Y-88275289D01*
X76629284Y-88265271D01*
X76581983Y-88259942D01*
X76547586Y-88247906D01*
X76512889Y-88240531D01*
X76462887Y-88218268D01*
X76412893Y-88200775D01*
X76386868Y-88184422D01*
X76360164Y-88172533D01*
X76310369Y-88136355D01*
X76261208Y-88105465D01*
X76243554Y-88087811D01*
X76224915Y-88074269D01*
X76178833Y-88023090D01*
X76134535Y-87978792D01*
X76124345Y-87962575D01*
X76113053Y-87950034D01*
X76074420Y-87883120D01*
X76039225Y-87827107D01*
X76034830Y-87814547D01*
X76029464Y-87805253D01*
X76001980Y-87720667D01*
X75980058Y-87658017D01*
X75979226Y-87650639D01*
X75977804Y-87646261D01*
X75964908Y-87523565D01*
X75960000Y-87480000D01*
X75964908Y-87436438D01*
X75977804Y-87313738D01*
X75979226Y-87309358D01*
X75980058Y-87301983D01*
X76001975Y-87239345D01*
X76029464Y-87154746D01*
X76034831Y-87145449D01*
X76039225Y-87132893D01*
X76074413Y-87076890D01*
X76113053Y-87009965D01*
X76124347Y-86997421D01*
X76134535Y-86981208D01*
X76178826Y-86936916D01*
X76224917Y-86885728D01*
X76243559Y-86872183D01*
X76261208Y-86854535D01*
X76310354Y-86823654D01*
X76360162Y-86787467D01*
X76386873Y-86775574D01*
X76412893Y-86759225D01*
X76462877Y-86741734D01*
X76512889Y-86719468D01*
X76547592Y-86712091D01*
X76581983Y-86700058D01*
X76629281Y-86694728D01*
X76676412Y-86684711D01*
X76718189Y-86684711D01*
X76760000Y-86680000D01*
X76801811Y-86684711D01*
G37*
G36*
X79341811Y-86684711D02*
G01*
X79383588Y-86684711D01*
X79430718Y-86694728D01*
X79478017Y-86700058D01*
X79512408Y-86712092D01*
X79547110Y-86719468D01*
X79597117Y-86741733D01*
X79647107Y-86759225D01*
X79673128Y-86775575D01*
X79699835Y-86787466D01*
X79749633Y-86823646D01*
X79798792Y-86854535D01*
X79816444Y-86872187D01*
X79835084Y-86885730D01*
X79881165Y-86936908D01*
X79925465Y-86981208D01*
X79935654Y-86997424D01*
X79946946Y-87009965D01*
X79985573Y-87076870D01*
X80020775Y-87132893D01*
X80025170Y-87145453D01*
X80030535Y-87154746D01*
X80058010Y-87239305D01*
X80079942Y-87301983D01*
X80080773Y-87309363D01*
X80082195Y-87313738D01*
X80095076Y-87436306D01*
X80100000Y-87480000D01*
X80095076Y-87523697D01*
X80082195Y-87646261D01*
X80080773Y-87650635D01*
X80079942Y-87658017D01*
X80058005Y-87720707D01*
X80030535Y-87805253D01*
X80025171Y-87814543D01*
X80020775Y-87827107D01*
X79985566Y-87883140D01*
X79946946Y-87950034D01*
X79935656Y-87962572D01*
X79925465Y-87978792D01*
X79881155Y-88023101D01*
X79835084Y-88074269D01*
X79816448Y-88087808D01*
X79798792Y-88105465D01*
X79749623Y-88136359D01*
X79699835Y-88172533D01*
X79673134Y-88184421D01*
X79647107Y-88200775D01*
X79597107Y-88218270D01*
X79547110Y-88240531D01*
X79512414Y-88247905D01*
X79478017Y-88259942D01*
X79430715Y-88265271D01*
X79383588Y-88275289D01*
X79341811Y-88275289D01*
X79300000Y-88280000D01*
X79258189Y-88275289D01*
X79216412Y-88275289D01*
X79169284Y-88265271D01*
X79121983Y-88259942D01*
X79087586Y-88247906D01*
X79052889Y-88240531D01*
X79002887Y-88218268D01*
X78952893Y-88200775D01*
X78926868Y-88184422D01*
X78900164Y-88172533D01*
X78850369Y-88136355D01*
X78801208Y-88105465D01*
X78783554Y-88087811D01*
X78764915Y-88074269D01*
X78718833Y-88023090D01*
X78674535Y-87978792D01*
X78664345Y-87962575D01*
X78653053Y-87950034D01*
X78614420Y-87883120D01*
X78579225Y-87827107D01*
X78574830Y-87814547D01*
X78569464Y-87805253D01*
X78541980Y-87720667D01*
X78520058Y-87658017D01*
X78519226Y-87650639D01*
X78517804Y-87646261D01*
X78504908Y-87523565D01*
X78500000Y-87480000D01*
X78504908Y-87436438D01*
X78517804Y-87313738D01*
X78519226Y-87309358D01*
X78520058Y-87301983D01*
X78541975Y-87239345D01*
X78569464Y-87154746D01*
X78574831Y-87145449D01*
X78579225Y-87132893D01*
X78614413Y-87076890D01*
X78653053Y-87009965D01*
X78664347Y-86997421D01*
X78674535Y-86981208D01*
X78718826Y-86936916D01*
X78764917Y-86885728D01*
X78783559Y-86872183D01*
X78801208Y-86854535D01*
X78850354Y-86823654D01*
X78900162Y-86787467D01*
X78926873Y-86775574D01*
X78952893Y-86759225D01*
X79002877Y-86741734D01*
X79052889Y-86719468D01*
X79087592Y-86712091D01*
X79121983Y-86700058D01*
X79169281Y-86694728D01*
X79216412Y-86684711D01*
X79258189Y-86684711D01*
X79300000Y-86680000D01*
X79341811Y-86684711D01*
G37*
G36*
X81881811Y-86684711D02*
G01*
X81923588Y-86684711D01*
X81970718Y-86694728D01*
X82018017Y-86700058D01*
X82052408Y-86712092D01*
X82087110Y-86719468D01*
X82137117Y-86741733D01*
X82187107Y-86759225D01*
X82213128Y-86775575D01*
X82239835Y-86787466D01*
X82289633Y-86823646D01*
X82338792Y-86854535D01*
X82356444Y-86872187D01*
X82375084Y-86885730D01*
X82421165Y-86936908D01*
X82465465Y-86981208D01*
X82475654Y-86997424D01*
X82486946Y-87009965D01*
X82525573Y-87076870D01*
X82560775Y-87132893D01*
X82565170Y-87145453D01*
X82570535Y-87154746D01*
X82598010Y-87239305D01*
X82619942Y-87301983D01*
X82620773Y-87309363D01*
X82622195Y-87313738D01*
X82635076Y-87436306D01*
X82640000Y-87480000D01*
X82635076Y-87523697D01*
X82622195Y-87646261D01*
X82620773Y-87650635D01*
X82619942Y-87658017D01*
X82598005Y-87720707D01*
X82570535Y-87805253D01*
X82565171Y-87814543D01*
X82560775Y-87827107D01*
X82525566Y-87883140D01*
X82486946Y-87950034D01*
X82475656Y-87962572D01*
X82465465Y-87978792D01*
X82421155Y-88023101D01*
X82375084Y-88074269D01*
X82356448Y-88087808D01*
X82338792Y-88105465D01*
X82289623Y-88136359D01*
X82239835Y-88172533D01*
X82213134Y-88184421D01*
X82187107Y-88200775D01*
X82137107Y-88218270D01*
X82087110Y-88240531D01*
X82052414Y-88247905D01*
X82018017Y-88259942D01*
X81970715Y-88265271D01*
X81923588Y-88275289D01*
X81881811Y-88275289D01*
X81840000Y-88280000D01*
X81798189Y-88275289D01*
X81756412Y-88275289D01*
X81709284Y-88265271D01*
X81661983Y-88259942D01*
X81627586Y-88247906D01*
X81592889Y-88240531D01*
X81542887Y-88218268D01*
X81492893Y-88200775D01*
X81466868Y-88184422D01*
X81440164Y-88172533D01*
X81390369Y-88136355D01*
X81341208Y-88105465D01*
X81323554Y-88087811D01*
X81304915Y-88074269D01*
X81258833Y-88023090D01*
X81214535Y-87978792D01*
X81204345Y-87962575D01*
X81193053Y-87950034D01*
X81154420Y-87883120D01*
X81119225Y-87827107D01*
X81114830Y-87814547D01*
X81109464Y-87805253D01*
X81081980Y-87720667D01*
X81060058Y-87658017D01*
X81059226Y-87650639D01*
X81057804Y-87646261D01*
X81044908Y-87523565D01*
X81040000Y-87480000D01*
X81044908Y-87436438D01*
X81057804Y-87313738D01*
X81059226Y-87309358D01*
X81060058Y-87301983D01*
X81081975Y-87239345D01*
X81109464Y-87154746D01*
X81114831Y-87145449D01*
X81119225Y-87132893D01*
X81154413Y-87076890D01*
X81193053Y-87009965D01*
X81204347Y-86997421D01*
X81214535Y-86981208D01*
X81258826Y-86936916D01*
X81304917Y-86885728D01*
X81323559Y-86872183D01*
X81341208Y-86854535D01*
X81390354Y-86823654D01*
X81440162Y-86787467D01*
X81466873Y-86775574D01*
X81492893Y-86759225D01*
X81542877Y-86741734D01*
X81592889Y-86719468D01*
X81627592Y-86712091D01*
X81661983Y-86700058D01*
X81709281Y-86694728D01*
X81756412Y-86684711D01*
X81798189Y-86684711D01*
X81840000Y-86680000D01*
X81881811Y-86684711D01*
G37*
G36*
X84421811Y-86684711D02*
G01*
X84463588Y-86684711D01*
X84510718Y-86694728D01*
X84558017Y-86700058D01*
X84592408Y-86712092D01*
X84627110Y-86719468D01*
X84677117Y-86741733D01*
X84727107Y-86759225D01*
X84753128Y-86775575D01*
X84779835Y-86787466D01*
X84829633Y-86823646D01*
X84878792Y-86854535D01*
X84896444Y-86872187D01*
X84915084Y-86885730D01*
X84961165Y-86936908D01*
X85005465Y-86981208D01*
X85015654Y-86997424D01*
X85026946Y-87009965D01*
X85065573Y-87076870D01*
X85100775Y-87132893D01*
X85105170Y-87145453D01*
X85110535Y-87154746D01*
X85138010Y-87239305D01*
X85159942Y-87301983D01*
X85160773Y-87309363D01*
X85162195Y-87313738D01*
X85175076Y-87436306D01*
X85180000Y-87480000D01*
X85175076Y-87523697D01*
X85162195Y-87646261D01*
X85160773Y-87650635D01*
X85159942Y-87658017D01*
X85138005Y-87720707D01*
X85110535Y-87805253D01*
X85105171Y-87814543D01*
X85100775Y-87827107D01*
X85065566Y-87883140D01*
X85026946Y-87950034D01*
X85015656Y-87962572D01*
X85005465Y-87978792D01*
X84961155Y-88023101D01*
X84915084Y-88074269D01*
X84896448Y-88087808D01*
X84878792Y-88105465D01*
X84829623Y-88136359D01*
X84779835Y-88172533D01*
X84753134Y-88184421D01*
X84727107Y-88200775D01*
X84677107Y-88218270D01*
X84627110Y-88240531D01*
X84592414Y-88247905D01*
X84558017Y-88259942D01*
X84510715Y-88265271D01*
X84463588Y-88275289D01*
X84421811Y-88275289D01*
X84380000Y-88280000D01*
X84338189Y-88275289D01*
X84296412Y-88275289D01*
X84249284Y-88265271D01*
X84201983Y-88259942D01*
X84167586Y-88247906D01*
X84132889Y-88240531D01*
X84082887Y-88218268D01*
X84032893Y-88200775D01*
X84006868Y-88184422D01*
X83980164Y-88172533D01*
X83930369Y-88136355D01*
X83881208Y-88105465D01*
X83863554Y-88087811D01*
X83844915Y-88074269D01*
X83798833Y-88023090D01*
X83754535Y-87978792D01*
X83744345Y-87962575D01*
X83733053Y-87950034D01*
X83694420Y-87883120D01*
X83659225Y-87827107D01*
X83654830Y-87814547D01*
X83649464Y-87805253D01*
X83621980Y-87720667D01*
X83600058Y-87658017D01*
X83599226Y-87650639D01*
X83597804Y-87646261D01*
X83584908Y-87523565D01*
X83580000Y-87480000D01*
X83584908Y-87436438D01*
X83597804Y-87313738D01*
X83599226Y-87309358D01*
X83600058Y-87301983D01*
X83621975Y-87239345D01*
X83649464Y-87154746D01*
X83654831Y-87145449D01*
X83659225Y-87132893D01*
X83694413Y-87076890D01*
X83733053Y-87009965D01*
X83744347Y-86997421D01*
X83754535Y-86981208D01*
X83798826Y-86936916D01*
X83844917Y-86885728D01*
X83863559Y-86872183D01*
X83881208Y-86854535D01*
X83930354Y-86823654D01*
X83980162Y-86787467D01*
X84006873Y-86775574D01*
X84032893Y-86759225D01*
X84082877Y-86741734D01*
X84132889Y-86719468D01*
X84167592Y-86712091D01*
X84201983Y-86700058D01*
X84249281Y-86694728D01*
X84296412Y-86684711D01*
X84338189Y-86684711D01*
X84380000Y-86680000D01*
X84421811Y-86684711D01*
G37*
G36*
X86961811Y-86684711D02*
G01*
X87003588Y-86684711D01*
X87050718Y-86694728D01*
X87098017Y-86700058D01*
X87132408Y-86712092D01*
X87167110Y-86719468D01*
X87217117Y-86741733D01*
X87267107Y-86759225D01*
X87293128Y-86775575D01*
X87319835Y-86787466D01*
X87369633Y-86823646D01*
X87418792Y-86854535D01*
X87436444Y-86872187D01*
X87455084Y-86885730D01*
X87501165Y-86936908D01*
X87545465Y-86981208D01*
X87555654Y-86997424D01*
X87566946Y-87009965D01*
X87605573Y-87076870D01*
X87640775Y-87132893D01*
X87645170Y-87145453D01*
X87650535Y-87154746D01*
X87678010Y-87239305D01*
X87699942Y-87301983D01*
X87700773Y-87309363D01*
X87702195Y-87313738D01*
X87715076Y-87436306D01*
X87720000Y-87480000D01*
X87715076Y-87523697D01*
X87702195Y-87646261D01*
X87700773Y-87650635D01*
X87699942Y-87658017D01*
X87678005Y-87720707D01*
X87650535Y-87805253D01*
X87645171Y-87814543D01*
X87640775Y-87827107D01*
X87605566Y-87883140D01*
X87566946Y-87950034D01*
X87555656Y-87962572D01*
X87545465Y-87978792D01*
X87501155Y-88023101D01*
X87455084Y-88074269D01*
X87436448Y-88087808D01*
X87418792Y-88105465D01*
X87369623Y-88136359D01*
X87319835Y-88172533D01*
X87293134Y-88184421D01*
X87267107Y-88200775D01*
X87217107Y-88218270D01*
X87167110Y-88240531D01*
X87132414Y-88247905D01*
X87098017Y-88259942D01*
X87050715Y-88265271D01*
X87003588Y-88275289D01*
X86961811Y-88275289D01*
X86920000Y-88280000D01*
X86878189Y-88275289D01*
X86836412Y-88275289D01*
X86789284Y-88265271D01*
X86741983Y-88259942D01*
X86707586Y-88247906D01*
X86672889Y-88240531D01*
X86622887Y-88218268D01*
X86572893Y-88200775D01*
X86546868Y-88184422D01*
X86520164Y-88172533D01*
X86470369Y-88136355D01*
X86421208Y-88105465D01*
X86403554Y-88087811D01*
X86384915Y-88074269D01*
X86338833Y-88023090D01*
X86294535Y-87978792D01*
X86284345Y-87962575D01*
X86273053Y-87950034D01*
X86234420Y-87883120D01*
X86199225Y-87827107D01*
X86194830Y-87814547D01*
X86189464Y-87805253D01*
X86161980Y-87720667D01*
X86140058Y-87658017D01*
X86139226Y-87650639D01*
X86137804Y-87646261D01*
X86124908Y-87523565D01*
X86120000Y-87480000D01*
X86124908Y-87436438D01*
X86137804Y-87313738D01*
X86139226Y-87309358D01*
X86140058Y-87301983D01*
X86161975Y-87239345D01*
X86189464Y-87154746D01*
X86194831Y-87145449D01*
X86199225Y-87132893D01*
X86234413Y-87076890D01*
X86273053Y-87009965D01*
X86284347Y-86997421D01*
X86294535Y-86981208D01*
X86338826Y-86936916D01*
X86384917Y-86885728D01*
X86403559Y-86872183D01*
X86421208Y-86854535D01*
X86470354Y-86823654D01*
X86520162Y-86787467D01*
X86546873Y-86775574D01*
X86572893Y-86759225D01*
X86622877Y-86741734D01*
X86672889Y-86719468D01*
X86707592Y-86712091D01*
X86741983Y-86700058D01*
X86789281Y-86694728D01*
X86836412Y-86684711D01*
X86878189Y-86684711D01*
X86920000Y-86680000D01*
X86961811Y-86684711D01*
G37*
G36*
X89501811Y-86684711D02*
G01*
X89543588Y-86684711D01*
X89590718Y-86694728D01*
X89638017Y-86700058D01*
X89672408Y-86712092D01*
X89707110Y-86719468D01*
X89757117Y-86741733D01*
X89807107Y-86759225D01*
X89833128Y-86775575D01*
X89859835Y-86787466D01*
X89909633Y-86823646D01*
X89958792Y-86854535D01*
X89976444Y-86872187D01*
X89995084Y-86885730D01*
X90041165Y-86936908D01*
X90085465Y-86981208D01*
X90095654Y-86997424D01*
X90106946Y-87009965D01*
X90145573Y-87076870D01*
X90180775Y-87132893D01*
X90185170Y-87145453D01*
X90190535Y-87154746D01*
X90218010Y-87239305D01*
X90239942Y-87301983D01*
X90240773Y-87309363D01*
X90242195Y-87313738D01*
X90255076Y-87436306D01*
X90260000Y-87480000D01*
X90255076Y-87523697D01*
X90242195Y-87646261D01*
X90240773Y-87650635D01*
X90239942Y-87658017D01*
X90218005Y-87720707D01*
X90190535Y-87805253D01*
X90185171Y-87814543D01*
X90180775Y-87827107D01*
X90145566Y-87883140D01*
X90106946Y-87950034D01*
X90095656Y-87962572D01*
X90085465Y-87978792D01*
X90041155Y-88023101D01*
X89995084Y-88074269D01*
X89976448Y-88087808D01*
X89958792Y-88105465D01*
X89909623Y-88136359D01*
X89859835Y-88172533D01*
X89833134Y-88184421D01*
X89807107Y-88200775D01*
X89757107Y-88218270D01*
X89707110Y-88240531D01*
X89672414Y-88247905D01*
X89638017Y-88259942D01*
X89590715Y-88265271D01*
X89543588Y-88275289D01*
X89501811Y-88275289D01*
X89460000Y-88280000D01*
X89418189Y-88275289D01*
X89376412Y-88275289D01*
X89329284Y-88265271D01*
X89281983Y-88259942D01*
X89247586Y-88247906D01*
X89212889Y-88240531D01*
X89162887Y-88218268D01*
X89112893Y-88200775D01*
X89086868Y-88184422D01*
X89060164Y-88172533D01*
X89010369Y-88136355D01*
X88961208Y-88105465D01*
X88943554Y-88087811D01*
X88924915Y-88074269D01*
X88878833Y-88023090D01*
X88834535Y-87978792D01*
X88824345Y-87962575D01*
X88813053Y-87950034D01*
X88774420Y-87883120D01*
X88739225Y-87827107D01*
X88734830Y-87814547D01*
X88729464Y-87805253D01*
X88701980Y-87720667D01*
X88680058Y-87658017D01*
X88679226Y-87650639D01*
X88677804Y-87646261D01*
X88664908Y-87523565D01*
X88660000Y-87480000D01*
X88664908Y-87436438D01*
X88677804Y-87313738D01*
X88679226Y-87309358D01*
X88680058Y-87301983D01*
X88701975Y-87239345D01*
X88729464Y-87154746D01*
X88734831Y-87145449D01*
X88739225Y-87132893D01*
X88774413Y-87076890D01*
X88813053Y-87009965D01*
X88824347Y-86997421D01*
X88834535Y-86981208D01*
X88878826Y-86936916D01*
X88924917Y-86885728D01*
X88943559Y-86872183D01*
X88961208Y-86854535D01*
X89010354Y-86823654D01*
X89060162Y-86787467D01*
X89086873Y-86775574D01*
X89112893Y-86759225D01*
X89162877Y-86741734D01*
X89212889Y-86719468D01*
X89247592Y-86712091D01*
X89281983Y-86700058D01*
X89329281Y-86694728D01*
X89376412Y-86684711D01*
X89418189Y-86684711D01*
X89460000Y-86680000D01*
X89501811Y-86684711D01*
G37*
G36*
X92041811Y-86684711D02*
G01*
X92083588Y-86684711D01*
X92130718Y-86694728D01*
X92178017Y-86700058D01*
X92212408Y-86712092D01*
X92247110Y-86719468D01*
X92297117Y-86741733D01*
X92347107Y-86759225D01*
X92373128Y-86775575D01*
X92399835Y-86787466D01*
X92449633Y-86823646D01*
X92498792Y-86854535D01*
X92516444Y-86872187D01*
X92535084Y-86885730D01*
X92581165Y-86936908D01*
X92625465Y-86981208D01*
X92635654Y-86997424D01*
X92646946Y-87009965D01*
X92685573Y-87076870D01*
X92720775Y-87132893D01*
X92725170Y-87145453D01*
X92730535Y-87154746D01*
X92758010Y-87239305D01*
X92779942Y-87301983D01*
X92780773Y-87309363D01*
X92782195Y-87313738D01*
X92795076Y-87436306D01*
X92800000Y-87480000D01*
X92795076Y-87523697D01*
X92782195Y-87646261D01*
X92780773Y-87650635D01*
X92779942Y-87658017D01*
X92758005Y-87720707D01*
X92730535Y-87805253D01*
X92725171Y-87814543D01*
X92720775Y-87827107D01*
X92685566Y-87883140D01*
X92646946Y-87950034D01*
X92635656Y-87962572D01*
X92625465Y-87978792D01*
X92581155Y-88023101D01*
X92535084Y-88074269D01*
X92516448Y-88087808D01*
X92498792Y-88105465D01*
X92449623Y-88136359D01*
X92399835Y-88172533D01*
X92373134Y-88184421D01*
X92347107Y-88200775D01*
X92297107Y-88218270D01*
X92247110Y-88240531D01*
X92212414Y-88247905D01*
X92178017Y-88259942D01*
X92130715Y-88265271D01*
X92083588Y-88275289D01*
X92041811Y-88275289D01*
X92000000Y-88280000D01*
X91958189Y-88275289D01*
X91916412Y-88275289D01*
X91869284Y-88265271D01*
X91821983Y-88259942D01*
X91787586Y-88247906D01*
X91752889Y-88240531D01*
X91702887Y-88218268D01*
X91652893Y-88200775D01*
X91626868Y-88184422D01*
X91600164Y-88172533D01*
X91550369Y-88136355D01*
X91501208Y-88105465D01*
X91483554Y-88087811D01*
X91464915Y-88074269D01*
X91418833Y-88023090D01*
X91374535Y-87978792D01*
X91364345Y-87962575D01*
X91353053Y-87950034D01*
X91314420Y-87883120D01*
X91279225Y-87827107D01*
X91274830Y-87814547D01*
X91269464Y-87805253D01*
X91241980Y-87720667D01*
X91220058Y-87658017D01*
X91219226Y-87650639D01*
X91217804Y-87646261D01*
X91204908Y-87523565D01*
X91200000Y-87480000D01*
X91204908Y-87436438D01*
X91217804Y-87313738D01*
X91219226Y-87309358D01*
X91220058Y-87301983D01*
X91241975Y-87239345D01*
X91269464Y-87154746D01*
X91274831Y-87145449D01*
X91279225Y-87132893D01*
X91314413Y-87076890D01*
X91353053Y-87009965D01*
X91364347Y-86997421D01*
X91374535Y-86981208D01*
X91418826Y-86936916D01*
X91464917Y-86885728D01*
X91483559Y-86872183D01*
X91501208Y-86854535D01*
X91550354Y-86823654D01*
X91600162Y-86787467D01*
X91626873Y-86775574D01*
X91652893Y-86759225D01*
X91702877Y-86741734D01*
X91752889Y-86719468D01*
X91787592Y-86712091D01*
X91821983Y-86700058D01*
X91869281Y-86694728D01*
X91916412Y-86684711D01*
X91958189Y-86684711D01*
X92000000Y-86680000D01*
X92041811Y-86684711D01*
G37*
G36*
X98459501Y-86656180D02*
G01*
X98620559Y-86712537D01*
X98765039Y-86803319D01*
X98885696Y-86923976D01*
X98976478Y-87068456D01*
X99032835Y-87229514D01*
X99051940Y-87399075D01*
X99032835Y-87568636D01*
X98976478Y-87729694D01*
X98885696Y-87874174D01*
X98765039Y-87994831D01*
X98620559Y-88085613D01*
X98459501Y-88141970D01*
X98289940Y-88161075D01*
X98120379Y-88141970D01*
X97959321Y-88085613D01*
X97814841Y-87994831D01*
X97694184Y-87874174D01*
X97603402Y-87729694D01*
X97547045Y-87568636D01*
X97527940Y-87399075D01*
X97547045Y-87229514D01*
X97603402Y-87068456D01*
X97694184Y-86923976D01*
X97814841Y-86803319D01*
X97959321Y-86712537D01*
X98120379Y-86656180D01*
X98289940Y-86637075D01*
X98459501Y-86656180D01*
G37*
G36*
X76801811Y-84144711D02*
G01*
X76843588Y-84144711D01*
X76890718Y-84154728D01*
X76938017Y-84160058D01*
X76972408Y-84172092D01*
X77007110Y-84179468D01*
X77057117Y-84201733D01*
X77107107Y-84219225D01*
X77133128Y-84235575D01*
X77159835Y-84247466D01*
X77209633Y-84283646D01*
X77258792Y-84314535D01*
X77276444Y-84332187D01*
X77295084Y-84345730D01*
X77341165Y-84396908D01*
X77385465Y-84441208D01*
X77395654Y-84457424D01*
X77406946Y-84469965D01*
X77445573Y-84536870D01*
X77480775Y-84592893D01*
X77485170Y-84605453D01*
X77490535Y-84614746D01*
X77518010Y-84699305D01*
X77539942Y-84761983D01*
X77540773Y-84769363D01*
X77542195Y-84773738D01*
X77555076Y-84896306D01*
X77560000Y-84940000D01*
X77555076Y-84983697D01*
X77542195Y-85106261D01*
X77540773Y-85110635D01*
X77539942Y-85118017D01*
X77518005Y-85180707D01*
X77490535Y-85265253D01*
X77485171Y-85274543D01*
X77480775Y-85287107D01*
X77445566Y-85343140D01*
X77406946Y-85410034D01*
X77395656Y-85422572D01*
X77385465Y-85438792D01*
X77341155Y-85483101D01*
X77295084Y-85534269D01*
X77276448Y-85547808D01*
X77258792Y-85565465D01*
X77209623Y-85596359D01*
X77159835Y-85632533D01*
X77133134Y-85644421D01*
X77107107Y-85660775D01*
X77057107Y-85678270D01*
X77007110Y-85700531D01*
X76972414Y-85707905D01*
X76938017Y-85719942D01*
X76890715Y-85725271D01*
X76843588Y-85735289D01*
X76801811Y-85735289D01*
X76760000Y-85740000D01*
X76718189Y-85735289D01*
X76676412Y-85735289D01*
X76629284Y-85725271D01*
X76581983Y-85719942D01*
X76547586Y-85707906D01*
X76512889Y-85700531D01*
X76462887Y-85678268D01*
X76412893Y-85660775D01*
X76386868Y-85644422D01*
X76360164Y-85632533D01*
X76310369Y-85596355D01*
X76261208Y-85565465D01*
X76243554Y-85547811D01*
X76224915Y-85534269D01*
X76178833Y-85483090D01*
X76134535Y-85438792D01*
X76124345Y-85422575D01*
X76113053Y-85410034D01*
X76074420Y-85343120D01*
X76039225Y-85287107D01*
X76034830Y-85274547D01*
X76029464Y-85265253D01*
X76001980Y-85180667D01*
X75980058Y-85118017D01*
X75979226Y-85110639D01*
X75977804Y-85106261D01*
X75964908Y-84983565D01*
X75960000Y-84940000D01*
X75964908Y-84896438D01*
X75977804Y-84773738D01*
X75979226Y-84769358D01*
X75980058Y-84761983D01*
X76001975Y-84699345D01*
X76029464Y-84614746D01*
X76034831Y-84605449D01*
X76039225Y-84592893D01*
X76074413Y-84536890D01*
X76113053Y-84469965D01*
X76124347Y-84457421D01*
X76134535Y-84441208D01*
X76178826Y-84396916D01*
X76224917Y-84345728D01*
X76243559Y-84332183D01*
X76261208Y-84314535D01*
X76310354Y-84283654D01*
X76360162Y-84247467D01*
X76386873Y-84235574D01*
X76412893Y-84219225D01*
X76462877Y-84201734D01*
X76512889Y-84179468D01*
X76547592Y-84172091D01*
X76581983Y-84160058D01*
X76629281Y-84154728D01*
X76676412Y-84144711D01*
X76718189Y-84144711D01*
X76760000Y-84140000D01*
X76801811Y-84144711D01*
G37*
G36*
X92041811Y-84144711D02*
G01*
X92083588Y-84144711D01*
X92130718Y-84154728D01*
X92178017Y-84160058D01*
X92212408Y-84172092D01*
X92247110Y-84179468D01*
X92297117Y-84201733D01*
X92347107Y-84219225D01*
X92373128Y-84235575D01*
X92399835Y-84247466D01*
X92449633Y-84283646D01*
X92498792Y-84314535D01*
X92516444Y-84332187D01*
X92535084Y-84345730D01*
X92581165Y-84396908D01*
X92625465Y-84441208D01*
X92635654Y-84457424D01*
X92646946Y-84469965D01*
X92685573Y-84536870D01*
X92720775Y-84592893D01*
X92725170Y-84605453D01*
X92730535Y-84614746D01*
X92758010Y-84699305D01*
X92779942Y-84761983D01*
X92780773Y-84769363D01*
X92782195Y-84773738D01*
X92795076Y-84896306D01*
X92800000Y-84940000D01*
X92795076Y-84983697D01*
X92782195Y-85106261D01*
X92780773Y-85110635D01*
X92779942Y-85118017D01*
X92758005Y-85180707D01*
X92730535Y-85265253D01*
X92725171Y-85274543D01*
X92720775Y-85287107D01*
X92685566Y-85343140D01*
X92646946Y-85410034D01*
X92635656Y-85422572D01*
X92625465Y-85438792D01*
X92581155Y-85483101D01*
X92535084Y-85534269D01*
X92516448Y-85547808D01*
X92498792Y-85565465D01*
X92449623Y-85596359D01*
X92399835Y-85632533D01*
X92373134Y-85644421D01*
X92347107Y-85660775D01*
X92297107Y-85678270D01*
X92247110Y-85700531D01*
X92212414Y-85707905D01*
X92178017Y-85719942D01*
X92130715Y-85725271D01*
X92083588Y-85735289D01*
X92041811Y-85735289D01*
X92000000Y-85740000D01*
X91958189Y-85735289D01*
X91916412Y-85735289D01*
X91869284Y-85725271D01*
X91821983Y-85719942D01*
X91787586Y-85707906D01*
X91752889Y-85700531D01*
X91702887Y-85678268D01*
X91652893Y-85660775D01*
X91626868Y-85644422D01*
X91600164Y-85632533D01*
X91550369Y-85596355D01*
X91501208Y-85565465D01*
X91483554Y-85547811D01*
X91464915Y-85534269D01*
X91418833Y-85483090D01*
X91374535Y-85438792D01*
X91364345Y-85422575D01*
X91353053Y-85410034D01*
X91314420Y-85343120D01*
X91279225Y-85287107D01*
X91274830Y-85274547D01*
X91269464Y-85265253D01*
X91241980Y-85180667D01*
X91220058Y-85118017D01*
X91219226Y-85110639D01*
X91217804Y-85106261D01*
X91204908Y-84983565D01*
X91200000Y-84940000D01*
X91204908Y-84896438D01*
X91217804Y-84773738D01*
X91219226Y-84769358D01*
X91220058Y-84761983D01*
X91241975Y-84699345D01*
X91269464Y-84614746D01*
X91274831Y-84605449D01*
X91279225Y-84592893D01*
X91314413Y-84536890D01*
X91353053Y-84469965D01*
X91364347Y-84457421D01*
X91374535Y-84441208D01*
X91418826Y-84396916D01*
X91464917Y-84345728D01*
X91483559Y-84332183D01*
X91501208Y-84314535D01*
X91550354Y-84283654D01*
X91600162Y-84247467D01*
X91626873Y-84235574D01*
X91652893Y-84219225D01*
X91702877Y-84201734D01*
X91752889Y-84179468D01*
X91787592Y-84172091D01*
X91821983Y-84160058D01*
X91869281Y-84154728D01*
X91916412Y-84144711D01*
X91958189Y-84144711D01*
X92000000Y-84140000D01*
X92041811Y-84144711D01*
G37*
G36*
X98459501Y-84116180D02*
G01*
X98620559Y-84172537D01*
X98765039Y-84263319D01*
X98885696Y-84383976D01*
X98976478Y-84528456D01*
X99032835Y-84689514D01*
X99051940Y-84859075D01*
X99032835Y-85028636D01*
X98976478Y-85189694D01*
X98885696Y-85334174D01*
X98765039Y-85454831D01*
X98620559Y-85545613D01*
X98459501Y-85601970D01*
X98289940Y-85621075D01*
X98120379Y-85601970D01*
X97959321Y-85545613D01*
X97814841Y-85454831D01*
X97694184Y-85334174D01*
X97603402Y-85189694D01*
X97547045Y-85028636D01*
X97527940Y-84859075D01*
X97547045Y-84689514D01*
X97603402Y-84528456D01*
X97694184Y-84383976D01*
X97814841Y-84263319D01*
X97959321Y-84172537D01*
X98120379Y-84116180D01*
X98289940Y-84097075D01*
X98459501Y-84116180D01*
G37*
G36*
X76801811Y-81604711D02*
G01*
X76843588Y-81604711D01*
X76890718Y-81614728D01*
X76938017Y-81620058D01*
X76972408Y-81632092D01*
X77007110Y-81639468D01*
X77057117Y-81661733D01*
X77107107Y-81679225D01*
X77133128Y-81695575D01*
X77159835Y-81707466D01*
X77209633Y-81743646D01*
X77258792Y-81774535D01*
X77276444Y-81792187D01*
X77295084Y-81805730D01*
X77341165Y-81856908D01*
X77385465Y-81901208D01*
X77395654Y-81917424D01*
X77406946Y-81929965D01*
X77445573Y-81996870D01*
X77480775Y-82052893D01*
X77485170Y-82065453D01*
X77490535Y-82074746D01*
X77518010Y-82159305D01*
X77539942Y-82221983D01*
X77540773Y-82229363D01*
X77542195Y-82233738D01*
X77555076Y-82356306D01*
X77560000Y-82400000D01*
X77555076Y-82443697D01*
X77542195Y-82566261D01*
X77540773Y-82570635D01*
X77539942Y-82578017D01*
X77518005Y-82640707D01*
X77490535Y-82725253D01*
X77485171Y-82734543D01*
X77480775Y-82747107D01*
X77445566Y-82803140D01*
X77406946Y-82870034D01*
X77395656Y-82882572D01*
X77385465Y-82898792D01*
X77341155Y-82943101D01*
X77295084Y-82994269D01*
X77276448Y-83007808D01*
X77258792Y-83025465D01*
X77209623Y-83056359D01*
X77159835Y-83092533D01*
X77133134Y-83104421D01*
X77107107Y-83120775D01*
X77057107Y-83138270D01*
X77007110Y-83160531D01*
X76972414Y-83167905D01*
X76938017Y-83179942D01*
X76890715Y-83185271D01*
X76843588Y-83195289D01*
X76801811Y-83195289D01*
X76760000Y-83200000D01*
X76718189Y-83195289D01*
X76676412Y-83195289D01*
X76629284Y-83185271D01*
X76581983Y-83179942D01*
X76547586Y-83167906D01*
X76512889Y-83160531D01*
X76462887Y-83138268D01*
X76412893Y-83120775D01*
X76386868Y-83104422D01*
X76360164Y-83092533D01*
X76310369Y-83056355D01*
X76261208Y-83025465D01*
X76243554Y-83007811D01*
X76224915Y-82994269D01*
X76178833Y-82943090D01*
X76134535Y-82898792D01*
X76124345Y-82882575D01*
X76113053Y-82870034D01*
X76074420Y-82803120D01*
X76039225Y-82747107D01*
X76034830Y-82734547D01*
X76029464Y-82725253D01*
X76001980Y-82640667D01*
X75980058Y-82578017D01*
X75979226Y-82570639D01*
X75977804Y-82566261D01*
X75964908Y-82443565D01*
X75960000Y-82400000D01*
X75964908Y-82356438D01*
X75977804Y-82233738D01*
X75979226Y-82229358D01*
X75980058Y-82221983D01*
X76001975Y-82159345D01*
X76029464Y-82074746D01*
X76034831Y-82065449D01*
X76039225Y-82052893D01*
X76074413Y-81996890D01*
X76113053Y-81929965D01*
X76124347Y-81917421D01*
X76134535Y-81901208D01*
X76178826Y-81856916D01*
X76224917Y-81805728D01*
X76243559Y-81792183D01*
X76261208Y-81774535D01*
X76310354Y-81743654D01*
X76360162Y-81707467D01*
X76386873Y-81695574D01*
X76412893Y-81679225D01*
X76462877Y-81661734D01*
X76512889Y-81639468D01*
X76547592Y-81632091D01*
X76581983Y-81620058D01*
X76629281Y-81614728D01*
X76676412Y-81604711D01*
X76718189Y-81604711D01*
X76760000Y-81600000D01*
X76801811Y-81604711D01*
G37*
G36*
X92041811Y-81604711D02*
G01*
X92083588Y-81604711D01*
X92130718Y-81614728D01*
X92178017Y-81620058D01*
X92212408Y-81632092D01*
X92247110Y-81639468D01*
X92297117Y-81661733D01*
X92347107Y-81679225D01*
X92373128Y-81695575D01*
X92399835Y-81707466D01*
X92449633Y-81743646D01*
X92498792Y-81774535D01*
X92516444Y-81792187D01*
X92535084Y-81805730D01*
X92581165Y-81856908D01*
X92625465Y-81901208D01*
X92635654Y-81917424D01*
X92646946Y-81929965D01*
X92685573Y-81996870D01*
X92720775Y-82052893D01*
X92725170Y-82065453D01*
X92730535Y-82074746D01*
X92758010Y-82159305D01*
X92779942Y-82221983D01*
X92780773Y-82229363D01*
X92782195Y-82233738D01*
X92795076Y-82356306D01*
X92800000Y-82400000D01*
X92795076Y-82443697D01*
X92782195Y-82566261D01*
X92780773Y-82570635D01*
X92779942Y-82578017D01*
X92758005Y-82640707D01*
X92730535Y-82725253D01*
X92725171Y-82734543D01*
X92720775Y-82747107D01*
X92685566Y-82803140D01*
X92646946Y-82870034D01*
X92635656Y-82882572D01*
X92625465Y-82898792D01*
X92581155Y-82943101D01*
X92535084Y-82994269D01*
X92516448Y-83007808D01*
X92498792Y-83025465D01*
X92449623Y-83056359D01*
X92399835Y-83092533D01*
X92373134Y-83104421D01*
X92347107Y-83120775D01*
X92297107Y-83138270D01*
X92247110Y-83160531D01*
X92212414Y-83167905D01*
X92178017Y-83179942D01*
X92130715Y-83185271D01*
X92083588Y-83195289D01*
X92041811Y-83195289D01*
X92000000Y-83200000D01*
X91958189Y-83195289D01*
X91916412Y-83195289D01*
X91869284Y-83185271D01*
X91821983Y-83179942D01*
X91787586Y-83167906D01*
X91752889Y-83160531D01*
X91702887Y-83138268D01*
X91652893Y-83120775D01*
X91626868Y-83104422D01*
X91600164Y-83092533D01*
X91550369Y-83056355D01*
X91501208Y-83025465D01*
X91483554Y-83007811D01*
X91464915Y-82994269D01*
X91418833Y-82943090D01*
X91374535Y-82898792D01*
X91364345Y-82882575D01*
X91353053Y-82870034D01*
X91314420Y-82803120D01*
X91279225Y-82747107D01*
X91274830Y-82734547D01*
X91269464Y-82725253D01*
X91241980Y-82640667D01*
X91220058Y-82578017D01*
X91219226Y-82570639D01*
X91217804Y-82566261D01*
X91204908Y-82443565D01*
X91200000Y-82400000D01*
X91204908Y-82356438D01*
X91217804Y-82233738D01*
X91219226Y-82229358D01*
X91220058Y-82221983D01*
X91241975Y-82159345D01*
X91269464Y-82074746D01*
X91274831Y-82065449D01*
X91279225Y-82052893D01*
X91314413Y-81996890D01*
X91353053Y-81929965D01*
X91364347Y-81917421D01*
X91374535Y-81901208D01*
X91418826Y-81856916D01*
X91464917Y-81805728D01*
X91483559Y-81792183D01*
X91501208Y-81774535D01*
X91550354Y-81743654D01*
X91600162Y-81707467D01*
X91626873Y-81695574D01*
X91652893Y-81679225D01*
X91702877Y-81661734D01*
X91752889Y-81639468D01*
X91787592Y-81632091D01*
X91821983Y-81620058D01*
X91869281Y-81614728D01*
X91916412Y-81604711D01*
X91958189Y-81604711D01*
X92000000Y-81600000D01*
X92041811Y-81604711D01*
G37*
G36*
X98459501Y-81576180D02*
G01*
X98620559Y-81632537D01*
X98765039Y-81723319D01*
X98885696Y-81843976D01*
X98976478Y-81988456D01*
X99032835Y-82149514D01*
X99051940Y-82319075D01*
X99032835Y-82488636D01*
X98976478Y-82649694D01*
X98885696Y-82794174D01*
X98765039Y-82914831D01*
X98620559Y-83005613D01*
X98459501Y-83061970D01*
X98289940Y-83081075D01*
X98120379Y-83061970D01*
X97959321Y-83005613D01*
X97814841Y-82914831D01*
X97694184Y-82794174D01*
X97603402Y-82649694D01*
X97547045Y-82488636D01*
X97527940Y-82319075D01*
X97547045Y-82149514D01*
X97603402Y-81988456D01*
X97694184Y-81843976D01*
X97814841Y-81723319D01*
X97959321Y-81632537D01*
X98120379Y-81576180D01*
X98289940Y-81557075D01*
X98459501Y-81576180D01*
G37*
G36*
X76801811Y-79064711D02*
G01*
X76843588Y-79064711D01*
X76890718Y-79074728D01*
X76938017Y-79080058D01*
X76972408Y-79092092D01*
X77007110Y-79099468D01*
X77057117Y-79121733D01*
X77107107Y-79139225D01*
X77133128Y-79155575D01*
X77159835Y-79167466D01*
X77209633Y-79203646D01*
X77258792Y-79234535D01*
X77276444Y-79252187D01*
X77295084Y-79265730D01*
X77341165Y-79316908D01*
X77385465Y-79361208D01*
X77395654Y-79377424D01*
X77406946Y-79389965D01*
X77445573Y-79456870D01*
X77480775Y-79512893D01*
X77485170Y-79525453D01*
X77490535Y-79534746D01*
X77518010Y-79619305D01*
X77539942Y-79681983D01*
X77540773Y-79689363D01*
X77542195Y-79693738D01*
X77555076Y-79816306D01*
X77560000Y-79860000D01*
X77555076Y-79903697D01*
X77542195Y-80026261D01*
X77540773Y-80030635D01*
X77539942Y-80038017D01*
X77518005Y-80100707D01*
X77490535Y-80185253D01*
X77485171Y-80194543D01*
X77480775Y-80207107D01*
X77445566Y-80263140D01*
X77406946Y-80330034D01*
X77395656Y-80342572D01*
X77385465Y-80358792D01*
X77341155Y-80403101D01*
X77295084Y-80454269D01*
X77276448Y-80467808D01*
X77258792Y-80485465D01*
X77209623Y-80516359D01*
X77159835Y-80552533D01*
X77133134Y-80564421D01*
X77107107Y-80580775D01*
X77057107Y-80598270D01*
X77007110Y-80620531D01*
X76972414Y-80627905D01*
X76938017Y-80639942D01*
X76890715Y-80645271D01*
X76843588Y-80655289D01*
X76801811Y-80655289D01*
X76760000Y-80660000D01*
X76718189Y-80655289D01*
X76676412Y-80655289D01*
X76629284Y-80645271D01*
X76581983Y-80639942D01*
X76547586Y-80627906D01*
X76512889Y-80620531D01*
X76462887Y-80598268D01*
X76412893Y-80580775D01*
X76386868Y-80564422D01*
X76360164Y-80552533D01*
X76310369Y-80516355D01*
X76261208Y-80485465D01*
X76243554Y-80467811D01*
X76224915Y-80454269D01*
X76178833Y-80403090D01*
X76134535Y-80358792D01*
X76124345Y-80342575D01*
X76113053Y-80330034D01*
X76074420Y-80263120D01*
X76039225Y-80207107D01*
X76034830Y-80194547D01*
X76029464Y-80185253D01*
X76001980Y-80100667D01*
X75980058Y-80038017D01*
X75979226Y-80030639D01*
X75977804Y-80026261D01*
X75964908Y-79903565D01*
X75960000Y-79860000D01*
X75964908Y-79816438D01*
X75977804Y-79693738D01*
X75979226Y-79689358D01*
X75980058Y-79681983D01*
X76001975Y-79619345D01*
X76029464Y-79534746D01*
X76034831Y-79525449D01*
X76039225Y-79512893D01*
X76074413Y-79456890D01*
X76113053Y-79389965D01*
X76124347Y-79377421D01*
X76134535Y-79361208D01*
X76178826Y-79316916D01*
X76224917Y-79265728D01*
X76243559Y-79252183D01*
X76261208Y-79234535D01*
X76310354Y-79203654D01*
X76360162Y-79167467D01*
X76386873Y-79155574D01*
X76412893Y-79139225D01*
X76462877Y-79121734D01*
X76512889Y-79099468D01*
X76547592Y-79092091D01*
X76581983Y-79080058D01*
X76629281Y-79074728D01*
X76676412Y-79064711D01*
X76718189Y-79064711D01*
X76760000Y-79060000D01*
X76801811Y-79064711D01*
G37*
G36*
X92041811Y-79064711D02*
G01*
X92083588Y-79064711D01*
X92130718Y-79074728D01*
X92178017Y-79080058D01*
X92212408Y-79092092D01*
X92247110Y-79099468D01*
X92297117Y-79121733D01*
X92347107Y-79139225D01*
X92373128Y-79155575D01*
X92399835Y-79167466D01*
X92449633Y-79203646D01*
X92498792Y-79234535D01*
X92516444Y-79252187D01*
X92535084Y-79265730D01*
X92581165Y-79316908D01*
X92625465Y-79361208D01*
X92635654Y-79377424D01*
X92646946Y-79389965D01*
X92685573Y-79456870D01*
X92720775Y-79512893D01*
X92725170Y-79525453D01*
X92730535Y-79534746D01*
X92758010Y-79619305D01*
X92779942Y-79681983D01*
X92780773Y-79689363D01*
X92782195Y-79693738D01*
X92795076Y-79816306D01*
X92800000Y-79860000D01*
X92795076Y-79903697D01*
X92782195Y-80026261D01*
X92780773Y-80030635D01*
X92779942Y-80038017D01*
X92758005Y-80100707D01*
X92730535Y-80185253D01*
X92725171Y-80194543D01*
X92720775Y-80207107D01*
X92685566Y-80263140D01*
X92646946Y-80330034D01*
X92635656Y-80342572D01*
X92625465Y-80358792D01*
X92581155Y-80403101D01*
X92535084Y-80454269D01*
X92516448Y-80467808D01*
X92498792Y-80485465D01*
X92449623Y-80516359D01*
X92399835Y-80552533D01*
X92373134Y-80564421D01*
X92347107Y-80580775D01*
X92297107Y-80598270D01*
X92247110Y-80620531D01*
X92212414Y-80627905D01*
X92178017Y-80639942D01*
X92130715Y-80645271D01*
X92083588Y-80655289D01*
X92041811Y-80655289D01*
X92000000Y-80660000D01*
X91958189Y-80655289D01*
X91916412Y-80655289D01*
X91869284Y-80645271D01*
X91821983Y-80639942D01*
X91787586Y-80627906D01*
X91752889Y-80620531D01*
X91702887Y-80598268D01*
X91652893Y-80580775D01*
X91626868Y-80564422D01*
X91600164Y-80552533D01*
X91550369Y-80516355D01*
X91501208Y-80485465D01*
X91483554Y-80467811D01*
X91464915Y-80454269D01*
X91418833Y-80403090D01*
X91374535Y-80358792D01*
X91364345Y-80342575D01*
X91353053Y-80330034D01*
X91314420Y-80263120D01*
X91279225Y-80207107D01*
X91274830Y-80194547D01*
X91269464Y-80185253D01*
X91241980Y-80100667D01*
X91220058Y-80038017D01*
X91219226Y-80030639D01*
X91217804Y-80026261D01*
X91204908Y-79903565D01*
X91200000Y-79860000D01*
X91204908Y-79816438D01*
X91217804Y-79693738D01*
X91219226Y-79689358D01*
X91220058Y-79681983D01*
X91241975Y-79619345D01*
X91269464Y-79534746D01*
X91274831Y-79525449D01*
X91279225Y-79512893D01*
X91314413Y-79456890D01*
X91353053Y-79389965D01*
X91364347Y-79377421D01*
X91374535Y-79361208D01*
X91418826Y-79316916D01*
X91464917Y-79265728D01*
X91483559Y-79252183D01*
X91501208Y-79234535D01*
X91550354Y-79203654D01*
X91600162Y-79167467D01*
X91626873Y-79155574D01*
X91652893Y-79139225D01*
X91702877Y-79121734D01*
X91752889Y-79099468D01*
X91787592Y-79092091D01*
X91821983Y-79080058D01*
X91869281Y-79074728D01*
X91916412Y-79064711D01*
X91958189Y-79064711D01*
X92000000Y-79060000D01*
X92041811Y-79064711D01*
G37*
G36*
X98459501Y-79036180D02*
G01*
X98620559Y-79092537D01*
X98765039Y-79183319D01*
X98885696Y-79303976D01*
X98976478Y-79448456D01*
X99032835Y-79609514D01*
X99051940Y-79779075D01*
X99032835Y-79948636D01*
X98976478Y-80109694D01*
X98885696Y-80254174D01*
X98765039Y-80374831D01*
X98620559Y-80465613D01*
X98459501Y-80521970D01*
X98289940Y-80541075D01*
X98120379Y-80521970D01*
X97959321Y-80465613D01*
X97814841Y-80374831D01*
X97694184Y-80254174D01*
X97603402Y-80109694D01*
X97547045Y-79948636D01*
X97527940Y-79779075D01*
X97547045Y-79609514D01*
X97603402Y-79448456D01*
X97694184Y-79303976D01*
X97814841Y-79183319D01*
X97959321Y-79092537D01*
X98120379Y-79036180D01*
X98289940Y-79017075D01*
X98459501Y-79036180D01*
G37*
G36*
X76801811Y-76524711D02*
G01*
X76843588Y-76524711D01*
X76890718Y-76534728D01*
X76938017Y-76540058D01*
X76972408Y-76552092D01*
X77007110Y-76559468D01*
X77057117Y-76581733D01*
X77107107Y-76599225D01*
X77133128Y-76615575D01*
X77159835Y-76627466D01*
X77209633Y-76663646D01*
X77258792Y-76694535D01*
X77276444Y-76712187D01*
X77295084Y-76725730D01*
X77341165Y-76776908D01*
X77385465Y-76821208D01*
X77395654Y-76837424D01*
X77406946Y-76849965D01*
X77445573Y-76916870D01*
X77480775Y-76972893D01*
X77485170Y-76985453D01*
X77490535Y-76994746D01*
X77518010Y-77079305D01*
X77539942Y-77141983D01*
X77540773Y-77149363D01*
X77542195Y-77153738D01*
X77555076Y-77276306D01*
X77560000Y-77320000D01*
X77555076Y-77363697D01*
X77542195Y-77486261D01*
X77540773Y-77490635D01*
X77539942Y-77498017D01*
X77518005Y-77560707D01*
X77490535Y-77645253D01*
X77485171Y-77654543D01*
X77480775Y-77667107D01*
X77445566Y-77723140D01*
X77406946Y-77790034D01*
X77395656Y-77802572D01*
X77385465Y-77818792D01*
X77341155Y-77863101D01*
X77295084Y-77914269D01*
X77276448Y-77927808D01*
X77258792Y-77945465D01*
X77209623Y-77976359D01*
X77159835Y-78012533D01*
X77133134Y-78024421D01*
X77107107Y-78040775D01*
X77057107Y-78058270D01*
X77007110Y-78080531D01*
X76972414Y-78087905D01*
X76938017Y-78099942D01*
X76890715Y-78105271D01*
X76843588Y-78115289D01*
X76801811Y-78115289D01*
X76760000Y-78120000D01*
X76718189Y-78115289D01*
X76676412Y-78115289D01*
X76629284Y-78105271D01*
X76581983Y-78099942D01*
X76547586Y-78087906D01*
X76512889Y-78080531D01*
X76462887Y-78058268D01*
X76412893Y-78040775D01*
X76386868Y-78024422D01*
X76360164Y-78012533D01*
X76310369Y-77976355D01*
X76261208Y-77945465D01*
X76243554Y-77927811D01*
X76224915Y-77914269D01*
X76178833Y-77863090D01*
X76134535Y-77818792D01*
X76124345Y-77802575D01*
X76113053Y-77790034D01*
X76074420Y-77723120D01*
X76039225Y-77667107D01*
X76034830Y-77654547D01*
X76029464Y-77645253D01*
X76001980Y-77560667D01*
X75980058Y-77498017D01*
X75979226Y-77490639D01*
X75977804Y-77486261D01*
X75964908Y-77363565D01*
X75960000Y-77320000D01*
X75964908Y-77276438D01*
X75977804Y-77153738D01*
X75979226Y-77149358D01*
X75980058Y-77141983D01*
X76001975Y-77079345D01*
X76029464Y-76994746D01*
X76034831Y-76985449D01*
X76039225Y-76972893D01*
X76074413Y-76916890D01*
X76113053Y-76849965D01*
X76124347Y-76837421D01*
X76134535Y-76821208D01*
X76178826Y-76776916D01*
X76224917Y-76725728D01*
X76243559Y-76712183D01*
X76261208Y-76694535D01*
X76310354Y-76663654D01*
X76360162Y-76627467D01*
X76386873Y-76615574D01*
X76412893Y-76599225D01*
X76462877Y-76581734D01*
X76512889Y-76559468D01*
X76547592Y-76552091D01*
X76581983Y-76540058D01*
X76629281Y-76534728D01*
X76676412Y-76524711D01*
X76718189Y-76524711D01*
X76760000Y-76520000D01*
X76801811Y-76524711D01*
G37*
G36*
X92041811Y-76524711D02*
G01*
X92083588Y-76524711D01*
X92130718Y-76534728D01*
X92178017Y-76540058D01*
X92212408Y-76552092D01*
X92247110Y-76559468D01*
X92297117Y-76581733D01*
X92347107Y-76599225D01*
X92373128Y-76615575D01*
X92399835Y-76627466D01*
X92449633Y-76663646D01*
X92498792Y-76694535D01*
X92516444Y-76712187D01*
X92535084Y-76725730D01*
X92581165Y-76776908D01*
X92625465Y-76821208D01*
X92635654Y-76837424D01*
X92646946Y-76849965D01*
X92685573Y-76916870D01*
X92720775Y-76972893D01*
X92725170Y-76985453D01*
X92730535Y-76994746D01*
X92758010Y-77079305D01*
X92779942Y-77141983D01*
X92780773Y-77149363D01*
X92782195Y-77153738D01*
X92795076Y-77276306D01*
X92800000Y-77320000D01*
X92795076Y-77363697D01*
X92782195Y-77486261D01*
X92780773Y-77490635D01*
X92779942Y-77498017D01*
X92758005Y-77560707D01*
X92730535Y-77645253D01*
X92725171Y-77654543D01*
X92720775Y-77667107D01*
X92685566Y-77723140D01*
X92646946Y-77790034D01*
X92635656Y-77802572D01*
X92625465Y-77818792D01*
X92581155Y-77863101D01*
X92535084Y-77914269D01*
X92516448Y-77927808D01*
X92498792Y-77945465D01*
X92449623Y-77976359D01*
X92399835Y-78012533D01*
X92373134Y-78024421D01*
X92347107Y-78040775D01*
X92297107Y-78058270D01*
X92247110Y-78080531D01*
X92212414Y-78087905D01*
X92178017Y-78099942D01*
X92130715Y-78105271D01*
X92083588Y-78115289D01*
X92041811Y-78115289D01*
X92000000Y-78120000D01*
X91958189Y-78115289D01*
X91916412Y-78115289D01*
X91869284Y-78105271D01*
X91821983Y-78099942D01*
X91787586Y-78087906D01*
X91752889Y-78080531D01*
X91702887Y-78058268D01*
X91652893Y-78040775D01*
X91626868Y-78024422D01*
X91600164Y-78012533D01*
X91550369Y-77976355D01*
X91501208Y-77945465D01*
X91483554Y-77927811D01*
X91464915Y-77914269D01*
X91418833Y-77863090D01*
X91374535Y-77818792D01*
X91364345Y-77802575D01*
X91353053Y-77790034D01*
X91314420Y-77723120D01*
X91279225Y-77667107D01*
X91274830Y-77654547D01*
X91269464Y-77645253D01*
X91241980Y-77560667D01*
X91220058Y-77498017D01*
X91219226Y-77490639D01*
X91217804Y-77486261D01*
X91204908Y-77363565D01*
X91200000Y-77320000D01*
X91204908Y-77276438D01*
X91217804Y-77153738D01*
X91219226Y-77149358D01*
X91220058Y-77141983D01*
X91241975Y-77079345D01*
X91269464Y-76994746D01*
X91274831Y-76985449D01*
X91279225Y-76972893D01*
X91314413Y-76916890D01*
X91353053Y-76849965D01*
X91364347Y-76837421D01*
X91374535Y-76821208D01*
X91418826Y-76776916D01*
X91464917Y-76725728D01*
X91483559Y-76712183D01*
X91501208Y-76694535D01*
X91550354Y-76663654D01*
X91600162Y-76627467D01*
X91626873Y-76615574D01*
X91652893Y-76599225D01*
X91702877Y-76581734D01*
X91752889Y-76559468D01*
X91787592Y-76552091D01*
X91821983Y-76540058D01*
X91869281Y-76534728D01*
X91916412Y-76524711D01*
X91958189Y-76524711D01*
X92000000Y-76520000D01*
X92041811Y-76524711D01*
G37*
G36*
X99051940Y-78001075D02*
G01*
X97527940Y-78001075D01*
X97527940Y-76477075D01*
X99051940Y-76477075D01*
X99051940Y-78001075D01*
G37*
G36*
X76801811Y-73984711D02*
G01*
X76843588Y-73984711D01*
X76890718Y-73994728D01*
X76938017Y-74000058D01*
X76972408Y-74012092D01*
X77007110Y-74019468D01*
X77057117Y-74041733D01*
X77107107Y-74059225D01*
X77133128Y-74075575D01*
X77159835Y-74087466D01*
X77209633Y-74123646D01*
X77258792Y-74154535D01*
X77276444Y-74172187D01*
X77295084Y-74185730D01*
X77341165Y-74236908D01*
X77385465Y-74281208D01*
X77395654Y-74297424D01*
X77406946Y-74309965D01*
X77445573Y-74376870D01*
X77480775Y-74432893D01*
X77485170Y-74445453D01*
X77490535Y-74454746D01*
X77518010Y-74539305D01*
X77539942Y-74601983D01*
X77540773Y-74609363D01*
X77542195Y-74613738D01*
X77555076Y-74736306D01*
X77560000Y-74780000D01*
X77555076Y-74823697D01*
X77542195Y-74946261D01*
X77540773Y-74950635D01*
X77539942Y-74958017D01*
X77518005Y-75020707D01*
X77490535Y-75105253D01*
X77485171Y-75114543D01*
X77480775Y-75127107D01*
X77445566Y-75183140D01*
X77406946Y-75250034D01*
X77395656Y-75262572D01*
X77385465Y-75278792D01*
X77341155Y-75323101D01*
X77295084Y-75374269D01*
X77276448Y-75387808D01*
X77258792Y-75405465D01*
X77209623Y-75436359D01*
X77159835Y-75472533D01*
X77133134Y-75484421D01*
X77107107Y-75500775D01*
X77057107Y-75518270D01*
X77007110Y-75540531D01*
X76972414Y-75547905D01*
X76938017Y-75559942D01*
X76890715Y-75565271D01*
X76843588Y-75575289D01*
X76801811Y-75575289D01*
X76760000Y-75580000D01*
X76718189Y-75575289D01*
X76676412Y-75575289D01*
X76629284Y-75565271D01*
X76581983Y-75559942D01*
X76547586Y-75547906D01*
X76512889Y-75540531D01*
X76462887Y-75518268D01*
X76412893Y-75500775D01*
X76386868Y-75484422D01*
X76360164Y-75472533D01*
X76310369Y-75436355D01*
X76261208Y-75405465D01*
X76243554Y-75387811D01*
X76224915Y-75374269D01*
X76178833Y-75323090D01*
X76134535Y-75278792D01*
X76124345Y-75262575D01*
X76113053Y-75250034D01*
X76074420Y-75183120D01*
X76039225Y-75127107D01*
X76034830Y-75114547D01*
X76029464Y-75105253D01*
X76001980Y-75020667D01*
X75980058Y-74958017D01*
X75979226Y-74950639D01*
X75977804Y-74946261D01*
X75964908Y-74823565D01*
X75960000Y-74780000D01*
X75964908Y-74736438D01*
X75977804Y-74613738D01*
X75979226Y-74609358D01*
X75980058Y-74601983D01*
X76001975Y-74539345D01*
X76029464Y-74454746D01*
X76034831Y-74445449D01*
X76039225Y-74432893D01*
X76074413Y-74376890D01*
X76113053Y-74309965D01*
X76124347Y-74297421D01*
X76134535Y-74281208D01*
X76178826Y-74236916D01*
X76224917Y-74185728D01*
X76243559Y-74172183D01*
X76261208Y-74154535D01*
X76310354Y-74123654D01*
X76360162Y-74087467D01*
X76386873Y-74075574D01*
X76412893Y-74059225D01*
X76462877Y-74041734D01*
X76512889Y-74019468D01*
X76547592Y-74012091D01*
X76581983Y-74000058D01*
X76629281Y-73994728D01*
X76676412Y-73984711D01*
X76718189Y-73984711D01*
X76760000Y-73980000D01*
X76801811Y-73984711D01*
G37*
G36*
X92041811Y-73984711D02*
G01*
X92083588Y-73984711D01*
X92130718Y-73994728D01*
X92178017Y-74000058D01*
X92212408Y-74012092D01*
X92247110Y-74019468D01*
X92297117Y-74041733D01*
X92347107Y-74059225D01*
X92373128Y-74075575D01*
X92399835Y-74087466D01*
X92449633Y-74123646D01*
X92498792Y-74154535D01*
X92516444Y-74172187D01*
X92535084Y-74185730D01*
X92581165Y-74236908D01*
X92625465Y-74281208D01*
X92635654Y-74297424D01*
X92646946Y-74309965D01*
X92685573Y-74376870D01*
X92720775Y-74432893D01*
X92725170Y-74445453D01*
X92730535Y-74454746D01*
X92758010Y-74539305D01*
X92779942Y-74601983D01*
X92780773Y-74609363D01*
X92782195Y-74613738D01*
X92795076Y-74736306D01*
X92800000Y-74780000D01*
X92795076Y-74823697D01*
X92782195Y-74946261D01*
X92780773Y-74950635D01*
X92779942Y-74958017D01*
X92758005Y-75020707D01*
X92730535Y-75105253D01*
X92725171Y-75114543D01*
X92720775Y-75127107D01*
X92685566Y-75183140D01*
X92646946Y-75250034D01*
X92635656Y-75262572D01*
X92625465Y-75278792D01*
X92581155Y-75323101D01*
X92535084Y-75374269D01*
X92516448Y-75387808D01*
X92498792Y-75405465D01*
X92449623Y-75436359D01*
X92399835Y-75472533D01*
X92373134Y-75484421D01*
X92347107Y-75500775D01*
X92297107Y-75518270D01*
X92247110Y-75540531D01*
X92212414Y-75547905D01*
X92178017Y-75559942D01*
X92130715Y-75565271D01*
X92083588Y-75575289D01*
X92041811Y-75575289D01*
X92000000Y-75580000D01*
X91958189Y-75575289D01*
X91916412Y-75575289D01*
X91869284Y-75565271D01*
X91821983Y-75559942D01*
X91787586Y-75547906D01*
X91752889Y-75540531D01*
X91702887Y-75518268D01*
X91652893Y-75500775D01*
X91626868Y-75484422D01*
X91600164Y-75472533D01*
X91550369Y-75436355D01*
X91501208Y-75405465D01*
X91483554Y-75387811D01*
X91464915Y-75374269D01*
X91418833Y-75323090D01*
X91374535Y-75278792D01*
X91364345Y-75262575D01*
X91353053Y-75250034D01*
X91314420Y-75183120D01*
X91279225Y-75127107D01*
X91274830Y-75114547D01*
X91269464Y-75105253D01*
X91241980Y-75020667D01*
X91220058Y-74958017D01*
X91219226Y-74950639D01*
X91217804Y-74946261D01*
X91204908Y-74823565D01*
X91200000Y-74780000D01*
X91204908Y-74736438D01*
X91217804Y-74613738D01*
X91219226Y-74609358D01*
X91220058Y-74601983D01*
X91241975Y-74539345D01*
X91269464Y-74454746D01*
X91274831Y-74445449D01*
X91279225Y-74432893D01*
X91314413Y-74376890D01*
X91353053Y-74309965D01*
X91364347Y-74297421D01*
X91374535Y-74281208D01*
X91418826Y-74236916D01*
X91464917Y-74185728D01*
X91483559Y-74172183D01*
X91501208Y-74154535D01*
X91550354Y-74123654D01*
X91600162Y-74087467D01*
X91626873Y-74075574D01*
X91652893Y-74059225D01*
X91702877Y-74041734D01*
X91752889Y-74019468D01*
X91787592Y-74012091D01*
X91821983Y-74000058D01*
X91869281Y-73994728D01*
X91916412Y-73984711D01*
X91958189Y-73984711D01*
X92000000Y-73980000D01*
X92041811Y-73984711D01*
G37*
G36*
X76801811Y-71444711D02*
G01*
X76843588Y-71444711D01*
X76890718Y-71454728D01*
X76938017Y-71460058D01*
X76972408Y-71472092D01*
X77007110Y-71479468D01*
X77057117Y-71501733D01*
X77107107Y-71519225D01*
X77133128Y-71535575D01*
X77159835Y-71547466D01*
X77209633Y-71583646D01*
X77258792Y-71614535D01*
X77276444Y-71632187D01*
X77295084Y-71645730D01*
X77341165Y-71696908D01*
X77385465Y-71741208D01*
X77395654Y-71757424D01*
X77406946Y-71769965D01*
X77445573Y-71836870D01*
X77480775Y-71892893D01*
X77485170Y-71905453D01*
X77490535Y-71914746D01*
X77518010Y-71999305D01*
X77539942Y-72061983D01*
X77540773Y-72069363D01*
X77542195Y-72073738D01*
X77555076Y-72196306D01*
X77560000Y-72240000D01*
X77555076Y-72283697D01*
X77542195Y-72406261D01*
X77540773Y-72410635D01*
X77539942Y-72418017D01*
X77518005Y-72480707D01*
X77490535Y-72565253D01*
X77485171Y-72574543D01*
X77480775Y-72587107D01*
X77445566Y-72643140D01*
X77406946Y-72710034D01*
X77395656Y-72722572D01*
X77385465Y-72738792D01*
X77341155Y-72783101D01*
X77295084Y-72834269D01*
X77276448Y-72847808D01*
X77258792Y-72865465D01*
X77209623Y-72896359D01*
X77159835Y-72932533D01*
X77133134Y-72944421D01*
X77107107Y-72960775D01*
X77057107Y-72978270D01*
X77007110Y-73000531D01*
X76972414Y-73007905D01*
X76938017Y-73019942D01*
X76890715Y-73025271D01*
X76843588Y-73035289D01*
X76801811Y-73035289D01*
X76760000Y-73040000D01*
X76718189Y-73035289D01*
X76676412Y-73035289D01*
X76629284Y-73025271D01*
X76581983Y-73019942D01*
X76547586Y-73007906D01*
X76512889Y-73000531D01*
X76462887Y-72978268D01*
X76412893Y-72960775D01*
X76386868Y-72944422D01*
X76360164Y-72932533D01*
X76310369Y-72896355D01*
X76261208Y-72865465D01*
X76243554Y-72847811D01*
X76224915Y-72834269D01*
X76178833Y-72783090D01*
X76134535Y-72738792D01*
X76124345Y-72722575D01*
X76113053Y-72710034D01*
X76074420Y-72643120D01*
X76039225Y-72587107D01*
X76034830Y-72574547D01*
X76029464Y-72565253D01*
X76001980Y-72480667D01*
X75980058Y-72418017D01*
X75979226Y-72410639D01*
X75977804Y-72406261D01*
X75964908Y-72283565D01*
X75960000Y-72240000D01*
X75964908Y-72196438D01*
X75977804Y-72073738D01*
X75979226Y-72069358D01*
X75980058Y-72061983D01*
X76001975Y-71999345D01*
X76029464Y-71914746D01*
X76034831Y-71905449D01*
X76039225Y-71892893D01*
X76074413Y-71836890D01*
X76113053Y-71769965D01*
X76124347Y-71757421D01*
X76134535Y-71741208D01*
X76178826Y-71696916D01*
X76224917Y-71645728D01*
X76243559Y-71632183D01*
X76261208Y-71614535D01*
X76310354Y-71583654D01*
X76360162Y-71547467D01*
X76386873Y-71535574D01*
X76412893Y-71519225D01*
X76462877Y-71501734D01*
X76512889Y-71479468D01*
X76547592Y-71472091D01*
X76581983Y-71460058D01*
X76629281Y-71454728D01*
X76676412Y-71444711D01*
X76718189Y-71444711D01*
X76760000Y-71440000D01*
X76801811Y-71444711D01*
G37*
G36*
X92041811Y-71444711D02*
G01*
X92083588Y-71444711D01*
X92130718Y-71454728D01*
X92178017Y-71460058D01*
X92212408Y-71472092D01*
X92247110Y-71479468D01*
X92297117Y-71501733D01*
X92347107Y-71519225D01*
X92373128Y-71535575D01*
X92399835Y-71547466D01*
X92449633Y-71583646D01*
X92498792Y-71614535D01*
X92516444Y-71632187D01*
X92535084Y-71645730D01*
X92581165Y-71696908D01*
X92625465Y-71741208D01*
X92635654Y-71757424D01*
X92646946Y-71769965D01*
X92685573Y-71836870D01*
X92720775Y-71892893D01*
X92725170Y-71905453D01*
X92730535Y-71914746D01*
X92758010Y-71999305D01*
X92779942Y-72061983D01*
X92780773Y-72069363D01*
X92782195Y-72073738D01*
X92795076Y-72196306D01*
X92800000Y-72240000D01*
X92795076Y-72283697D01*
X92782195Y-72406261D01*
X92780773Y-72410635D01*
X92779942Y-72418017D01*
X92758005Y-72480707D01*
X92730535Y-72565253D01*
X92725171Y-72574543D01*
X92720775Y-72587107D01*
X92685566Y-72643140D01*
X92646946Y-72710034D01*
X92635656Y-72722572D01*
X92625465Y-72738792D01*
X92581155Y-72783101D01*
X92535084Y-72834269D01*
X92516448Y-72847808D01*
X92498792Y-72865465D01*
X92449623Y-72896359D01*
X92399835Y-72932533D01*
X92373134Y-72944421D01*
X92347107Y-72960775D01*
X92297107Y-72978270D01*
X92247110Y-73000531D01*
X92212414Y-73007905D01*
X92178017Y-73019942D01*
X92130715Y-73025271D01*
X92083588Y-73035289D01*
X92041811Y-73035289D01*
X92000000Y-73040000D01*
X91958189Y-73035289D01*
X91916412Y-73035289D01*
X91869284Y-73025271D01*
X91821983Y-73019942D01*
X91787586Y-73007906D01*
X91752889Y-73000531D01*
X91702887Y-72978268D01*
X91652893Y-72960775D01*
X91626868Y-72944422D01*
X91600164Y-72932533D01*
X91550369Y-72896355D01*
X91501208Y-72865465D01*
X91483554Y-72847811D01*
X91464915Y-72834269D01*
X91418833Y-72783090D01*
X91374535Y-72738792D01*
X91364345Y-72722575D01*
X91353053Y-72710034D01*
X91314420Y-72643120D01*
X91279225Y-72587107D01*
X91274830Y-72574547D01*
X91269464Y-72565253D01*
X91241980Y-72480667D01*
X91220058Y-72418017D01*
X91219226Y-72410639D01*
X91217804Y-72406261D01*
X91204908Y-72283565D01*
X91200000Y-72240000D01*
X91204908Y-72196438D01*
X91217804Y-72073738D01*
X91219226Y-72069358D01*
X91220058Y-72061983D01*
X91241975Y-71999345D01*
X91269464Y-71914746D01*
X91274831Y-71905449D01*
X91279225Y-71892893D01*
X91314413Y-71836890D01*
X91353053Y-71769965D01*
X91364347Y-71757421D01*
X91374535Y-71741208D01*
X91418826Y-71696916D01*
X91464917Y-71645728D01*
X91483559Y-71632183D01*
X91501208Y-71614535D01*
X91550354Y-71583654D01*
X91600162Y-71547467D01*
X91626873Y-71535574D01*
X91652893Y-71519225D01*
X91702877Y-71501734D01*
X91752889Y-71479468D01*
X91787592Y-71472091D01*
X91821983Y-71460058D01*
X91869281Y-71454728D01*
X91916412Y-71444711D01*
X91958189Y-71444711D01*
X92000000Y-71440000D01*
X92041811Y-71444711D01*
G37*
G36*
X70169561Y-70357105D02*
G01*
X70330619Y-70413462D01*
X70475099Y-70504244D01*
X70595756Y-70624901D01*
X70686538Y-70769381D01*
X70742895Y-70930439D01*
X70762000Y-71100000D01*
X70742895Y-71269561D01*
X70686538Y-71430619D01*
X70595756Y-71575099D01*
X70475099Y-71695756D01*
X70330619Y-71786538D01*
X70169561Y-71842895D01*
X70000000Y-71862000D01*
X69830439Y-71842895D01*
X69669381Y-71786538D01*
X69524901Y-71695756D01*
X69404244Y-71575099D01*
X69313462Y-71430619D01*
X69257105Y-71269561D01*
X69238000Y-71100000D01*
X69257105Y-70930439D01*
X69313462Y-70769381D01*
X69404244Y-70624901D01*
X69524901Y-70504244D01*
X69669381Y-70413462D01*
X69830439Y-70357105D01*
X70000000Y-70338000D01*
X70169561Y-70357105D01*
G37*
G36*
X105362000Y-71662000D02*
G01*
X103838000Y-71662000D01*
X103838000Y-70138000D01*
X105362000Y-70138000D01*
X105362000Y-71662000D01*
G37*
G36*
X76801811Y-68904711D02*
G01*
X76843588Y-68904711D01*
X76890718Y-68914728D01*
X76938017Y-68920058D01*
X76972408Y-68932092D01*
X77007110Y-68939468D01*
X77057117Y-68961733D01*
X77107107Y-68979225D01*
X77133128Y-68995575D01*
X77159835Y-69007466D01*
X77209633Y-69043646D01*
X77258792Y-69074535D01*
X77276444Y-69092187D01*
X77295084Y-69105730D01*
X77341165Y-69156908D01*
X77385465Y-69201208D01*
X77395654Y-69217424D01*
X77406946Y-69229965D01*
X77445573Y-69296870D01*
X77480775Y-69352893D01*
X77485170Y-69365453D01*
X77490535Y-69374746D01*
X77518010Y-69459305D01*
X77539942Y-69521983D01*
X77540773Y-69529363D01*
X77542195Y-69533738D01*
X77555076Y-69656306D01*
X77560000Y-69700000D01*
X77555076Y-69743697D01*
X77542195Y-69866261D01*
X77540773Y-69870635D01*
X77539942Y-69878017D01*
X77518005Y-69940707D01*
X77490535Y-70025253D01*
X77485171Y-70034543D01*
X77480775Y-70047107D01*
X77445566Y-70103140D01*
X77406946Y-70170034D01*
X77395656Y-70182572D01*
X77385465Y-70198792D01*
X77341155Y-70243101D01*
X77295084Y-70294269D01*
X77276448Y-70307808D01*
X77258792Y-70325465D01*
X77209623Y-70356359D01*
X77159835Y-70392533D01*
X77133134Y-70404421D01*
X77107107Y-70420775D01*
X77057107Y-70438270D01*
X77007110Y-70460531D01*
X76972414Y-70467905D01*
X76938017Y-70479942D01*
X76890715Y-70485271D01*
X76843588Y-70495289D01*
X76801811Y-70495289D01*
X76760000Y-70500000D01*
X76718189Y-70495289D01*
X76676412Y-70495289D01*
X76629284Y-70485271D01*
X76581983Y-70479942D01*
X76547586Y-70467906D01*
X76512889Y-70460531D01*
X76462887Y-70438268D01*
X76412893Y-70420775D01*
X76386868Y-70404422D01*
X76360164Y-70392533D01*
X76310369Y-70356355D01*
X76261208Y-70325465D01*
X76243554Y-70307811D01*
X76224915Y-70294269D01*
X76178833Y-70243090D01*
X76134535Y-70198792D01*
X76124345Y-70182575D01*
X76113053Y-70170034D01*
X76074420Y-70103120D01*
X76039225Y-70047107D01*
X76034830Y-70034547D01*
X76029464Y-70025253D01*
X76001980Y-69940667D01*
X75980058Y-69878017D01*
X75979226Y-69870639D01*
X75977804Y-69866261D01*
X75964908Y-69743565D01*
X75960000Y-69700000D01*
X75964908Y-69656438D01*
X75977804Y-69533738D01*
X75979226Y-69529358D01*
X75980058Y-69521983D01*
X76001975Y-69459345D01*
X76029464Y-69374746D01*
X76034831Y-69365449D01*
X76039225Y-69352893D01*
X76074413Y-69296890D01*
X76113053Y-69229965D01*
X76124347Y-69217421D01*
X76134535Y-69201208D01*
X76178826Y-69156916D01*
X76224917Y-69105728D01*
X76243559Y-69092183D01*
X76261208Y-69074535D01*
X76310354Y-69043654D01*
X76360162Y-69007467D01*
X76386873Y-68995574D01*
X76412893Y-68979225D01*
X76462877Y-68961734D01*
X76512889Y-68939468D01*
X76547592Y-68932091D01*
X76581983Y-68920058D01*
X76629281Y-68914728D01*
X76676412Y-68904711D01*
X76718189Y-68904711D01*
X76760000Y-68900000D01*
X76801811Y-68904711D01*
G37*
G36*
X92041811Y-68904711D02*
G01*
X92083588Y-68904711D01*
X92130718Y-68914728D01*
X92178017Y-68920058D01*
X92212408Y-68932092D01*
X92247110Y-68939468D01*
X92297117Y-68961733D01*
X92347107Y-68979225D01*
X92373128Y-68995575D01*
X92399835Y-69007466D01*
X92449633Y-69043646D01*
X92498792Y-69074535D01*
X92516444Y-69092187D01*
X92535084Y-69105730D01*
X92581165Y-69156908D01*
X92625465Y-69201208D01*
X92635654Y-69217424D01*
X92646946Y-69229965D01*
X92685573Y-69296870D01*
X92720775Y-69352893D01*
X92725170Y-69365453D01*
X92730535Y-69374746D01*
X92758010Y-69459305D01*
X92779942Y-69521983D01*
X92780773Y-69529363D01*
X92782195Y-69533738D01*
X92795076Y-69656306D01*
X92800000Y-69700000D01*
X92795076Y-69743697D01*
X92782195Y-69866261D01*
X92780773Y-69870635D01*
X92779942Y-69878017D01*
X92758005Y-69940707D01*
X92730535Y-70025253D01*
X92725171Y-70034543D01*
X92720775Y-70047107D01*
X92685566Y-70103140D01*
X92646946Y-70170034D01*
X92635656Y-70182572D01*
X92625465Y-70198792D01*
X92581155Y-70243101D01*
X92535084Y-70294269D01*
X92516448Y-70307808D01*
X92498792Y-70325465D01*
X92449623Y-70356359D01*
X92399835Y-70392533D01*
X92373134Y-70404421D01*
X92347107Y-70420775D01*
X92297107Y-70438270D01*
X92247110Y-70460531D01*
X92212414Y-70467905D01*
X92178017Y-70479942D01*
X92130715Y-70485271D01*
X92083588Y-70495289D01*
X92041811Y-70495289D01*
X92000000Y-70500000D01*
X91958189Y-70495289D01*
X91916412Y-70495289D01*
X91869284Y-70485271D01*
X91821983Y-70479942D01*
X91787586Y-70467906D01*
X91752889Y-70460531D01*
X91702887Y-70438268D01*
X91652893Y-70420775D01*
X91626868Y-70404422D01*
X91600164Y-70392533D01*
X91550369Y-70356355D01*
X91501208Y-70325465D01*
X91483554Y-70307811D01*
X91464915Y-70294269D01*
X91418833Y-70243090D01*
X91374535Y-70198792D01*
X91364345Y-70182575D01*
X91353053Y-70170034D01*
X91314420Y-70103120D01*
X91279225Y-70047107D01*
X91274830Y-70034547D01*
X91269464Y-70025253D01*
X91241980Y-69940667D01*
X91220058Y-69878017D01*
X91219226Y-69870639D01*
X91217804Y-69866261D01*
X91204908Y-69743565D01*
X91200000Y-69700000D01*
X91204908Y-69656438D01*
X91217804Y-69533738D01*
X91219226Y-69529358D01*
X91220058Y-69521983D01*
X91241975Y-69459345D01*
X91269464Y-69374746D01*
X91274831Y-69365449D01*
X91279225Y-69352893D01*
X91314413Y-69296890D01*
X91353053Y-69229965D01*
X91364347Y-69217421D01*
X91374535Y-69201208D01*
X91418826Y-69156916D01*
X91464917Y-69105728D01*
X91483559Y-69092183D01*
X91501208Y-69074535D01*
X91550354Y-69043654D01*
X91600162Y-69007467D01*
X91626873Y-68995574D01*
X91652893Y-68979225D01*
X91702877Y-68961734D01*
X91752889Y-68939468D01*
X91787592Y-68932091D01*
X91821983Y-68920058D01*
X91869281Y-68914728D01*
X91916412Y-68904711D01*
X91958189Y-68904711D01*
X92000000Y-68900000D01*
X92041811Y-68904711D01*
G37*
G36*
X70169561Y-67817105D02*
G01*
X70330619Y-67873462D01*
X70475099Y-67964244D01*
X70595756Y-68084901D01*
X70686538Y-68229381D01*
X70742895Y-68390439D01*
X70762000Y-68560000D01*
X70742895Y-68729561D01*
X70686538Y-68890619D01*
X70595756Y-69035099D01*
X70475099Y-69155756D01*
X70330619Y-69246538D01*
X70169561Y-69302895D01*
X70000000Y-69322000D01*
X69830439Y-69302895D01*
X69669381Y-69246538D01*
X69524901Y-69155756D01*
X69404244Y-69035099D01*
X69313462Y-68890619D01*
X69257105Y-68729561D01*
X69238000Y-68560000D01*
X69257105Y-68390439D01*
X69313462Y-68229381D01*
X69404244Y-68084901D01*
X69524901Y-67964244D01*
X69669381Y-67873462D01*
X69830439Y-67817105D01*
X70000000Y-67798000D01*
X70169561Y-67817105D01*
G37*
G36*
X76801811Y-66364711D02*
G01*
X76843588Y-66364711D01*
X76890718Y-66374728D01*
X76938017Y-66380058D01*
X76972408Y-66392092D01*
X77007110Y-66399468D01*
X77057117Y-66421733D01*
X77107107Y-66439225D01*
X77133128Y-66455575D01*
X77159835Y-66467466D01*
X77209633Y-66503646D01*
X77258792Y-66534535D01*
X77276444Y-66552187D01*
X77295084Y-66565730D01*
X77341165Y-66616908D01*
X77385465Y-66661208D01*
X77395654Y-66677424D01*
X77406946Y-66689965D01*
X77445573Y-66756870D01*
X77480775Y-66812893D01*
X77485170Y-66825453D01*
X77490535Y-66834746D01*
X77518010Y-66919305D01*
X77539942Y-66981983D01*
X77540773Y-66989363D01*
X77542195Y-66993738D01*
X77555076Y-67116306D01*
X77560000Y-67160000D01*
X77555076Y-67203697D01*
X77542195Y-67326261D01*
X77540773Y-67330635D01*
X77539942Y-67338017D01*
X77518005Y-67400707D01*
X77490535Y-67485253D01*
X77485171Y-67494543D01*
X77480775Y-67507107D01*
X77445566Y-67563140D01*
X77406946Y-67630034D01*
X77395656Y-67642572D01*
X77385465Y-67658792D01*
X77341155Y-67703101D01*
X77295084Y-67754269D01*
X77276448Y-67767808D01*
X77258792Y-67785465D01*
X77209623Y-67816359D01*
X77159835Y-67852533D01*
X77133134Y-67864421D01*
X77107107Y-67880775D01*
X77057107Y-67898270D01*
X77007110Y-67920531D01*
X76972414Y-67927905D01*
X76938017Y-67939942D01*
X76890715Y-67945271D01*
X76843588Y-67955289D01*
X76801811Y-67955289D01*
X76760000Y-67960000D01*
X76718189Y-67955289D01*
X76676412Y-67955289D01*
X76629284Y-67945271D01*
X76581983Y-67939942D01*
X76547586Y-67927906D01*
X76512889Y-67920531D01*
X76462887Y-67898268D01*
X76412893Y-67880775D01*
X76386868Y-67864422D01*
X76360164Y-67852533D01*
X76310369Y-67816355D01*
X76261208Y-67785465D01*
X76243554Y-67767811D01*
X76224915Y-67754269D01*
X76178833Y-67703090D01*
X76134535Y-67658792D01*
X76124345Y-67642575D01*
X76113053Y-67630034D01*
X76074420Y-67563120D01*
X76039225Y-67507107D01*
X76034830Y-67494547D01*
X76029464Y-67485253D01*
X76001980Y-67400667D01*
X75980058Y-67338017D01*
X75979226Y-67330639D01*
X75977804Y-67326261D01*
X75964908Y-67203565D01*
X75960000Y-67160000D01*
X75964908Y-67116438D01*
X75977804Y-66993738D01*
X75979226Y-66989358D01*
X75980058Y-66981983D01*
X76001975Y-66919345D01*
X76029464Y-66834746D01*
X76034831Y-66825449D01*
X76039225Y-66812893D01*
X76074413Y-66756890D01*
X76113053Y-66689965D01*
X76124347Y-66677421D01*
X76134535Y-66661208D01*
X76178826Y-66616916D01*
X76224917Y-66565728D01*
X76243559Y-66552183D01*
X76261208Y-66534535D01*
X76310354Y-66503654D01*
X76360162Y-66467467D01*
X76386873Y-66455574D01*
X76412893Y-66439225D01*
X76462877Y-66421734D01*
X76512889Y-66399468D01*
X76547592Y-66392091D01*
X76581983Y-66380058D01*
X76629281Y-66374728D01*
X76676412Y-66364711D01*
X76718189Y-66364711D01*
X76760000Y-66360000D01*
X76801811Y-66364711D01*
G37*
G36*
X92041811Y-66364711D02*
G01*
X92083588Y-66364711D01*
X92130718Y-66374728D01*
X92178017Y-66380058D01*
X92212408Y-66392092D01*
X92247110Y-66399468D01*
X92297117Y-66421733D01*
X92347107Y-66439225D01*
X92373128Y-66455575D01*
X92399835Y-66467466D01*
X92449633Y-66503646D01*
X92498792Y-66534535D01*
X92516444Y-66552187D01*
X92535084Y-66565730D01*
X92581165Y-66616908D01*
X92625465Y-66661208D01*
X92635654Y-66677424D01*
X92646946Y-66689965D01*
X92685573Y-66756870D01*
X92720775Y-66812893D01*
X92725170Y-66825453D01*
X92730535Y-66834746D01*
X92758010Y-66919305D01*
X92779942Y-66981983D01*
X92780773Y-66989363D01*
X92782195Y-66993738D01*
X92795076Y-67116306D01*
X92800000Y-67160000D01*
X92795076Y-67203697D01*
X92782195Y-67326261D01*
X92780773Y-67330635D01*
X92779942Y-67338017D01*
X92758005Y-67400707D01*
X92730535Y-67485253D01*
X92725171Y-67494543D01*
X92720775Y-67507107D01*
X92685566Y-67563140D01*
X92646946Y-67630034D01*
X92635656Y-67642572D01*
X92625465Y-67658792D01*
X92581155Y-67703101D01*
X92535084Y-67754269D01*
X92516448Y-67767808D01*
X92498792Y-67785465D01*
X92449623Y-67816359D01*
X92399835Y-67852533D01*
X92373134Y-67864421D01*
X92347107Y-67880775D01*
X92297107Y-67898270D01*
X92247110Y-67920531D01*
X92212414Y-67927905D01*
X92178017Y-67939942D01*
X92130715Y-67945271D01*
X92083588Y-67955289D01*
X92041811Y-67955289D01*
X92000000Y-67960000D01*
X91958189Y-67955289D01*
X91916412Y-67955289D01*
X91869284Y-67945271D01*
X91821983Y-67939942D01*
X91787586Y-67927906D01*
X91752889Y-67920531D01*
X91702887Y-67898268D01*
X91652893Y-67880775D01*
X91626868Y-67864422D01*
X91600164Y-67852533D01*
X91550369Y-67816355D01*
X91501208Y-67785465D01*
X91483554Y-67767811D01*
X91464915Y-67754269D01*
X91418833Y-67703090D01*
X91374535Y-67658792D01*
X91364345Y-67642575D01*
X91353053Y-67630034D01*
X91314420Y-67563120D01*
X91279225Y-67507107D01*
X91274830Y-67494547D01*
X91269464Y-67485253D01*
X91241980Y-67400667D01*
X91220058Y-67338017D01*
X91219226Y-67330639D01*
X91217804Y-67326261D01*
X91204908Y-67203565D01*
X91200000Y-67160000D01*
X91204908Y-67116438D01*
X91217804Y-66993738D01*
X91219226Y-66989358D01*
X91220058Y-66981983D01*
X91241975Y-66919345D01*
X91269464Y-66834746D01*
X91274831Y-66825449D01*
X91279225Y-66812893D01*
X91314413Y-66756890D01*
X91353053Y-66689965D01*
X91364347Y-66677421D01*
X91374535Y-66661208D01*
X91418826Y-66616916D01*
X91464917Y-66565728D01*
X91483559Y-66552183D01*
X91501208Y-66534535D01*
X91550354Y-66503654D01*
X91600162Y-66467467D01*
X91626873Y-66455574D01*
X91652893Y-66439225D01*
X91702877Y-66421734D01*
X91752889Y-66399468D01*
X91787592Y-66392091D01*
X91821983Y-66380058D01*
X91869281Y-66374728D01*
X91916412Y-66364711D01*
X91958189Y-66364711D01*
X92000000Y-66360000D01*
X92041811Y-66364711D01*
G37*
G36*
X70169561Y-65277105D02*
G01*
X70330619Y-65333462D01*
X70475099Y-65424244D01*
X70595756Y-65544901D01*
X70686538Y-65689381D01*
X70742895Y-65850439D01*
X70762000Y-66020000D01*
X70742895Y-66189561D01*
X70686538Y-66350619D01*
X70595756Y-66495099D01*
X70475099Y-66615756D01*
X70330619Y-66706538D01*
X70169561Y-66762895D01*
X70000000Y-66782000D01*
X69830439Y-66762895D01*
X69669381Y-66706538D01*
X69524901Y-66615756D01*
X69404244Y-66495099D01*
X69313462Y-66350619D01*
X69257105Y-66189561D01*
X69238000Y-66020000D01*
X69257105Y-65850439D01*
X69313462Y-65689381D01*
X69404244Y-65544901D01*
X69524901Y-65424244D01*
X69669381Y-65333462D01*
X69830439Y-65277105D01*
X70000000Y-65258000D01*
X70169561Y-65277105D01*
G37*
G36*
X104769561Y-64157105D02*
G01*
X104930619Y-64213462D01*
X105075099Y-64304244D01*
X105195756Y-64424901D01*
X105286538Y-64569381D01*
X105342895Y-64730439D01*
X105362000Y-64900000D01*
X105342895Y-65069561D01*
X105286538Y-65230619D01*
X105195756Y-65375099D01*
X105075099Y-65495756D01*
X104930619Y-65586538D01*
X104769561Y-65642895D01*
X104600000Y-65662000D01*
X104430439Y-65642895D01*
X104269381Y-65586538D01*
X104124901Y-65495756D01*
X104004244Y-65375099D01*
X103913462Y-65230619D01*
X103857105Y-65069561D01*
X103838000Y-64900000D01*
X103857105Y-64730439D01*
X103913462Y-64569381D01*
X104004244Y-64424901D01*
X104124901Y-64304244D01*
X104269381Y-64213462D01*
X104430439Y-64157105D01*
X104600000Y-64138000D01*
X104769561Y-64157105D01*
G37*
G36*
X76801811Y-63824711D02*
G01*
X76843588Y-63824711D01*
X76890718Y-63834728D01*
X76938017Y-63840058D01*
X76972408Y-63852092D01*
X77007110Y-63859468D01*
X77057117Y-63881733D01*
X77107107Y-63899225D01*
X77133128Y-63915575D01*
X77159835Y-63927466D01*
X77209633Y-63963646D01*
X77258792Y-63994535D01*
X77276444Y-64012187D01*
X77295084Y-64025730D01*
X77341165Y-64076908D01*
X77385465Y-64121208D01*
X77395654Y-64137424D01*
X77406946Y-64149965D01*
X77445573Y-64216870D01*
X77480775Y-64272893D01*
X77485170Y-64285453D01*
X77490535Y-64294746D01*
X77518010Y-64379305D01*
X77539942Y-64441983D01*
X77540773Y-64449363D01*
X77542195Y-64453738D01*
X77555076Y-64576306D01*
X77560000Y-64620000D01*
X77555076Y-64663697D01*
X77542195Y-64786261D01*
X77540773Y-64790635D01*
X77539942Y-64798017D01*
X77518005Y-64860707D01*
X77490535Y-64945253D01*
X77485171Y-64954543D01*
X77480775Y-64967107D01*
X77445566Y-65023140D01*
X77406946Y-65090034D01*
X77395656Y-65102572D01*
X77385465Y-65118792D01*
X77341155Y-65163101D01*
X77295084Y-65214269D01*
X77276448Y-65227808D01*
X77258792Y-65245465D01*
X77209623Y-65276359D01*
X77159835Y-65312533D01*
X77133134Y-65324421D01*
X77107107Y-65340775D01*
X77057107Y-65358270D01*
X77007110Y-65380531D01*
X76972414Y-65387905D01*
X76938017Y-65399942D01*
X76890715Y-65405271D01*
X76843588Y-65415289D01*
X76801811Y-65415289D01*
X76760000Y-65420000D01*
X76718189Y-65415289D01*
X76676412Y-65415289D01*
X76629284Y-65405271D01*
X76581983Y-65399942D01*
X76547586Y-65387906D01*
X76512889Y-65380531D01*
X76462887Y-65358268D01*
X76412893Y-65340775D01*
X76386868Y-65324422D01*
X76360164Y-65312533D01*
X76310369Y-65276355D01*
X76261208Y-65245465D01*
X76243554Y-65227811D01*
X76224915Y-65214269D01*
X76178833Y-65163090D01*
X76134535Y-65118792D01*
X76124345Y-65102575D01*
X76113053Y-65090034D01*
X76074420Y-65023120D01*
X76039225Y-64967107D01*
X76034830Y-64954547D01*
X76029464Y-64945253D01*
X76001980Y-64860667D01*
X75980058Y-64798017D01*
X75979226Y-64790639D01*
X75977804Y-64786261D01*
X75964908Y-64663565D01*
X75960000Y-64620000D01*
X75964908Y-64576438D01*
X75977804Y-64453738D01*
X75979226Y-64449358D01*
X75980058Y-64441983D01*
X76001975Y-64379345D01*
X76029464Y-64294746D01*
X76034831Y-64285449D01*
X76039225Y-64272893D01*
X76074413Y-64216890D01*
X76113053Y-64149965D01*
X76124347Y-64137421D01*
X76134535Y-64121208D01*
X76178826Y-64076916D01*
X76224917Y-64025728D01*
X76243559Y-64012183D01*
X76261208Y-63994535D01*
X76310354Y-63963654D01*
X76360162Y-63927467D01*
X76386873Y-63915574D01*
X76412893Y-63899225D01*
X76462877Y-63881734D01*
X76512889Y-63859468D01*
X76547592Y-63852091D01*
X76581983Y-63840058D01*
X76629281Y-63834728D01*
X76676412Y-63824711D01*
X76718189Y-63824711D01*
X76760000Y-63820000D01*
X76801811Y-63824711D01*
G37*
G36*
X89501811Y-63824711D02*
G01*
X89543588Y-63824711D01*
X89590718Y-63834728D01*
X89638017Y-63840058D01*
X89672408Y-63852092D01*
X89707110Y-63859468D01*
X89757117Y-63881733D01*
X89807107Y-63899225D01*
X89833128Y-63915575D01*
X89859835Y-63927466D01*
X89909633Y-63963646D01*
X89958792Y-63994535D01*
X89976444Y-64012187D01*
X89995084Y-64025730D01*
X90041165Y-64076908D01*
X90085465Y-64121208D01*
X90095654Y-64137424D01*
X90106946Y-64149965D01*
X90145573Y-64216870D01*
X90180775Y-64272893D01*
X90185170Y-64285453D01*
X90190535Y-64294746D01*
X90218010Y-64379305D01*
X90239942Y-64441983D01*
X90240773Y-64449363D01*
X90242195Y-64453738D01*
X90255076Y-64576306D01*
X90260000Y-64620000D01*
X90255076Y-64663697D01*
X90242195Y-64786261D01*
X90240773Y-64790635D01*
X90239942Y-64798017D01*
X90218005Y-64860707D01*
X90190535Y-64945253D01*
X90185171Y-64954543D01*
X90180775Y-64967107D01*
X90145566Y-65023140D01*
X90106946Y-65090034D01*
X90095656Y-65102572D01*
X90085465Y-65118792D01*
X90041155Y-65163101D01*
X89995084Y-65214269D01*
X89976448Y-65227808D01*
X89958792Y-65245465D01*
X89909623Y-65276359D01*
X89859835Y-65312533D01*
X89833134Y-65324421D01*
X89807107Y-65340775D01*
X89757107Y-65358270D01*
X89707110Y-65380531D01*
X89672414Y-65387905D01*
X89638017Y-65399942D01*
X89590715Y-65405271D01*
X89543588Y-65415289D01*
X89501811Y-65415289D01*
X89460000Y-65420000D01*
X89418189Y-65415289D01*
X89376412Y-65415289D01*
X89329284Y-65405271D01*
X89281983Y-65399942D01*
X89247586Y-65387906D01*
X89212889Y-65380531D01*
X89162887Y-65358268D01*
X89112893Y-65340775D01*
X89086868Y-65324422D01*
X89060164Y-65312533D01*
X89010369Y-65276355D01*
X88961208Y-65245465D01*
X88943554Y-65227811D01*
X88924915Y-65214269D01*
X88878833Y-65163090D01*
X88834535Y-65118792D01*
X88824345Y-65102575D01*
X88813053Y-65090034D01*
X88774420Y-65023120D01*
X88739225Y-64967107D01*
X88734830Y-64954547D01*
X88729464Y-64945253D01*
X88701980Y-64860667D01*
X88680058Y-64798017D01*
X88679226Y-64790639D01*
X88677804Y-64786261D01*
X88664908Y-64663565D01*
X88660000Y-64620000D01*
X88664908Y-64576438D01*
X88677804Y-64453738D01*
X88679226Y-64449358D01*
X88680058Y-64441983D01*
X88701975Y-64379345D01*
X88729464Y-64294746D01*
X88734831Y-64285449D01*
X88739225Y-64272893D01*
X88774413Y-64216890D01*
X88813053Y-64149965D01*
X88824347Y-64137421D01*
X88834535Y-64121208D01*
X88878826Y-64076916D01*
X88924917Y-64025728D01*
X88943559Y-64012183D01*
X88961208Y-63994535D01*
X89010354Y-63963654D01*
X89060162Y-63927467D01*
X89086873Y-63915574D01*
X89112893Y-63899225D01*
X89162877Y-63881734D01*
X89212889Y-63859468D01*
X89247592Y-63852091D01*
X89281983Y-63840058D01*
X89329281Y-63834728D01*
X89376412Y-63824711D01*
X89418189Y-63824711D01*
X89460000Y-63820000D01*
X89501811Y-63824711D01*
G37*
G36*
X92041811Y-63824711D02*
G01*
X92083588Y-63824711D01*
X92130718Y-63834728D01*
X92178017Y-63840058D01*
X92212408Y-63852092D01*
X92247110Y-63859468D01*
X92297117Y-63881733D01*
X92347107Y-63899225D01*
X92373128Y-63915575D01*
X92399835Y-63927466D01*
X92449633Y-63963646D01*
X92498792Y-63994535D01*
X92516444Y-64012187D01*
X92535084Y-64025730D01*
X92581165Y-64076908D01*
X92625465Y-64121208D01*
X92635654Y-64137424D01*
X92646946Y-64149965D01*
X92685573Y-64216870D01*
X92720775Y-64272893D01*
X92725170Y-64285453D01*
X92730535Y-64294746D01*
X92758010Y-64379305D01*
X92779942Y-64441983D01*
X92780773Y-64449363D01*
X92782195Y-64453738D01*
X92795076Y-64576306D01*
X92800000Y-64620000D01*
X92795076Y-64663697D01*
X92782195Y-64786261D01*
X92780773Y-64790635D01*
X92779942Y-64798017D01*
X92758005Y-64860707D01*
X92730535Y-64945253D01*
X92725171Y-64954543D01*
X92720775Y-64967107D01*
X92685566Y-65023140D01*
X92646946Y-65090034D01*
X92635656Y-65102572D01*
X92625465Y-65118792D01*
X92581155Y-65163101D01*
X92535084Y-65214269D01*
X92516448Y-65227808D01*
X92498792Y-65245465D01*
X92449623Y-65276359D01*
X92399835Y-65312533D01*
X92373134Y-65324421D01*
X92347107Y-65340775D01*
X92297107Y-65358270D01*
X92247110Y-65380531D01*
X92212414Y-65387905D01*
X92178017Y-65399942D01*
X92130715Y-65405271D01*
X92083588Y-65415289D01*
X92041811Y-65415289D01*
X92000000Y-65420000D01*
X91958189Y-65415289D01*
X91916412Y-65415289D01*
X91869284Y-65405271D01*
X91821983Y-65399942D01*
X91787586Y-65387906D01*
X91752889Y-65380531D01*
X91702887Y-65358268D01*
X91652893Y-65340775D01*
X91626868Y-65324422D01*
X91600164Y-65312533D01*
X91550369Y-65276355D01*
X91501208Y-65245465D01*
X91483554Y-65227811D01*
X91464915Y-65214269D01*
X91418833Y-65163090D01*
X91374535Y-65118792D01*
X91364345Y-65102575D01*
X91353053Y-65090034D01*
X91314420Y-65023120D01*
X91279225Y-64967107D01*
X91274830Y-64954547D01*
X91269464Y-64945253D01*
X91241980Y-64860667D01*
X91220058Y-64798017D01*
X91219226Y-64790639D01*
X91217804Y-64786261D01*
X91204908Y-64663565D01*
X91200000Y-64620000D01*
X91204908Y-64576438D01*
X91217804Y-64453738D01*
X91219226Y-64449358D01*
X91220058Y-64441983D01*
X91241975Y-64379345D01*
X91269464Y-64294746D01*
X91274831Y-64285449D01*
X91279225Y-64272893D01*
X91314413Y-64216890D01*
X91353053Y-64149965D01*
X91364347Y-64137421D01*
X91374535Y-64121208D01*
X91418826Y-64076916D01*
X91464917Y-64025728D01*
X91483559Y-64012183D01*
X91501208Y-63994535D01*
X91550354Y-63963654D01*
X91600162Y-63927467D01*
X91626873Y-63915574D01*
X91652893Y-63899225D01*
X91702877Y-63881734D01*
X91752889Y-63859468D01*
X91787592Y-63852091D01*
X91821983Y-63840058D01*
X91869281Y-63834728D01*
X91916412Y-63824711D01*
X91958189Y-63824711D01*
X92000000Y-63820000D01*
X92041811Y-63824711D01*
G37*
G36*
X70762000Y-64242000D02*
G01*
X69238000Y-64242000D01*
X69238000Y-62718000D01*
X70762000Y-62718000D01*
X70762000Y-64242000D01*
G37*
G36*
X76801811Y-61284711D02*
G01*
X76843588Y-61284711D01*
X76890718Y-61294728D01*
X76938017Y-61300058D01*
X76972408Y-61312092D01*
X77007110Y-61319468D01*
X77057117Y-61341733D01*
X77107107Y-61359225D01*
X77133128Y-61375575D01*
X77159835Y-61387466D01*
X77209633Y-61423646D01*
X77258792Y-61454535D01*
X77276444Y-61472187D01*
X77295084Y-61485730D01*
X77341165Y-61536908D01*
X77385465Y-61581208D01*
X77395654Y-61597424D01*
X77406946Y-61609965D01*
X77445573Y-61676870D01*
X77480775Y-61732893D01*
X77485170Y-61745453D01*
X77490535Y-61754746D01*
X77518010Y-61839305D01*
X77539942Y-61901983D01*
X77540773Y-61909363D01*
X77542195Y-61913738D01*
X77555076Y-62036306D01*
X77560000Y-62080000D01*
X77555076Y-62123697D01*
X77542195Y-62246261D01*
X77540773Y-62250635D01*
X77539942Y-62258017D01*
X77518005Y-62320707D01*
X77490535Y-62405253D01*
X77485171Y-62414543D01*
X77480775Y-62427107D01*
X77445566Y-62483140D01*
X77406946Y-62550034D01*
X77395656Y-62562572D01*
X77385465Y-62578792D01*
X77341155Y-62623101D01*
X77295084Y-62674269D01*
X77276448Y-62687808D01*
X77258792Y-62705465D01*
X77209623Y-62736359D01*
X77159835Y-62772533D01*
X77133134Y-62784421D01*
X77107107Y-62800775D01*
X77057107Y-62818270D01*
X77007110Y-62840531D01*
X76972414Y-62847905D01*
X76938017Y-62859942D01*
X76890715Y-62865271D01*
X76843588Y-62875289D01*
X76801811Y-62875289D01*
X76760000Y-62880000D01*
X76718189Y-62875289D01*
X76676412Y-62875289D01*
X76629284Y-62865271D01*
X76581983Y-62859942D01*
X76547586Y-62847906D01*
X76512889Y-62840531D01*
X76462887Y-62818268D01*
X76412893Y-62800775D01*
X76386868Y-62784422D01*
X76360164Y-62772533D01*
X76310369Y-62736355D01*
X76261208Y-62705465D01*
X76243554Y-62687811D01*
X76224915Y-62674269D01*
X76178833Y-62623090D01*
X76134535Y-62578792D01*
X76124345Y-62562575D01*
X76113053Y-62550034D01*
X76074420Y-62483120D01*
X76039225Y-62427107D01*
X76034830Y-62414547D01*
X76029464Y-62405253D01*
X76001980Y-62320667D01*
X75980058Y-62258017D01*
X75979226Y-62250639D01*
X75977804Y-62246261D01*
X75964908Y-62123565D01*
X75960000Y-62080000D01*
X75964908Y-62036438D01*
X75977804Y-61913738D01*
X75979226Y-61909358D01*
X75980058Y-61901983D01*
X76001975Y-61839345D01*
X76029464Y-61754746D01*
X76034831Y-61745449D01*
X76039225Y-61732893D01*
X76074413Y-61676890D01*
X76113053Y-61609965D01*
X76124347Y-61597421D01*
X76134535Y-61581208D01*
X76178826Y-61536916D01*
X76224917Y-61485728D01*
X76243559Y-61472183D01*
X76261208Y-61454535D01*
X76310354Y-61423654D01*
X76360162Y-61387467D01*
X76386873Y-61375574D01*
X76412893Y-61359225D01*
X76462877Y-61341734D01*
X76512889Y-61319468D01*
X76547592Y-61312091D01*
X76581983Y-61300058D01*
X76629281Y-61294728D01*
X76676412Y-61284711D01*
X76718189Y-61284711D01*
X76760000Y-61280000D01*
X76801811Y-61284711D01*
G37*
G36*
X92041811Y-61284711D02*
G01*
X92083588Y-61284711D01*
X92130718Y-61294728D01*
X92178017Y-61300058D01*
X92212408Y-61312092D01*
X92247110Y-61319468D01*
X92297117Y-61341733D01*
X92347107Y-61359225D01*
X92373128Y-61375575D01*
X92399835Y-61387466D01*
X92449633Y-61423646D01*
X92498792Y-61454535D01*
X92516444Y-61472187D01*
X92535084Y-61485730D01*
X92581165Y-61536908D01*
X92625465Y-61581208D01*
X92635654Y-61597424D01*
X92646946Y-61609965D01*
X92685573Y-61676870D01*
X92720775Y-61732893D01*
X92725170Y-61745453D01*
X92730535Y-61754746D01*
X92758010Y-61839305D01*
X92779942Y-61901983D01*
X92780773Y-61909363D01*
X92782195Y-61913738D01*
X92795076Y-62036306D01*
X92800000Y-62080000D01*
X92795076Y-62123697D01*
X92782195Y-62246261D01*
X92780773Y-62250635D01*
X92779942Y-62258017D01*
X92758005Y-62320707D01*
X92730535Y-62405253D01*
X92725171Y-62414543D01*
X92720775Y-62427107D01*
X92685566Y-62483140D01*
X92646946Y-62550034D01*
X92635656Y-62562572D01*
X92625465Y-62578792D01*
X92581155Y-62623101D01*
X92535084Y-62674269D01*
X92516448Y-62687808D01*
X92498792Y-62705465D01*
X92449623Y-62736359D01*
X92399835Y-62772533D01*
X92373134Y-62784421D01*
X92347107Y-62800775D01*
X92297107Y-62818270D01*
X92247110Y-62840531D01*
X92212414Y-62847905D01*
X92178017Y-62859942D01*
X92130715Y-62865271D01*
X92083588Y-62875289D01*
X92041811Y-62875289D01*
X92000000Y-62880000D01*
X91958189Y-62875289D01*
X91916412Y-62875289D01*
X91869284Y-62865271D01*
X91821983Y-62859942D01*
X91787586Y-62847906D01*
X91752889Y-62840531D01*
X91702887Y-62818268D01*
X91652893Y-62800775D01*
X91626868Y-62784422D01*
X91600164Y-62772533D01*
X91550369Y-62736355D01*
X91501208Y-62705465D01*
X91483554Y-62687811D01*
X91464915Y-62674269D01*
X91418833Y-62623090D01*
X91374535Y-62578792D01*
X91364345Y-62562575D01*
X91353053Y-62550034D01*
X91314420Y-62483120D01*
X91279225Y-62427107D01*
X91274830Y-62414547D01*
X91269464Y-62405253D01*
X91241980Y-62320667D01*
X91220058Y-62258017D01*
X91219226Y-62250639D01*
X91217804Y-62246261D01*
X91204908Y-62123565D01*
X91200000Y-62080000D01*
X91204908Y-62036438D01*
X91217804Y-61913738D01*
X91219226Y-61909358D01*
X91220058Y-61901983D01*
X91241975Y-61839345D01*
X91269464Y-61754746D01*
X91274831Y-61745449D01*
X91279225Y-61732893D01*
X91314413Y-61676890D01*
X91353053Y-61609965D01*
X91364347Y-61597421D01*
X91374535Y-61581208D01*
X91418826Y-61536916D01*
X91464917Y-61485728D01*
X91483559Y-61472183D01*
X91501208Y-61454535D01*
X91550354Y-61423654D01*
X91600162Y-61387467D01*
X91626873Y-61375574D01*
X91652893Y-61359225D01*
X91702877Y-61341734D01*
X91752889Y-61319468D01*
X91787592Y-61312091D01*
X91821983Y-61300058D01*
X91869281Y-61294728D01*
X91916412Y-61284711D01*
X91958189Y-61284711D01*
X92000000Y-61280000D01*
X92041811Y-61284711D01*
G37*
M02*
